<svg width="22" height="24" viewBox="0 0 22 24" fill="none" xmlns="http://www.w3.org/2000/svg">
<g clip-path="url(#clip0_529_2342)">
<path d="M19.25 1.5H2.75C1.50781 1.5 0.5 2.50781 0.5 3.75V20.25C0.5 21.4922 1.50781 22.5 2.75 22.5H19.25C20.4922 22.5 21.5 21.4922 21.5 20.25V3.75C21.5 2.50781 20.4922 1.5 19.25 1.5ZM11.9281 17.8781C11.9281 19.9219 10.7281 20.8547 8.97969 20.8547C7.4 20.8547 6.48594 20.0391 6.01719 19.05L7.625 18.0797C7.93437 18.6281 8.21563 19.0922 8.89531 19.0922C9.54219 19.0922 9.95469 18.8391 9.95469 17.85V11.1422H11.9281V17.8781ZM16.5969 20.8547C14.7641 20.8547 13.5781 19.9828 13.0016 18.8391L14.6094 17.9109C15.0312 18.6 15.5844 19.1109 16.5547 19.1109C17.3703 19.1109 17.8953 18.7031 17.8953 18.1359C17.8953 17.4609 17.3609 17.2219 16.4562 16.8234L15.9641 16.6125C14.5391 16.0078 13.5969 15.2437 13.5969 13.6359C13.5969 12.1547 14.7266 11.0297 16.4844 11.0297C17.7406 11.0297 18.6406 11.4656 19.2875 12.6094L17.75 13.5938C17.4125 12.9891 17.0469 12.75 16.4797 12.75C15.9031 12.75 15.5375 13.1156 15.5375 13.5938C15.5375 14.1844 15.9031 14.4234 16.7516 14.7938L17.2438 15.0047C18.9219 15.7219 19.8641 16.4578 19.8641 18.1078C19.8641 19.8797 18.4672 20.8547 16.5969 20.8547Z" fill="#018343"/>
</g>
<defs>
<clipPath id="clip0_529_2342">
<rect width="21" height="24" fill="white" transform="translate(0.5)"/>
</clipPath>
</defs>
</svg>
