<svg width="500" height="400" viewBox="0 0 500 400" fill="none" xmlns="http://www.w3.org/2000/svg">
<g clip-path="url(#clip0_91_1677)">
<path d="M378.194 109.091L382.337 118.297L371.75 115.305C353.706 129.482 334.926 125.124 329.633 121.979C317.511 115.765 304.777 101.036 314.673 85.3855C325.959 67.5374 353.261 74.7217 363.695 79.1714C369.065 80.9358 380.312 86.0299 382.337 92.29C384.362 98.55 380.419 106.099 378.194 109.091Z" stroke="#009D4A" stroke-width="3" stroke-linecap="round"/>
<path d="M332.395 86.9966H345.973" stroke="#009D4A" stroke-width="3" stroke-linecap="round"/>
<path d="M328.941 97.123H363.004" stroke="#009D4A" stroke-width="3" stroke-linecap="round"/>
<path d="M327.791 105.639L349.655 107.02" stroke="#009D4A" stroke-width="3" stroke-linecap="round"/>
<path d="M437.802 213.119C455.846 213.303 460.817 191.254 474.856 192.175C467.491 202.762 471.786 214.5 476.927 216.801C474.718 236.134 465.111 255.236 460.587 262.371C454.066 273.188 432.324 291.922 397.526 280.322C362.727 268.723 367.223 235.596 373.82 220.483C379.114 207.595 396.145 216.571 397.526 218.642C398.907 220.714 405.121 225.086 408.803 220.483C412.485 215.88 415.247 212.888 437.802 213.119Z" fill="#009D4A"/>
<path d="M420.08 252.704C423.916 253.778 432.232 254.085 434.81 246.72" stroke="white" stroke-width="3" stroke-linecap="round"/>
<path d="M402.819 189.183C402.819 197.477 396.296 204.143 388.32 204.143C380.343 204.143 373.82 197.477 373.82 189.183C373.82 180.889 380.343 174.223 388.32 174.223C396.296 174.223 402.819 180.889 402.819 189.183Z" stroke="#009D4A" stroke-width="3"/>
<path d="M447.008 190.104C447.008 198.381 440.398 205.063 432.278 205.063C424.159 205.063 417.549 198.381 417.549 190.104C417.549 181.826 424.159 175.144 432.278 175.144C440.398 175.144 447.008 181.826 447.008 190.104Z" stroke="#009D4A" stroke-width="3"/>
<path d="M391.312 196.087C392.965 196.087 394.304 194.542 394.304 192.635C394.304 190.728 392.965 189.183 391.312 189.183C389.66 189.183 388.32 190.728 388.32 192.635C388.32 194.542 389.66 196.087 391.312 196.087Z" fill="#009D4A"/>
<path d="M429.517 196.088C431.17 196.088 432.509 194.542 432.509 192.635C432.509 190.729 431.17 189.183 429.517 189.183C427.865 189.183 426.525 190.729 426.525 192.635C426.525 194.542 427.865 196.088 429.517 196.088Z" fill="#009D4A"/>
<path d="M401.67 182.739C404.686 181.002 412.406 178.571 419.161 182.739" stroke="#009D4A" stroke-width="3" stroke-linecap="round"/>
<path d="M448.16 186.191L483.143 185.04" stroke="#009D4A" stroke-width="3" stroke-linecap="round"/>
<path d="M482.221 197.468C482.911 199.463 483.878 204.281 482.221 207.595" stroke="#009D4A" stroke-width="3" stroke-linecap="round"/>
<path d="M476.238 189.873C476.699 188.953 489.992 181.387 493.292 196.499C495.17 205.086 491.548 219.868 479.691 221.174" stroke="#009D4A" stroke-width="3" stroke-linecap="round"/>
<path d="M403.1 189.643C403.945 194.553 404.297 205.708 398.958 211.047C392.283 217.722 401.029 228.308 410.005 220.944" stroke="#009D4A" stroke-width="3" stroke-linecap="round"/>
<path d="M379.575 219.563C377.81 216.801 375.34 209.574 379.575 202.762C384.868 194.246 394.764 168.009 395.455 156.041" stroke="#009D4A" stroke-width="3" stroke-linecap="round"/>
<path d="M398.906 144.534C402.819 134.868 416.536 115.765 440.103 116.686C463.67 117.607 474.934 127.656 477.617 132.566M477.617 132.566C479.767 140.468 482.312 161.335 475.316 181.588L486.593 186.191C489.277 174.684 491.242 147.848 477.617 132.566Z" stroke="#009D4A" stroke-width="3" stroke-linecap="round"/>
<path d="M475.088 182.278C462.535 149.569 418.841 143.316 398.908 144.739L370.6 145.224" stroke="#009D4A" stroke-width="3" stroke-linecap="round"/>
<path d="M373.13 191.024C361.7 192.942 336.583 191.669 335.846 170.311C334.926 143.613 379.344 137.86 396.145 155.581C412.946 173.303 470.484 185.731 478.079 183.659" stroke="#009D4A" stroke-width="3" stroke-linecap="round"/>
<path d="M360.932 239.125C361.009 243.805 362.128 254.223 365.995 258.458" stroke="#009D4A" stroke-width="3" stroke-linecap="round"/>
<path d="M392.463 182.327C393.307 180.102 396.329 175.791 401.669 176.343" stroke="#009D4A" stroke-width="3" stroke-linecap="round"/>
<path d="M427.445 182.47C429.363 180.936 434.35 178.788 438.953 182.47" stroke="#009D4A" stroke-width="3" stroke-linecap="round"/>
<path d="M465.421 252.704L470.024 268.355C473.016 278.941 422.383 305.409 420.081 292.29L418.01 280.092" stroke="#009D4A" stroke-width="3" stroke-linecap="round"/>
<path d="M151.727 303.107C162.038 298.504 167.07 307.787 168.298 313.003C182.659 305.454 189.165 272.88 190.622 257.537C207.009 270.978 227.369 263.138 235.502 257.537C255.887 243.498 250.922 228.366 238.263 218.872C230.899 213.349 228.29 207.672 226.986 203.452C223.381 209.053 220.312 218.872 210.645 224.396C205.85 227.136 191.083 227.42 183.258 229.229C141.831 238.803 144.976 282.47 151.727 303.107Z" fill="#009D4A"/>
<path d="M152.877 301.266C149.962 306.713 147.031 320.598 161.393 325.201C162.62 330.725 169.126 342.877 185.328 347.296C205.581 352.819 220.081 350.978 227.215 345.685C234.35 340.391 243.786 326.122 244.707 312.543" stroke="#009D4A" stroke-width="3" stroke-linecap="round"/>
<path d="M236.652 312.313L247.008 311.623C248.85 310.011 252.532 303.567 245.397 301.726C242.789 301.266 237.02 299.425 234.811 295.742" stroke="#009D4A" stroke-width="3" stroke-linecap="round"/>
<path d="M234.811 257.307C236.268 259.071 238.953 263.751 238.033 268.354" stroke="#009D4A" stroke-width="3" stroke-linecap="round"/>
<path d="M200.287 287.227C200.824 285.923 202.497 282.854 204.89 281.013" stroke="#009D4A" stroke-width="3" stroke-linecap="round"/>
<path d="M218.009 296.893C219.026 296.893 219.85 295.656 219.85 294.131C219.85 292.606 219.026 291.369 218.009 291.369C216.992 291.369 216.168 292.606 216.168 294.131C216.168 295.656 216.992 296.893 218.009 296.893Z" fill="#009D4A"/>
<path d="M244.247 284.925C245.264 284.925 246.089 283.688 246.089 282.163C246.089 280.638 245.264 279.401 244.247 279.401C243.231 279.401 242.406 280.638 242.406 282.163C242.406 283.688 243.231 284.925 244.247 284.925Z" fill="#009D4A"/>
<path d="M224.685 295.742C224.685 303.556 219.36 309.551 213.177 309.551C206.995 309.551 201.67 303.556 201.67 295.742C201.67 287.928 206.995 281.933 213.177 281.933C219.36 281.933 224.685 287.928 224.685 295.742Z" stroke="#009D4A" stroke-width="3"/>
<path d="M248.619 283.084C248.619 286.927 247.449 290.361 245.614 292.809C243.778 295.257 241.33 296.663 238.723 296.663C236.115 296.663 233.667 295.257 231.831 292.809C229.996 290.361 228.826 286.927 228.826 283.084C228.826 279.242 229.996 275.807 231.831 273.359C233.667 270.912 236.115 269.505 238.723 269.505C241.33 269.505 243.778 270.912 245.614 273.359C247.449 275.807 248.619 279.242 248.619 283.084Z" stroke="#009D4A" stroke-width="3"/>
<path d="M223.303 288.608L228.826 285.616" stroke="#009D4A" stroke-width="3" stroke-linecap="round"/>
<path d="M229.748 269.735C230.362 268.431 232.234 265.869 234.811 266.053" stroke="#009D4A" stroke-width="3" stroke-linecap="round"/>
<path d="M181.186 296.433L201.439 297.123" stroke="#009D4A" stroke-width="3" stroke-linecap="round"/>
<path d="M159.782 310.012C158.939 311.316 157.757 314.385 159.782 316.226" stroke="#009D4A" stroke-width="3" stroke-linecap="round"/>
<path d="M210.415 320.599C208.267 321.136 204.432 324.051 206.273 331.416" stroke="#009D4A" stroke-width="3" stroke-linecap="round"/>
<path d="M213.867 328.193C219.314 327.56 230.99 325.2 234.12 320.829" stroke="#009D4A" stroke-width="3" stroke-linecap="round"/>
<path d="M213.406 328.424C218.546 332.643 229.885 337.123 234.12 321.289" stroke="#009D4A" stroke-width="3" stroke-linecap="round"/>
<path d="M171.52 340.161C169.756 342.539 167.47 348.124 172.441 351.438C177.412 354.753 186.02 357.576 189.702 358.573C193.615 359.724 201.578 358.803 199.368 350.518" stroke="#009D4A" stroke-width="3" stroke-linecap="round"/>
<path d="M239.645 342.923C243.02 341.081 249.495 335.236 248.39 326.582" stroke="#009D4A" stroke-width="3" stroke-linecap="round"/>
<path d="M259.206 363.176L256.444 349.137L266.111 359.033C275.317 350.012 306.082 350.335 320.196 354.661C334.465 359.033 339.298 371.231 333.775 382.739C328.251 394.246 296.03 402.992 270.484 396.778C250.046 391.807 254.45 372.305 259.206 363.176Z" stroke="#009D4A" stroke-width="3" stroke-linecap="round"/>
<path d="M275.316 368.469L285.673 366.168" stroke="#009D4A" stroke-width="3" stroke-linecap="round"/>
<path d="M274.627 378.136L318.355 372.612" stroke="#009D4A" stroke-width="3" stroke-linecap="round"/>
<path d="M275.086 387.106L302.442 383.883" stroke="#009D4A" stroke-width="3" stroke-linecap="round"/>
<path d="M79.93 185.961V193.096C79.7767 195.474 81.3109 200.322 88.6757 200.691C97.8817 201.151 113.072 201.381 120.666 198.849C126.742 196.824 127.188 190.487 126.65 187.572" stroke="#009D4A" stroke-width="3" stroke-linecap="round"/>
<path d="M78.5389 186.421C65.6506 176.525 61.9682 167.089 57.8255 157.652C53.1953 156.859 50.7976 155.903 49.0798 154.891C47.8089 154.142 46.0878 152.589 45.3974 151.208C40.5468 141.507 43.7863 136.479 46.7783 133.947C50.6397 130.68 55.1097 130.127 73.7058 125.892C92.3019 121.657 106.77 100.498 111.68 90.4488C114.442 103.521 140.142 120.598 152.647 127.503C161.301 110.564 153.184 89.298 148.044 80.7825C124.293 44.1426 85.9806 50.0193 69.7932 57.5374C57.3652 36.8239 32.8926 46.1068 27.2156 50.1726C15.4012 59.0716 4.3387 80.8746 17.7794 113.464C31.2202 146.053 12.1791 158.956 0.978516 161.335C14.4193 188.216 57.6722 189.566 78.5389 186.421Z" fill="#009D4A"/>
<path d="M155.178 166.858C154.488 169.697 152.186 175.65 148.504 176.755" stroke="#009D4A" stroke-width="3" stroke-linecap="round"/>
<path d="M53.6829 138.78C52.7623 140.852 51.7956 145.547 55.2939 147.756" stroke="#009D4A" stroke-width="3" stroke-linecap="round"/>
<path d="M151.957 127.273C150.807 143.613 157.021 175.144 124.109 187.342C112.372 191.254 88.0218 192.221 75.3175 183.199C70.6377 180.13 60.588 171.692 57.8262 158.803" stroke="#009D4A" stroke-width="3" stroke-linecap="round"/>
<path d="M122.268 133.026C122.268 137.169 124.077 141.895 127.331 146.145C129.973 149.597 127.178 153.126 124.109 155.121" stroke="#009D4A" stroke-width="3" stroke-linecap="round"/>
<path d="M137.567 135.328C139.474 135.328 141.02 133.473 141.02 131.185C141.02 128.897 139.474 127.042 137.567 127.042C135.661 127.042 134.115 128.897 134.115 131.185C134.115 133.473 135.661 135.328 137.567 135.328Z" fill="#009D4A"/>
<path d="M105.808 138.55C107.714 138.55 109.26 136.695 109.26 134.407C109.26 132.119 107.714 130.265 105.808 130.265C103.901 130.265 102.355 132.119 102.355 134.407C102.355 136.695 103.901 138.55 105.808 138.55Z" fill="#009D4A"/>
<path d="M133.775 122.9C134.696 120.982 137.458 117.422 141.14 118.527" stroke="#009D4A" stroke-width="3" stroke-linecap="round"/>
<path d="M98.332 122.67C100.327 121.442 105.513 119.632 110.3 122.209" stroke="#009D4A" stroke-width="3" stroke-linecap="round"/>
<path d="M176.353 51.9236C173.131 56.9868 166.457 67.1134 165.536 67.1134L167.378 45.0192C163.005 40.4162 157.435 27.5278 170.139 12.7982C182.844 -1.93138 208.728 0.676987 220.082 3.82236C229.441 7.35131 244.432 19.4265 229.518 39.4956C214.604 59.5645 187.861 56.1431 176.353 51.9236Z" stroke="#009D4A" stroke-width="3" stroke-linecap="round"/>
<path d="M177.504 22.0945L191.083 19.793" stroke="#009D4A" stroke-width="3" stroke-linecap="round"/>
<path d="M179.574 31.5306L215.247 25.7769" stroke="#009D4A" stroke-width="3" stroke-linecap="round"/>
<path d="M183.486 41.8871L202.819 39.3555" stroke="#009D4A" stroke-width="3" stroke-linecap="round"/>
<path d="M107.648 162.716C109.259 167.089 112.251 171.231 121.457 170.081" stroke="#009D4A" stroke-width="3" stroke-linecap="round"/>
</g>
<defs>
<clipPath id="clip0_91_1677">
<rect width="498.044" height="400" fill="white" transform="translate(0.978516)"/>
</clipPath>
</defs>
</svg>
