<svg width="16" height="15" viewBox="0 0 16 15" fill="none" xmlns="http://www.w3.org/2000/svg">
<path d="M9.59333 0.991017L16 7.43102L9.59333 13.871C9.53547 13.947 9.46196 14.0097 9.37778 14.0548C9.29359 14.0999 9.2007 14.1264 9.10539 14.1324C9.01008 14.1385 8.91458 14.124 8.82534 14.09C8.73611 14.056 8.65523 14.0032 8.58818 13.9351C8.52114 13.8671 8.46948 13.7855 8.43672 13.6958C8.40396 13.6061 8.39086 13.5104 8.3983 13.4152C8.40575 13.32 8.43356 13.2275 8.47986 13.1439C8.52616 13.0604 8.58987 12.9878 8.66667 12.931L13.46 8.09768H0.706667C0.529857 8.09768 0.360288 8.02745 0.235264 7.90242C0.110239 7.7774 0.0400009 7.60783 0.0400009 7.43102C0.0400009 7.25421 0.110239 7.08464 0.235264 6.95961C0.360288 6.83459 0.529857 6.76435 0.706667 6.76435L13.46 6.76435L8.66667 1.93102C8.54202 1.80548 8.47234 1.63557 8.47296 1.45866C8.47359 1.28175 8.54446 1.11234 8.67 0.987683C8.79554 0.863031 8.96545 0.793354 9.14236 0.79398C9.31927 0.794604 9.48868 0.865481 9.61333 0.991017H9.59333Z" fill="#018343"/>
</svg>
