<svg width="16" height="15" viewBox="0 0 16 15" fill="none" xmlns="http://www.w3.org/2000/svg">
<path d="M6.40667 0.991017L0 7.43102L6.40667 13.871C6.46453 13.947 6.53804 14.0097 6.62222 14.0548C6.70641 14.0999 6.7993 14.1264 6.89461 14.1324C6.98992 14.1385 7.08542 14.124 7.17466 14.09C7.26389 14.056 7.34477 14.0032 7.41182 13.9351C7.47886 13.8671 7.53052 13.7855 7.56328 13.6958C7.59604 13.6061 7.60914 13.5104 7.6017 13.4152C7.59425 13.32 7.56644 13.2275 7.52014 13.1439C7.47384 13.0604 7.41013 12.9878 7.33333 12.931L2.54 8.09768H15.2933C15.4701 8.09768 15.6397 8.02745 15.7647 7.90242C15.8898 7.7774 15.96 7.60783 15.96 7.43102C15.96 7.25421 15.8898 7.08464 15.7647 6.95961C15.6397 6.83459 15.4701 6.76435 15.2933 6.76435L2.54 6.76435L7.33333 1.93102C7.45798 1.80548 7.52766 1.63557 7.52704 1.45866C7.52641 1.28175 7.45554 1.11234 7.33 0.987683C7.20446 0.863031 7.03455 0.793354 6.85764 0.79398C6.68073 0.794604 6.51132 0.865481 6.38667 0.991017H6.40667Z" fill="#018343"/>
</svg>
