<svg width="183" height="542" viewBox="0 0 183 542" fill="none" xmlns="http://www.w3.org/2000/svg">
<path fill-rule="evenodd" clip-rule="evenodd" d="M0 0H182.397V541.63H0V0Z" fill="#2F6F33"/>
<mask id="mask0_5001_4537" style="mask-type:alpha" maskUnits="userSpaceOnUse" x="0" y="0" width="183" height="542">
<path fill-rule="evenodd" clip-rule="evenodd" d="M0.353394 0H182.751V541.63H0.353394V0Z" fill="#2F6F33"/>
</mask>
<g mask="url(#mask0_5001_4537)">
<g clip-path="url(#clip0_5001_4537)">
<path d="M70.4536 -120.058L83.9711 -106.629C84.9053 -107.017 85.464 -107.239 86.0138 -107.48C89.6569 -109.065 93.2956 -109.132 96.9297 -107.449C98.7178 -106.616 98.7178 -106.607 100.059 -107.93C103.539 -111.386 107.014 -114.853 110.483 -118.33C110.618 -118.464 110.736 -118.614 110.836 -118.775C109.209 -124.922 107.591 -130.801 106.093 -136.734C105.159 -140.44 106.219 -143.754 108.807 -146.471C112.244 -150.074 115.802 -153.57 119.387 -157.036C122.253 -159.815 125.748 -160.679 129.597 -159.708C134.362 -158.519 139.096 -157.209 143.834 -155.918C147.799 -154.835 150.347 -152.252 151.433 -148.346C152.789 -143.565 154.072 -138.764 155.282 -133.941C156.225 -130.169 155.282 -126.815 152.555 -124.013C149.18 -120.561 145.689 -117.216 142.319 -113.769C139.279 -110.651 135.591 -109.863 131.528 -110.82C126.825 -111.925 122.177 -113.252 117.514 -114.526C116.486 -114.807 115.512 -115.257 114.667 -115.573L102.24 -103.133C102.687 -101.712 103.259 -100.064 103.733 -98.3891C104.538 -95.5652 103.755 -92.9284 102.593 -90.3718C102.169 -89.4498 101.936 -88.7416 102.781 -87.9176C106.889 -83.9089 110.961 -79.8335 115.051 -75.7892C115.283 -75.6446 115.527 -75.5209 115.78 -75.4195C116.674 -76.2524 117.675 -77.1343 118.596 -78.092C120.055 -79.7379 121.97 -80.9172 124.1 -81.4814C126.23 -82.0457 128.48 -81.9698 130.567 -81.2632C135.734 -79.8112 140.897 -78.3458 146.038 -76.8092C146.972 -76.5286 147.491 -76.9205 148.049 -77.4817C149.945 -79.3792 151.844 -81.2751 153.749 -83.1696L157.986 -87.3876C159.421 -88.8128 159.421 -88.8128 158.59 -90.6702C156.355 -95.6587 157.191 -100.95 160.825 -104.714C162.416 -106.375 164.435 -107.569 166.66 -108.165C168.886 -108.761 171.234 -108.735 173.446 -108.092C175.659 -107.448 177.651 -106.211 179.206 -104.515C180.76 -102.82 181.817 -100.731 182.261 -98.4776C182.705 -96.2241 182.519 -93.8923 181.723 -91.7371C180.927 -89.5819 179.551 -87.6861 177.747 -86.257C175.943 -84.8278 173.779 -83.9202 171.493 -83.6334C169.206 -83.3466 166.884 -83.6915 164.781 -84.6305C164.092 -84.9334 163.413 -85.2674 162.993 -85.4723L150.526 -73.2593C152.09 -67.567 153.655 -61.9817 155.166 -56.3829C156.323 -52.0981 155.286 -48.3656 152.108 -45.2478C149.051 -42.2324 145.962 -39.2437 143.007 -36.1259C140.607 -33.5871 137.773 -32.1974 134.282 -32.1173C133.91 -32.0721 133.542 -31.9977 133.182 -31.8946C133.137 -31.0795 133.057 -30.2644 133.057 -29.4493C133.057 -21.2568 133.057 -13.0658 133.057 -4.87628C133.057 -2.43545 133.057 -2.42656 135.426 -1.75845C139.252 -0.685023 143.088 0.375035 147.178 1.51528C147.625 1.12331 148.233 0.575475 148.823 -0.00800541C151.925 -3.08723 155.023 -6.17094 158.116 -9.25907C159.457 -10.5953 159.457 -10.6265 158.648 -12.3769C155.014 -20.1715 159.452 -28.7277 167.932 -30.2733C170.608 -30.723 173.358 -30.2849 175.759 -29.0261C176.707 -28.5807 177.4 -28.4872 178.209 -29.3068C181.865 -33.0214 185.571 -36.6916 189.254 -40.384C189.353 -40.482 189.384 -40.6512 189.357 -40.5888C187.788 -46.3479 186.228 -51.9288 184.757 -57.5409C183.658 -61.7767 184.489 -65.5582 187.712 -68.7162C191.056 -71.9899 194.341 -75.3171 197.671 -78.6042C200.505 -81.4058 203.929 -82.4658 207.796 -81.5216C212.794 -80.3056 217.778 -79.0317 222.704 -77.5842C224.425 -77.1366 225.996 -76.2419 227.256 -74.9914C228.517 -73.741 229.421 -72.1795 229.878 -70.4666C231.277 -65.536 232.627 -60.5875 233.839 -55.6079C234.733 -51.9378 233.749 -48.6373 231.157 -45.858C230.017 -44.6331 228.823 -43.4661 227.554 -42.17C228.103 -41.5331 228.51 -40.9986 228.984 -40.5309C232.506 -37.0033 236.036 -33.4832 239.574 -29.9704C241.134 -28.4115 241.129 -28.3803 243.083 -29.2756C245.461 -30.3955 248.13 -30.7506 250.721 -30.2917C253.311 -29.8328 255.693 -28.5827 257.539 -26.7145C259.335 -24.8012 260.5 -22.3855 260.876 -19.7926C261.253 -17.1997 260.823 -14.5541 259.644 -12.2121C257.324 -7.54425 251.875 -4.76939 246.569 -5.56221C243.968 -5.95302 241.557 -7.15054 239.677 -8.98474C237.798 -10.8189 236.546 -13.1965 236.1 -15.7798C235.603 -18.585 236.059 -21.4754 237.397 -23.993C237.567 -24.3226 237.701 -24.6745 237.75 -24.7814L223.942 -38.5444C223.048 -37.7026 221.944 -36.7005 220.907 -35.6181C219.293 -33.8388 217.084 -32.7053 214.693 -32.429C213.565 -32.2372 212.412 -32.2462 211.287 -32.4557C205.476 -33.9478 199.741 -35.5736 193.988 -37.1681C193.246 -37.373 192.687 -37.4398 192.106 -36.8697C188.235 -33.0526 184.351 -29.2488 180.435 -25.4005C180.801 -24.5543 181.061 -23.9352 181.329 -23.3205C185.432 -14.2387 178.508 -4.54667 168.567 -5.56664C167.002 -5.72254 165.469 -6.38619 163.976 -6.95631C163.18 -7.26363 162.55 -7.44627 161.902 -6.76925C161.37 -6.21694 160.807 -5.69582 160.261 -5.15243L150.499 4.59304C152.068 10.3521 153.525 15.8885 155.09 21.3937C156.386 25.9636 155.322 29.8297 151.911 33.1079C150.986 33.9987 150.123 34.9429 149.086 36.003C149.784 36.7557 150.325 37.3748 150.906 37.9583C154.321 41.3761 157.748 44.7908 161.187 48.2026C162.398 49.4052 162.344 49.962 164.714 48.8707C167.167 47.7211 169.93 47.3993 172.583 47.9538C175.237 48.5083 177.637 49.9091 179.42 51.944C181.304 54.0721 182.408 56.7744 182.55 59.6087C182.693 62.4429 181.866 65.2415 180.204 67.5466C178.543 69.8516 176.146 71.5267 173.405 72.2978C170.664 73.0688 167.742 72.8903 165.116 71.7913C164.414 71.4973 163.726 71.1811 163.163 70.9316L150.704 83.4653C152.117 88.6409 153.601 94.155 155.13 99.6781C156.368 104.132 155.394 107.954 152.037 111.205C148.845 114.299 145.697 117.441 142.591 120.63C139.386 123.913 135.573 124.839 131.206 123.676C125.654 122.202 120.116 120.679 114.35 119.116C113.773 119.654 113.035 120.309 112.338 121.004C109.45 123.868 106.581 126.741 103.697 129.609C101.798 131.502 102.137 131.56 102.933 133.337C106.062 140.335 102.356 147.915 95.9552 150.138C91.2706 151.768 86.8006 151.149 83.0502 147.742C79.2998 144.334 78.2136 139.889 79.4742 134.967C79.8178 133.835 80.2222 132.721 80.6855 131.631L66.9625 117.9C66.2338 118.586 65.3041 119.361 64.495 120.242C61.0754 123.988 56.9272 124.897 52.1308 123.552C47.6965 122.309 43.2354 121.169 38.8056 119.917C37.0777 119.477 35.4995 118.584 34.2348 117.331C32.9701 116.078 32.065 114.51 31.6133 112.791C30.165 107.891 28.8151 102.93 27.6215 97.9499C26.7275 94.2085 27.6886 90.8234 30.4019 88.0129C31.5105 86.8593 32.6369 85.728 33.6337 84.7125C28.9268 80.0802 24.3673 75.6262 19.6559 70.9762C17.144 72.3925 14.2419 72.9672 11.3774 72.6153C5.34725 71.9961 0.832496 66.923 0.506172 60.8966C0.15751 54.4516 4.55604 48.3808 12.3786 47.6815C14.5413 47.5107 16.7057 47.9901 18.592 49.0578C19.8437 49.7482 20.6572 49.4676 21.6004 48.501C24.8128 45.205 28.07 41.9566 31.3719 38.7556C32.2883 37.8648 32.4849 37.1298 32.0648 35.7714C30.3795 30.2973 28.7748 24.7788 27.4874 19.1934C26.6918 15.737 27.8227 12.5123 30.308 9.89779C31.4077 8.73083 32.5654 7.62623 33.6561 6.53498C32.8649 4.95379 22.2664 -5.78937 20.018 -7.33494C14.2293 -4.42644 8.57017 -4.46207 3.84086 -9.39271C-0.629197 -14.0383 -0.276047 -19.4499 2.24953 -24.8171L-11.5048 -38.3975C-12.1485 -37.7962 -13.056 -37.0123 -13.8963 -36.1704C-15.7737 -34.2775 -17.8836 -32.7319 -20.6014 -32.4781C-22.1901 -32.2822 -23.8006 -32.3515 -25.3665 -32.6829C-30.7305 -34.0191 -36.0231 -35.5558 -41.329 -37.0746C-42.1694 -37.3152 -42.7818 -37.2839 -43.4076 -36.6604C-46.9837 -33.0971 -50.5597 -29.4983 -54.176 -25.9707C-55.07 -25.0799 -54.6006 -24.3672 -54.2162 -23.5031C-52.0482 -18.666 -52.5802 -14.1051 -55.8344 -9.91829C-58.7757 -6.12788 -64.3632 -4.5289 -69.1686 -6.00319C-74.1571 -7.53537 -77.5901 -11.7133 -77.9477 -16.6929C-78.4663 -23.9396 -74.1884 -29.3112 -66.9872 -30.4336C-64.3767 -30.839 -61.9628 -30.1575 -59.625 -29.0974C-59.2138 -28.9104 -58.7891 -28.7634 -58.6058 -28.6921L-46.1522 -41.0343C-47.6452 -46.4637 -49.1829 -51.9779 -50.6804 -57.5142C-51.8605 -61.8659 -50.9173 -65.6785 -47.6765 -68.8899C-44.4357 -72.1013 -41.1726 -75.3305 -37.8782 -78.5596C-34.919 -81.4726 -31.3966 -82.5683 -27.3288 -81.526C-22.4118 -80.2611 -17.5216 -78.9917 -12.6626 -77.5753C-9.01057 -76.5108 -6.59227 -74.012 -5.55519 -70.3731C-4.16948 -65.5182 -2.79719 -60.6544 -1.6439 -55.746C-1.21559 -54.1036 -1.1978 -52.3816 -1.59211 -50.7308C-1.98643 -49.08 -2.78084 -47.5507 -3.90574 -46.2767C-5.09031 -44.8959 -6.3777 -43.6042 -7.83046 -42.032C-3.28444 -37.4487 1.1946 -32.9902 5.76297 -28.505C11.6903 -31.507 17.3494 -31.4581 21.9982 -26.6744C26.4683 -22.0734 26.6381 -16.5905 23.7281 -11.2411L37.5585 2.44171C38.6983 2.05867 39.4895 0.660106 40.5623 -0.364338C42.4621 -2.18604 44.6256 -3.34856 47.2674 -3.54898C48.0944 -3.61135 48.9124 -3.70934 49.8601 -3.80287L49.8601 -33.2798C49.118 -33.5381 48.3537 -33.8499 47.5669 -34.0681C44.9788 -34.7852 42.3861 -35.489 39.7845 -36.1571C35.3949 -37.2795 32.5207 -39.8762 31.3764 -44.3436C30.2946 -48.566 29.1056 -52.7618 27.9121 -56.953C26.5711 -61.7456 27.5098 -65.8834 31.2736 -69.264C32.1318 -70.0301 33.0616 -70.6982 34.1612 -71.5623C33.2672 -72.5823 32.7621 -73.2192 32.1899 -73.7893C28.6705 -77.317 25.1422 -80.8371 21.6049 -84.3499C20.2638 -85.6861 20.2638 -85.6861 18.4758 -84.8755C16.1414 -83.7584 13.5199 -83.3795 10.9631 -83.7895C8.40629 -84.1995 6.03649 -85.3789 4.17165 -87.1693C0.077078 -91.0265 -0.32969 -97.5161 1.65499 -101.605C2.79818 -103.967 4.65624 -105.912 6.96737 -107.166C9.2785 -108.42 11.9262 -108.92 14.5376 -108.595C17.1489 -108.27 19.5922 -107.137 21.5233 -105.356C23.4544 -103.575 24.7759 -101.235 25.3016 -98.6652C25.8226 -96.2578 25.5789 -93.7485 24.6043 -91.4853C24.2869 -90.7103 23.9606 -89.9397 23.6387 -89.1692L37.4512 -75.6155C38.2379 -76.3415 39.2392 -77.1566 40.084 -78.0742C41.9346 -80.0384 44.1071 -81.4236 46.8115 -81.722C47.9431 -81.9118 49.0997 -81.8982 50.2266 -81.6819C55.9393 -80.1972 61.6297 -78.6264 67.2977 -76.9695C68.2633 -76.6889 68.8757 -76.8136 69.5328 -77.4862C72.9926 -80.9663 76.4673 -84.4315 79.9569 -87.8819C80.614 -88.5322 80.9448 -89.1291 80.4531 -90.109C78.2896 -94.3047 78.4505 -98.496 80.614 -102.652C80.6787 -102.812 80.7164 -102.982 80.7258 -103.155C76.2155 -107.662 71.7857 -112.094 67.119 -116.762C66.2249 -115.938 65.246 -115.034 64.2939 -114.09C60.9458 -110.771 57.0121 -109.738 52.4616 -111.016C51.6481 -111.243 50.8211 -111.422 50.0031 -111.635C46.5224 -112.553 43.0387 -113.476 39.5521 -114.406C35.3637 -115.528 32.5565 -118.054 31.4256 -122.321C30.2097 -126.899 28.9223 -131.465 27.7199 -136.053C26.6113 -140.262 27.6662 -143.905 30.755 -146.978C34.0331 -150.221 37.2903 -153.471 40.5266 -156.728C43.6243 -159.846 47.3121 -160.759 51.5229 -159.659C56.0511 -158.474 60.5614 -157.231 65.0895 -156.029C69.3361 -154.902 71.9734 -152.19 73.0999 -148.012C74.2532 -143.727 75.3662 -139.433 76.5239 -135.153C77.7889 -130.454 76.7921 -126.387 73.2116 -122.998C72.3981 -122.183 71.6381 -121.319 70.4536 -120.058ZM102.035 52.9417C105.137 60.6962 104.211 66.2549 99.3525 70.0631C97.1796 71.7357 94.5266 72.6717 91.7816 72.7342C89.0366 72.7967 86.3435 71.9824 84.0962 70.4105C81.9368 68.9041 80.3396 66.7268 79.5546 64.2194C78.3388 60.3533 78.9914 56.6698 80.9984 53.0397C76.3585 48.4565 71.9242 43.8599 67.1681 39.348C65.8047 40.6842 64.6827 41.8467 63.5295 42.9602C60.9145 45.4812 57.7184 46.5813 54.2228 45.793C48.6934 44.5414 43.2175 43.0092 37.8043 41.3389C36.1727 40.8312 35.2832 41.134 34.2283 42.2297C31.0992 45.4099 27.93 48.5144 24.783 51.6545C23.4733 52.9551 23.442 52.9907 24.3092 54.8035C25.1392 56.4942 25.5744 58.3502 25.5821 60.2323C25.5899 62.1145 25.17 63.9739 24.3539 65.6714C24.1081 66.2192 23.9069 66.7805 23.679 67.2749C25.914 70.2413 36.0163 80.0312 37.6344 80.7573C38.6849 79.7284 39.7711 78.6594 40.8663 77.5993C42.1427 76.3041 43.7386 75.3663 45.4938 74.88C47.2489 74.3937 49.1016 74.3761 50.8658 74.8289C55.7829 75.9424 60.6731 77.3365 65.5455 78.7129C69.3897 79.7996 71.893 82.3251 72.9568 86.1823C74.204 90.6764 75.4466 95.1706 76.6044 99.6914C77.7621 104.212 76.9173 108.154 73.377 111.423C72.4383 112.283 71.589 113.254 70.7754 114.118L84.3107 127.48C86.6843 126.959 89.0356 126.278 91.4316 125.966C94.0197 125.627 96.3486 126.888 98.3959 127.747L110.805 115.628C109.187 109.441 107.488 103.415 106.067 97.3219C105.271 93.9234 106.25 90.7655 108.708 88.2312C112.231 84.6011 115.829 81.0423 119.436 77.5014C120.375 76.5335 121.509 75.7745 122.763 75.274C124.018 74.7735 125.364 74.5429 126.714 74.5973C128.013 74.6198 129.305 74.7871 130.567 75.0962C135.538 76.4012 140.517 77.6929 145.412 79.2384C146.784 79.6838 147.508 79.4478 148.402 78.5436C151.688 75.2164 155.023 71.9338 158.33 68.6244C158.701 68.2548 159.014 67.8227 159.457 67.2882C156.636 62.5358 156.775 57.712 159.457 52.9774L145.702 39.3346C144.335 40.6708 143.199 41.8022 142.05 42.8978C139.368 45.4856 136.092 46.5591 132.525 45.7217C126.928 44.4122 121.39 42.8266 115.883 41.1741C114.631 40.8 113.929 40.9247 113.076 41.8021C110.394 44.5503 107.667 47.2361 104.953 49.9486L102.035 52.9417ZM54.7592 -32.0772C54.6291 -31.6482 54.5378 -31.2084 54.4866 -30.7632C54.4866 -21.8818 54.4866 -13.0049 54.4553 -4.12355C54.4553 -2.94322 54.947 -2.34192 56.1137 -2.03459C59.2427 -1.24623 62.3449 -0.39995 65.4427 0.477491C69.193 1.53755 71.741 3.90265 72.8495 7.65295C73.7212 10.5882 74.4811 13.5501 75.2813 16.5032C75.9115 18.846 75.9071 18.8772 78.4103 18.8772C86.6292 18.895 94.8511 18.895 103.076 18.8772C103.894 18.8772 104.708 18.7391 105.602 18.6634C105.678 17.8661 105.722 17.2693 105.794 16.6724C106.125 14.0267 106.983 11.6349 108.945 9.70181C112.387 6.31674 115.798 2.89157 119.226 -0.515775C121.071 -2.40405 123.579 -3.50708 126.222 -3.5935C126.951 -3.62915 127.67 -3.77168 128.354 -3.8563C128.438 -4.24275 128.498 -4.63397 128.533 -5.02772C128.533 -13.9091 128.533 -22.786 128.578 -31.6674C128.578 -32.968 128.055 -33.6004 126.812 -33.8944C123.835 -34.6293 120.871 -35.4444 117.903 -36.2328C113.88 -37.3018 111.158 -39.796 109.973 -43.8047C109.133 -46.6642 108.382 -49.5549 107.636 -52.4411C107.005 -54.873 107.032 -54.9131 104.596 -54.9175C96.219 -54.9354 87.8436 -54.9354 79.4697 -54.9175C78.7316 -54.8781 77.9961 -54.8008 77.266 -54.6859C77.1606 -54.2466 77.0888 -53.7999 77.0514 -53.3497C77.1497 -49.8889 75.6433 -47.2031 73.1803 -44.887C70.0692 -41.9176 67.0266 -38.8874 64.0525 -35.7963C62.0809 -33.7184 59.3969 -32.4559 56.5338 -32.2598C55.993 -32.1618 55.4834 -32.1351 54.7592 -32.0772ZM77.704 23.4604C76.9173 26.0615 76.5954 28.489 75.469 30.4666C74.3068 32.5288 72.3757 34.159 70.7888 35.9673C70.8762 36.2153 70.9965 36.4505 71.1464 36.6666C75.2008 40.7332 79.2775 44.7819 83.3139 48.8663C84.132 49.6947 84.8204 49.5388 85.7546 49.0756C87.3234 48.2596 89.0505 47.7906 90.8179 47.7007C92.5853 47.6107 94.3514 47.902 95.9955 48.5545C96.8895 48.9064 97.7835 49.3384 98.302 49.57L110.818 37.1744C109.759 33.3929 108.655 29.5045 107.582 25.5939C106.969 23.3668 106.987 23.3668 104.618 23.3668C96.2532 23.3668 87.8883 23.3668 79.5233 23.3668C78.8618 23.3802 78.1778 23.4381 77.704 23.4604ZM72.036 -73.4686C73.158 -69.3976 74.2084 -65.5716 75.2634 -61.75C75.8981 -59.4518 75.9026 -59.4339 78.1868 -59.4295C86.6352 -59.4295 95.0851 -59.4295 103.536 -59.4295C104.207 -59.4295 104.877 -59.5364 105.494 -59.5898C105.603 -59.8594 105.681 -60.1403 105.727 -60.4272C105.794 -64.2577 107.358 -67.3532 110.282 -69.8252C110.976 -70.4758 111.629 -71.1674 112.24 -71.8964C112.088 -72.1727 111.915 -72.4363 111.721 -72.6847C107.72 -76.6934 103.675 -80.702 99.7101 -84.7419C98.91 -85.5569 98.235 -85.5169 97.2784 -85.0358C93.4654 -83.1028 89.5765 -83.0538 85.7725 -85.0047C84.4583 -85.6772 83.7118 -85.3387 82.7909 -84.3945C79.6306 -81.1519 76.3988 -77.9895 73.2027 -74.787C72.7244 -74.3105 72.3042 -73.7715 72.036 -73.4686Z" fill="#086017"/>
</g>
<g clip-path="url(#clip1_5001_4537)">
<path d="M112.546 634.058L99.029 620.629C98.0947 621.017 97.536 621.239 96.9862 621.48C93.3431 623.065 89.7044 623.132 86.0703 621.449C84.2823 620.616 84.2823 620.607 82.9413 621.93C79.4606 625.386 75.9859 628.853 72.5171 632.33C72.3824 632.464 72.2638 632.614 72.164 632.775C73.791 638.922 75.4092 644.801 76.9067 650.734C77.8409 654.44 76.7815 657.754 74.1934 660.471C70.7559 664.074 67.1977 667.57 63.6127 671.035C60.7474 673.815 57.2518 674.679 53.4031 673.708C48.6381 672.519 43.9043 671.209 39.166 669.918C35.2011 668.835 32.6531 666.252 31.5669 662.346C30.211 657.565 28.9281 652.764 27.7182 647.941C26.775 644.169 27.7182 640.815 30.4449 638.013C33.8198 634.561 37.3109 631.216 40.6814 627.769C43.721 624.651 47.4088 623.863 51.4721 624.82C56.1746 625.925 60.8234 627.252 65.4857 628.526C66.5138 628.807 67.4883 629.257 68.3331 629.573L80.7599 617.133C80.3129 615.712 79.7407 614.064 79.2669 612.389C78.4623 609.565 79.2445 606.928 80.4067 604.372C80.8314 603.45 81.0638 602.742 80.219 601.918C76.111 597.909 72.0388 593.833 67.9487 589.789C67.7173 589.645 67.4735 589.521 67.2201 589.419C66.3261 590.252 65.3248 591.134 64.4039 592.092C62.9448 593.738 61.0298 594.917 58.8998 595.481C56.7698 596.046 54.52 595.97 52.4331 595.263C47.2658 593.811 42.1028 592.346 36.9623 590.809C36.028 590.529 35.5095 590.921 34.9507 591.482C33.0554 593.379 31.1557 595.275 29.2514 597.17L25.0138 601.388C23.5789 602.813 23.5789 602.813 24.4104 604.67C26.6454 609.659 25.8095 614.95 22.1753 618.714C20.5843 620.375 18.5655 621.569 16.3396 622.165C14.1137 622.761 11.7663 622.735 9.55383 622.092C7.34139 621.448 5.34905 620.211 3.79449 618.515C2.23994 616.82 1.18297 614.731 0.739067 612.478C0.295166 610.224 0.4814 607.892 1.27744 605.737C2.07349 603.582 3.44871 601.686 5.25285 600.257C7.05698 598.828 9.22062 597.92 11.5074 597.633C13.7941 597.347 16.116 597.691 18.2193 598.63C18.9077 598.933 19.5872 599.267 20.0074 599.472L32.4743 587.259C30.9098 581.567 29.3453 575.982 27.8344 570.383C26.6767 566.098 27.7137 562.366 30.8919 559.248C33.9495 556.232 37.0383 553.244 39.993 550.126C42.3934 547.587 45.2274 546.197 48.7185 546.117C49.0904 546.072 49.4581 545.998 49.8182 545.895C49.8629 545.079 49.9433 544.264 49.9433 543.449C49.9433 535.257 49.9433 527.066 49.9433 518.876C49.9433 516.435 49.9433 516.427 47.5742 515.758C43.7478 514.685 39.9125 513.625 35.8224 512.485C35.3754 512.877 34.7675 513.425 34.1774 514.008C31.0752 517.087 27.9775 520.171 24.8842 523.259C23.5432 524.595 23.5432 524.626 24.3522 526.377C27.9864 534.171 23.5476 542.728 15.0679 544.273C12.3923 544.723 9.64237 544.285 7.24088 543.026C6.29323 542.581 5.60036 542.487 4.79128 543.307C1.13478 547.021 -2.57089 550.692 -6.25422 554.384C-6.35256 554.482 -6.38386 554.651 -6.35703 554.589C-4.78805 560.348 -3.22799 565.929 -1.75735 571.541C-0.657707 575.777 -1.48915 579.558 -4.71206 582.716C-8.05566 585.99 -11.3411 589.317 -14.6713 592.604C-17.5054 595.406 -20.9294 596.466 -24.796 595.522C-29.7935 594.306 -34.7776 593.032 -39.7036 591.584C-41.4247 591.137 -42.9957 590.242 -44.2562 588.991C-45.5166 587.741 -46.4214 586.18 -46.8781 584.467C-48.2772 579.536 -49.6272 574.588 -50.8385 569.608C-51.7326 565.938 -50.7491 562.637 -48.1565 559.858C-47.0166 558.633 -45.8231 557.466 -44.5536 556.17C-45.1035 555.533 -45.5102 554.999 -45.9841 554.531C-49.5065 551.003 -53.0363 547.483 -56.5736 543.97C-58.1337 542.411 -58.1292 542.38 -60.0826 543.276C-62.4612 544.395 -65.1304 544.751 -67.7205 544.292C-70.3106 543.833 -72.6934 542.583 -74.5388 540.714C-76.335 538.801 -77.4997 536.386 -77.8761 533.793C-78.2526 531.2 -77.8226 528.554 -76.6442 526.212C-74.3242 521.544 -68.8752 518.769 -63.5693 519.562C-60.968 519.953 -58.5565 521.151 -56.6772 522.985C-54.7979 524.819 -53.5464 527.197 -53.1004 529.78C-52.603 532.585 -53.0592 535.475 -54.3967 537.993C-54.5666 538.323 -54.7007 538.675 -54.7498 538.781L-40.9418 552.544C-40.0478 551.703 -38.9437 550.7 -37.9067 549.618C-36.2927 547.839 -34.0843 546.705 -31.6933 546.429C-30.5652 546.237 -29.412 546.246 -28.2871 546.456C-22.476 547.948 -16.741 549.574 -10.988 551.168C-10.246 551.373 -9.68723 551.44 -9.10612 550.87C-5.23505 547.053 -1.35058 543.249 2.56519 539.401C2.19865 538.554 1.93938 537.935 1.67118 537.32C-2.43233 528.239 4.49179 518.547 14.4332 519.567C15.9977 519.723 17.5309 520.386 19.0239 520.956C19.8196 521.264 20.4499 521.446 21.098 520.769C21.63 520.217 22.1932 519.696 22.7385 519.152L32.5011 509.407C30.9322 503.648 29.4749 498.111 27.9104 492.606C26.6141 488.036 27.678 484.17 31.0886 480.892C32.0139 480.001 32.8766 479.057 33.9137 477.997C33.2164 477.244 32.6755 476.625 32.0944 476.042C28.6793 472.624 25.2522 469.209 21.8133 465.797C20.6019 464.595 20.6555 464.038 18.2864 465.129C15.8328 466.279 13.0702 466.601 10.4167 466.046C7.76318 465.492 5.36316 464.091 3.5799 462.056C1.69581 459.928 0.59227 457.226 0.449814 454.391C0.307358 451.557 1.13441 448.758 2.79569 446.453C4.45697 444.148 6.85412 442.473 9.59501 441.702C12.3359 440.931 15.2583 441.11 17.8841 442.209C18.5859 442.503 19.2743 442.819 19.8375 443.068L32.2955 430.535C30.883 425.359 29.3989 419.845 27.8702 414.322C26.632 409.868 27.6065 406.046 30.9635 402.795C34.1551 399.701 37.3035 396.559 40.4087 393.37C43.6137 390.087 47.4267 389.161 51.7939 390.324C57.3457 391.798 62.8841 393.321 68.6505 394.884C69.2271 394.346 69.9647 393.691 70.662 392.996C73.5497 390.132 76.4194 387.259 79.3026 384.391C81.2024 382.498 80.8627 382.44 80.067 380.663C76.938 373.665 80.6436 366.085 87.0448 363.862C91.7294 362.232 96.1994 362.851 99.9498 366.258C103.7 369.666 104.786 374.111 103.526 379.032C103.182 380.165 102.778 381.279 102.314 382.369L116.038 396.1C116.766 395.414 117.696 394.639 118.505 393.758C121.925 390.012 126.073 389.103 130.869 390.448C135.303 391.691 139.765 392.831 144.194 394.083C145.922 394.523 147.501 395.416 148.765 396.669C150.03 397.922 150.935 399.49 151.387 401.209C152.835 406.109 154.185 411.07 155.378 416.05C156.272 419.791 155.311 423.177 152.598 425.987C151.49 427.141 150.363 428.272 149.366 429.288C154.073 433.92 158.633 438.374 163.344 443.024C165.856 441.607 168.758 441.033 171.623 441.385C177.653 442.004 182.168 447.077 182.494 453.103C182.842 459.548 178.444 465.619 170.621 466.318C168.459 466.489 166.294 466.01 164.408 464.942C163.156 464.252 162.343 464.532 161.4 465.499C158.187 468.795 154.93 472.043 151.628 475.244C150.712 476.135 150.515 476.87 150.935 478.229C152.62 483.703 154.225 489.221 155.513 494.807C156.308 498.263 155.177 501.488 152.692 504.102C151.592 505.269 150.435 506.374 149.344 507.465C150.135 509.046 160.734 519.789 162.982 521.335C168.771 518.426 174.43 518.462 179.159 523.393C183.629 528.038 183.276 533.45 180.75 538.817L194.505 552.397C195.149 551.796 196.056 551.012 196.896 550.17C198.774 548.277 200.884 546.732 203.601 546.478C205.19 546.282 206.801 546.351 208.367 546.683C213.731 548.019 219.023 549.556 224.329 551.075C225.169 551.315 225.782 551.284 226.408 550.66C229.984 547.097 233.56 543.498 237.176 539.971C238.07 539.08 237.601 538.367 237.216 537.503C235.048 532.666 235.58 528.105 238.834 523.918C241.776 520.128 247.363 518.529 252.169 520.003C257.157 521.535 260.59 525.713 260.948 530.693C261.466 537.94 257.188 543.311 249.987 544.434C247.377 544.839 244.963 544.157 242.625 543.097C242.214 542.91 241.789 542.763 241.606 542.692L229.152 555.034C230.645 560.464 232.183 565.978 233.68 571.514C234.861 575.866 233.917 579.679 230.677 582.89C227.436 586.101 224.173 589.33 220.878 592.56C217.919 595.473 214.397 596.568 210.329 595.526C205.412 594.261 200.522 592.992 195.663 591.575C192.011 590.511 189.592 588.012 188.555 584.373C187.169 579.518 185.797 574.654 184.644 569.746C184.216 568.104 184.198 566.382 184.592 564.731C184.986 563.08 185.781 561.551 186.906 560.277C188.09 558.896 189.378 557.604 190.83 556.032C186.284 551.449 181.805 546.99 177.237 542.505C171.31 545.507 165.651 545.458 161.002 540.674C156.532 536.073 156.362 530.59 159.272 525.241L145.442 511.558C144.302 511.941 143.51 513.34 142.438 514.364C140.538 516.186 138.374 517.349 135.733 517.549C134.906 517.611 134.088 517.709 133.14 517.803V547.28C133.882 547.538 134.646 547.85 135.433 548.068C138.021 548.785 140.614 549.489 143.215 550.157C147.605 551.279 150.479 553.876 151.624 558.344C152.705 562.566 153.894 566.762 155.088 570.953C156.429 575.746 155.49 579.883 151.726 583.264C150.868 584.03 149.938 584.698 148.839 585.562C149.733 586.582 150.238 587.219 150.81 587.789C154.33 591.317 157.858 594.837 161.395 598.35C162.736 599.686 162.736 599.686 164.524 598.875C166.859 597.758 169.48 597.379 172.037 597.789C174.594 598.199 176.964 599.379 178.828 601.169C182.923 605.027 183.33 611.516 181.345 615.605C180.202 617.967 178.344 619.912 176.033 621.166C173.722 622.42 171.074 622.92 168.462 622.595C165.851 622.27 163.408 621.137 161.477 619.356C159.546 617.575 158.224 615.234 157.698 612.665C157.177 610.258 157.421 607.748 158.396 605.485C158.713 604.71 159.039 603.94 159.361 603.169L145.549 589.615C144.762 590.341 143.761 591.157 142.916 592.074C141.065 594.038 138.893 595.424 136.189 595.722C135.057 595.912 133.9 595.898 132.773 595.682C127.061 594.197 121.37 592.626 115.702 590.969C114.737 590.689 114.124 590.814 113.467 591.486C110.007 594.966 106.533 598.432 103.043 601.882C102.386 602.532 102.055 603.129 102.547 604.109C104.71 608.305 104.549 612.496 102.386 616.652C102.321 616.812 102.284 616.982 102.274 617.155C106.785 621.662 111.214 626.094 115.881 630.762C116.775 629.938 117.754 629.034 118.706 628.09C122.054 624.771 125.988 623.738 130.538 625.016C131.352 625.243 132.179 625.422 132.997 625.635C136.478 626.553 139.961 627.476 143.448 628.406C147.636 629.528 150.444 632.054 151.574 636.321C152.79 640.899 154.078 645.465 155.28 650.052C156.389 654.262 155.334 657.905 152.245 660.978C148.967 664.221 145.71 667.471 142.473 670.728C139.376 673.846 135.688 674.759 131.477 673.659C126.949 672.474 122.439 671.231 117.911 670.029C113.664 668.902 111.027 666.189 109.9 662.012C108.747 657.727 107.634 653.433 106.476 649.153C105.211 644.454 106.208 640.387 109.788 636.998C110.602 636.183 111.362 635.319 112.546 634.058ZM80.9655 461.058C77.8633 453.304 78.7886 447.745 83.6475 443.937C85.8204 442.264 88.4734 441.328 91.2184 441.266C93.9634 441.203 96.6565 442.018 98.9038 443.589C101.063 445.096 102.66 447.273 103.445 449.781C104.661 453.647 104.009 457.33 102.002 460.96C106.641 465.543 111.076 470.14 115.832 474.652C117.195 473.316 118.317 472.153 119.471 471.04C122.086 468.519 125.282 467.419 128.777 468.207C134.307 469.459 139.782 470.991 145.196 472.661C146.827 473.169 147.717 472.866 148.772 471.77C151.901 468.59 155.07 465.486 158.217 462.345C159.527 461.045 159.558 461.009 158.691 459.196C157.861 457.506 157.426 455.65 157.418 453.768C157.41 451.885 157.83 450.026 158.646 448.329C158.892 447.781 159.093 447.22 159.321 446.725C157.086 443.759 146.984 433.969 145.366 433.243C144.315 434.272 143.229 435.341 142.134 436.401C140.857 437.696 139.261 438.634 137.506 439.12C135.751 439.606 133.898 439.624 132.134 439.171C127.217 438.058 122.327 436.663 117.455 435.287C113.61 434.2 111.107 431.675 110.043 427.818C108.796 423.324 107.553 418.829 106.396 414.309C105.238 409.788 106.083 405.846 109.623 402.577C110.562 401.717 111.411 400.746 112.225 399.882L98.6893 386.52C96.3157 387.041 93.9644 387.722 91.5685 388.034C88.9803 388.373 86.6514 387.112 84.6041 386.253L72.1953 398.372C73.8134 404.559 75.512 410.585 76.9335 416.678C77.7292 420.077 76.7502 423.234 74.2917 425.769C70.7693 429.399 67.1709 432.958 63.5636 436.499C62.6245 437.466 61.4907 438.225 60.2366 438.726C58.9824 439.226 57.6362 439.457 56.2863 439.403C54.9873 439.38 53.6948 439.213 52.4331 438.904C47.4624 437.599 42.4828 436.307 37.5881 434.762C36.2158 434.316 35.4916 434.552 34.5976 435.456C31.3121 438.784 27.9775 442.066 24.6696 445.376C24.2986 445.745 23.9857 446.177 23.5432 446.712C26.3638 451.464 26.2252 456.288 23.5432 461.023L37.2975 474.665C38.6654 473.329 39.8008 472.198 40.9496 471.102C43.6316 468.514 46.9081 467.441 50.4753 468.278C56.0718 469.588 61.6102 471.173 67.1173 472.826C68.3689 473.2 69.0707 473.075 69.9245 472.198C72.6065 469.45 75.3332 466.764 78.0465 464.051L80.9655 461.058ZM128.241 546.077C128.371 545.648 128.462 545.208 128.513 544.763C128.513 535.882 128.513 527.005 128.545 518.124C128.545 516.943 128.053 516.342 126.886 516.035C123.757 515.246 120.655 514.4 117.557 513.522C113.807 512.462 111.259 510.097 110.15 506.347C109.279 503.412 108.519 500.45 107.719 497.497C107.088 495.154 107.093 495.123 104.59 495.123C96.3708 495.105 88.1489 495.105 79.924 495.123C79.106 495.123 78.2924 495.261 77.3984 495.337C77.3224 496.134 77.2777 496.731 77.2062 497.328C76.8754 499.973 76.0172 502.365 74.0548 504.298C70.6129 507.683 67.2022 511.108 63.7737 514.516C61.9286 516.404 59.4215 517.507 56.778 517.593C56.0494 517.629 55.3297 517.772 54.6458 517.856C54.5621 518.243 54.5024 518.634 54.467 519.028C54.467 527.909 54.467 536.786 54.4223 545.667C54.4223 546.968 54.9453 547.6 56.188 547.894C59.165 548.629 62.1287 549.444 65.0968 550.233C69.1198 551.302 71.8421 553.796 73.0267 557.805C73.867 560.664 74.618 563.555 75.3645 566.441C75.9948 568.873 75.968 568.913 78.4041 568.918C86.781 568.935 95.1564 568.935 103.53 568.918C104.268 568.878 105.004 568.801 105.734 568.686C105.839 568.247 105.911 567.8 105.949 567.35C105.85 563.889 107.357 561.203 109.82 558.887C112.931 555.918 115.973 552.887 118.948 549.796C120.919 547.718 123.603 546.456 126.466 546.26C127.007 546.162 127.517 546.135 128.241 546.077ZM105.296 490.54C106.083 487.938 106.405 485.511 107.531 483.533C108.693 481.471 110.624 479.841 112.211 478.033C112.124 477.785 112.003 477.55 111.854 477.333C107.799 473.267 103.723 469.218 99.6861 465.134C98.8681 464.305 98.1797 464.461 97.2454 464.924C95.6766 465.74 93.9495 466.209 92.1821 466.299C90.4147 466.389 88.6486 466.098 87.0045 465.445C86.1105 465.094 85.2165 464.662 84.698 464.43L72.1818 476.826C73.2412 480.607 74.3453 484.495 75.4182 488.406C76.0305 490.633 76.0127 490.633 78.3818 490.633C86.7468 490.633 95.1117 490.633 103.477 490.633C104.138 490.62 104.822 490.562 105.296 490.54ZM110.964 587.469C109.842 583.398 108.792 579.572 107.737 575.75C107.102 573.452 107.097 573.434 104.813 573.429C96.3648 573.429 87.9149 573.429 79.4636 573.429C78.793 573.429 78.1225 573.536 77.5057 573.59C77.397 573.859 77.319 574.14 77.2732 574.427C77.2062 578.258 75.6416 581.353 72.7182 583.825C72.0244 584.476 71.3706 585.167 70.7604 585.896C70.9115 586.173 71.0849 586.436 71.2789 586.685C75.2796 590.693 79.325 594.702 83.2899 598.742C84.0901 599.557 84.765 599.517 85.7216 599.036C89.5346 597.103 93.4235 597.054 97.2276 599.005C98.5417 599.677 99.2882 599.339 100.209 598.394C103.369 595.152 106.601 591.989 109.797 588.787C110.276 588.31 110.696 587.771 110.964 587.469Z" fill="#086017"/>
<path d="M104.012 531.908C104.293 537.938 99.5416 544.379 91.567 544.521C89.9102 544.536 88.2671 544.222 86.733 543.598C85.1988 542.975 83.8041 542.054 82.6298 540.889C81.4556 539.725 80.5251 538.339 79.8923 536.814C79.2595 535.288 78.937 533.652 78.9436 532.001C79.0643 524.429 84.5982 519.476 91.4597 519.441C99.3762 519.396 104.311 525.935 104.012 531.908Z" fill="#086017"/>
</g>
<g clip-path="url(#clip2_5001_4537)">
<path d="M203.454 144.942L216.971 158.371C217.905 157.983 218.464 157.761 219.014 157.52C222.657 155.935 226.296 155.868 229.93 157.551C231.718 158.384 231.718 158.393 233.059 157.07C236.539 153.614 240.014 150.147 243.483 146.67C243.618 146.536 243.736 146.386 243.836 146.225C242.209 140.078 240.591 134.199 239.093 128.266C238.159 124.56 239.218 121.246 241.807 118.529C245.244 114.926 248.802 111.43 252.387 107.965C255.253 105.185 258.748 104.321 262.597 105.292C267.362 106.481 272.096 107.791 276.834 109.082C280.799 110.165 283.347 112.748 284.433 116.654C285.789 121.435 287.072 126.236 288.282 131.059C289.225 134.831 288.282 138.185 285.555 140.987C282.18 144.439 278.689 147.784 275.319 151.231C272.279 154.349 268.591 155.137 264.528 154.18C259.825 153.075 255.177 151.748 250.514 150.474C249.486 150.193 248.512 149.743 247.667 149.427L235.24 161.867C235.687 163.288 236.259 164.936 236.733 166.611C237.538 169.435 236.755 172.072 235.593 174.628C235.169 175.55 234.936 176.258 235.781 177.082C239.889 181.091 243.961 185.167 248.051 189.211C248.283 189.355 248.527 189.479 248.78 189.581C249.674 188.748 250.675 187.866 251.596 186.908C253.055 185.262 254.97 184.083 257.1 183.519C259.23 182.954 261.48 183.03 263.567 183.737C268.734 185.189 273.897 186.654 279.038 188.191C279.972 188.471 280.491 188.079 281.049 187.518C282.945 185.621 284.844 183.725 286.749 181.83L290.986 177.612C292.421 176.187 292.421 176.187 291.59 174.33C289.355 169.341 290.191 164.05 293.825 160.286C295.416 158.625 297.435 157.431 299.66 156.835C301.886 156.239 304.234 156.265 306.446 156.908C308.659 157.552 310.651 158.789 312.206 160.485C313.76 162.18 314.817 164.269 315.261 166.522C315.705 168.776 315.519 171.108 314.723 173.263C313.927 175.418 312.551 177.314 310.747 178.743C308.943 180.172 306.779 181.08 304.493 181.367C302.206 181.653 299.884 181.309 297.781 180.37C297.092 180.067 296.413 179.733 295.993 179.528L283.526 191.741C285.09 197.433 286.655 203.018 288.166 208.617C289.323 212.902 288.286 216.634 285.108 219.752C282.051 222.768 278.962 225.756 276.007 228.874C273.607 231.413 270.773 232.803 267.281 232.883C266.91 232.928 266.542 233.002 266.182 233.105C266.137 233.921 266.057 234.736 266.057 235.551C266.057 243.743 266.057 251.934 266.057 260.124C266.057 262.565 266.057 262.573 268.426 263.242C272.252 264.315 276.087 265.375 280.178 266.515C280.625 266.123 281.233 265.575 281.823 264.992C284.925 261.913 288.023 258.829 291.116 255.741C292.457 254.405 292.457 254.374 291.648 252.623C288.014 244.829 292.452 236.272 300.932 234.727C303.608 234.277 306.358 234.715 308.759 235.974C309.707 236.419 310.4 236.513 311.209 235.693C314.865 231.979 318.571 228.308 322.254 224.616C322.353 224.518 322.384 224.349 322.357 224.411C320.788 218.652 319.228 213.071 317.757 207.459C316.658 203.223 317.489 199.442 320.712 196.284C324.056 193.01 327.341 189.683 330.671 186.396C333.505 183.594 336.929 182.534 340.796 183.478C345.794 184.694 350.778 185.968 355.704 187.416C357.425 187.863 358.996 188.758 360.256 190.009C361.517 191.259 362.421 192.82 362.878 194.533C364.277 199.464 365.627 204.412 366.839 209.392C367.733 213.062 366.749 216.363 364.157 219.142C363.017 220.367 361.823 221.534 360.554 222.83C361.103 223.467 361.51 224.001 361.984 224.469C365.506 227.997 369.036 231.517 372.574 235.03C374.134 236.589 374.129 236.62 376.083 235.724C378.461 234.605 381.13 234.249 383.721 234.708C386.311 235.167 388.693 236.417 390.539 238.286C392.335 240.199 393.5 242.614 393.876 245.207C394.253 247.8 393.823 250.446 392.644 252.788C390.324 257.456 384.875 260.231 379.569 259.438C376.968 259.047 374.557 257.849 372.677 256.015C370.798 254.181 369.546 251.803 369.1 249.22C368.603 246.415 369.059 243.525 370.397 241.007C370.567 240.677 370.701 240.325 370.75 240.219L356.942 226.456C356.048 227.297 354.944 228.3 353.907 229.382C352.293 231.161 350.084 232.295 347.693 232.571C346.565 232.763 345.412 232.754 344.287 232.544C338.476 231.052 332.741 229.426 326.988 227.832C326.246 227.627 325.687 227.56 325.106 228.13C321.235 231.947 317.351 235.751 313.435 239.599C313.801 240.446 314.061 241.065 314.329 241.68C318.432 250.761 311.508 260.453 301.567 259.433C300.002 259.277 298.469 258.614 296.976 258.044C296.18 257.736 295.55 257.554 294.902 258.231C294.37 258.783 293.807 259.304 293.261 259.848L283.499 269.593C285.068 275.352 286.525 280.889 288.09 286.394C289.386 290.964 288.322 294.83 284.911 298.108C283.986 298.999 283.123 299.943 282.086 301.003C282.784 301.756 283.325 302.375 283.906 302.958C287.321 306.376 290.748 309.791 294.187 313.203C295.398 314.405 295.344 314.962 297.714 313.871C300.167 312.721 302.93 312.399 305.583 312.954C308.237 313.508 310.637 314.909 312.42 316.944C314.304 319.072 315.408 321.774 315.55 324.609C315.693 327.443 314.866 330.242 313.204 332.547C311.543 334.852 309.146 336.527 306.405 337.298C303.664 338.069 300.742 337.89 298.116 336.791C297.414 336.497 296.726 336.181 296.163 335.932L283.704 348.465C285.117 353.641 286.601 359.155 288.13 364.678C289.368 369.132 288.394 372.954 285.037 376.205C281.845 379.299 278.697 382.441 275.591 385.63C272.386 388.913 268.573 389.839 264.206 388.676C258.654 387.202 253.116 385.679 247.35 384.116C246.773 384.654 246.035 385.309 245.338 386.004C242.45 388.868 239.581 391.741 236.697 394.609C234.798 396.502 235.137 396.56 235.933 398.337C239.062 405.335 235.356 412.915 228.955 415.138C224.271 416.768 219.801 416.149 216.05 412.742C212.3 409.334 211.214 404.889 212.474 399.968C212.818 398.835 213.222 397.721 213.686 396.631L199.962 382.9C199.234 383.586 198.304 384.361 197.495 385.242C194.075 388.988 189.927 389.897 185.131 388.552C180.697 387.309 176.235 386.169 171.806 384.917C170.078 384.477 168.499 383.584 167.235 382.331C165.97 381.078 165.065 379.51 164.613 377.791C163.165 372.891 161.815 367.93 160.622 362.95C159.728 359.209 160.689 355.823 163.402 353.013C164.51 351.859 165.637 350.728 166.634 349.712C161.927 345.08 157.367 340.626 152.656 335.976C150.144 337.393 147.242 337.967 144.377 337.615C138.347 336.996 133.832 331.923 133.506 325.897C133.158 319.452 137.556 313.381 145.379 312.682C147.541 312.511 149.706 312.99 151.592 314.058C152.844 314.748 153.657 314.468 154.6 313.501C157.813 310.205 161.07 306.957 164.372 303.756C165.288 302.865 165.485 302.13 165.065 300.771C163.38 295.297 161.775 289.779 160.487 284.193C159.692 280.737 160.823 277.512 163.308 274.898C164.408 273.731 165.565 272.626 166.656 271.535C165.865 269.954 155.266 259.211 153.018 257.665C147.229 260.574 141.57 260.538 136.841 255.607C132.371 250.962 132.724 245.55 135.25 240.183L121.495 226.603C120.851 227.204 119.944 227.988 119.104 228.83C117.226 230.723 115.116 232.268 112.399 232.522C110.81 232.718 109.199 232.649 107.633 232.317C102.269 230.981 96.9769 229.444 91.671 227.925C90.8306 227.685 90.2182 227.716 89.5924 228.34C86.0163 231.903 82.4403 235.502 78.824 239.029C77.93 239.92 78.3994 240.633 78.7838 241.497C80.9518 246.334 80.4198 250.895 77.1656 255.082C74.2243 258.872 68.6367 260.471 63.8314 258.997C58.8429 257.465 55.4099 253.287 55.0522 248.307C54.5337 241.06 58.8116 235.689 66.0128 234.566C68.6233 234.161 71.0371 234.843 73.375 235.903C73.7862 236.09 74.2109 236.237 74.3942 236.308L86.8477 223.966C85.3547 218.536 83.817 213.022 82.3196 207.486C81.1395 203.134 82.0827 199.321 85.3235 196.11C88.5643 192.899 91.8274 189.67 95.1218 186.44C98.081 183.527 101.603 182.432 105.671 183.474C110.588 184.739 115.478 186.008 120.337 187.425C123.989 188.489 126.408 190.988 127.445 194.627C128.831 199.482 130.203 204.346 131.356 209.254C131.784 210.896 131.802 212.618 131.408 214.269C131.014 215.92 130.219 217.449 129.094 218.723C127.91 220.104 126.622 221.396 125.17 222.968C129.716 227.551 134.195 232.01 138.763 236.495C144.69 233.493 150.349 233.542 154.998 238.326C159.468 242.927 159.638 248.41 156.728 253.759L170.558 267.442C171.698 267.059 172.49 265.66 173.562 264.636C175.462 262.814 177.626 261.651 180.267 261.451C181.094 261.389 181.912 261.291 182.86 261.197L182.86 231.72C182.118 231.462 181.354 231.15 180.567 230.932C177.979 230.215 175.386 229.511 172.785 228.843C168.395 227.721 165.521 225.124 164.376 220.656C163.295 216.434 162.106 212.238 160.912 208.047C159.571 203.254 160.51 199.117 164.274 195.736C165.132 194.97 166.062 194.302 167.161 193.438C166.267 192.418 165.762 191.781 165.19 191.211C161.67 187.683 158.142 184.163 154.605 180.65C153.264 179.314 153.264 179.314 151.476 180.125C149.141 181.242 146.52 181.621 143.963 181.211C141.406 180.801 139.036 179.621 137.172 177.831C133.077 173.973 132.67 167.484 134.655 163.395C135.798 161.033 137.656 159.088 139.967 157.834C142.278 156.58 144.926 156.08 147.538 156.405C150.149 156.73 152.592 157.863 154.523 159.644C156.454 161.425 157.776 163.766 158.302 166.335C158.823 168.742 158.579 171.252 157.604 173.515C157.287 174.29 156.961 175.06 156.639 175.831L170.451 189.385C171.238 188.659 172.239 187.843 173.084 186.926C174.935 184.962 177.107 183.576 179.811 183.278C180.943 183.088 182.1 183.102 183.227 183.318C188.939 184.803 194.63 186.374 200.298 188.031C201.263 188.311 201.876 188.186 202.533 187.514C205.993 184.034 209.467 180.568 212.957 177.118C213.614 176.468 213.945 175.871 213.453 174.891C211.29 170.695 211.451 166.504 213.614 162.348C213.679 162.188 213.716 162.018 213.726 161.845C209.215 157.338 204.786 152.906 200.119 148.238C199.225 149.062 198.246 149.966 197.294 150.91C193.946 154.229 190.012 155.262 185.462 153.984C184.648 153.757 183.821 153.578 183.003 153.365C179.522 152.447 176.039 151.524 172.552 150.594C168.364 149.472 165.556 146.946 164.426 142.679C163.21 138.101 161.922 133.535 160.72 128.948C159.611 124.738 160.666 121.095 163.755 118.022C167.033 114.779 170.29 111.529 173.527 108.272C176.624 105.154 180.312 104.241 184.523 105.341C189.051 106.526 193.561 107.769 198.089 108.971C202.336 110.098 204.973 112.811 206.1 116.988C207.253 121.273 208.366 125.567 209.524 129.847C210.789 134.546 209.792 138.613 206.212 142.002C205.398 142.817 204.638 143.681 203.454 144.942ZM235.035 317.942C238.137 325.696 237.211 331.255 232.352 335.063C230.18 336.736 227.527 337.672 224.782 337.734C222.037 337.797 219.343 336.982 217.096 335.411C214.937 333.904 213.34 331.727 212.555 329.219C211.339 325.353 211.991 321.67 213.998 318.04C209.359 313.457 204.924 308.86 200.168 304.348C198.805 305.684 197.683 306.847 196.529 307.96C193.914 310.481 190.718 311.581 187.223 310.793C181.693 309.541 176.218 308.009 170.804 306.339C169.173 305.831 168.283 306.134 167.228 307.23C164.099 310.41 160.93 313.514 157.783 316.655C156.473 317.955 156.442 317.991 157.309 319.804C158.139 321.494 158.574 323.35 158.582 325.232C158.59 327.115 158.17 328.974 157.354 330.671C157.108 331.219 156.907 331.78 156.679 332.275C158.914 335.241 169.016 345.031 170.634 345.757C171.685 344.728 172.771 343.659 173.866 342.599C175.143 341.304 176.739 340.366 178.494 339.88C180.249 339.394 182.102 339.376 183.866 339.829C188.783 340.942 193.673 342.337 198.545 343.713C202.39 344.8 204.893 347.325 205.957 351.182C207.204 355.676 208.447 360.171 209.604 364.691C210.762 369.212 209.917 373.154 206.377 376.423C205.438 377.283 204.589 378.254 203.775 379.118L217.311 392.48C219.684 391.959 222.036 391.278 224.432 390.966C227.02 390.627 229.349 391.888 231.396 392.747L243.805 380.628C242.187 374.441 240.488 368.415 239.066 362.322C238.271 358.923 239.25 355.766 241.708 353.231C245.231 349.601 248.829 346.042 252.436 342.501C253.375 341.534 254.509 340.775 255.763 340.274C257.018 339.774 258.364 339.543 259.714 339.597C261.013 339.62 262.305 339.787 263.567 340.096C268.538 341.401 273.517 342.693 278.412 344.238C279.784 344.684 280.508 344.448 281.402 343.544C284.688 340.216 288.023 336.934 291.33 333.624C291.701 333.255 292.014 332.823 292.457 332.288C289.636 327.536 289.775 322.712 292.457 317.977L278.702 304.335C277.335 305.671 276.199 306.802 275.05 307.898C272.368 310.486 269.092 311.559 265.525 310.722C259.928 309.412 254.39 307.827 248.883 306.174C247.631 305.8 246.929 305.925 246.076 306.802C243.394 309.55 240.667 312.236 237.953 314.949L235.035 317.942ZM187.759 232.923C187.629 233.352 187.538 233.792 187.487 234.237C187.487 243.118 187.487 251.995 187.455 260.876C187.455 262.057 187.947 262.658 189.114 262.965C192.243 263.754 195.345 264.6 198.443 265.478C202.193 266.538 204.741 268.903 205.85 272.653C206.721 275.588 207.481 278.55 208.281 281.503C208.912 283.846 208.907 283.877 211.41 283.877C219.629 283.895 227.851 283.895 236.076 283.877C236.894 283.877 237.708 283.739 238.602 283.663C238.678 282.866 238.722 282.269 238.794 281.672C239.125 279.027 239.983 276.635 241.945 274.702C245.387 271.317 248.798 267.892 252.226 264.484C254.071 262.596 256.579 261.493 259.222 261.407C259.951 261.371 260.67 261.228 261.354 261.144C261.438 260.757 261.498 260.366 261.533 259.972C261.533 251.091 261.533 242.214 261.578 233.333C261.578 232.032 261.055 231.4 259.812 231.106C256.835 230.371 253.871 229.556 250.903 228.767C246.88 227.698 244.158 225.204 242.973 221.195C242.133 218.336 241.382 215.445 240.635 212.559C240.005 210.127 240.032 210.087 237.596 210.082C229.219 210.065 220.844 210.065 212.47 210.082C211.732 210.122 210.996 210.199 210.266 210.314C210.161 210.753 210.089 211.2 210.051 211.65C210.15 215.111 208.643 217.797 206.18 220.113C203.069 223.082 200.027 226.113 197.052 229.204C195.081 231.282 192.397 232.544 189.534 232.74C188.993 232.838 188.483 232.865 187.759 232.923ZM210.704 288.46C209.917 291.062 209.595 293.489 208.469 295.467C207.307 297.529 205.376 299.159 203.789 300.967C203.876 301.215 203.997 301.45 204.146 301.667C208.201 305.733 212.277 309.782 216.314 313.866C217.132 314.695 217.82 314.539 218.755 314.076C220.323 313.26 222.05 312.791 223.818 312.701C225.585 312.611 227.351 312.902 228.995 313.555C229.889 313.906 230.783 314.338 231.302 314.57L243.818 302.174C242.759 298.393 241.655 294.505 240.582 290.594C239.969 288.367 239.987 288.367 237.618 288.367C229.253 288.367 220.888 288.367 212.523 288.367C211.862 288.38 211.178 288.438 210.704 288.46ZM205.036 191.531C206.158 195.602 207.208 199.428 208.263 203.25C208.898 205.548 208.903 205.566 211.187 205.571C219.635 205.571 228.085 205.571 236.536 205.571C237.207 205.571 237.877 205.464 238.494 205.41C238.603 205.141 238.681 204.86 238.727 204.573C238.794 200.742 240.358 197.647 243.282 195.175C243.976 194.524 244.629 193.833 245.24 193.104C245.088 192.827 244.915 192.564 244.721 192.315C240.72 188.307 236.675 184.298 232.71 180.258C231.91 179.443 231.235 179.483 230.278 179.964C226.465 181.897 222.576 181.946 218.772 179.995C217.458 179.323 216.712 179.661 215.791 180.606C212.631 183.848 209.399 187.011 206.203 190.213C205.724 190.69 205.304 191.229 205.036 191.531Z" fill="#086017"/>
<path d="M131.719 290.054C131.717 292.708 130.673 295.256 128.809 297.153C125.122 300.939 121.389 304.694 117.563 308.342C114.997 310.792 111.752 311.527 108.359 310.738C103.209 309.531 98.0777 308.137 93.031 306.627C91.3514 306.165 89.8246 305.268 88.606 304.028C87.3873 302.787 86.5204 301.246 86.0935 299.563C84.7167 294.708 83.3131 289.858 82.133 284.958C81.1943 281.048 82.2001 277.52 85.0833 274.62C88.3777 271.307 91.7302 268.046 95.0113 264.715C98.0464 261.628 101.748 260.782 105.802 261.73C110.656 262.862 115.453 264.225 120.249 265.579C123.825 266.594 126.194 268.999 127.343 272.505C127.96 274.389 128.38 276.34 128.899 278.259C129.614 280.932 130.378 283.564 131.049 286.232C131.362 287.484 131.5 288.78 131.719 290.054Z" fill="#086017"/>
</g>
<g clip-path="url(#clip3_5001_4537)">
<path d="M-10.4536 360.058L-23.971 346.629C-24.9053 347.017 -25.464 347.239 -26.0138 347.48C-29.6569 349.065 -33.2956 349.132 -36.9297 347.449C-38.7177 346.616 -38.7177 346.607 -40.0587 347.93C-43.5394 351.386 -47.0141 354.853 -50.4829 358.33C-50.6176 358.464 -50.7362 358.614 -50.836 358.775C-49.209 364.922 -47.5908 370.801 -46.0933 376.734C-45.1591 380.44 -46.2185 383.754 -48.8066 386.471C-52.2441 390.074 -55.8023 393.57 -59.3873 397.035C-62.2526 399.815 -65.7482 400.679 -69.5969 399.708C-74.3619 398.519 -79.0957 397.209 -83.834 395.918C-87.7989 394.835 -90.3469 392.252 -91.4331 388.346C-92.789 383.565 -94.0719 378.764 -95.2818 373.941C-96.225 370.169 -95.2818 366.815 -92.5551 364.013C-89.1802 360.561 -85.6891 357.216 -82.3186 353.769C-79.279 350.651 -75.5912 349.863 -71.5279 350.82C-66.8254 351.925 -62.1766 353.252 -57.5143 354.526C-56.4862 354.807 -55.5117 355.257 -54.6669 355.573L-42.2401 343.133C-42.6871 341.712 -43.2593 340.064 -43.7331 338.389C-44.5377 335.565 -43.7555 332.928 -42.5933 330.372C-42.1686 329.45 -41.9362 328.742 -42.781 327.918C-46.889 323.909 -50.9612 319.833 -55.0513 315.789C-55.2827 315.645 -55.5265 315.521 -55.7799 315.419C-56.6739 316.252 -57.6752 317.134 -58.5961 318.092C-60.0552 319.738 -61.9702 320.917 -64.1002 321.481C-66.2302 322.046 -68.48 321.97 -70.5669 321.263C-75.7342 319.811 -80.8972 318.346 -86.0377 316.809C-86.972 316.529 -87.4905 316.921 -88.0493 317.482C-89.9446 319.379 -91.8443 321.275 -93.7486 323.17L-97.9862 327.388C-99.4211 328.813 -99.4211 328.813 -98.5896 330.67C-96.3546 335.659 -97.1905 340.95 -100.825 344.714C-102.416 346.375 -104.435 347.569 -106.66 348.165C-108.886 348.761 -111.234 348.735 -113.446 348.092C-115.659 347.448 -117.651 346.211 -119.206 344.515C-120.76 342.82 -121.817 340.731 -122.261 338.478C-122.705 336.224 -122.519 333.892 -121.723 331.737C-120.927 329.582 -119.551 327.686 -117.747 326.257C-115.943 324.828 -113.779 323.92 -111.493 323.633C-109.206 323.347 -106.884 323.691 -104.781 324.63C-104.092 324.933 -103.413 325.267 -102.993 325.472L-90.5257 313.259C-92.0902 307.567 -93.6547 301.982 -95.1656 296.383C-96.3233 292.098 -95.2863 288.366 -92.1081 285.248C-89.0505 282.232 -85.9617 279.244 -83.007 276.126C-80.6066 273.587 -77.7726 272.197 -74.2815 272.117C-73.9096 272.072 -73.5419 271.998 -73.1818 271.895C-73.1371 271.079 -73.0567 270.264 -73.0567 269.449C-73.0567 261.257 -73.0567 253.066 -73.0567 244.876C-73.0567 242.435 -73.0567 242.427 -75.4258 241.758C-79.2522 240.685 -83.0875 239.625 -87.1776 238.485C-87.6246 238.877 -88.2325 239.425 -88.8226 240.008C-91.9248 243.087 -95.0225 246.171 -98.1158 249.259C-99.4568 250.595 -99.4568 250.626 -98.6478 252.377C-95.0136 260.171 -99.4524 268.728 -107.932 270.273C-110.608 270.723 -113.358 270.285 -115.759 269.026C-116.707 268.581 -117.4 268.487 -118.209 269.307C-121.865 273.021 -125.571 276.692 -129.254 280.384C-129.353 280.482 -129.384 280.651 -129.357 280.589C-127.788 286.348 -126.228 291.929 -124.757 297.541C-123.658 301.777 -124.489 305.558 -127.712 308.716C-131.056 311.99 -134.341 315.317 -137.671 318.604C-140.505 321.406 -143.929 322.466 -147.796 321.522C-152.794 320.306 -157.778 319.032 -162.704 317.584C-164.425 317.137 -165.996 316.242 -167.256 314.991C-168.517 313.741 -169.421 312.18 -169.878 310.467C-171.277 305.536 -172.627 300.588 -173.839 295.608C-174.733 291.938 -173.749 288.637 -171.157 285.858C-170.017 284.633 -168.823 283.466 -167.554 282.17C-168.103 281.533 -168.51 280.999 -168.984 280.531C-172.506 277.003 -176.036 273.483 -179.574 269.97C-181.134 268.411 -181.129 268.38 -183.083 269.276C-185.461 270.395 -188.13 270.751 -190.721 270.292C-193.311 269.833 -195.693 268.583 -197.539 266.714C-199.335 264.801 -200.5 262.386 -200.876 259.793C-201.253 257.2 -200.823 254.554 -199.644 252.212C-197.324 247.544 -191.875 244.769 -186.569 245.562C-183.968 245.953 -181.557 247.151 -179.677 248.985C-177.798 250.819 -176.546 253.197 -176.1 255.78C-175.603 258.585 -176.059 261.475 -177.397 263.993C-177.567 264.323 -177.701 264.675 -177.75 264.781L-163.942 278.544C-163.048 277.703 -161.944 276.7 -160.907 275.618C-159.293 273.839 -157.084 272.705 -154.693 272.429C-153.565 272.237 -152.412 272.246 -151.287 272.456C-145.476 273.948 -139.741 275.574 -133.988 277.168C-133.246 277.373 -132.687 277.44 -132.106 276.87C-128.235 273.053 -124.351 269.249 -120.435 265.401C-120.801 264.554 -121.061 263.935 -121.329 263.32C-125.432 254.239 -118.508 244.547 -108.567 245.567C-107.002 245.723 -105.469 246.386 -103.976 246.956C-103.18 247.264 -102.55 247.446 -101.902 246.769C-101.37 246.217 -100.807 245.696 -100.261 245.152L-90.4989 235.407C-92.0678 229.648 -93.5251 224.111 -95.0896 218.606C-96.3859 214.036 -95.322 210.17 -91.9114 206.892C-90.9861 206.001 -90.1234 205.057 -89.0863 203.997C-89.7836 203.244 -90.3245 202.625 -90.9056 202.042C-94.3207 198.624 -97.7478 195.209 -101.187 191.797C-102.398 190.595 -102.344 190.038 -104.714 191.129C-107.167 192.279 -109.93 192.601 -112.583 192.046C-115.237 191.492 -117.637 190.091 -119.42 188.056C-121.304 185.928 -122.408 183.226 -122.55 180.391C-122.693 177.557 -121.866 174.758 -120.204 172.453C-118.543 170.148 -116.146 168.473 -113.405 167.702C-110.664 166.931 -107.742 167.11 -105.116 168.209C-104.414 168.503 -103.726 168.819 -103.163 169.068L-90.7045 156.535C-92.117 151.359 -93.6011 145.845 -95.1298 140.322C-96.368 135.868 -95.3935 132.046 -92.0365 128.795C-88.8449 125.701 -85.6965 122.559 -82.5913 119.37C-79.3863 116.087 -75.5733 115.161 -71.2061 116.324C-65.6543 117.798 -60.1159 119.321 -54.3495 120.884C-53.7729 120.346 -53.0353 119.691 -52.338 118.996C-49.4503 116.132 -46.5806 113.259 -43.6974 110.391C-41.7976 108.498 -42.1373 108.44 -42.933 106.663C-46.062 99.6654 -42.3564 92.0846 -35.9552 89.862C-31.2706 88.2318 -26.8006 88.8509 -23.0502 92.2583C-19.2998 95.6656 -18.2136 100.111 -19.4742 105.032C-19.8178 106.165 -20.2222 107.279 -20.6855 108.369L-6.96245 122.1C-6.23384 121.414 -5.30408 120.639 -4.495 119.758C-1.07541 116.012 3.07281 115.103 7.86919 116.448C12.3035 117.691 16.7646 118.831 21.1944 120.083C22.9223 120.523 24.5005 121.416 25.7652 122.669C27.0299 123.922 27.935 125.49 28.3867 127.209C29.835 132.109 31.185 137.07 32.3785 142.05C33.2725 145.791 32.3114 149.177 29.5981 151.987C28.4895 153.141 27.3631 154.272 26.3663 155.288C31.0732 159.92 35.6327 164.374 40.3441 169.024C42.856 167.607 45.7581 167.033 48.6227 167.385C54.6528 168.004 59.1675 173.077 59.4938 179.103C59.8425 185.548 55.444 191.619 47.6214 192.318C45.4587 192.489 43.2943 192.01 41.408 190.942C40.1564 190.252 39.3428 190.532 38.3996 191.499C35.1872 194.795 31.93 198.043 28.6281 201.244C27.7117 202.135 27.5151 202.87 27.9353 204.229C29.6205 209.703 31.2252 215.221 32.5126 220.807C33.3083 224.263 32.1773 227.488 29.692 230.102C28.5923 231.269 27.4346 232.374 26.3439 233.465C27.1351 235.046 37.7336 245.789 39.982 247.335C45.7708 244.426 51.4298 244.462 56.1591 249.393C60.6292 254.038 60.2761 259.45 57.7505 264.817L71.5049 278.397C72.1486 277.796 73.056 277.012 73.8963 276.17C75.7737 274.277 77.8836 272.732 80.6014 272.478C82.1902 272.282 83.8006 272.351 85.3665 272.683C90.7306 274.019 96.0231 275.556 101.329 277.075C102.169 277.315 102.782 277.284 103.408 276.66C106.984 273.097 110.56 269.498 114.176 265.971C115.07 265.08 114.601 264.367 114.216 263.503C112.048 258.666 112.58 254.105 115.834 249.918C118.776 246.128 124.363 244.529 129.169 246.003C134.157 247.535 137.59 251.713 137.948 256.693C138.466 263.94 134.188 269.311 126.987 270.434C124.377 270.839 121.963 270.157 119.625 269.097C119.214 268.91 118.789 268.763 118.606 268.692L106.152 281.034C107.645 286.464 109.183 291.978 110.68 297.514C111.861 301.866 110.917 305.679 107.677 308.89C104.436 312.101 101.173 315.33 97.8782 318.56C94.919 321.473 91.3966 322.568 87.3289 321.526C82.4118 320.261 77.5216 318.992 72.6626 317.575C69.0106 316.511 66.5923 314.012 65.5552 310.373C64.1695 305.518 62.7972 300.654 61.6439 295.746C61.2156 294.104 61.1978 292.382 61.5921 290.731C61.9865 289.08 62.7809 287.551 63.9058 286.277C65.0903 284.896 66.3777 283.604 67.8305 282.032C63.2845 277.449 58.8054 272.99 54.237 268.505C48.3098 271.507 42.6507 271.458 38.0018 266.674C33.5317 262.073 33.3619 256.59 36.2719 251.241L22.4416 237.558C21.3017 237.941 20.5105 239.34 19.4377 240.364C17.5379 242.186 15.3744 243.349 12.7326 243.549C11.9056 243.611 11.0876 243.709 10.14 243.803V273.28C10.882 273.538 11.6464 273.85 12.4331 274.068C15.0213 274.785 17.6139 275.489 20.2155 276.157C24.6051 277.279 27.4793 279.876 28.6236 284.344C29.7054 288.566 30.8944 292.762 32.0879 296.953C33.4289 301.746 32.4902 305.883 28.7264 309.264C27.8682 310.03 26.9384 310.698 25.8388 311.562C26.7328 312.582 27.2379 313.219 27.8101 313.789C31.3295 317.317 34.8579 320.837 38.3952 324.35C39.7362 325.686 39.7362 325.686 41.5242 324.875C43.8587 323.758 46.4801 323.379 49.0369 323.789C51.5937 324.199 53.9635 325.379 55.8284 327.169C59.9229 331.027 60.3297 337.516 58.345 341.605C57.2018 343.967 55.3438 345.912 53.0327 347.166C50.7215 348.42 48.0738 348.92 45.4624 348.595C42.8511 348.27 40.4078 347.137 38.4767 345.356C36.5457 343.575 35.2242 341.234 34.6984 338.665C34.1774 336.258 34.4211 333.748 35.3958 331.485C35.7131 330.71 36.0394 329.94 36.3613 329.169L22.5488 315.615C21.7621 316.341 20.7608 317.157 19.916 318.074C18.0654 320.038 15.8929 321.424 13.1885 321.722C12.0569 321.912 10.9003 321.898 9.77344 321.682C4.0607 320.197 -1.62968 318.626 -7.2977 316.969C-8.26324 316.689 -8.87564 316.814 -9.53273 317.486C-12.9926 320.966 -16.4673 324.432 -19.9569 327.882C-20.614 328.532 -20.9448 329.129 -20.4531 330.109C-18.2896 334.305 -18.4505 338.496 -20.614 342.652C-20.6786 342.812 -20.7164 342.982 -20.7258 343.155C-16.2155 347.662 -11.7857 352.094 -7.11893 356.762C-6.22491 355.938 -5.24597 355.034 -4.29384 354.09C-0.94577 350.771 2.98788 349.738 7.53841 351.016C8.35196 351.243 9.17891 351.422 9.99693 351.635C13.4776 352.553 16.9613 353.476 20.4479 354.406C24.6364 355.528 27.4435 358.054 28.5745 362.321C29.7903 366.899 31.0777 371.465 32.2801 376.052C33.3887 380.262 32.3338 383.905 29.245 386.978C25.9669 390.221 22.7097 393.471 19.4734 396.728C16.3757 399.846 12.6879 400.759 8.47711 399.659C3.94894 398.474 -0.56134 397.231 -5.08949 396.029C-9.33604 394.902 -11.9734 392.189 -13.0999 388.012C-14.2531 383.727 -15.3662 379.433 -16.5239 375.153C-17.7889 370.454 -16.7921 366.387 -13.2116 362.998C-12.3981 362.183 -11.6381 361.319 -10.4536 360.058ZM-42.0345 187.058C-45.1367 179.304 -44.2114 173.745 -39.3525 169.937C-37.1796 168.264 -34.5266 167.328 -31.7816 167.266C-29.0366 167.203 -26.3435 168.018 -24.0962 169.589C-21.9368 171.096 -20.3396 173.273 -19.5546 175.781C-18.3388 179.647 -18.9914 183.33 -20.9984 186.96C-16.3585 191.543 -11.9242 196.14 -7.16809 200.652C-5.80472 199.316 -4.68272 198.153 -3.52945 197.04C-0.914474 194.519 2.28162 193.419 5.77721 194.207C11.3067 195.459 16.7825 196.991 22.1957 198.661C23.8273 199.169 24.7168 198.866 25.7717 197.77C28.9008 194.59 32.07 191.486 35.217 188.345C36.5267 187.045 36.558 187.009 35.6908 185.196C34.8608 183.506 34.4256 181.65 34.4179 179.768C34.4101 177.885 34.83 176.026 35.6461 174.329C35.892 173.781 36.0931 173.22 36.321 172.725C34.086 169.759 23.9837 159.969 22.3656 159.243C21.3151 160.272 20.2289 161.341 19.1337 162.401C17.8573 163.696 16.2614 164.634 14.5063 165.12C12.7511 165.606 10.8984 165.624 9.13419 165.171C4.21713 164.058 -0.673096 162.663 -5.54546 161.287C-9.38969 160.2 -11.8929 157.675 -12.9568 153.818C-14.2039 149.324 -15.4466 144.829 -16.6044 140.309C-17.7621 135.788 -16.9173 131.846 -13.377 128.577C-12.4383 127.717 -11.589 126.746 -10.7754 125.882L-24.3107 112.52C-26.6843 113.041 -29.0356 113.722 -31.4315 114.034C-34.0197 114.373 -36.3486 113.112 -38.3959 112.253L-50.8047 124.372C-49.1866 130.559 -47.488 136.585 -46.0665 142.678C-45.2708 146.077 -46.2498 149.234 -48.7083 151.769C-52.2307 155.399 -55.8291 158.958 -59.4364 162.499C-60.3755 163.466 -61.5093 164.225 -62.7634 164.726C-64.0176 165.226 -65.3638 165.457 -66.7137 165.403C-68.0127 165.38 -69.3052 165.213 -70.5669 164.904C-75.5376 163.599 -80.5172 162.307 -85.4119 160.762C-86.7842 160.316 -87.5084 160.552 -88.4024 161.456C-91.6879 164.784 -95.0225 168.066 -98.3304 171.376C-98.7014 171.745 -99.0143 172.177 -99.4568 172.712C-96.6362 177.464 -96.7748 182.288 -99.4568 187.023L-85.7025 200.665C-84.3346 199.329 -83.1992 198.198 -82.0504 197.102C-79.3684 194.514 -76.0919 193.441 -72.5247 194.278C-66.9282 195.588 -61.3898 197.173 -55.8827 198.826C-54.6311 199.2 -53.9293 199.075 -53.0755 198.198C-50.3935 195.45 -47.6668 192.764 -44.9535 190.051L-42.0345 187.058ZM5.24078 272.077C5.37091 271.648 5.46217 271.208 5.51346 270.763C5.51346 261.882 5.51346 253.005 5.54475 244.124C5.54475 242.943 5.05304 242.342 3.88635 242.035C0.757309 241.246 -2.34491 240.4 -5.44266 239.522C-9.19302 238.462 -11.741 236.097 -12.8495 232.347C-13.7212 229.412 -14.4811 226.45 -15.2812 223.497C-15.9115 221.154 -15.9071 221.123 -18.4103 221.123C-26.6292 221.105 -34.8511 221.105 -43.076 221.123C-43.894 221.123 -44.7076 221.261 -45.6016 221.337C-45.6776 222.134 -45.7223 222.731 -45.7938 223.328C-46.1246 225.973 -46.9828 228.365 -48.9452 230.298C-52.3871 233.683 -55.7978 237.108 -59.2263 240.516C-61.0714 242.404 -63.5785 243.507 -66.222 243.593C-66.9506 243.629 -67.6703 243.772 -68.3542 243.856C-68.4379 244.243 -68.4976 244.634 -68.533 245.028C-68.533 253.909 -68.533 262.786 -68.5777 271.667C-68.5777 272.968 -68.0547 273.6 -66.812 273.894C-63.835 274.629 -60.8713 275.444 -57.9032 276.233C-53.8802 277.302 -51.1579 279.796 -49.9733 283.805C-49.133 286.664 -48.382 289.555 -47.6355 292.441C-47.0052 294.873 -47.032 294.913 -44.5959 294.918C-36.219 294.935 -27.8436 294.935 -19.4697 294.918C-18.7316 294.878 -17.996 294.801 -17.2659 294.686C-17.1605 294.247 -17.0888 293.8 -17.0514 293.35C-17.1497 289.889 -15.6433 287.203 -13.1803 284.887C-10.0692 281.918 -7.02655 278.887 -4.05247 275.796C-2.08093 273.718 0.603165 272.456 3.46617 272.26C4.00703 272.162 4.51665 272.135 5.24078 272.077ZM-17.704 216.54C-16.9173 213.938 -16.5954 211.511 -15.469 209.533C-14.3068 207.471 -12.3757 205.841 -10.7888 204.033C-10.8762 203.785 -10.9965 203.55 -11.1464 203.333C-15.2008 199.267 -19.2775 195.218 -23.3139 191.134C-24.1319 190.305 -24.8203 190.461 -25.7546 190.924C-27.3234 191.74 -29.0505 192.209 -30.8179 192.299C-32.5853 192.389 -34.3514 192.098 -35.9955 191.445C-36.8895 191.094 -37.7835 190.662 -38.302 190.43L-50.8182 202.826C-49.7588 206.607 -48.6547 210.495 -47.5818 214.406C-46.9695 216.633 -46.9873 216.633 -44.6182 216.633C-36.2532 216.633 -27.8883 216.633 -19.5233 216.633C-18.8618 216.62 -18.1778 216.562 -17.704 216.54ZM-12.036 313.469C-13.158 309.398 -14.2084 305.572 -15.2634 301.75C-15.8981 299.452 -15.9026 299.434 -18.1868 299.429C-26.6352 299.429 -35.0851 299.429 -43.5364 299.429C-44.207 299.429 -44.8775 299.536 -45.4943 299.59C-45.603 299.859 -45.681 300.14 -45.7268 300.427C-45.7938 304.258 -47.3584 307.353 -50.2818 309.825C-50.9756 310.476 -51.6294 311.167 -52.2396 311.896C-52.0885 312.173 -51.9151 312.436 -51.7211 312.685C-47.7204 316.693 -43.675 320.702 -39.7101 324.742C-38.9099 325.557 -38.235 325.517 -37.2784 325.036C-33.4654 323.103 -29.5765 323.054 -25.7724 325.005C-24.4583 325.677 -23.7118 325.339 -22.7909 324.394C-19.6306 321.152 -16.3987 317.989 -13.2027 314.787C-12.7244 314.31 -12.3042 313.771 -12.036 313.469Z" fill="#086017"/>
<path d="M61.2806 214.946C61.283 212.292 62.3275 209.744 64.1907 207.847C67.8784 204.061 71.6109 200.306 75.4373 196.658C78.0031 194.208 81.2484 193.473 84.6412 194.262C89.7907 195.469 94.9223 196.863 99.969 198.373C101.649 198.835 103.175 199.732 104.394 200.972C105.613 202.213 106.48 203.754 106.907 205.437C108.283 210.292 109.687 215.142 110.867 220.042C111.806 223.952 110.8 227.48 107.917 230.38C104.622 233.693 101.27 236.954 97.9887 240.285C94.9536 243.372 91.2524 244.218 87.198 243.27C82.3435 242.138 77.5472 240.775 72.7508 239.421C69.1747 238.406 66.8056 236.001 65.6568 232.495C65.0399 230.611 64.6198 228.66 64.1012 226.741C63.386 224.068 62.6217 221.436 61.9511 218.768C61.6382 217.516 61.4997 216.22 61.2806 214.946Z" fill="#086017"/>
</g>
</g>
<g clip-path="url(#clip4_5001_4537)">
<path d="M91.6342 272.323C114.108 272.323 132.327 254.105 132.327 231.632C132.327 209.159 114.108 190.94 91.6342 190.94C69.1604 190.94 50.9418 209.159 50.9418 231.632C50.9418 254.105 69.1604 272.323 91.6342 272.323Z" fill="white"/>
<path d="M91.6343 181.019L92.9095 183.605L95.7655 184.02L93.6984 186.033L94.1878 188.877L91.6343 187.534L89.0808 188.877L89.5672 186.033L87.5031 184.02L90.3561 183.605L91.6343 181.019Z" fill="white"/>
<path d="M80.6464 182.329L81.9275 184.912L84.7806 185.321L82.7194 187.338L83.2117 190.179L80.6582 188.842L78.1077 190.191L78.5882 187.347L76.5211 185.336L79.3741 184.918L80.6464 182.329Z" fill="white"/>
<path d="M70.6015 186.054L71.8886 188.637L74.7446 189.04L72.6864 191.06L73.1846 193.901L70.6282 192.569L68.0806 193.922L68.5581 191.077L66.4851 189.073L69.3351 188.646L70.6015 186.054Z" fill="white"/>
<path d="M61.8171 191.89L63.1071 194.467L65.9631 194.864L63.9108 196.89L64.415 199.728L61.8556 198.402L59.311 199.76L59.7796 196.913L57.7036 194.915L60.5566 194.482L61.8171 191.89Z" fill="white"/>
<path d="M54.5956 199.521L55.8916 202.098L58.7505 202.489L56.7012 204.518L57.2113 207.356L54.646 206.036L52.1044 207.397L52.57 204.55L50.491 202.554L53.3411 202.118L54.5956 199.521Z" fill="white"/>
<path d="M49.2514 208.643L50.5533 211.214L53.4093 211.602L51.3659 213.634L51.8819 216.472L49.3136 215.155L46.775 216.522L47.2347 213.675L45.1498 211.682L47.9998 211.24L49.2514 208.643Z" fill="white"/>
<path d="M46.0929 218.942L47.3978 221.511L50.2567 221.893L48.2163 223.931L48.7353 226.766L46.167 225.455L43.6313 226.825L44.0851 223.978L41.9972 221.991L44.8473 221.543L46.0929 218.942Z" fill="white"/>
<path d="M45.4256 230.069L46.7364 232.638L49.5954 233.014L47.5579 235.055L48.0858 237.89L45.5146 236.582L42.9818 237.958L43.4297 235.111L41.3359 233.127L44.183 232.673L45.4256 230.069Z" fill="white"/>
<path d="M47.3652 240.843L48.6819 243.408L51.5409 243.779L49.5064 245.822L50.0402 248.657L47.466 247.355L44.9362 248.737L45.3781 245.887L43.2814 243.906L46.1285 243.447L47.3652 240.843Z" fill="white"/>
<path d="M51.6447 250.592L52.9644 253.154L55.8263 253.519L53.7948 255.568L54.3345 258.4L51.7573 257.104L49.2306 258.489L49.6665 255.642L47.5668 253.664L50.4139 253.199L51.6447 250.592Z" fill="white"/>
<path d="M57.9528 259.007L59.2784 261.566L62.1404 261.925L60.1148 263.977L60.6575 266.809L58.0803 265.516L55.5565 266.91L55.9865 264.057L53.8838 262.088L56.7279 261.617L57.9528 259.007Z" fill="white"/>
<path d="M65.9839 265.778L67.3155 268.338L70.1744 268.691L68.1548 270.746L68.7034 273.578L66.1233 272.291L63.6024 273.688L64.0265 270.835L61.9179 268.869L64.762 268.391L65.9839 265.778Z" fill="white"/>
<path d="M75.4237 270.597L76.7613 273.153L79.6232 273.5L77.6065 275.561L78.1611 278.39L75.5779 277.109L73.0571 278.509L73.4782 275.659L71.3666 273.693L74.2078 273.212L75.4237 270.597Z" fill="white"/>
<path d="M85.9668 273.157L87.3073 275.708L90.1722 276.049L88.1585 278.113L88.719 280.942L86.1329 279.667L83.615 281.072L84.0302 278.22L81.9156 276.259L84.7568 275.773L85.9668 273.157Z" fill="white"/>
<path d="M97.1416 273.153L98.488 275.701L101.353 276.039L99.3421 278.106L99.9086 280.932L97.3195 279.663L94.8076 281.075L95.2168 278.219L93.0963 276.264L95.9375 275.772L97.1416 273.153Z" fill="white"/>
<path d="M107.685 270.591L109.037 273.138L111.899 273.467L109.894 275.54L110.467 278.367L107.877 277.1L105.365 278.518L105.769 275.662L103.645 273.711L106.484 273.212L107.685 270.591Z" fill="white"/>
<path d="M117.125 265.767L118.483 268.311L121.348 268.637L119.346 270.713L119.924 273.537L117.329 272.276L114.82 273.697L115.218 270.844L113.091 268.895L115.932 268.391L117.125 265.767Z" fill="white"/>
<path d="M125.156 258.99L126.517 261.532L129.382 261.852L127.386 263.931L127.967 266.757L125.372 265.5L122.866 266.926L123.261 264.07L121.128 262.128L123.966 261.618L125.156 258.99Z" fill="white"/>
<path d="M131.464 250.57L132.831 253.109L135.699 253.423L133.706 255.508L134.293 258.328L131.695 257.08L129.192 258.509L129.578 255.653L127.445 253.714L130.28 253.201L131.464 250.57Z" fill="white"/>
<path d="M135.743 240.816L137.116 243.352L139.981 243.66L137.994 245.748L138.587 248.572L135.986 247.326L133.486 248.761L133.869 245.902L131.731 243.969L134.566 243.45L135.743 240.816Z" fill="white"/>
<path d="M137.683 230.04L139.059 232.576L141.927 232.875L139.943 234.969L140.542 237.789L137.938 236.55L135.441 237.991L135.817 235.132L133.676 233.201L136.508 232.674L137.683 230.04Z" fill="white"/>
<path d="M137.016 218.907L138.398 221.437L141.265 221.733L139.287 223.83L139.889 226.65L137.285 225.417L134.791 226.861L135.162 224.002L133.015 222.075L135.847 221.544L137.016 218.907Z" fill="white"/>
<path d="M133.857 208.605L135.242 211.132L138.113 211.423L136.138 213.522L136.746 216.343L134.139 215.112L131.648 216.562L132.009 213.703L129.859 211.782L132.694 211.242L133.857 208.605Z" fill="white"/>
<path d="M128.513 199.479L129.904 202.002L132.772 202.287L130.802 204.393L131.416 207.21L128.806 205.985L126.318 207.441L126.674 204.579L124.521 202.661L127.353 202.118L128.513 199.479Z" fill="white"/>
<path d="M121.291 191.84L122.688 194.364L125.559 194.642L123.59 196.751L124.213 199.568L121.6 198.346L119.112 199.808L119.464 196.947L117.308 195.034L120.138 194.485L121.291 191.84Z" fill="white"/>
<path d="M112.507 186.003L113.907 188.521L116.778 188.797L114.814 190.908L115.44 193.722L112.824 192.507L110.342 193.975L110.689 191.11L108.527 189.203L111.359 188.648L112.507 186.003Z" fill="white"/>
<path d="M102.462 182.269L103.871 184.786L106.742 185.056L104.781 187.171L105.413 189.985L102.797 188.775L100.315 190.246L100.656 187.381L98.491 185.477L101.32 184.917L102.462 182.269Z" fill="white"/>
<path d="M89.3418 188.936L89.6769 186.074L87.509 184.173L90.3353 183.606L91.4742 180.955L92.8858 183.47L95.7596 183.734L93.8022 185.854L94.4399 188.666L91.8211 187.462L89.3418 188.936Z" fill="white"/>
<path d="M139.095 308.703L135.903 297.291L135.868 297.347C134.632 299.342 132.794 300.891 130.619 301.772C128.444 302.652 126.046 302.819 123.771 302.247C122.834 302.012 121.929 301.725 121.042 301.44C118.266 300.55 115.665 299.693 112.738 300.604C109.595 301.576 108.85 303.721 106.19 305.592C105.206 306.272 104.137 306.819 103.011 307.22C100.919 307.972 98.7087 308.34 96.4862 308.305C96.2519 308.305 96.0265 308.305 95.816 308.288L95.8604 308.48L95.7626 308.507L96.2312 310.174L99.1079 320.476L115.746 380L131.568 359.077L155.886 368.781L139.095 308.703Z" fill="white"/>
<path d="M44.18 308.703L47.3682 297.291L47.4038 297.347C48.639 299.339 50.4753 300.887 52.6474 301.768C54.8196 302.648 57.2154 302.816 59.489 302.247C60.4291 302.012 61.3307 301.725 62.2175 301.44C64.9934 300.55 67.5943 299.693 70.5215 300.604C73.6621 301.576 74.4065 303.721 77.0697 305.592C78.0526 306.271 79.1205 306.819 80.246 307.22C82.3377 307.972 84.5481 308.34 86.7706 308.305C87.0048 308.305 87.2302 308.305 87.4408 308.288L87.3993 308.48L87.4942 308.507L87.0286 310.174L84.1489 320.476L67.529 380L51.704 359.077L27.3852 368.781L44.18 308.703Z" fill="white"/>
<path d="M162.266 231.632C162.266 225.532 156.53 220.268 155.026 214.645C153.469 208.824 155.762 201.404 152.814 196.309C149.821 191.14 142.223 189.432 138.03 185.238C133.836 181.045 132.125 173.444 126.956 170.454C121.861 167.507 114.441 169.796 108.622 168.239C102.987 166.736 97.7318 161 91.6343 161C85.5368 161 80.2697 166.736 74.6437 168.239C68.825 169.796 61.4048 167.504 56.3097 170.454C51.1405 173.444 49.4322 181.042 45.2387 185.238C41.0452 189.434 33.4441 191.14 30.4547 196.309C27.489 201.404 29.7963 208.824 28.2393 214.642C26.7357 220.277 21 225.532 21 231.632C21 237.733 26.7357 242.994 28.2393 248.62C29.7963 254.438 27.5038 261.858 30.4547 266.953C33.4441 272.122 41.0423 273.83 45.2387 278.027C49.4352 282.223 51.1405 289.818 56.3097 292.81C61.4048 295.758 68.825 293.466 74.6437 295.023C80.2786 296.526 85.5338 302.262 91.6343 302.262C97.7347 302.262 102.996 296.526 108.622 295.023C114.441 293.466 121.861 295.758 126.956 292.81C132.125 289.818 133.833 282.22 138.03 278.027C142.226 273.833 149.821 272.122 152.814 266.953C155.762 261.858 153.469 254.441 155.026 248.62C156.53 242.994 162.266 237.73 162.266 231.632ZM91.6343 285.589C61.8319 285.589 37.6732 261.431 37.6732 231.632C37.6771 217.32 43.3656 203.595 53.4876 193.476C63.6096 183.357 77.3364 177.673 91.6491 177.673C121.449 177.673 145.607 201.831 145.607 231.647C145.605 238.733 144.208 245.749 141.494 252.294C138.781 258.84 134.805 264.787 129.793 269.796C124.781 274.805 118.831 278.778 112.284 281.488C105.737 284.197 98.7201 285.591 91.6343 285.589Z" fill="white"/>
</g>
<g clip-path="url(#clip5_5001_4537)">
<path d="M95.9733 250.325L93.4214 247.782C93.245 247.855 93.1395 247.897 93.0357 247.943C92.3479 248.243 91.661 248.256 90.9749 247.937C90.6373 247.779 90.6373 247.778 90.3841 248.028C89.727 248.683 89.071 249.339 88.4162 249.997C88.3907 250.023 88.3684 250.051 88.3495 250.082C88.6567 251.246 88.9622 252.359 89.2449 253.482C89.4213 254.184 89.2212 254.811 88.7326 255.326C88.0837 256.008 87.4119 256.67 86.7351 257.326C86.1942 257.853 85.5342 258.016 84.8076 257.832C83.908 257.607 83.0143 257.359 82.1198 257.115C81.3713 256.91 80.8902 256.42 80.6852 255.681C80.4292 254.776 80.187 253.866 79.9586 252.953C79.7805 252.239 79.9586 251.604 80.4733 251.074C81.1105 250.42 81.7696 249.787 82.4059 249.134C82.9797 248.543 83.676 248.394 84.4431 248.575C85.3308 248.785 86.2085 249.036 87.0887 249.277C87.2828 249.33 87.4668 249.415 87.6263 249.475L89.9723 247.12C89.8879 246.851 89.7799 246.539 89.6905 246.222C89.5386 245.687 89.6862 245.188 89.9057 244.704C89.9858 244.529 90.0297 244.395 89.8702 244.239C89.0947 243.48 88.3259 242.708 87.5537 241.942C87.51 241.915 87.464 241.892 87.4161 241.872C87.2474 242.03 87.0583 242.197 86.8845 242.378C86.609 242.69 86.2475 242.913 85.8454 243.02C85.4432 243.127 85.0185 243.113 84.6245 242.979C83.649 242.704 82.6742 242.426 81.7037 242.135C81.5274 242.082 81.4295 242.157 81.324 242.263C80.9662 242.622 80.6075 242.981 80.248 243.34L79.448 244.138C79.1771 244.408 79.1771 244.408 79.3341 244.76C79.756 245.705 79.5982 246.707 78.9121 247.419C78.6117 247.734 78.2306 247.96 77.8104 248.073C77.3901 248.185 76.947 248.181 76.5293 248.059C76.1116 247.937 75.7355 247.703 75.442 247.382C75.1485 247.061 74.949 246.665 74.8652 246.238C74.7813 245.812 74.8165 245.37 74.9668 244.962C75.1171 244.554 75.3767 244.195 75.7173 243.924C76.0579 243.654 76.4664 243.482 76.8981 243.428C77.3298 243.373 77.7682 243.439 78.1653 243.616C78.2952 243.674 78.4235 243.737 78.5028 243.776L80.8565 241.463C80.5611 240.385 80.2657 239.328 79.9805 238.268C79.7619 237.456 79.9577 236.75 80.5577 236.159C81.135 235.588 81.7181 235.022 82.2759 234.432C82.7291 233.951 83.2641 233.688 83.9232 233.673C83.9934 233.665 84.0628 233.65 84.1308 233.631C84.1393 233.477 84.1544 233.322 84.1544 233.168C84.1544 231.617 84.1544 230.066 84.1544 228.515C84.1544 228.053 84.1544 228.051 83.7072 227.925C82.9848 227.721 82.2607 227.521 81.4886 227.305C81.4042 227.379 81.2894 227.483 81.178 227.593C80.5923 228.176 80.0075 228.76 79.4235 229.345C79.1703 229.598 79.1703 229.604 79.3231 229.935C80.0092 231.411 79.1712 233.031 77.5703 233.324C77.0652 233.409 76.546 233.326 76.0926 233.088C75.9137 233.003 75.7829 232.986 75.6302 233.141C74.9399 233.844 74.2403 234.539 73.5449 235.238C73.5263 235.257 73.5204 235.289 73.5255 235.277C73.8217 236.368 74.1162 237.424 74.3939 238.487C74.6015 239.289 74.4445 240.005 73.836 240.603C73.2048 241.223 72.5845 241.853 71.9558 242.475C71.4208 243.006 70.7743 243.207 70.0444 243.028C69.1009 242.798 68.1599 242.556 67.23 242.282C66.905 242.197 66.6084 242.028 66.3705 241.791C66.1325 241.555 65.9617 241.259 65.8755 240.935C65.6113 240.001 65.3565 239.064 65.1278 238.121C64.959 237.426 65.1447 236.801 65.6341 236.275C65.8493 236.043 66.0746 235.822 66.3143 235.577C66.2105 235.456 66.1337 235.355 66.0443 235.266C65.3793 234.598 64.7129 233.932 64.0451 233.267C63.7505 232.971 63.7514 232.966 63.3826 233.135C62.9335 233.347 62.4296 233.414 61.9406 233.327C61.4516 233.241 61.0018 233.004 60.6534 232.65C60.3143 232.288 60.0944 231.83 60.0233 231.339C59.9523 230.848 60.0334 230.348 60.2559 229.904C60.6939 229.02 61.7226 228.495 62.7243 228.645C63.2154 228.719 63.6707 228.946 64.0255 229.293C64.3803 229.64 64.6166 230.09 64.7008 230.58C64.7947 231.111 64.7085 231.658 64.456 232.135C64.424 232.197 64.3987 232.264 64.3894 232.284L66.9962 234.89C67.165 234.731 67.3734 234.541 67.5692 234.336C67.8739 233.999 68.2908 233.784 68.7422 233.732C68.9552 233.696 69.1729 233.698 69.3853 233.737C70.4824 234.02 71.5651 234.328 72.6512 234.629C72.7913 234.668 72.8968 234.681 73.0065 234.573C73.7373 233.85 74.4706 233.13 75.2099 232.401C75.1407 232.241 75.0918 232.124 75.0411 232.007C74.2664 230.288 75.5736 228.453 77.4505 228.646C77.7458 228.675 78.0353 228.801 78.3172 228.909C78.4674 228.967 78.5864 229.002 78.7087 228.873C78.8092 228.769 78.9155 228.67 79.0184 228.567L80.8615 226.722C80.5653 225.632 80.2902 224.583 79.9948 223.541C79.7501 222.676 79.951 221.943 80.5949 221.323C80.7695 221.154 80.9324 220.975 81.1282 220.775C80.9966 220.632 80.8944 220.515 80.7847 220.404C80.14 219.757 79.493 219.111 78.8438 218.465C78.6151 218.237 78.6252 218.131 78.1779 218.338C77.7147 218.556 77.1932 218.617 76.6922 218.512C76.1912 218.407 75.7381 218.141 75.4015 217.756C75.0458 217.353 74.8374 216.842 74.8105 216.305C74.7836 215.768 74.9398 215.238 75.2534 214.802C75.5671 214.365 76.0196 214.048 76.5371 213.902C77.0545 213.756 77.6062 213.79 78.102 213.998C78.2345 214.054 78.3644 214.114 78.4708 214.161L80.8227 211.788C80.556 210.808 80.2759 209.764 79.9872 208.718C79.7535 207.874 79.9375 207.151 80.5712 206.535C81.1738 205.949 81.7682 205.354 82.3544 204.751C82.9595 204.129 83.6793 203.954 84.5038 204.174C85.552 204.453 86.5976 204.741 87.6862 205.037C87.795 204.935 87.9343 204.811 88.0659 204.68C88.6111 204.137 89.1529 203.593 89.6972 203.05C90.0559 202.692 89.9917 202.681 89.8415 202.344C89.2508 201.019 89.9504 199.584 91.1588 199.163C92.0433 198.855 92.8872 198.972 93.5952 199.617C94.3032 200.262 94.5083 201.104 94.2703 202.036C94.2054 202.25 94.1291 202.461 94.0416 202.667L96.6324 205.268C96.77 205.138 96.9455 204.991 97.0982 204.824C97.7438 204.115 98.527 203.943 99.4325 204.197C100.27 204.433 101.112 204.648 101.948 204.885C102.274 204.969 102.572 205.138 102.811 205.375C103.05 205.613 103.221 205.909 103.306 206.235C103.579 207.163 103.834 208.102 104.06 209.045C104.228 209.753 104.047 210.394 103.535 210.927C103.325 211.145 103.113 211.359 102.925 211.551C103.813 212.429 104.674 213.272 105.563 214.152C106.038 213.884 106.586 213.775 107.126 213.842C108.265 213.959 109.117 214.92 109.179 216.061C109.245 217.281 108.414 218.431 106.937 218.563C106.529 218.596 106.12 218.505 105.764 218.303C105.528 218.172 105.374 218.225 105.196 218.408C104.59 219.032 103.975 219.647 103.352 220.253C103.179 220.422 103.141 220.561 103.221 220.818C103.539 221.855 103.842 222.9 104.085 223.957C104.235 224.612 104.022 225.223 103.552 225.718C103.345 225.939 103.126 226.148 102.92 226.354C103.07 226.654 105.071 228.688 105.495 228.981C106.588 228.43 107.656 228.437 108.549 229.37C109.393 230.25 109.326 231.275 108.85 232.291L111.446 234.862C111.568 234.748 111.739 234.6 111.898 234.441C112.252 234.082 112.651 233.789 113.164 233.741C113.464 233.704 113.768 233.717 114.063 233.78C115.076 234.033 116.075 234.324 117.077 234.612C117.235 234.657 117.351 234.651 117.469 234.533C118.144 233.859 118.819 233.177 119.502 232.509C119.671 232.341 119.582 232.206 119.51 232.042C119.101 231.126 119.201 230.262 119.815 229.47C120.371 228.752 121.425 228.449 122.333 228.728C123.274 229.019 123.923 229.81 123.99 230.752C124.088 232.125 123.28 233.142 121.921 233.354C121.428 233.431 120.972 233.302 120.531 233.101C120.453 233.066 120.373 233.038 120.339 233.025L117.987 235.362C118.269 236.39 118.56 237.434 118.842 238.482C119.065 239.306 118.887 240.028 118.275 240.636C117.663 241.244 117.047 241.855 116.425 242.467C115.867 243.018 115.202 243.226 114.434 243.029C113.505 242.789 112.582 242.549 111.665 242.281C110.975 242.079 110.519 241.606 110.323 240.917C110.061 239.998 109.802 239.077 109.585 238.147C109.504 237.836 109.5 237.51 109.575 237.198C109.649 236.885 109.799 236.595 110.012 236.354C110.235 236.093 110.478 235.848 110.753 235.55C109.894 234.683 109.049 233.838 108.186 232.989C107.067 233.558 105.999 233.548 105.121 232.642C104.277 231.771 104.245 230.733 104.795 229.72L102.184 227.129C101.968 227.202 101.819 227.467 101.617 227.661C101.258 228.006 100.849 228.226 100.351 228.264C100.195 228.276 100.04 228.294 99.8612 228.312V233.893C100.001 233.942 100.146 234.001 100.294 234.042C100.783 234.178 101.272 234.312 101.763 234.438C102.592 234.651 103.135 235.142 103.351 235.988C103.555 236.788 103.779 237.582 104.005 238.376C104.258 239.283 104.081 240.067 103.37 240.707C103.208 240.852 103.033 240.978 102.825 241.142C102.994 241.335 103.089 241.456 103.197 241.564C103.862 242.232 104.528 242.898 105.196 243.563C105.449 243.816 105.449 243.816 105.786 243.663C106.227 243.451 106.722 243.38 107.205 243.457C107.687 243.535 108.135 243.758 108.487 244.097C109.26 244.828 109.337 246.056 108.962 246.831C108.746 247.278 108.395 247.646 107.959 247.883C107.523 248.121 107.023 248.216 106.53 248.154C106.037 248.093 105.575 247.878 105.211 247.541C104.846 247.203 104.597 246.76 104.498 246.274C104.399 245.818 104.445 245.343 104.629 244.914C104.689 244.768 104.751 244.622 104.812 244.476L102.204 241.909C102.055 242.047 101.866 242.201 101.707 242.375C101.357 242.747 100.947 243.009 100.437 243.066C100.223 243.102 100.005 243.099 99.792 243.058C98.7135 242.777 97.6392 242.48 96.5691 242.166C96.3868 242.113 96.2712 242.136 96.1472 242.264C95.494 242.923 94.838 243.579 94.1792 244.232C94.0551 244.355 93.9927 244.468 94.0855 244.654C94.494 245.448 94.4636 246.242 94.0551 247.029C94.0429 247.059 94.0358 247.091 94.034 247.124C94.8855 247.977 95.7218 248.817 96.6029 249.701C96.7717 249.544 96.9565 249.373 97.1362 249.194C97.7683 248.566 98.5109 248.371 99.37 248.613C99.5236 248.656 99.6798 248.689 99.8342 248.73C100.491 248.904 101.149 249.078 101.807 249.254C102.598 249.467 103.128 249.945 103.341 250.753C103.571 251.62 103.814 252.484 104.041 253.353C104.25 254.15 104.051 254.84 103.468 255.422C102.849 256.036 102.234 256.651 101.623 257.268C101.038 257.858 100.342 258.031 99.5473 257.823C98.6924 257.599 97.8409 257.363 96.986 257.136C96.1843 256.922 95.6864 256.409 95.4737 255.618C95.256 254.806 95.0459 253.993 94.8273 253.183C94.5885 252.293 94.7767 251.523 95.4526 250.881C95.6062 250.727 95.7497 250.563 95.9733 250.325ZM90.0111 217.567C89.4255 216.099 89.6002 215.046 90.5175 214.325C90.9277 214.009 91.4286 213.831 91.9468 213.82C92.465 213.808 92.9735 213.962 93.3977 214.26C93.8054 214.545 94.1069 214.957 94.2551 215.432C94.4847 216.164 94.3615 216.861 93.9826 217.549C94.8585 218.417 95.6957 219.287 96.5936 220.141C96.851 219.888 97.0628 219.668 97.2805 219.457C97.7742 218.98 98.3776 218.772 99.0375 218.921C100.081 219.158 101.115 219.448 102.137 219.764C102.445 219.86 102.613 219.803 102.812 219.596C103.403 218.993 104.001 218.406 104.595 217.811C104.843 217.565 104.849 217.558 104.685 217.215C104.528 216.895 104.446 216.543 104.445 216.187C104.443 215.83 104.522 215.478 104.677 215.157C104.723 215.053 104.761 214.947 104.804 214.853C104.382 214.292 102.475 212.438 102.169 212.3C101.971 212.495 101.766 212.698 101.559 212.898C101.318 213.144 101.017 213.321 100.686 213.413C100.354 213.505 100.004 213.509 99.6713 213.423C98.743 213.212 97.8198 212.948 96.8999 212.688C96.1742 212.482 95.7016 212.004 95.5007 211.273C95.2653 210.422 95.0307 209.571 94.8121 208.715C94.5935 207.859 94.753 207.113 95.4214 206.494C95.5986 206.331 95.759 206.147 95.9126 205.984L93.3572 203.453C92.9091 203.552 92.4652 203.681 92.0129 203.74C91.5243 203.804 91.0846 203.566 90.6981 203.403L88.3554 205.698C88.6609 206.869 88.9816 208.01 89.2499 209.164C89.4002 209.807 89.2153 210.405 88.7512 210.885C88.0862 211.573 87.4069 212.246 86.7258 212.917C86.5485 213.1 86.3345 213.244 86.0977 213.339C85.8609 213.433 85.6068 213.477 85.3519 213.467C85.1067 213.463 84.8627 213.431 84.6245 213.372C83.6861 213.125 82.746 212.881 81.8219 212.588C81.5628 212.504 81.4261 212.548 81.2573 212.72C80.6371 213.35 80.0075 213.971 79.383 214.598C79.313 214.668 79.2539 214.75 79.1703 214.851C79.7029 215.751 79.6767 216.664 79.1703 217.56L81.767 220.144C82.0253 219.891 82.2396 219.677 82.4565 219.469C82.9629 218.979 83.5814 218.776 84.2549 218.934C85.3114 219.182 86.357 219.483 87.3967 219.795C87.633 219.866 87.7655 219.843 87.9267 219.677C88.433 219.156 88.9478 218.648 89.4601 218.134L90.0111 217.567ZM98.9363 233.665C98.9608 233.584 98.9781 233.501 98.9878 233.417C98.9878 231.735 98.9878 230.054 98.9937 228.373C98.9937 228.149 98.9008 228.035 98.6806 227.977C98.0898 227.828 97.5042 227.667 96.9193 227.501C96.2113 227.301 95.7303 226.853 95.521 226.143C95.3564 225.587 95.213 225.026 95.0619 224.467C94.9429 224.023 94.9438 224.017 94.4712 224.017C92.9195 224.014 91.3673 224.014 89.8145 224.017C89.6601 224.017 89.5065 224.043 89.3377 224.058C89.3234 224.209 89.3149 224.322 89.3014 224.435C89.239 224.936 89.0769 225.389 88.7065 225.755C88.0567 226.396 87.4128 227.044 86.7655 227.689C86.4172 228.047 85.9438 228.256 85.4448 228.272C85.3072 228.279 85.1714 228.306 85.0422 228.322C85.0264 228.395 85.0152 228.469 85.0085 228.544C85.0085 230.225 85.0085 231.906 85 233.588C85 233.834 85.0988 233.954 85.3334 234.01C85.8954 234.149 86.4549 234.303 87.0153 234.452C87.7748 234.655 88.2887 235.127 88.5124 235.886C88.671 236.428 88.8128 236.975 88.9537 237.521C89.0727 237.982 89.0677 237.989 89.5276 237.99C91.1091 237.994 92.6903 237.994 94.2712 237.99C94.4105 237.983 94.5494 237.968 94.6872 237.946C94.7071 237.863 94.7207 237.779 94.7277 237.693C94.7092 237.038 94.9935 236.53 95.4585 236.091C96.0459 235.529 96.6203 234.955 97.1818 234.37C97.554 233.976 98.0607 233.737 98.6012 233.7C98.7034 233.682 98.7996 233.676 98.9363 233.665ZM94.6045 223.15C94.753 222.657 94.8138 222.197 95.0265 221.823C95.2459 221.432 95.6104 221.124 95.91 220.781C95.8935 220.734 95.8708 220.69 95.8425 220.649C95.0771 219.879 94.3075 219.112 93.5454 218.339C93.391 218.182 93.261 218.212 93.0846 218.299C92.7885 218.454 92.4624 218.543 92.1287 218.56C91.7951 218.577 91.4616 218.522 91.1513 218.398C90.9825 218.331 90.8137 218.25 90.7158 218.206L88.3529 220.553C88.5529 221.269 88.7613 222.005 88.9639 222.746C89.0795 223.167 89.0761 223.167 89.5234 223.167C91.1026 223.167 92.6818 223.167 94.261 223.167C94.3859 223.165 94.5151 223.154 94.6045 223.15ZM95.6746 241.503C95.4628 240.732 95.2644 240.008 95.0653 239.284C94.9454 238.849 94.9446 238.845 94.5134 238.845C92.9184 238.845 91.3231 238.845 89.7276 238.845C89.601 238.845 89.4744 238.865 89.358 238.875C89.3374 238.926 89.3227 238.979 89.3141 239.034C89.3014 239.759 89.0061 240.345 88.4541 240.813C88.3231 240.936 88.1997 241.067 88.0845 241.205C88.1131 241.258 88.1458 241.307 88.1824 241.355C88.9377 242.114 89.7014 242.873 90.45 243.638C90.601 243.792 90.7285 243.784 90.9091 243.693C91.6289 243.327 92.3631 243.318 93.0813 243.687C93.3294 243.815 93.4703 243.751 93.6441 243.572C94.2408 242.958 94.8509 242.359 95.4543 241.753C95.5446 241.662 95.6239 241.56 95.6746 241.503Z" fill="#2F6F33"/>
<path d="M109.516 222.848C109.517 222.345 109.714 221.863 110.065 221.504C110.762 220.787 111.466 220.076 112.189 219.385C112.673 218.921 113.286 218.782 113.926 218.931C114.899 219.16 115.867 219.424 116.82 219.71C117.137 219.797 117.425 219.967 117.656 220.202C117.886 220.437 118.049 220.729 118.13 221.047C118.39 221.967 118.655 222.885 118.878 223.813C119.055 224.553 118.865 225.221 118.321 225.77C117.699 226.398 117.066 227.015 116.446 227.646C115.873 228.23 115.174 228.391 114.409 228.211C113.493 227.997 112.587 227.739 111.682 227.482C111.006 227.29 110.559 226.835 110.342 226.171C110.226 225.814 110.147 225.445 110.049 225.081C109.914 224.575 109.769 224.077 109.643 223.572C109.584 223.335 109.557 223.089 109.516 222.848Z" fill="#2F6F33"/>
<path d="M70.4686 228.31C70.1024 228.226 69.7336 228.156 69.3716 228.064C68.7125 227.895 68.0568 227.714 67.3994 227.537C66.5715 227.316 66.0424 226.804 65.8297 225.964C65.6094 225.094 65.3571 224.232 65.1402 223.361C64.9537 222.615 65.1402 221.958 65.6896 221.41C66.3369 220.766 66.9791 220.117 67.6306 219.476C68.169 218.946 68.8196 218.766 69.5496 218.949C70.4762 219.182 71.3992 219.429 72.3185 219.691C72.9936 219.882 73.462 220.324 73.6594 220.998C73.9354 221.942 74.1978 222.892 74.419 223.849C74.592 224.591 74.3919 225.253 73.8383 225.798C73.2088 226.417 72.586 227.047 71.9598 227.67C71.5294 228.1 71.1075 228.271 70.4686 228.31Z" fill="#2F6F33"/>
<path d="M94.3621 260.597C94.3621 261.911 93.292 263.063 92.0135 262.998C90.5485 262.923 89.6506 261.968 89.6396 260.615C89.6269 259.311 90.5324 258.254 91.9949 258.232C93.4574 258.21 94.3882 259.392 94.3621 260.597Z" fill="#2F6F33"/>
<path d="M94.3621 230.983C94.4153 232.125 93.5182 233.344 92.0127 233.371C91.6999 233.374 91.3897 233.314 91.1 233.196C90.8104 233.078 90.5471 232.904 90.3254 232.683C90.1037 232.463 89.928 232.201 89.8086 231.912C89.6891 231.623 89.6282 231.313 89.6295 231C89.6523 229.567 90.697 228.629 91.9924 228.622C93.487 228.614 94.4186 229.852 94.3621 230.983Z" fill="#2F6F33"/>
</g>
<defs>
<clipPath id="clip0_5001_4537">
<rect width="339" height="338" fill="white" transform="translate(261 151) rotate(-180)"/>
</clipPath>
<clipPath id="clip1_5001_4537">
<rect width="339" height="338" fill="white" transform="translate(-78 363)"/>
</clipPath>
<clipPath id="clip2_5001_4537">
<rect width="339" height="338" fill="white" transform="matrix(-1 0 0 -1 394 416)"/>
</clipPath>
<clipPath id="clip3_5001_4537">
<rect width="339" height="338" fill="white" transform="translate(-201 89)"/>
</clipPath>
<clipPath id="clip4_5001_4537">
<rect width="141.269" height="219" fill="white" transform="translate(21 161)"/>
</clipPath>
<clipPath id="clip5_5001_4537">
<rect width="64" height="64" fill="white" transform="translate(60 199)"/>
</clipPath>
</defs>
</svg>
