<svg width="137" height="167" viewBox="0 0 137 167" fill="none" xmlns="http://www.w3.org/2000/svg">
<path d="M0 166.82C3.27419 137.232 10.3137 76.8919 12.2782 72.2314L23.3286 95.5336C46.0433 112.601 91.7489 147.381 92.854 149.956C93.959 152.532 31.4118 162.272 0 166.82Z" fill="#018343"/>
<path d="M67.0713 82.55C68.7084 67.7562 72.2281 37.5861 73.2104 35.2559L78.7356 46.9069C90.0929 55.4408 112.946 72.8305 113.498 74.1183C114.051 75.406 82.7772 80.276 67.0713 82.55Z" fill="#018343"/>
<path d="M113.506 23.2171C114.324 15.9547 116.084 1.14392 116.575 0L119.338 5.71961C125.017 9.90898 136.443 18.4458 136.719 19.0779C136.996 19.7101 121.359 22.1008 113.506 23.2171Z" fill="#018343"/>
</svg>
