<svg width="145" height="223" viewBox="0 0 145 223" fill="none" xmlns="http://www.w3.org/2000/svg">
<path d="M144.316 223C139.228 176.969 128.289 83.0942 125.236 75.8438L108.064 112.096C72.7656 138.649 1.73952 192.758 0.0222931 196.765C-1.69493 200.771 95.5029 215.924 144.316 223Z" fill="#018343"/>
<path d="M98.0468 92.5389C96.2305 76.1259 92.3255 42.6536 91.2358 40.0684L85.1058 52.9947C72.5054 62.4626 47.1512 81.7557 46.5383 83.1844C45.9253 84.6131 80.6219 90.016 98.0468 92.5389Z" fill="#018343"/>
<path d="M60.84 45.7929C59.9318 37.5864 57.9793 20.8502 57.4344 19.5576L54.3695 26.0208C48.0692 30.7547 35.3922 40.4013 35.0857 41.1156C34.7792 41.83 52.1275 44.5315 60.84 45.7929Z" fill="#018343"/>
<path d="M35.0821 12.8791C34.628 8.8505 33.6518 0.634564 33.3793 0L31.8468 3.17282C28.6967 5.49677 22.3582 10.2323 22.205 10.583C22.0517 10.9337 30.7259 12.2599 35.0821 12.8791Z" fill="#018343"/>
</svg>
