<svg width="1171" height="487" viewBox="0 0 1171 487" fill="none" xmlns="http://www.w3.org/2000/svg">
<g clip-path="url(#clip0_3001_3633)">
<rect x="0.0605469" y="0.75" width="1170" height="485.5" rx="24" fill="#EDFFF5"/>
<circle cx="197.213" cy="243.25" r="423" fill="#00C95A"/>
<path d="M314.182 666.25C426.368 666.25 533.96 621.684 613.288 542.356C692.616 463.028 737.182 355.437 737.182 243.25C737.182 131.063 692.616 23.4718 613.288 -55.8561C533.96 -135.184 426.368 -179.75 314.182 -179.75" stroke="#ABFFD6" stroke-width="2"/>
<path d="M434.182 666.25C546.368 666.25 653.96 621.684 733.288 542.356C812.616 463.028 857.182 355.437 857.182 243.25C857.182 131.063 812.616 23.4718 733.288 -55.8561C653.96 -135.184 546.368 -179.75 434.182 -179.75" stroke="#ABFFD6" stroke-width="2"/>
<path d="M554.182 666.25C666.368 666.25 773.96 621.684 853.288 542.356C932.616 463.028 977.182 355.437 977.182 243.25C977.182 131.063 932.616 23.4718 853.288 -55.8561C773.96 -135.184 666.368 -179.75 554.182 -179.75" stroke="#ABFFD6" stroke-width="2"/>
<path d="M674.182 666.25C786.368 666.25 893.96 621.684 973.288 542.356C1052.62 463.028 1097.18 355.437 1097.18 243.25C1097.18 131.063 1052.62 23.4718 973.288 -55.8561C893.96 -135.184 786.368 -179.75 674.182 -179.75" stroke="#ABFFD6" stroke-width="2"/>
<g clip-path="url(#clip1_3001_3633)">
<path d="M931.059 332H914.559C913.316 332 912.309 333.008 912.309 334.25V350.75C912.309 351.992 913.316 353 914.559 353H931.059C932.301 353 933.309 351.992 933.309 350.75V334.25C933.309 333.008 932.301 332 931.059 332ZM923.737 348.378C923.737 350.422 922.537 351.355 920.788 351.355C919.209 351.355 918.295 350.539 917.826 349.55L919.434 348.58C919.743 349.128 920.024 349.592 920.704 349.592C921.351 349.592 921.763 349.339 921.763 348.35V341.642H923.737V348.378ZM928.405 351.355C926.573 351.355 925.387 350.483 924.81 349.339L926.418 348.411C926.84 349.1 927.393 349.611 928.363 349.611C929.179 349.611 929.704 349.203 929.704 348.636C929.704 347.961 929.17 347.722 928.265 347.323L927.773 347.112C926.348 346.508 925.405 345.744 925.405 344.136C925.405 342.655 926.535 341.53 928.293 341.53C929.549 341.53 930.449 341.966 931.096 343.109L929.559 344.094C929.221 343.489 928.855 343.25 928.288 343.25C927.712 343.25 927.346 343.616 927.346 344.094C927.346 344.684 927.712 344.923 928.56 345.294L929.052 345.505C930.73 346.222 931.673 346.958 931.673 348.608C931.673 350.38 930.276 351.355 928.405 351.355Z" fill="#E27C00"/>
</g>
<g clip-path="url(#clip2_3001_3633)">
<path d="M954.714 372.268L950.938 376.226C949.857 377.359 947.952 376.866 947.556 375.351L944.213 362.564C943.786 360.932 945.448 359.537 946.981 360.241L958.993 365.754C960.416 366.407 960.571 368.369 959.268 369.236L954.714 372.268ZM954.714 372.268L950.215 366.906" stroke="#E27C00" stroke-width="1.5" stroke-linecap="round" stroke-linejoin="round"/>
</g>
<g filter="url(#filter0_d_3001_3633)">
<path d="M967.121 379.429C967.121 374.221 971.342 370 976.55 370H1117.62C1126.73 370 1134.12 377.387 1134.12 386.5V386.5C1134.12 395.613 1126.73 403 1117.62 403H990.693C977.674 403 967.121 392.447 967.121 379.429V379.429Z" fill="white"/>
<path d="M987.113 381.242V388.452C987.113 389.255 986.866 389.899 986.371 390.384C985.876 390.86 985.223 391.098 984.411 391.098C983.59 391.098 982.932 390.855 982.437 390.37C981.942 389.875 981.695 389.203 981.695 388.354H982.969C982.978 388.83 983.1 389.217 983.333 389.516C983.576 389.815 983.935 389.964 984.411 389.964C984.887 389.964 985.242 389.824 985.475 389.544C985.708 389.255 985.825 388.891 985.825 388.452V381.242H987.113ZM989.147 387.136C989.147 386.352 989.306 385.666 989.623 385.078C989.94 384.481 990.374 384.019 990.925 383.692C991.485 383.365 992.106 383.202 992.787 383.202C993.459 383.202 994.042 383.347 994.537 383.636C995.032 383.925 995.4 384.289 995.643 384.728V383.328H996.931V391H995.643V389.572C995.391 390.02 995.013 390.393 994.509 390.692C994.014 390.981 993.436 391.126 992.773 391.126C992.092 391.126 991.476 390.958 990.925 390.622C990.374 390.286 989.94 389.815 989.623 389.208C989.306 388.601 989.147 387.911 989.147 387.136ZM995.643 387.15C995.643 386.571 995.526 386.067 995.293 385.638C995.06 385.209 994.742 384.882 994.341 384.658C993.949 384.425 993.515 384.308 993.039 384.308C992.563 384.308 992.129 384.42 991.737 384.644C991.345 384.868 991.032 385.195 990.799 385.624C990.566 386.053 990.449 386.557 990.449 387.136C990.449 387.724 990.566 388.237 990.799 388.676C991.032 389.105 991.345 389.437 991.737 389.67C992.129 389.894 992.563 390.006 993.039 390.006C993.515 390.006 993.949 389.894 994.341 389.67C994.742 389.437 995.06 389.105 995.293 388.676C995.526 388.237 995.643 387.729 995.643 387.15ZM1001.94 389.824L1004.32 383.328H1005.68L1002.67 391H1001.18L998.174 383.328H999.546L1001.94 389.824ZM1006.46 387.136C1006.46 386.352 1006.61 385.666 1006.93 385.078C1007.25 384.481 1007.68 384.019 1008.23 383.692C1008.79 383.365 1009.41 383.202 1010.1 383.202C1010.77 383.202 1011.35 383.347 1011.85 383.636C1012.34 383.925 1012.71 384.289 1012.95 384.728V383.328H1014.24V391H1012.95V389.572C1012.7 390.02 1012.32 390.393 1011.82 390.692C1011.32 390.981 1010.74 391.126 1010.08 391.126C1009.4 391.126 1008.78 390.958 1008.23 390.622C1007.68 390.286 1007.25 389.815 1006.93 389.208C1006.61 388.601 1006.46 387.911 1006.46 387.136ZM1012.95 387.15C1012.95 386.571 1012.83 386.067 1012.6 385.638C1012.37 385.209 1012.05 384.882 1011.65 384.658C1011.26 384.425 1010.82 384.308 1010.35 384.308C1009.87 384.308 1009.44 384.42 1009.05 384.644C1008.65 384.868 1008.34 385.195 1008.11 385.624C1007.87 386.053 1007.76 386.557 1007.76 387.136C1007.76 387.724 1007.87 388.237 1008.11 388.676C1008.34 389.105 1008.65 389.437 1009.05 389.67C1009.44 389.894 1009.87 390.006 1010.35 390.006C1010.82 390.006 1011.26 389.894 1011.65 389.67C1012.05 389.437 1012.37 389.105 1012.6 388.676C1012.83 388.237 1012.95 387.729 1012.95 387.15ZM1019.11 391.126C1018.52 391.126 1017.99 391.028 1017.53 390.832C1017.06 390.627 1016.69 390.347 1016.42 389.992C1016.15 389.628 1016 389.213 1015.97 388.746H1017.29C1017.33 389.129 1017.5 389.441 1017.82 389.684C1018.15 389.927 1018.57 390.048 1019.09 390.048C1019.58 390.048 1019.96 389.941 1020.24 389.726C1020.52 389.511 1020.66 389.241 1020.66 388.914C1020.66 388.578 1020.51 388.331 1020.21 388.172C1019.92 388.004 1019.45 387.841 1018.83 387.682C1018.26 387.533 1017.79 387.383 1017.43 387.234C1017.07 387.075 1016.77 386.847 1016.5 386.548C1016.25 386.24 1016.13 385.839 1016.13 385.344C1016.13 384.952 1016.24 384.593 1016.48 384.266C1016.71 383.939 1017.04 383.683 1017.47 383.496C1017.9 383.3 1018.39 383.202 1018.94 383.202C1019.79 383.202 1020.48 383.417 1021 383.846C1021.52 384.275 1021.8 384.863 1021.84 385.61H1020.56C1020.54 385.209 1020.37 384.887 1020.07 384.644C1019.79 384.401 1019.39 384.28 1018.9 384.28C1018.44 384.28 1018.08 384.378 1017.81 384.574C1017.54 384.77 1017.4 385.027 1017.4 385.344C1017.4 385.596 1017.48 385.806 1017.64 385.974C1017.81 386.133 1018.01 386.263 1018.25 386.366C1018.51 386.459 1018.85 386.567 1019.29 386.688C1019.84 386.837 1020.29 386.987 1020.63 387.136C1020.98 387.276 1021.27 387.491 1021.52 387.78C1021.77 388.069 1021.9 388.447 1021.91 388.914C1021.91 389.334 1021.79 389.712 1021.56 390.048C1021.33 390.384 1020.99 390.65 1020.56 390.846C1020.14 391.033 1019.66 391.126 1019.11 391.126ZM1023.23 387.15C1023.23 386.357 1023.39 385.666 1023.71 385.078C1024.02 384.481 1024.46 384.019 1025.02 383.692C1025.59 383.365 1026.24 383.202 1026.97 383.202C1027.91 383.202 1028.69 383.431 1029.29 383.888C1029.91 384.345 1030.31 384.98 1030.51 385.792H1029.14C1029.01 385.325 1028.75 384.957 1028.37 384.686C1028 384.415 1027.53 384.28 1026.97 384.28C1026.24 384.28 1025.65 384.532 1025.2 385.036C1024.76 385.531 1024.53 386.235 1024.53 387.15C1024.53 388.074 1024.76 388.788 1025.2 389.292C1025.65 389.796 1026.24 390.048 1026.97 390.048C1027.53 390.048 1028 389.917 1028.37 389.656C1028.74 389.395 1029 389.021 1029.14 388.536H1030.51C1030.31 389.32 1029.89 389.95 1029.28 390.426C1028.66 390.893 1027.89 391.126 1026.97 391.126C1026.24 391.126 1025.59 390.963 1025.02 390.636C1024.46 390.309 1024.02 389.847 1023.71 389.25C1023.39 388.653 1023.23 387.953 1023.23 387.15ZM1033.48 384.574C1033.71 384.135 1034.03 383.795 1034.44 383.552C1034.86 383.309 1035.37 383.188 1035.96 383.188V384.504H1035.63C1034.2 384.504 1033.48 385.279 1033.48 386.828V391H1032.21V383.328H1033.48V384.574ZM1038.09 382.082C1037.85 382.082 1037.64 381.998 1037.48 381.83C1037.31 381.662 1037.22 381.457 1037.22 381.214C1037.22 380.971 1037.31 380.766 1037.48 380.598C1037.64 380.43 1037.85 380.346 1038.09 380.346C1038.32 380.346 1038.52 380.43 1038.68 380.598C1038.85 380.766 1038.93 380.971 1038.93 381.214C1038.93 381.457 1038.85 381.662 1038.68 381.83C1038.52 381.998 1038.32 382.082 1038.09 382.082ZM1038.71 383.328V391H1037.43V383.328H1038.71ZM1042.15 384.742C1042.4 384.303 1042.78 383.939 1043.27 383.65C1043.78 383.351 1044.36 383.202 1045.02 383.202C1045.7 383.202 1046.32 383.365 1046.87 383.692C1047.43 384.019 1047.87 384.481 1048.19 385.078C1048.5 385.666 1048.66 386.352 1048.66 387.136C1048.66 387.911 1048.5 388.601 1048.19 389.208C1047.87 389.815 1047.43 390.286 1046.87 390.622C1046.32 390.958 1045.7 391.126 1045.02 391.126C1044.37 391.126 1043.79 390.981 1043.29 390.692C1042.79 390.393 1042.41 390.025 1042.15 389.586V394.64H1040.88V383.328H1042.15V384.742ZM1047.36 387.136C1047.36 386.557 1047.24 386.053 1047.01 385.624C1046.78 385.195 1046.46 384.868 1046.06 384.644C1045.67 384.42 1045.23 384.308 1044.76 384.308C1044.29 384.308 1043.86 384.425 1043.45 384.658C1043.06 384.882 1042.75 385.213 1042.5 385.652C1042.27 386.081 1042.15 386.581 1042.15 387.15C1042.15 387.729 1042.27 388.237 1042.5 388.676C1042.75 389.105 1043.06 389.437 1043.45 389.67C1043.86 389.894 1044.29 390.006 1044.76 390.006C1045.23 390.006 1045.67 389.894 1046.06 389.67C1046.46 389.437 1046.78 389.105 1047.01 388.676C1047.24 388.237 1047.36 387.724 1047.36 387.136ZM1051.89 384.378V388.9C1051.89 389.273 1051.97 389.539 1052.13 389.698C1052.29 389.847 1052.57 389.922 1052.96 389.922H1053.9V391H1052.75C1052.04 391 1051.51 390.837 1051.15 390.51C1050.8 390.183 1050.62 389.647 1050.62 388.9V384.378H1049.63V383.328H1050.62V381.396H1051.89V383.328H1053.9V384.378H1051.89ZM1062.21 381.242C1063.27 381.242 1064.19 381.443 1064.97 381.844C1065.75 382.236 1066.35 382.801 1066.76 383.538C1067.18 384.275 1067.39 385.143 1067.39 386.142C1067.39 387.141 1067.18 388.009 1066.76 388.746C1066.35 389.474 1065.75 390.034 1064.97 390.426C1064.19 390.809 1063.27 391 1062.21 391H1059.17V381.242H1062.21ZM1062.21 389.95C1063.47 389.95 1064.43 389.619 1065.09 388.956C1065.76 388.284 1066.09 387.346 1066.09 386.142C1066.09 384.929 1065.75 383.981 1065.08 383.3C1064.42 382.619 1063.46 382.278 1062.21 382.278H1060.45V389.95H1062.21ZM1076.07 386.87C1076.07 387.113 1076.06 387.369 1076.03 387.64H1069.9C1069.94 388.396 1070.2 388.989 1070.67 389.418C1071.14 389.838 1071.72 390.048 1072.39 390.048C1072.94 390.048 1073.4 389.922 1073.76 389.67C1074.13 389.409 1074.39 389.063 1074.54 388.634H1075.92C1075.71 389.371 1075.3 389.973 1074.68 390.44C1074.07 390.897 1073.3 391.126 1072.39 391.126C1071.66 391.126 1071.01 390.963 1070.43 390.636C1069.86 390.309 1069.41 389.847 1069.08 389.25C1068.76 388.643 1068.59 387.943 1068.59 387.15C1068.59 386.357 1068.75 385.661 1069.07 385.064C1069.39 384.467 1069.83 384.009 1070.4 383.692C1070.98 383.365 1071.64 383.202 1072.39 383.202C1073.12 383.202 1073.76 383.361 1074.32 383.678C1074.88 383.995 1075.31 384.434 1075.61 384.994C1075.92 385.545 1076.07 386.17 1076.07 386.87ZM1074.75 386.604C1074.75 386.119 1074.65 385.703 1074.43 385.358C1074.22 385.003 1073.92 384.737 1073.55 384.56C1073.19 384.373 1072.78 384.28 1072.33 384.28C1071.69 384.28 1071.14 384.485 1070.68 384.896C1070.23 385.307 1069.98 385.876 1069.91 386.604H1074.75ZM1080.61 389.824L1082.99 383.328H1084.35L1081.34 391H1079.85L1076.84 383.328H1078.21L1080.61 389.824ZM1092.6 386.87C1092.6 387.113 1092.59 387.369 1092.56 387.64H1086.43C1086.47 388.396 1086.73 388.989 1087.2 389.418C1087.67 389.838 1088.25 390.048 1088.92 390.048C1089.47 390.048 1089.93 389.922 1090.29 389.67C1090.66 389.409 1090.92 389.063 1091.07 388.634H1092.45C1092.24 389.371 1091.83 389.973 1091.21 390.44C1090.6 390.897 1089.83 391.126 1088.92 391.126C1088.19 391.126 1087.54 390.963 1086.96 390.636C1086.39 390.309 1085.94 389.847 1085.61 389.25C1085.29 388.643 1085.12 387.943 1085.12 387.15C1085.12 386.357 1085.28 385.661 1085.6 385.064C1085.92 384.467 1086.36 384.009 1086.93 383.692C1087.51 383.365 1088.17 383.202 1088.92 383.202C1089.65 383.202 1090.29 383.361 1090.85 383.678C1091.41 383.995 1091.84 384.434 1092.14 384.994C1092.45 385.545 1092.6 386.17 1092.6 386.87ZM1091.28 386.604C1091.28 386.119 1091.18 385.703 1090.96 385.358C1090.75 385.003 1090.45 384.737 1090.08 384.56C1089.72 384.373 1089.31 384.28 1088.86 384.28C1088.22 384.28 1087.67 384.485 1087.21 384.896C1086.76 385.307 1086.5 385.876 1086.44 386.604H1091.28ZM1095.56 380.64V391H1094.28V380.64H1095.56ZM1099 384.742C1099.25 384.303 1099.63 383.939 1100.12 383.65C1100.62 383.351 1101.21 383.202 1101.87 383.202C1102.55 383.202 1103.17 383.365 1103.72 383.692C1104.28 384.019 1104.72 384.481 1105.03 385.078C1105.35 385.666 1105.51 386.352 1105.51 387.136C1105.51 387.911 1105.35 388.601 1105.03 389.208C1104.72 389.815 1104.28 390.286 1103.72 390.622C1103.17 390.958 1102.55 391.126 1101.87 391.126C1101.22 391.126 1100.64 390.981 1100.13 390.692C1099.64 390.393 1099.26 390.025 1099 389.586V394.64H1097.73V383.328H1099V384.742ZM1104.21 387.136C1104.21 386.557 1104.09 386.053 1103.86 385.624C1103.63 385.195 1103.31 384.868 1102.91 384.644C1102.51 384.42 1102.08 384.308 1101.6 384.308C1101.14 384.308 1100.7 384.425 1100.3 384.658C1099.91 384.882 1099.59 385.213 1099.35 385.652C1099.12 386.081 1099 386.581 1099 387.15C1099 387.729 1099.12 388.237 1099.35 388.676C1099.59 389.105 1099.91 389.437 1100.3 389.67C1100.7 389.894 1101.14 390.006 1101.6 390.006C1102.08 390.006 1102.51 389.894 1102.91 389.67C1103.31 389.437 1103.63 389.105 1103.86 388.676C1104.09 388.237 1104.21 387.724 1104.21 387.136ZM1114.19 386.87C1114.19 387.113 1114.17 387.369 1114.15 387.64H1108.01C1108.06 388.396 1108.32 388.989 1108.78 389.418C1109.26 389.838 1109.83 390.048 1110.51 390.048C1111.06 390.048 1111.51 389.922 1111.88 389.67C1112.25 389.409 1112.51 389.063 1112.66 388.634H1114.03C1113.83 389.371 1113.42 389.973 1112.8 390.44C1112.19 390.897 1111.42 391.126 1110.51 391.126C1109.78 391.126 1109.12 390.963 1108.55 390.636C1107.98 390.309 1107.53 389.847 1107.2 389.25C1106.87 388.643 1106.71 387.943 1106.71 387.15C1106.71 386.357 1106.87 385.661 1107.19 385.064C1107.5 384.467 1107.95 384.009 1108.52 383.692C1109.1 383.365 1109.76 383.202 1110.51 383.202C1111.23 383.202 1111.88 383.361 1112.44 383.678C1113 383.995 1113.43 384.434 1113.73 384.994C1114.03 385.545 1114.19 386.17 1114.19 386.87ZM1112.87 386.604C1112.87 386.119 1112.76 385.703 1112.55 385.358C1112.33 385.003 1112.04 384.737 1111.67 384.56C1111.3 384.373 1110.9 384.28 1110.45 384.28C1109.81 384.28 1109.25 384.485 1108.8 384.896C1108.35 385.307 1108.09 385.876 1108.03 386.604H1112.87ZM1117.14 384.574C1117.37 384.135 1117.68 383.795 1118.1 383.552C1118.52 383.309 1119.02 383.188 1119.62 383.188V384.504H1119.29C1117.86 384.504 1117.14 385.279 1117.14 386.828V391H1115.87V383.328H1117.14V384.574Z" fill="#E27C00"/>
</g>
<g filter="url(#filter1_d_3001_3633)">
<path d="M656.75 411.5C656.75 402.387 664.137 395 673.25 395H794.321C799.529 395 803.75 399.221 803.75 404.429V404.429C803.75 417.447 793.197 428 780.179 428H673.25C664.137 428 656.75 420.613 656.75 411.5V411.5Z" fill="white"/>
<path d="M677.344 406.242V407.278H673.102V410.568H676.546V411.604H673.102V416H671.828V406.242H677.344ZM680.157 405.64V416H678.883V405.64H680.157ZM689.132 408.328V416H687.858V414.866C687.615 415.258 687.275 415.566 686.836 415.79C686.407 416.005 685.931 416.112 685.408 416.112C684.811 416.112 684.274 415.991 683.798 415.748C683.322 415.496 682.944 415.123 682.664 414.628C682.393 414.133 682.258 413.531 682.258 412.822V408.328H683.518V412.654C683.518 413.41 683.709 413.993 684.092 414.404C684.475 414.805 684.997 415.006 685.66 415.006C686.341 415.006 686.878 414.796 687.27 414.376C687.662 413.956 687.858 413.345 687.858 412.542V408.328H689.132ZM692.837 409.378V413.9C692.837 414.273 692.916 414.539 693.075 414.698C693.234 414.847 693.509 414.922 693.901 414.922H694.839V416H693.691C692.982 416 692.45 415.837 692.095 415.51C691.74 415.183 691.563 414.647 691.563 413.9V409.378H690.569V408.328H691.563V406.396H692.837V408.328H694.839V409.378H692.837ZM697.937 409.378V413.9C697.937 414.273 698.016 414.539 698.175 414.698C698.333 414.847 698.609 414.922 699.001 414.922H699.939V416H698.791C698.081 416 697.549 415.837 697.195 415.51C696.84 415.183 696.663 414.647 696.663 413.9V409.378H695.669V408.328H696.663V406.396H697.937V408.328H699.939V409.378H697.937ZM708.482 411.87C708.482 412.113 708.468 412.369 708.44 412.64H702.308C702.355 413.396 702.612 413.989 703.078 414.418C703.554 414.838 704.128 415.048 704.8 415.048C705.351 415.048 705.808 414.922 706.172 414.67C706.546 414.409 706.807 414.063 706.956 413.634H708.328C708.123 414.371 707.712 414.973 707.096 415.44C706.48 415.897 705.715 416.126 704.8 416.126C704.072 416.126 703.419 415.963 702.84 415.636C702.271 415.309 701.823 414.847 701.496 414.25C701.17 413.643 701.006 412.943 701.006 412.15C701.006 411.357 701.165 410.661 701.482 410.064C701.8 409.467 702.243 409.009 702.812 408.692C703.391 408.365 704.054 408.202 704.8 408.202C705.528 408.202 706.172 408.361 706.732 408.678C707.292 408.995 707.722 409.434 708.02 409.994C708.328 410.545 708.482 411.17 708.482 411.87ZM707.166 411.604C707.166 411.119 707.059 410.703 706.844 410.358C706.63 410.003 706.336 409.737 705.962 409.56C705.598 409.373 705.192 409.28 704.744 409.28C704.1 409.28 703.55 409.485 703.092 409.896C702.644 410.307 702.388 410.876 702.322 411.604H707.166ZM711.438 409.574C711.662 409.135 711.979 408.795 712.39 408.552C712.81 408.309 713.319 408.188 713.916 408.188V409.504H713.58C712.152 409.504 711.438 410.279 711.438 411.828V416H710.164V408.328H711.438V409.574ZM722.157 406.242C723.221 406.242 724.14 406.443 724.915 406.844C725.699 407.236 726.296 407.801 726.707 408.538C727.127 409.275 727.337 410.143 727.337 411.142C727.337 412.141 727.127 413.009 726.707 413.746C726.296 414.474 725.699 415.034 724.915 415.426C724.14 415.809 723.221 416 722.157 416H719.119V406.242H722.157ZM722.157 414.95C723.417 414.95 724.378 414.619 725.041 413.956C725.704 413.284 726.035 412.346 726.035 411.142C726.035 409.929 725.699 408.981 725.027 408.3C724.364 407.619 723.408 407.278 722.157 407.278H720.393V414.95H722.157ZM736.017 411.87C736.017 412.113 736.003 412.369 735.975 412.64H729.843C729.89 413.396 730.147 413.989 730.613 414.418C731.089 414.838 731.663 415.048 732.335 415.048C732.886 415.048 733.343 414.922 733.707 414.67C734.081 414.409 734.342 414.063 734.491 413.634H735.863C735.658 414.371 735.247 414.973 734.631 415.44C734.015 415.897 733.25 416.126 732.335 416.126C731.607 416.126 730.954 415.963 730.375 415.636C729.806 415.309 729.358 414.847 729.031 414.25C728.705 413.643 728.541 412.943 728.541 412.15C728.541 411.357 728.7 410.661 729.017 410.064C729.335 409.467 729.778 409.009 730.347 408.692C730.926 408.365 731.589 408.202 732.335 408.202C733.063 408.202 733.707 408.361 734.267 408.678C734.827 408.995 735.257 409.434 735.555 409.994C735.863 410.545 736.017 411.17 736.017 411.87ZM734.701 411.604C734.701 411.119 734.594 410.703 734.379 410.358C734.165 410.003 733.871 409.737 733.497 409.56C733.133 409.373 732.727 409.28 732.279 409.28C731.635 409.28 731.085 409.485 730.627 409.896C730.179 410.307 729.923 410.876 729.857 411.604H734.701ZM740.555 414.824L742.935 408.328H744.293L741.283 416H739.799L736.789 408.328H738.161L740.555 414.824ZM752.547 411.87C752.547 412.113 752.533 412.369 752.505 412.64H746.373C746.419 413.396 746.676 413.989 747.143 414.418C747.619 414.838 748.193 415.048 748.865 415.048C749.415 415.048 749.873 414.922 750.237 414.67C750.61 414.409 750.871 414.063 751.021 413.634H752.393C752.187 414.371 751.777 414.973 751.161 415.44C750.545 415.897 749.779 416.126 748.865 416.126C748.137 416.126 747.483 415.963 746.905 415.636C746.335 415.309 745.887 414.847 745.561 414.25C745.234 413.643 745.071 412.943 745.071 412.15C745.071 411.357 745.229 410.661 745.547 410.064C745.864 409.467 746.307 409.009 746.877 408.692C747.455 408.365 748.118 408.202 748.865 408.202C749.593 408.202 750.237 408.361 750.797 408.678C751.357 408.995 751.786 409.434 752.085 409.994C752.393 410.545 752.547 411.17 752.547 411.87ZM751.231 411.604C751.231 411.119 751.123 410.703 750.909 410.358C750.694 410.003 750.4 409.737 750.027 409.56C749.663 409.373 749.257 409.28 748.809 409.28C748.165 409.28 747.614 409.485 747.157 409.896C746.709 410.307 746.452 410.876 746.387 411.604H751.231ZM755.502 405.64V416H754.228V405.64H755.502ZM761.02 416.126C760.301 416.126 759.648 415.963 759.06 415.636C758.481 415.309 758.024 414.847 757.688 414.25C757.361 413.643 757.198 412.943 757.198 412.15C757.198 411.366 757.366 410.675 757.702 410.078C758.047 409.471 758.514 409.009 759.102 408.692C759.69 408.365 760.348 408.202 761.076 408.202C761.804 408.202 762.462 408.365 763.05 408.692C763.638 409.009 764.1 409.467 764.436 410.064C764.781 410.661 764.954 411.357 764.954 412.15C764.954 412.943 764.776 413.643 764.422 414.25C764.076 414.847 763.605 415.309 763.008 415.636C762.41 415.963 761.748 416.126 761.02 416.126ZM761.02 415.006C761.477 415.006 761.906 414.899 762.308 414.684C762.709 414.469 763.031 414.147 763.274 413.718C763.526 413.289 763.652 412.766 763.652 412.15C763.652 411.534 763.53 411.011 763.288 410.582C763.045 410.153 762.728 409.835 762.336 409.63C761.944 409.415 761.519 409.308 761.062 409.308C760.595 409.308 760.166 409.415 759.774 409.63C759.391 409.835 759.083 410.153 758.85 410.582C758.616 411.011 758.5 411.534 758.5 412.15C758.5 412.775 758.612 413.303 758.836 413.732C759.069 414.161 759.377 414.483 759.76 414.698C760.142 414.903 760.562 415.006 761.02 415.006ZM767.903 409.742C768.155 409.303 768.528 408.939 769.023 408.65C769.527 408.351 770.11 408.202 770.773 408.202C771.454 408.202 772.07 408.365 772.621 408.692C773.181 409.019 773.619 409.481 773.937 410.078C774.254 410.666 774.413 411.352 774.413 412.136C774.413 412.911 774.254 413.601 773.937 414.208C773.619 414.815 773.181 415.286 772.621 415.622C772.07 415.958 771.454 416.126 770.773 416.126C770.119 416.126 769.541 415.981 769.037 415.692C768.542 415.393 768.164 415.025 767.903 414.586V419.64H766.629V408.328H767.903V409.742ZM773.111 412.136C773.111 411.557 772.994 411.053 772.761 410.624C772.527 410.195 772.21 409.868 771.809 409.644C771.417 409.42 770.983 409.308 770.507 409.308C770.04 409.308 769.606 409.425 769.205 409.658C768.813 409.882 768.495 410.213 768.253 410.652C768.019 411.081 767.903 411.581 767.903 412.15C767.903 412.729 768.019 413.237 768.253 413.676C768.495 414.105 768.813 414.437 769.205 414.67C769.606 414.894 770.04 415.006 770.507 415.006C770.983 415.006 771.417 414.894 771.809 414.67C772.21 414.437 772.527 414.105 772.761 413.676C772.994 413.237 773.111 412.724 773.111 412.136ZM783.09 411.87C783.09 412.113 783.076 412.369 783.048 412.64H776.916C776.962 413.396 777.219 413.989 777.686 414.418C778.162 414.838 778.736 415.048 779.408 415.048C779.958 415.048 780.416 414.922 780.78 414.67C781.153 414.409 781.414 414.063 781.564 413.634H782.936C782.73 414.371 782.32 414.973 781.704 415.44C781.088 415.897 780.322 416.126 779.408 416.126C778.68 416.126 778.026 415.963 777.448 415.636C776.878 415.309 776.43 414.847 776.104 414.25C775.777 413.643 775.614 412.943 775.614 412.15C775.614 411.357 775.772 410.661 776.09 410.064C776.407 409.467 776.85 409.009 777.42 408.692C777.998 408.365 778.661 408.202 779.408 408.202C780.136 408.202 780.78 408.361 781.34 408.678C781.9 408.995 782.329 409.434 782.628 409.994C782.936 410.545 783.09 411.17 783.09 411.87ZM781.774 411.604C781.774 411.119 781.666 410.703 781.452 410.358C781.237 410.003 780.943 409.737 780.57 409.56C780.206 409.373 779.8 409.28 779.352 409.28C778.708 409.28 778.157 409.485 777.7 409.896C777.252 410.307 776.995 410.876 776.93 411.604H781.774ZM786.045 409.574C786.269 409.135 786.587 408.795 786.997 408.552C787.417 408.309 787.926 408.188 788.523 408.188V409.504H788.187C786.759 409.504 786.045 410.279 786.045 411.828V416H784.771V408.328H786.045V409.574Z" fill="#018343"/>
</g>
<g clip-path="url(#clip3_3001_3633)">
<path d="M816.157 397.268L819.933 401.226C821.014 402.359 822.92 401.866 823.315 400.351L826.658 387.564C827.085 385.932 825.423 384.537 823.89 385.241L811.878 390.754C810.455 391.407 810.3 393.369 811.603 394.236L816.157 397.268ZM816.157 397.268L820.656 391.906" stroke="#018343" stroke-width="1.5" stroke-linecap="round" stroke-linejoin="round"/>
</g>
<path d="M843.463 370.375L840.062 367L851.062 356H857.837L843.463 370.375ZM851.062 378L845.137 372.075L851.062 366.15H857.837L851.913 372.075L857.837 378H851.062Z" fill="#018343"/>
<g filter="url(#filter2_d_3001_3633)">
<path d="M634 205C634 195.887 641.387 188.5 650.5 188.5H774.571C779.779 188.5 784 192.721 784 197.929V197.929C784 210.947 773.447 221.5 760.429 221.5H650.5C641.387 221.5 634 214.113 634 205V205Z" fill="white"/>
<path d="M656.47 202.57C656.199 202.001 655.807 201.562 655.294 201.254C654.781 200.937 654.183 200.778 653.502 200.778C652.821 200.778 652.205 200.937 651.654 201.254C651.113 201.562 650.683 202.01 650.366 202.598C650.058 203.177 649.904 203.849 649.904 204.614C649.904 205.379 650.058 206.051 650.366 206.63C650.683 207.209 651.113 207.657 651.654 207.974C652.205 208.282 652.821 208.436 653.502 208.436C654.454 208.436 655.238 208.151 655.854 207.582C656.47 207.013 656.829 206.243 656.932 205.272H653.04V204.236H658.29V205.216C658.215 206.019 657.963 206.756 657.534 207.428C657.105 208.091 656.54 208.618 655.84 209.01C655.14 209.393 654.361 209.584 653.502 209.584C652.597 209.584 651.771 209.374 651.024 208.954C650.277 208.525 649.685 207.932 649.246 207.176C648.817 206.42 648.602 205.566 648.602 204.614C648.602 203.662 648.817 202.808 649.246 202.052C649.685 201.287 650.277 200.694 651.024 200.274C651.771 199.845 652.597 199.63 653.502 199.63C654.538 199.63 655.453 199.887 656.246 200.4C657.049 200.913 657.632 201.637 657.996 202.57H656.47ZM661.248 203.074C661.472 202.635 661.79 202.295 662.2 202.052C662.62 201.809 663.129 201.688 663.726 201.688V203.004H663.39C661.962 203.004 661.248 203.779 661.248 205.328V209.5H659.974V201.828H661.248V203.074ZM664.721 205.636C664.721 204.852 664.88 204.166 665.197 203.578C665.514 202.981 665.948 202.519 666.499 202.192C667.059 201.865 667.68 201.702 668.361 201.702C669.033 201.702 669.616 201.847 670.111 202.136C670.606 202.425 670.974 202.789 671.217 203.228V201.828H672.505V209.5H671.217V208.072C670.965 208.52 670.587 208.893 670.083 209.192C669.588 209.481 669.01 209.626 668.347 209.626C667.666 209.626 667.05 209.458 666.499 209.122C665.948 208.786 665.514 208.315 665.197 207.708C664.88 207.101 664.721 206.411 664.721 205.636ZM671.217 205.65C671.217 205.071 671.1 204.567 670.867 204.138C670.634 203.709 670.316 203.382 669.915 203.158C669.523 202.925 669.089 202.808 668.613 202.808C668.137 202.808 667.703 202.92 667.311 203.144C666.919 203.368 666.606 203.695 666.373 204.124C666.14 204.553 666.023 205.057 666.023 205.636C666.023 206.224 666.14 206.737 666.373 207.176C666.606 207.605 666.919 207.937 667.311 208.17C667.703 208.394 668.137 208.506 668.613 208.506C669.089 208.506 669.523 208.394 669.915 208.17C670.316 207.937 670.634 207.605 670.867 207.176C671.1 206.737 671.217 206.229 671.217 205.65ZM675.932 203.242C676.184 202.803 676.557 202.439 677.052 202.15C677.556 201.851 678.139 201.702 678.802 201.702C679.483 201.702 680.099 201.865 680.65 202.192C681.21 202.519 681.649 202.981 681.966 203.578C682.283 204.166 682.442 204.852 682.442 205.636C682.442 206.411 682.283 207.101 681.966 207.708C681.649 208.315 681.21 208.786 680.65 209.122C680.099 209.458 679.483 209.626 678.802 209.626C678.149 209.626 677.57 209.481 677.066 209.192C676.571 208.893 676.193 208.525 675.932 208.086V213.14H674.658V201.828H675.932V203.242ZM681.14 205.636C681.14 205.057 681.023 204.553 680.79 204.124C680.557 203.695 680.239 203.368 679.838 203.144C679.446 202.92 679.012 202.808 678.536 202.808C678.069 202.808 677.635 202.925 677.234 203.158C676.842 203.382 676.525 203.713 676.282 204.152C676.049 204.581 675.932 205.081 675.932 205.65C675.932 206.229 676.049 206.737 676.282 207.176C676.525 207.605 676.842 207.937 677.234 208.17C677.635 208.394 678.069 208.506 678.536 208.506C679.012 208.506 679.446 208.394 679.838 208.17C680.239 207.937 680.557 207.605 680.79 207.176C681.023 206.737 681.14 206.224 681.14 205.636ZM687.927 201.688C688.506 201.688 689.028 201.814 689.495 202.066C689.962 202.309 690.326 202.677 690.587 203.172C690.858 203.667 690.993 204.269 690.993 204.978V209.5H689.733V205.16C689.733 204.395 689.542 203.811 689.159 203.41C688.776 202.999 688.254 202.794 687.591 202.794C686.919 202.794 686.382 203.004 685.981 203.424C685.589 203.844 685.393 204.455 685.393 205.258V209.5H684.119V199.14H685.393V202.92C685.645 202.528 685.99 202.225 686.429 202.01C686.877 201.795 687.376 201.688 687.927 201.688ZM693.732 200.582C693.489 200.582 693.284 200.498 693.116 200.33C692.948 200.162 692.864 199.957 692.864 199.714C692.864 199.471 692.948 199.266 693.116 199.098C693.284 198.93 693.489 198.846 693.732 198.846C693.965 198.846 694.161 198.93 694.32 199.098C694.488 199.266 694.572 199.471 694.572 199.714C694.572 199.957 694.488 200.162 694.32 200.33C694.161 200.498 693.965 200.582 693.732 200.582ZM694.348 201.828V209.5H693.074V201.828H694.348ZM696.043 205.65C696.043 204.857 696.202 204.166 696.519 203.578C696.837 202.981 697.275 202.519 697.835 202.192C698.405 201.865 699.053 201.702 699.781 201.702C700.724 201.702 701.499 201.931 702.105 202.388C702.721 202.845 703.127 203.48 703.323 204.292H701.951C701.821 203.825 701.564 203.457 701.181 203.186C700.808 202.915 700.341 202.78 699.781 202.78C699.053 202.78 698.465 203.032 698.017 203.536C697.569 204.031 697.345 204.735 697.345 205.65C697.345 206.574 697.569 207.288 698.017 207.792C698.465 208.296 699.053 208.548 699.781 208.548C700.341 208.548 700.808 208.417 701.181 208.156C701.555 207.895 701.811 207.521 701.951 207.036H703.323C703.118 207.82 702.707 208.45 702.091 208.926C701.475 209.393 700.705 209.626 699.781 209.626C699.053 209.626 698.405 209.463 697.835 209.136C697.275 208.809 696.837 208.347 696.519 207.75C696.202 207.153 696.043 206.453 696.043 205.65ZM711.794 199.742C712.858 199.742 713.777 199.943 714.552 200.344C715.336 200.736 715.933 201.301 716.344 202.038C716.764 202.775 716.974 203.643 716.974 204.642C716.974 205.641 716.764 206.509 716.344 207.246C715.933 207.974 715.336 208.534 714.552 208.926C713.777 209.309 712.858 209.5 711.794 209.5H708.756V199.742H711.794ZM711.794 208.45C713.054 208.45 714.015 208.119 714.678 207.456C715.34 206.784 715.672 205.846 715.672 204.642C715.672 203.429 715.336 202.481 714.664 201.8C714.001 201.119 713.044 200.778 711.794 200.778H710.03V208.45H711.794ZM725.654 205.37C725.654 205.613 725.64 205.869 725.612 206.14H719.48C719.527 206.896 719.784 207.489 720.25 207.918C720.726 208.338 721.3 208.548 721.972 208.548C722.523 208.548 722.98 208.422 723.344 208.17C723.718 207.909 723.979 207.563 724.128 207.134H725.5C725.295 207.871 724.884 208.473 724.268 208.94C723.652 209.397 722.887 209.626 721.972 209.626C721.244 209.626 720.591 209.463 720.012 209.136C719.443 208.809 718.995 208.347 718.668 207.75C718.342 207.143 718.178 206.443 718.178 205.65C718.178 204.857 718.337 204.161 718.654 203.564C718.972 202.967 719.415 202.509 719.984 202.192C720.563 201.865 721.226 201.702 721.972 201.702C722.7 201.702 723.344 201.861 723.904 202.178C724.464 202.495 724.894 202.934 725.192 203.494C725.5 204.045 725.654 204.67 725.654 205.37ZM724.338 205.104C724.338 204.619 724.231 204.203 724.016 203.858C723.802 203.503 723.508 203.237 723.134 203.06C722.77 202.873 722.364 202.78 721.916 202.78C721.272 202.78 720.722 202.985 720.264 203.396C719.816 203.807 719.56 204.376 719.494 205.104H724.338ZM730.052 209.626C729.464 209.626 728.936 209.528 728.47 209.332C728.003 209.127 727.634 208.847 727.364 208.492C727.093 208.128 726.944 207.713 726.916 207.246H728.232C728.269 207.629 728.446 207.941 728.764 208.184C729.09 208.427 729.515 208.548 730.038 208.548C730.523 208.548 730.906 208.441 731.186 208.226C731.466 208.011 731.606 207.741 731.606 207.414C731.606 207.078 731.456 206.831 731.158 206.672C730.859 206.504 730.397 206.341 729.772 206.182C729.202 206.033 728.736 205.883 728.372 205.734C728.017 205.575 727.709 205.347 727.448 205.048C727.196 204.74 727.07 204.339 727.07 203.844C727.07 203.452 727.186 203.093 727.42 202.766C727.653 202.439 727.984 202.183 728.414 201.996C728.843 201.8 729.333 201.702 729.884 201.702C730.733 201.702 731.419 201.917 731.942 202.346C732.464 202.775 732.744 203.363 732.782 204.11H731.508C731.48 203.709 731.316 203.387 731.018 203.144C730.728 202.901 730.336 202.78 729.842 202.78C729.384 202.78 729.02 202.878 728.75 203.074C728.479 203.27 728.344 203.527 728.344 203.844C728.344 204.096 728.423 204.306 728.582 204.474C728.75 204.633 728.955 204.763 729.198 204.866C729.45 204.959 729.795 205.067 730.234 205.188C730.784 205.337 731.232 205.487 731.578 205.636C731.923 205.776 732.217 205.991 732.46 206.28C732.712 206.569 732.842 206.947 732.852 207.414C732.852 207.834 732.735 208.212 732.502 208.548C732.268 208.884 731.937 209.15 731.508 209.346C731.088 209.533 730.602 209.626 730.052 209.626ZM735.308 200.582C735.066 200.582 734.86 200.498 734.692 200.33C734.524 200.162 734.44 199.957 734.44 199.714C734.44 199.471 734.524 199.266 734.692 199.098C734.86 198.93 735.066 198.846 735.308 198.846C735.542 198.846 735.738 198.93 735.896 199.098C736.064 199.266 736.148 199.471 736.148 199.714C736.148 199.957 736.064 200.162 735.896 200.33C735.738 200.498 735.542 200.582 735.308 200.582ZM735.924 201.828V209.5H734.65V201.828H735.924ZM741.26 201.702C741.922 201.702 742.501 201.847 742.996 202.136C743.5 202.425 743.873 202.789 744.116 203.228V201.828H745.404V209.668C745.404 210.368 745.254 210.989 744.956 211.53C744.657 212.081 744.228 212.51 743.668 212.818C743.117 213.126 742.473 213.28 741.736 213.28C740.728 213.28 739.888 213.042 739.216 212.566C738.544 212.09 738.147 211.441 738.026 210.62H739.286C739.426 211.087 739.715 211.46 740.154 211.74C740.592 212.029 741.12 212.174 741.736 212.174C742.436 212.174 743.005 211.955 743.444 211.516C743.892 211.077 744.116 210.461 744.116 209.668V208.058C743.864 208.506 743.49 208.879 742.996 209.178C742.501 209.477 741.922 209.626 741.26 209.626C740.578 209.626 739.958 209.458 739.398 209.122C738.847 208.786 738.413 208.315 738.096 207.708C737.778 207.101 737.62 206.411 737.62 205.636C737.62 204.852 737.778 204.166 738.096 203.578C738.413 202.981 738.847 202.519 739.398 202.192C739.958 201.865 740.578 201.702 741.26 201.702ZM744.116 205.65C744.116 205.071 743.999 204.567 743.766 204.138C743.532 203.709 743.215 203.382 742.814 203.158C742.422 202.925 741.988 202.808 741.512 202.808C741.036 202.808 740.602 202.92 740.21 203.144C739.818 203.368 739.505 203.695 739.272 204.124C739.038 204.553 738.922 205.057 738.922 205.636C738.922 206.224 739.038 206.737 739.272 207.176C739.505 207.605 739.818 207.937 740.21 208.17C740.602 208.394 741.036 208.506 741.512 208.506C741.988 208.506 742.422 208.394 742.814 208.17C743.215 207.937 743.532 207.605 743.766 207.176C743.999 206.737 744.116 206.229 744.116 205.65ZM751.295 201.688C752.228 201.688 752.984 201.973 753.563 202.542C754.141 203.102 754.431 203.914 754.431 204.978V209.5H753.171V205.16C753.171 204.395 752.979 203.811 752.597 203.41C752.214 202.999 751.691 202.794 751.029 202.794C750.357 202.794 749.82 203.004 749.419 203.424C749.027 203.844 748.831 204.455 748.831 205.258V209.5H747.557V201.828H748.831V202.92C749.083 202.528 749.423 202.225 749.853 202.01C750.291 201.795 750.772 201.688 751.295 201.688ZM763.512 205.37C763.512 205.613 763.498 205.869 763.47 206.14H757.338C757.384 206.896 757.641 207.489 758.108 207.918C758.584 208.338 759.158 208.548 759.83 208.548C760.38 208.548 760.838 208.422 761.202 208.17C761.575 207.909 761.836 207.563 761.986 207.134H763.358C763.152 207.871 762.742 208.473 762.126 208.94C761.51 209.397 760.744 209.626 759.83 209.626C759.102 209.626 758.448 209.463 757.87 209.136C757.3 208.809 756.852 208.347 756.526 207.75C756.199 207.143 756.036 206.443 756.036 205.65C756.036 204.857 756.194 204.161 756.512 203.564C756.829 202.967 757.272 202.509 757.842 202.192C758.42 201.865 759.083 201.702 759.83 201.702C760.558 201.702 761.202 201.861 761.762 202.178C762.322 202.495 762.751 202.934 763.05 203.494C763.358 204.045 763.512 204.67 763.512 205.37ZM762.196 205.104C762.196 204.619 762.088 204.203 761.874 203.858C761.659 203.503 761.365 203.237 760.992 203.06C760.628 202.873 760.222 202.78 759.774 202.78C759.13 202.78 758.579 202.985 758.122 203.396C757.674 203.807 757.417 204.376 757.352 205.104H762.196ZM766.467 203.074C766.691 202.635 767.009 202.295 767.419 202.052C767.839 201.809 768.348 201.688 768.945 201.688V203.004H768.609C767.181 203.004 766.467 203.779 766.467 205.328V209.5H765.193V201.828H766.467V203.074Z" fill="#018343"/>
</g>
<g clip-path="url(#clip4_3001_3633)">
<path d="M796.021 199.58L799.438 195.308C800.416 194.085 802.357 194.41 802.883 195.885L807.328 208.331C807.896 209.92 806.362 211.455 804.773 210.887L792.326 206.442C790.852 205.915 790.527 203.975 791.749 202.997L796.021 199.58ZM796.021 199.58L800.971 204.529" stroke="#018343" stroke-width="1.5" stroke-linecap="round" stroke-linejoin="round"/>
</g>
<path fill-rule="evenodd" clip-rule="evenodd" d="M839.691 234.5C839.691 235.76 839.191 236.968 838.3 237.859C837.409 238.75 836.201 239.25 834.941 239.25H824.941C823.682 239.25 822.473 238.75 821.583 237.859C820.692 236.968 820.191 235.76 820.191 234.5V224.5C820.191 223.24 820.692 222.032 821.583 221.141C822.473 220.25 823.682 219.75 824.941 219.75H834.941C836.201 219.75 837.409 220.25 838.3 221.141C839.191 222.032 839.691 223.24 839.691 224.5V234.5ZM824.941 234.25C824.742 234.25 824.552 234.171 824.411 234.03C824.27 233.89 824.191 233.699 824.191 233.5V225.5C824.191 225.301 824.27 225.11 824.411 224.97C824.552 224.829 824.742 224.75 824.941 224.75H826.941C827.671 224.75 828.37 225.04 828.886 225.555C829.402 226.071 829.691 226.771 829.691 227.5C829.691 228.229 829.402 228.929 828.886 229.445C828.37 229.96 827.671 230.25 826.941 230.25H825.691V233.5C825.691 233.699 825.612 233.89 825.472 234.03C825.331 234.171 825.14 234.25 824.941 234.25ZM825.691 228.75H826.941C827.273 228.75 827.591 228.618 827.825 228.384C828.06 228.149 828.191 227.832 828.191 227.5C828.191 227.168 828.06 226.851 827.825 226.616C827.591 226.382 827.273 226.25 826.941 226.25H825.691V228.75ZM834.27 228.835C834.314 228.924 834.375 229.003 834.449 229.069C834.523 229.134 834.61 229.184 834.704 229.216C834.797 229.247 834.897 229.26 834.995 229.253C835.094 229.247 835.19 229.22 835.279 229.176C835.368 229.132 835.447 229.071 835.511 228.996C835.576 228.921 835.625 228.834 835.656 228.74C835.687 228.646 835.699 228.547 835.692 228.448C835.684 228.349 835.657 228.253 835.612 228.165C835.4 227.74 835.073 227.382 834.668 227.132C834.264 226.882 833.798 226.75 833.322 226.75H832.941C832.345 226.75 831.772 226.987 831.35 227.409C830.928 227.831 830.691 228.403 830.691 229C830.691 229.597 830.928 230.169 831.35 230.591C831.772 231.013 832.345 231.25 832.941 231.25H833.441C833.64 231.25 833.831 231.329 833.972 231.47C834.112 231.61 834.191 231.801 834.191 232C834.191 232.199 834.112 232.39 833.972 232.53C833.831 232.671 833.64 232.75 833.441 232.75H833.059C832.863 232.75 832.67 232.695 832.503 232.592C832.336 232.489 832.2 232.341 832.112 232.165C832.023 231.989 831.867 231.855 831.679 231.793C831.491 231.731 831.286 231.746 831.109 231.834C830.932 231.923 830.797 232.077 830.734 232.265C830.67 232.452 830.683 232.657 830.77 232.835C830.983 233.26 831.31 233.618 831.714 233.868C832.118 234.118 832.584 234.25 833.059 234.25H833.441C834.038 234.25 834.61 234.013 835.032 233.591C835.454 233.169 835.691 232.597 835.691 232C835.691 231.403 835.454 230.831 835.032 230.409C834.61 229.987 834.038 229.75 833.441 229.75H832.941C832.742 229.75 832.552 229.671 832.411 229.53C832.27 229.39 832.191 229.199 832.191 229C832.191 228.801 832.27 228.61 832.411 228.47C832.552 228.329 832.742 228.25 832.941 228.25H833.323C833.723 228.25 834.091 228.477 834.27 228.835Z" fill="#018343"/>
<g clip-path="url(#clip5_3001_3633)">
<path d="M911.879 213.653C912.051 213.553 912.247 213.5 912.446 213.5C912.645 213.5 912.841 213.553 913.013 213.653L922.334 219.091C922.504 219.19 922.645 219.331 922.744 219.502C922.842 219.672 922.893 219.866 922.893 220.063V230.938C922.893 231.134 922.842 231.328 922.744 231.498C922.645 231.669 922.504 231.811 922.334 231.91L913.013 237.347C912.841 237.448 912.645 237.5 912.446 237.5C912.247 237.5 912.051 237.448 911.879 237.347L909.549 235.988C909.292 235.838 909.104 235.591 909.028 235.302C908.952 235.014 908.994 234.707 909.145 234.449C909.295 234.191 909.542 234.004 909.83 233.928C910.119 233.852 910.426 233.894 910.684 234.044L912.446 235.073L920.643 230.291V220.709L912.446 215.927L904.25 220.709V230.291L905.926 231.269C906.442 231.434 907.08 231.475 907.529 231.277C907.764 231.174 907.956 230.994 908.075 230.767C908.231 230.485 908.375 230.015 908.375 229.25V221.375C908.375 221.077 908.494 220.791 908.705 220.58C908.915 220.369 909.202 220.25 909.5 220.25C909.798 220.25 910.085 220.369 910.295 220.58C910.506 220.791 910.625 221.077 910.625 221.375V229.25C910.625 230.285 910.432 231.158 910.04 231.86C909.684 232.515 909.12 233.034 908.438 233.335C907.229 233.869 905.892 233.65 905.075 233.356C905.01 233.332 904.948 233.303 904.889 233.269L902.558 231.91C902.388 231.81 902.247 231.669 902.149 231.498C902.051 231.327 902 231.134 902 230.938V220.063C902 219.866 902.051 219.673 902.149 219.502C902.247 219.332 902.388 219.19 902.558 219.091L911.879 213.653ZM912.869 221.425C913.465 220.717 914.395 220.25 915.656 220.25C916.826 220.25 917.718 220.652 918.323 221.29C918.428 221.396 918.511 221.523 918.566 221.662C918.622 221.801 918.649 221.95 918.647 222.099C918.644 222.249 918.611 222.397 918.551 222.534C918.49 222.671 918.403 222.794 918.294 222.897C918.186 223 918.057 223.08 917.917 223.133C917.777 223.185 917.628 223.209 917.478 223.203C917.328 223.198 917.182 223.162 917.046 223.099C916.91 223.035 916.789 222.946 916.688 222.835C916.554 222.698 916.28 222.5 915.654 222.5C914.991 222.5 914.719 222.722 914.591 222.872C914.46 223.032 914.383 223.231 914.373 223.438C914.373 223.562 914.428 223.808 914.591 224.003C914.719 224.153 914.992 224.375 915.656 224.375C915.764 224.375 915.871 224.39 915.974 224.42C916.904 224.555 917.612 224.972 918.098 225.55C918.656 226.214 918.842 227 918.842 227.563C918.842 228.125 918.656 228.911 918.098 229.576C917.503 230.284 916.572 230.75 915.311 230.75C914.141 230.75 913.249 230.348 912.646 229.711C912.448 229.492 912.344 229.206 912.355 228.912C912.367 228.618 912.493 228.34 912.707 228.138C912.92 227.936 913.205 227.825 913.499 227.831C913.793 227.836 914.074 227.956 914.281 228.166C914.411 228.304 914.687 228.5 915.311 228.5C915.974 228.5 916.248 228.278 916.376 228.128C916.507 227.968 916.583 227.769 916.592 227.563C916.582 227.356 916.506 227.157 916.375 226.997C916.249 226.847 915.974 226.625 915.311 226.625C915.203 226.626 915.095 226.61 914.992 226.58C914.062 226.445 913.354 226.028 912.869 225.451C912.397 224.885 912.133 224.174 912.124 223.438C912.124 222.875 912.31 222.089 912.869 221.425Z" fill="#E27C00"/>
</g>
<g clip-path="url(#clip6_3001_3633)">
<path d="M946.769 196.094L950.727 199.871C951.859 200.952 951.367 202.857 949.851 203.253L937.065 206.596C935.433 207.023 934.038 205.361 934.742 203.827L940.255 191.815C940.908 190.393 942.869 190.238 943.737 191.541L946.769 196.094ZM946.769 196.094L941.407 200.594" stroke="#E27C00" stroke-width="1.5" stroke-linecap="round" stroke-linejoin="round"/>
</g>
<g filter="url(#filter3_d_3001_3633)">
<path d="M958.312 193.929C958.312 188.721 962.534 184.5 967.741 184.5H1109.81C1118.93 184.5 1126.31 191.887 1126.31 201V201C1126.31 210.113 1118.93 217.5 1109.81 217.5H981.884C968.866 217.5 958.312 206.947 958.312 193.929V193.929Z" fill="white"/>
<path d="M978.907 195.742V196.778H974.665V200.068H978.109V201.104H974.665V205.5H973.391V195.742H978.907ZM987.249 197.828V205.5H985.975V204.366C985.733 204.758 985.392 205.066 984.953 205.29C984.524 205.505 984.048 205.612 983.525 205.612C982.928 205.612 982.391 205.491 981.915 205.248C981.439 204.996 981.061 204.623 980.781 204.128C980.511 203.633 980.375 203.031 980.375 202.322V197.828H981.635V202.154C981.635 202.91 981.827 203.493 982.209 203.904C982.592 204.305 983.115 204.506 983.777 204.506C984.459 204.506 984.995 204.296 985.387 203.876C985.779 203.456 985.975 202.845 985.975 202.042V197.828H987.249ZM990.674 195.14V205.5H989.4V195.14H990.674ZM994.12 195.14V205.5H992.846V195.14H994.12ZM1003.12 205.598C1002.47 205.598 1001.89 205.486 1001.38 205.262C1000.88 205.029 1000.48 204.711 1000.19 204.31C999.902 203.899 999.753 203.428 999.743 202.896H1001.1C1001.15 203.353 1001.33 203.741 1001.66 204.058C1002 204.366 1002.48 204.52 1003.12 204.52C1003.72 204.52 1004.2 204.371 1004.55 204.072C1004.9 203.764 1005.08 203.372 1005.08 202.896C1005.08 202.523 1004.97 202.219 1004.77 201.986C1004.56 201.753 1004.31 201.575 1004 201.454C1003.69 201.333 1003.28 201.202 1002.75 201.062C1002.11 200.894 1001.59 200.726 1001.2 200.558C1000.82 200.39 1000.49 200.129 1000.21 199.774C999.935 199.41 999.799 198.925 999.799 198.318C999.799 197.786 999.935 197.315 1000.21 196.904C1000.48 196.493 1000.85 196.176 1001.34 195.952C1001.83 195.728 1002.4 195.616 1003.03 195.616C1003.95 195.616 1004.69 195.845 1005.27 196.302C1005.86 196.759 1006.19 197.366 1006.27 198.122H1004.87C1004.82 197.749 1004.62 197.422 1004.28 197.142C1003.93 196.853 1003.48 196.708 1002.91 196.708C1002.38 196.708 1001.94 196.848 1001.61 197.128C1001.27 197.399 1001.1 197.781 1001.1 198.276C1001.1 198.631 1001.2 198.92 1001.4 199.144C1001.6 199.368 1001.85 199.541 1002.14 199.662C1002.44 199.774 1002.85 199.905 1003.38 200.054C1004.03 200.231 1004.55 200.409 1004.94 200.586C1005.33 200.754 1005.67 201.02 1005.95 201.384C1006.23 201.739 1006.37 202.224 1006.37 202.84C1006.37 203.316 1006.24 203.764 1005.99 204.184C1005.74 204.604 1005.36 204.945 1004.87 205.206C1004.37 205.467 1003.79 205.598 1003.12 205.598ZM1009.79 198.878V203.4C1009.79 203.773 1009.87 204.039 1010.03 204.198C1010.19 204.347 1010.47 204.422 1010.86 204.422H1011.8V205.5H1010.65C1009.94 205.5 1009.41 205.337 1009.05 205.01C1008.7 204.683 1008.52 204.147 1008.52 203.4V198.878H1007.53V197.828H1008.52V195.896H1009.79V197.828H1011.8V198.878H1009.79ZM1012.86 201.636C1012.86 200.852 1013.02 200.166 1013.34 199.578C1013.66 198.981 1014.09 198.519 1014.64 198.192C1015.2 197.865 1015.82 197.702 1016.5 197.702C1017.18 197.702 1017.76 197.847 1018.25 198.136C1018.75 198.425 1019.12 198.789 1019.36 199.228V197.828H1020.65V205.5H1019.36V204.072C1019.11 204.52 1018.73 204.893 1018.23 205.192C1017.73 205.481 1017.15 205.626 1016.49 205.626C1015.81 205.626 1015.19 205.458 1014.64 205.122C1014.09 204.786 1013.66 204.315 1013.34 203.708C1013.02 203.101 1012.86 202.411 1012.86 201.636ZM1019.36 201.65C1019.36 201.071 1019.24 200.567 1019.01 200.138C1018.78 199.709 1018.46 199.382 1018.06 199.158C1017.67 198.925 1017.23 198.808 1016.76 198.808C1016.28 198.808 1015.85 198.92 1015.45 199.144C1015.06 199.368 1014.75 199.695 1014.52 200.124C1014.28 200.553 1014.17 201.057 1014.17 201.636C1014.17 202.224 1014.28 202.737 1014.52 203.176C1014.75 203.605 1015.06 203.937 1015.45 204.17C1015.85 204.394 1016.28 204.506 1016.76 204.506C1017.23 204.506 1017.67 204.394 1018.06 204.17C1018.46 203.937 1018.78 203.605 1019.01 203.176C1019.24 202.737 1019.36 202.229 1019.36 201.65ZM1022.32 201.65C1022.32 200.857 1022.48 200.166 1022.8 199.578C1023.12 198.981 1023.56 198.519 1024.12 198.192C1024.69 197.865 1025.33 197.702 1026.06 197.702C1027.01 197.702 1027.78 197.931 1028.39 198.388C1029 198.845 1029.41 199.48 1029.6 200.292H1028.23C1028.1 199.825 1027.85 199.457 1027.46 199.186C1027.09 198.915 1026.62 198.78 1026.06 198.78C1025.33 198.78 1024.75 199.032 1024.3 199.536C1023.85 200.031 1023.63 200.735 1023.63 201.65C1023.63 202.574 1023.85 203.288 1024.3 203.792C1024.75 204.296 1025.33 204.548 1026.06 204.548C1026.62 204.548 1027.09 204.417 1027.46 204.156C1027.84 203.895 1028.09 203.521 1028.23 203.036H1029.6C1029.4 203.82 1028.99 204.45 1028.37 204.926C1027.76 205.393 1026.99 205.626 1026.06 205.626C1025.33 205.626 1024.69 205.463 1024.12 205.136C1023.56 204.809 1023.12 204.347 1022.8 203.75C1022.48 203.153 1022.32 202.453 1022.32 201.65ZM1035.59 205.5L1032.58 202.112V205.5H1031.3V195.14H1032.58V201.23L1035.53 197.828H1037.31L1033.7 201.65L1037.32 205.5H1035.59ZM1045.28 195.742C1046.34 195.742 1047.26 195.943 1048.04 196.344C1048.82 196.736 1049.42 197.301 1049.83 198.038C1050.25 198.775 1050.46 199.643 1050.46 200.642C1050.46 201.641 1050.25 202.509 1049.83 203.246C1049.42 203.974 1048.82 204.534 1048.04 204.926C1047.26 205.309 1046.34 205.5 1045.28 205.5H1042.24V195.742H1045.28ZM1045.28 204.45C1046.54 204.45 1047.5 204.119 1048.16 203.456C1048.83 202.784 1049.16 201.846 1049.16 200.642C1049.16 199.429 1048.82 198.481 1048.15 197.8C1047.49 197.119 1046.53 196.778 1045.28 196.778H1043.52V204.45H1045.28ZM1059.14 201.37C1059.14 201.613 1059.13 201.869 1059.1 202.14H1052.97C1053.01 202.896 1053.27 203.489 1053.74 203.918C1054.21 204.338 1054.79 204.548 1055.46 204.548C1056.01 204.548 1056.47 204.422 1056.83 204.17C1057.2 203.909 1057.47 203.563 1057.61 203.134H1058.99C1058.78 203.871 1058.37 204.473 1057.75 204.94C1057.14 205.397 1056.37 205.626 1055.46 205.626C1054.73 205.626 1054.08 205.463 1053.5 205.136C1052.93 204.809 1052.48 204.347 1052.15 203.75C1051.83 203.143 1051.66 202.443 1051.66 201.65C1051.66 200.857 1051.82 200.161 1052.14 199.564C1052.46 198.967 1052.9 198.509 1053.47 198.192C1054.05 197.865 1054.71 197.702 1055.46 197.702C1056.19 197.702 1056.83 197.861 1057.39 198.178C1057.95 198.495 1058.38 198.934 1058.68 199.494C1058.99 200.045 1059.14 200.67 1059.14 201.37ZM1057.82 201.104C1057.82 200.619 1057.72 200.203 1057.5 199.858C1057.29 199.503 1056.99 199.237 1056.62 199.06C1056.26 198.873 1055.85 198.78 1055.4 198.78C1054.76 198.78 1054.21 198.985 1053.75 199.396C1053.3 199.807 1053.05 200.376 1052.98 201.104H1057.82ZM1063.68 204.324L1066.06 197.828H1067.42L1064.41 205.5H1062.92L1059.91 197.828H1061.28L1063.68 204.324ZM1075.67 201.37C1075.67 201.613 1075.66 201.869 1075.63 202.14H1069.5C1069.54 202.896 1069.8 203.489 1070.27 203.918C1070.74 204.338 1071.32 204.548 1071.99 204.548C1072.54 204.548 1073 204.422 1073.36 204.17C1073.73 203.909 1073.99 203.563 1074.14 203.134H1075.52C1075.31 203.871 1074.9 204.473 1074.28 204.94C1073.67 205.397 1072.9 205.626 1071.99 205.626C1071.26 205.626 1070.61 205.463 1070.03 205.136C1069.46 204.809 1069.01 204.347 1068.68 203.75C1068.36 203.143 1068.19 202.443 1068.19 201.65C1068.19 200.857 1068.35 200.161 1068.67 199.564C1068.99 198.967 1069.43 198.509 1070 198.192C1070.58 197.865 1071.24 197.702 1071.99 197.702C1072.72 197.702 1073.36 197.861 1073.92 198.178C1074.48 198.495 1074.91 198.934 1075.21 199.494C1075.52 200.045 1075.67 200.67 1075.67 201.37ZM1074.35 201.104C1074.35 200.619 1074.25 200.203 1074.03 199.858C1073.82 199.503 1073.52 199.237 1073.15 199.06C1072.79 198.873 1072.38 198.78 1071.93 198.78C1071.29 198.78 1070.74 198.985 1070.28 199.396C1069.83 199.807 1069.58 200.376 1069.51 201.104H1074.35ZM1078.63 195.14V205.5H1077.35V195.14H1078.63ZM1084.14 205.626C1083.42 205.626 1082.77 205.463 1082.18 205.136C1081.6 204.809 1081.15 204.347 1080.81 203.75C1080.48 203.143 1080.32 202.443 1080.32 201.65C1080.32 200.866 1080.49 200.175 1080.82 199.578C1081.17 198.971 1081.64 198.509 1082.22 198.192C1082.81 197.865 1083.47 197.702 1084.2 197.702C1084.93 197.702 1085.58 197.865 1086.17 198.192C1086.76 198.509 1087.22 198.967 1087.56 199.564C1087.9 200.161 1088.08 200.857 1088.08 201.65C1088.08 202.443 1087.9 203.143 1087.54 203.75C1087.2 204.347 1086.73 204.809 1086.13 205.136C1085.53 205.463 1084.87 205.626 1084.14 205.626ZM1084.14 204.506C1084.6 204.506 1085.03 204.399 1085.43 204.184C1085.83 203.969 1086.15 203.647 1086.4 203.218C1086.65 202.789 1086.77 202.266 1086.77 201.65C1086.77 201.034 1086.65 200.511 1086.41 200.082C1086.17 199.653 1085.85 199.335 1085.46 199.13C1085.07 198.915 1084.64 198.808 1084.18 198.808C1083.72 198.808 1083.29 198.915 1082.9 199.13C1082.51 199.335 1082.21 199.653 1081.97 200.082C1081.74 200.511 1081.62 201.034 1081.62 201.65C1081.62 202.275 1081.73 202.803 1081.96 203.232C1082.19 203.661 1082.5 203.983 1082.88 204.198C1083.27 204.403 1083.69 204.506 1084.14 204.506ZM1091.03 199.242C1091.28 198.803 1091.65 198.439 1092.15 198.15C1092.65 197.851 1093.23 197.702 1093.9 197.702C1094.58 197.702 1095.19 197.865 1095.74 198.192C1096.3 198.519 1096.74 198.981 1097.06 199.578C1097.38 200.166 1097.54 200.852 1097.54 201.636C1097.54 202.411 1097.38 203.101 1097.06 203.708C1096.74 204.315 1096.3 204.786 1095.74 205.122C1095.19 205.458 1094.58 205.626 1093.9 205.626C1093.24 205.626 1092.66 205.481 1092.16 205.192C1091.67 204.893 1091.29 204.525 1091.03 204.086V209.14H1089.75V197.828H1091.03V199.242ZM1096.23 201.636C1096.23 201.057 1096.12 200.553 1095.88 200.124C1095.65 199.695 1095.33 199.368 1094.93 199.144C1094.54 198.92 1094.11 198.808 1093.63 198.808C1093.16 198.808 1092.73 198.925 1092.33 199.158C1091.94 199.382 1091.62 199.713 1091.38 200.152C1091.14 200.581 1091.03 201.081 1091.03 201.65C1091.03 202.229 1091.14 202.737 1091.38 203.176C1091.62 203.605 1091.94 203.937 1092.33 204.17C1092.73 204.394 1093.16 204.506 1093.63 204.506C1094.11 204.506 1094.54 204.394 1094.93 204.17C1095.33 203.937 1095.65 203.605 1095.88 203.176C1096.12 202.737 1096.23 202.224 1096.23 201.636ZM1106.21 201.37C1106.21 201.613 1106.2 201.869 1106.17 202.14H1100.04C1100.09 202.896 1100.34 203.489 1100.81 203.918C1101.28 204.338 1101.86 204.548 1102.53 204.548C1103.08 204.548 1103.54 204.422 1103.9 204.17C1104.28 203.909 1104.54 203.563 1104.69 203.134H1106.06C1105.85 203.871 1105.44 204.473 1104.83 204.94C1104.21 205.397 1103.45 205.626 1102.53 205.626C1101.8 205.626 1101.15 205.463 1100.57 205.136C1100 204.809 1099.55 204.347 1099.23 203.75C1098.9 203.143 1098.74 202.443 1098.74 201.65C1098.74 200.857 1098.9 200.161 1099.21 199.564C1099.53 198.967 1099.97 198.509 1100.54 198.192C1101.12 197.865 1101.78 197.702 1102.53 197.702C1103.26 197.702 1103.9 197.861 1104.46 198.178C1105.02 198.495 1105.45 198.934 1105.75 199.494C1106.06 200.045 1106.21 200.67 1106.21 201.37ZM1104.9 201.104C1104.9 200.619 1104.79 200.203 1104.57 199.858C1104.36 199.503 1104.07 199.237 1103.69 199.06C1103.33 198.873 1102.92 198.78 1102.47 198.78C1101.83 198.78 1101.28 198.985 1100.82 199.396C1100.37 199.807 1100.12 200.376 1100.05 201.104H1104.9ZM1109.17 199.074C1109.39 198.635 1109.71 198.295 1110.12 198.052C1110.54 197.809 1111.05 197.688 1111.65 197.688V199.004H1111.31C1109.88 199.004 1109.17 199.779 1109.17 201.328V205.5H1107.89V197.828H1109.17V199.074Z" fill="#E27C00"/>
</g>
<path d="M873.691 226.67C872.505 227.107 871.518 228.02 870.955 229.221C870.681 229.808 870.631 230.071 870.631 231.096C870.643 232.122 870.681 232.384 870.98 233.022L871.318 233.76L869.019 236.073L866.72 238.386L866.308 238.186C865.858 237.986 862.523 237.036 860.636 236.586C859.287 236.273 858.512 236.336 857.488 236.848C856.926 237.136 856.226 237.761 854.39 239.624C852.091 241.963 852.003 242.063 851.728 242.888C851.354 244.026 851.379 244.526 851.903 246.414C852.153 247.314 852.466 248.465 852.591 248.977C852.978 250.465 853.228 251.278 853.365 251.453C853.465 251.578 852.94 252.179 851.179 253.942L848.868 256.255L848.443 256.03C845.657 254.592 842.271 256.18 841.634 259.244C841.197 261.344 842.221 263.42 844.183 264.383C844.945 264.758 845.107 264.795 846.207 264.795C847.243 264.795 847.481 264.745 848.13 264.445L848.88 264.108L851.354 266.571C852.715 267.934 853.827 269.097 853.827 269.159C853.827 269.222 853.428 269.685 852.953 270.185C852.466 270.685 851.953 271.348 851.816 271.673C851.466 272.473 851.391 273.499 851.629 274.424C852.266 276.962 853.09 279.876 853.278 280.276L853.503 280.751L851.191 283.052L848.893 285.353L848.268 285.04C847.431 284.64 846.394 284.477 845.507 284.615C842.396 285.128 840.672 288.316 841.959 291.192L842.309 291.967L840.01 294.256L837.724 296.544L837.311 296.319C837.087 296.206 836.25 295.944 835.462 295.731C834.675 295.531 833.264 295.156 832.339 294.918C829.716 294.231 828.691 294.443 827.155 295.994C826.68 296.481 826.23 296.869 826.155 296.869C826.08 296.869 824.918 295.756 823.557 294.393L821.083 291.917L821.433 291.18C821.745 290.517 821.783 290.279 821.783 289.241C821.783 288.141 821.745 287.979 821.37 287.216C820.446 285.34 818.472 284.302 816.448 284.627C815.399 284.802 814.786 285.09 814.012 285.79C811.975 287.628 812 290.855 814.062 292.743C814.736 293.355 815.648 293.756 816.798 293.931C817.372 294.018 818.859 293.718 819.309 293.43C819.459 293.33 819.659 293.243 819.746 293.243C819.834 293.243 821.033 294.368 822.407 295.744L824.906 298.245L824.006 299.145C822.894 300.283 822.57 300.908 822.495 302.058C822.445 302.834 822.52 303.246 823.132 305.56C824.106 309.223 824.169 309.423 824.631 310.011C825.331 310.924 825.968 311.262 828.154 311.862C829.253 312.162 830.653 312.55 831.265 312.712C832.639 313.1 833.963 313.075 834.863 312.65C835.225 312.462 836.237 311.549 837.849 309.936C841.334 306.435 841.384 306.31 840.335 302.309C839.972 300.933 839.623 299.595 839.573 299.332C839.51 299.07 839.335 298.607 839.198 298.307L838.936 297.757L841.197 295.506C842.446 294.256 843.508 293.243 843.57 293.243C843.633 293.243 843.933 293.355 844.245 293.493C845.644 294.118 846.969 294.068 848.418 293.368C849.242 292.955 849.967 292.218 850.429 291.28C851.016 290.142 851.004 288.279 850.392 287.153L850.092 286.578L852.391 284.277C853.652 283.014 854.714 281.989 854.739 281.989C854.764 281.989 854.952 282.076 855.152 282.177C855.451 282.314 859.549 283.489 859.762 283.489C859.799 283.489 859.824 285.965 859.824 288.991V294.493H859.362C858.625 294.493 857.65 294.806 857.063 295.219C856.313 295.744 852.428 299.695 852.053 300.308C851.703 300.883 851.454 301.771 851.454 302.459C851.454 302.721 851.591 303.434 851.766 304.059C851.928 304.672 852.178 305.635 852.328 306.185C852.865 308.161 853.215 309.311 853.328 309.423C853.403 309.499 853.453 309.611 853.453 309.686C853.453 309.761 852.428 310.849 851.179 312.099L848.893 314.388L848.393 314.138C846.044 312.975 843.183 313.9 842.021 316.213C840.834 318.614 841.846 321.453 844.308 322.603C844.92 322.891 845.182 322.941 846.207 322.941C847.231 322.941 847.493 322.891 848.105 322.603C849.03 322.165 849.942 321.303 850.379 320.452C851.016 319.202 851.029 317.439 850.417 316.251L850.104 315.663L852.403 313.362L854.689 311.074L855.476 311.349C855.914 311.499 856.801 311.762 857.45 311.937C858.1 312.112 859.062 312.375 859.574 312.512C861.211 312.962 861.373 313 862.16 313C863.397 313 864.184 312.637 865.346 311.524L866.333 310.574L868.844 313.1L871.355 315.613L871.093 316.151C870.743 316.914 870.568 317.601 870.568 318.252C870.568 318.939 870.868 320.152 871.155 320.64L871.368 321.003L869.131 323.266C867.395 325.004 866.82 325.504 866.633 325.454C866.495 325.417 866.046 325.279 865.633 325.154C865.221 325.016 864.434 324.791 863.884 324.641C863.335 324.504 862.273 324.216 861.511 324.004C859.936 323.578 858.925 323.528 857.938 323.841C857.325 324.029 857.013 324.291 854.677 326.604C850.841 330.393 850.879 330.243 852.64 336.295C852.815 336.896 852.953 337.458 852.953 337.546C852.953 337.858 853.615 339.084 853.99 339.484C854.627 340.159 855.351 340.447 858.65 341.335C863.322 342.585 863.322 342.598 866.883 339.009C869.431 336.445 869.756 335.995 869.931 334.732C870.018 334.045 869.981 333.757 869.631 332.381C868.807 329.193 868.419 327.805 868.207 327.317L867.982 326.817L870.281 324.504L872.579 322.203L873.104 322.466C873.916 322.878 874.416 323.003 875.191 323.003C875.953 323.003 877.065 322.728 877.552 322.416C877.839 322.228 877.889 322.265 880.325 324.704C881.699 326.067 882.811 327.242 882.811 327.305C882.811 327.367 882.449 327.792 882.012 328.243C880.975 329.33 880.675 329.931 880.6 331.119C880.538 331.956 880.6 332.306 881.062 334.07C882.074 337.921 882.199 338.321 882.437 338.659C882.574 338.846 882.686 339.046 882.686 339.109C882.686 339.284 883.698 340.084 884.198 340.322C884.435 340.422 885.885 340.859 887.434 341.285C889.795 341.935 890.407 342.06 891.244 342.06C892.768 342.06 893.106 341.847 895.717 339.271C898.19 336.846 898.553 336.383 898.852 335.383C899.19 334.245 899.19 334.27 897.94 329.593C897.366 327.467 897.103 326.842 896.554 326.267C895.892 325.579 895.117 325.216 893.356 324.754C892.543 324.541 891.232 324.204 890.457 323.991C887.884 323.328 886.834 323.541 885.198 325.079L884.211 326.017L881.687 323.491L879.163 320.965L879.376 320.59C880.075 319.402 880.1 317.626 879.426 316.201L879.176 315.663L881.437 313.375L883.686 311.074L884.473 311.349C884.898 311.487 886.434 311.924 887.871 312.325C890.32 312.975 890.57 313.025 891.519 312.962C892.743 312.887 893.093 312.712 894.392 311.449L895.304 310.586L897.803 313.075C899.39 314.65 900.289 315.638 900.252 315.751C900.227 315.851 900.089 316.226 899.952 316.588C899.44 317.951 899.49 319.202 900.139 320.477C900.589 321.365 901.301 322.04 902.301 322.541C903.038 322.903 903.213 322.941 904.299 322.941C905.311 322.941 905.586 322.891 906.198 322.603C907.148 322.165 907.985 321.365 908.46 320.44C908.834 319.727 908.859 319.615 908.859 318.314C908.859 317.126 908.822 316.851 908.572 316.338C907.41 313.913 904.462 312.937 902.051 314.188L901.638 314.4L899.165 311.924C897.791 310.549 896.679 309.386 896.679 309.311C896.679 309.236 897.041 308.823 897.491 308.386C898.603 307.285 898.99 306.485 898.977 305.247C898.977 304.472 898.84 303.772 898.14 301.246C897.241 297.982 897.053 297.569 896.154 296.832C895.554 296.344 895.005 296.094 893.805 295.806C893.356 295.694 892.469 295.456 891.844 295.281L890.682 294.956V289.479V283.99H891.057C891.669 283.99 892.718 283.727 893.181 283.452C893.418 283.314 893.993 282.827 894.467 282.377L895.304 281.551L897.828 284.077L900.339 286.591L899.977 287.441C899.677 288.166 899.615 288.466 899.627 289.304C899.64 290.142 899.702 290.442 900.014 291.117C900.514 292.193 901.126 292.868 902.013 293.33C903.4 294.068 904.812 294.118 906.298 293.48L906.936 293.205L909.409 295.631C910.771 296.969 911.895 298.107 911.895 298.17C911.908 298.232 911.533 298.682 911.071 299.17C909.547 300.77 909.272 301.896 909.859 304.059C910.034 304.747 910.409 306.135 910.671 307.148C910.946 308.161 911.283 309.223 911.433 309.524C911.97 310.574 912.857 311.199 914.469 311.649C915.581 311.962 918.442 312.725 919.104 312.9C919.891 313.1 921.39 312.962 922.04 312.637C922.664 312.312 926.687 308.411 927.299 307.535C928.161 306.297 928.249 305.172 927.662 303.059C927.462 302.296 927.162 301.233 927.024 300.683C926.875 300.133 926.612 299.245 926.437 298.695L926.137 297.719L928.361 295.469C929.773 294.056 930.672 293.255 930.785 293.293C930.885 293.318 931.26 293.455 931.609 293.593C932.609 293.968 933.271 294.031 934.283 293.818C935.357 293.593 936.057 293.205 936.744 292.455C939.767 289.166 936.956 283.902 932.571 284.615C931.047 284.865 929.848 285.778 929.148 287.191C928.748 287.991 928.724 288.129 928.724 289.304C928.724 290.429 928.761 290.617 929.086 291.23L929.436 291.905L927.137 294.206L924.838 296.507L924.338 296.294C924.076 296.181 922.614 295.744 921.103 295.331C916.93 294.193 916.055 294.268 914.294 295.944C913.757 296.456 913.282 296.869 913.232 296.869C913.082 296.869 908.297 292.08 908.297 291.942C908.297 291.88 908.447 291.455 908.622 291.017C908.909 290.304 908.934 290.067 908.897 289.066C908.847 287.666 908.485 286.778 907.585 285.928C906.836 285.203 906.261 284.89 905.186 284.677C904.162 284.452 903 284.602 902.188 285.065L901.638 285.365L899.165 282.889C897.791 281.526 896.679 280.363 896.679 280.301C896.679 280.238 897.041 279.813 897.491 279.351C898.44 278.375 898.927 277.412 899.015 276.387C899.065 275.674 899.002 275.362 898.065 271.985C897.928 271.473 897.716 270.685 897.603 270.235C897.491 269.785 897.316 269.26 897.216 269.059L897.028 268.697L899.327 266.396L901.626 264.095L902.363 264.433C903.425 264.921 904.637 264.983 905.824 264.595C906.598 264.358 906.848 264.195 907.498 263.558C908.635 262.407 908.859 261.857 908.859 260.169C908.859 258.843 908.847 258.768 908.447 258.031C907.235 255.78 904.812 254.93 902.413 255.905L901.613 256.23L899.152 253.754C897.791 252.404 896.679 251.241 896.679 251.166C896.679 251.091 897.053 250.678 897.503 250.228C898.465 249.29 898.927 248.415 899.015 247.377C899.077 246.652 899.027 246.414 897.803 241.85C897.041 239.012 896.491 238.436 893.78 237.674C889.945 236.598 888.671 236.323 887.958 236.411C886.909 236.536 886.234 236.898 885.247 237.849C884.76 238.336 884.298 238.724 884.236 238.724C884.173 238.724 882.999 237.599 881.637 236.236C879.151 233.747 879.151 233.735 879.351 233.435C879.463 233.272 879.638 232.784 879.738 232.372C880.325 230.146 879.413 228.045 877.414 226.97C876.702 226.582 876.515 226.545 875.44 226.507C874.578 226.482 874.104 226.52 873.691 226.67ZM873.104 235.285C873.254 235.385 873.741 235.56 874.179 235.673C875.153 235.923 876.04 235.835 877.164 235.385L877.964 235.073L880.475 237.586L882.986 240.099L882.099 241.012C880.962 242.163 880.663 242.763 880.588 243.976C880.538 244.814 880.613 245.189 881.175 247.352C882.237 251.341 882.274 251.453 883.049 252.266C883.661 252.929 884.36 253.254 886.184 253.729C887.046 253.954 888.333 254.292 889.045 254.492C891.619 255.205 892.768 254.955 894.405 253.354L895.304 252.454L897.803 254.93C899.177 256.293 900.302 257.468 900.302 257.555C900.302 257.655 900.189 257.943 900.052 258.206C899.465 259.331 899.465 260.882 900.052 262.17C900.202 262.482 900.302 262.807 900.277 262.857C900.189 263.107 895.867 267.359 895.717 267.359C895.617 267.359 895.417 267.296 895.267 267.209C895.117 267.134 894.517 266.946 893.93 266.784C893.343 266.634 892.556 266.421 892.181 266.321C888.733 265.371 888.071 265.296 886.859 265.746C886.322 265.946 885.897 266.246 885.198 266.934C884.673 267.446 884.223 267.859 884.186 267.859C884.148 267.859 883.011 266.734 881.637 265.358L879.163 262.87L879.426 262.307C880.063 260.994 880.05 259.219 879.413 257.968C878.976 257.143 877.964 256.217 877.114 255.867C873.916 254.592 870.568 256.818 870.568 260.231C870.568 260.932 870.868 262.045 871.205 262.582C871.368 262.845 871.255 262.982 869.131 265.108C867.382 266.859 866.833 267.359 866.633 267.309C866.495 267.271 865.708 267.059 864.884 266.821C861.336 265.796 859.999 265.483 859.199 265.483C858.062 265.483 857.25 265.883 856.101 267.021L855.202 267.922L852.678 265.396L850.167 262.882L850.454 262.22C851.016 260.894 850.991 259.306 850.392 258.118L850.092 257.518L852.428 255.192C854.614 253.029 854.777 252.879 855.014 253.041C855.152 253.141 856.651 253.592 858.325 254.054C863.272 255.392 863.322 255.367 866.795 251.929C869.569 249.19 869.831 248.815 869.918 247.352C869.968 246.489 869.906 246.139 869.144 243.288C868.682 241.562 868.232 240.049 868.132 239.912C867.982 239.674 868.119 239.499 870.231 237.373C871.48 236.123 872.579 235.098 872.667 235.098C872.754 235.098 872.954 235.185 873.104 235.285ZM873.142 264.345C874.453 264.983 876.04 265.008 877.214 264.42L877.864 264.095L880.375 266.571C881.762 267.934 882.911 269.072 882.911 269.109C882.924 269.147 882.536 269.585 882.049 270.085C881.025 271.135 880.675 271.835 880.588 273.011L880.525 273.861L875.028 273.836L869.519 273.799L869.419 273.423C868.807 271.06 868.294 269.285 868.144 269.009C867.97 268.672 867.97 268.672 870.231 266.396C871.48 265.146 872.542 264.12 872.579 264.12C872.617 264.108 872.867 264.22 873.142 264.345ZM881.15 276.237C881.425 277.3 881.924 279.175 882.062 279.676C882.224 280.213 882.586 280.876 882.999 281.339C883.436 281.851 884.46 282.327 886.184 282.789C887.109 283.052 888.096 283.327 888.371 283.402L888.87 283.552L888.908 289.004L888.933 294.456L888.121 294.531C886.659 294.668 886.347 294.881 883.586 297.657C880.862 300.408 880.712 300.62 880.575 302.033L880.5 302.884H875.078C872.092 302.884 869.606 302.834 869.556 302.784C869.506 302.721 869.256 301.896 869.006 300.933C868.432 298.67 868.244 298.182 867.745 297.494C867.12 296.619 866.295 296.219 863.797 295.544L861.573 294.956V289.492V284.027L862.373 283.965C863.772 283.852 864.259 283.527 866.745 281.039C867.97 279.813 869.106 278.625 869.269 278.413C869.681 277.875 869.956 277.037 869.956 276.262L869.968 275.612L875.49 275.637L881 275.674L881.15 276.237ZM881.125 305.26C881.212 305.56 881.4 306.285 881.562 306.873C881.712 307.46 881.987 308.373 882.162 308.911L882.487 309.886L880.213 312.149L877.952 314.425L877.227 314.063C875.953 313.437 874.179 313.5 872.929 314.213C872.604 314.4 872.604 314.4 870.081 311.874L867.557 309.336L868.419 308.448C869.469 307.373 869.831 306.698 869.906 305.697C869.943 305.272 869.981 304.872 870.006 304.809C870.018 304.734 871.955 304.684 875.503 304.697L880.975 304.709L881.125 305.26Z" fill="#018343"/>
<path d="M874.468 284.627C872.982 284.877 871.732 285.815 871.045 287.216C870.683 287.953 870.645 288.141 870.633 289.229C870.633 290.342 870.67 290.492 871.045 291.267C872.807 294.868 877.841 294.793 879.54 291.142C879.828 290.529 879.878 290.267 879.878 289.241C879.878 288.141 879.84 287.978 879.465 287.216C878.541 285.34 876.517 284.29 874.468 284.627Z" fill="#018343"/>
<path d="M828.943 265.671C828.131 265.971 827.469 266.521 825.208 268.822C822.01 272.048 821.985 272.185 823.221 276.849C824.296 280.838 824.596 281.388 826.12 282.189C826.545 282.414 831.954 283.852 832.729 283.952C833.378 284.027 834.353 283.839 835.065 283.489C835.315 283.364 836.576 282.201 837.863 280.901C840.649 278.1 840.887 277.712 840.887 276.174C840.887 275.349 840.749 274.686 840.162 272.485C839.337 269.384 839.05 268.697 838.351 268.009C837.626 267.309 837.289 267.171 833.978 266.283C830.842 265.433 829.893 265.32 828.943 265.671Z" fill="#018343"/>
<path d="M915.921 265.696C915.471 265.858 914.872 266.383 912.848 268.384C910.062 271.148 909.712 271.635 909.599 272.886C909.524 273.736 909.512 273.711 910.299 276.674C911.249 280.313 911.361 280.563 912.16 281.376C912.76 281.964 913.023 282.139 913.747 282.364C915.883 283.039 919.669 283.99 920.194 283.99C920.781 283.99 921.855 283.677 922.317 283.389C922.53 283.252 923.742 282.101 925.003 280.838C927.789 278.062 927.964 277.787 927.977 276.174C927.977 275.174 927.889 274.724 927.19 272.173C926.403 269.284 926.103 268.559 925.453 267.971C924.704 267.284 924.379 267.159 921.418 266.371C920.906 266.233 919.944 265.983 919.269 265.808C917.907 265.433 916.77 265.408 915.921 265.696Z" fill="#018343"/>
<path d="M874.393 342.76C872.994 342.998 871.72 343.985 871.045 345.361C870.67 346.124 870.633 346.286 870.633 347.387C870.633 348.399 870.683 348.675 870.958 349.262C871.632 350.713 872.832 351.651 874.406 351.976C875.255 352.151 875.418 352.151 876.142 351.963C877.254 351.701 877.729 351.451 878.491 350.75C878.928 350.35 879.278 349.887 879.515 349.362C879.828 348.675 879.878 348.424 879.878 347.387C879.878 346.349 879.828 346.099 879.528 345.448C878.903 344.098 877.754 343.173 876.292 342.823C875.43 342.622 875.293 342.622 874.393 342.76Z" fill="#018343"/>
</g>
<defs>
<filter id="filter0_d_3001_3633" x="937.121" y="355" width="227" height="93" filterUnits="userSpaceOnUse" color-interpolation-filters="sRGB">
<feFlood flood-opacity="0" result="BackgroundImageFix"/>
<feColorMatrix in="SourceAlpha" type="matrix" values="0 0 0 0 0 0 0 0 0 0 0 0 0 0 0 0 0 0 127 0" result="hardAlpha"/>
<feOffset dy="15"/>
<feGaussianBlur stdDeviation="15"/>
<feColorMatrix type="matrix" values="0 0 0 0 0.243137 0 0 0 0 0.0745098 0 0 0 0 0.301961 0 0 0 0.09 0"/>
<feBlend mode="normal" in2="BackgroundImageFix" result="effect1_dropShadow_3001_3633"/>
<feBlend mode="normal" in="SourceGraphic" in2="effect1_dropShadow_3001_3633" result="shape"/>
</filter>
<filter id="filter1_d_3001_3633" x="626.75" y="380" width="207" height="93" filterUnits="userSpaceOnUse" color-interpolation-filters="sRGB">
<feFlood flood-opacity="0" result="BackgroundImageFix"/>
<feColorMatrix in="SourceAlpha" type="matrix" values="0 0 0 0 0 0 0 0 0 0 0 0 0 0 0 0 0 0 127 0" result="hardAlpha"/>
<feOffset dy="15"/>
<feGaussianBlur stdDeviation="15"/>
<feColorMatrix type="matrix" values="0 0 0 0 0.243137 0 0 0 0 0.0745098 0 0 0 0 0.301961 0 0 0 0.09 0"/>
<feBlend mode="normal" in2="BackgroundImageFix" result="effect1_dropShadow_3001_3633"/>
<feBlend mode="normal" in="SourceGraphic" in2="effect1_dropShadow_3001_3633" result="shape"/>
</filter>
<filter id="filter2_d_3001_3633" x="604" y="173.5" width="210" height="93" filterUnits="userSpaceOnUse" color-interpolation-filters="sRGB">
<feFlood flood-opacity="0" result="BackgroundImageFix"/>
<feColorMatrix in="SourceAlpha" type="matrix" values="0 0 0 0 0 0 0 0 0 0 0 0 0 0 0 0 0 0 127 0" result="hardAlpha"/>
<feOffset dy="15"/>
<feGaussianBlur stdDeviation="15"/>
<feColorMatrix type="matrix" values="0 0 0 0 0.243137 0 0 0 0 0.0745098 0 0 0 0 0.301961 0 0 0 0.09 0"/>
<feBlend mode="normal" in2="BackgroundImageFix" result="effect1_dropShadow_3001_3633"/>
<feBlend mode="normal" in="SourceGraphic" in2="effect1_dropShadow_3001_3633" result="shape"/>
</filter>
<filter id="filter3_d_3001_3633" x="928.312" y="169.5" width="228" height="93" filterUnits="userSpaceOnUse" color-interpolation-filters="sRGB">
<feFlood flood-opacity="0" result="BackgroundImageFix"/>
<feColorMatrix in="SourceAlpha" type="matrix" values="0 0 0 0 0 0 0 0 0 0 0 0 0 0 0 0 0 0 127 0" result="hardAlpha"/>
<feOffset dy="15"/>
<feGaussianBlur stdDeviation="15"/>
<feColorMatrix type="matrix" values="0 0 0 0 0.243137 0 0 0 0 0.0745098 0 0 0 0 0.301961 0 0 0 0.09 0"/>
<feBlend mode="normal" in2="BackgroundImageFix" result="effect1_dropShadow_3001_3633"/>
<feBlend mode="normal" in="SourceGraphic" in2="effect1_dropShadow_3001_3633" result="shape"/>
</filter>
<clipPath id="clip0_3001_3633">
<rect x="0.0605469" y="0.75" width="1170" height="485.5" rx="24" fill="white"/>
</clipPath>
<clipPath id="clip1_3001_3633">
<rect width="21" height="25" fill="white" transform="translate(912.309 330)"/>
</clipPath>
<clipPath id="clip2_3001_3633">
<rect width="24" height="24" fill="white" transform="translate(948.736 383.812) rotate(-130)"/>
</clipPath>
<clipPath id="clip3_3001_3633">
<rect width="24" height="24" fill="white" transform="matrix(0.642788 -0.766044 -0.766044 -0.642788 822.135 408.812)"/>
</clipPath>
<clipPath id="clip4_3001_3633">
<rect width="24" height="24" fill="white" transform="translate(800.971 187.559) rotate(45)"/>
</clipPath>
<clipPath id="clip5_3001_3633">
<rect width="24" height="24" fill="white" transform="translate(900.5 213.5)"/>
</clipPath>
<clipPath id="clip6_3001_3633">
<rect width="24" height="24" fill="white" transform="translate(958.312 202.073) rotate(140)"/>
</clipPath>
</defs>
</svg>
