<svg width="338" height="431" viewBox="0 0 338 431" fill="none" xmlns="http://www.w3.org/2000/svg">
<g clip-path="url(#clip0_3004_3886)">
<rect y="0.452393" width="337.482" height="429.62" rx="12.7619" fill="#EDFFF5"/>
<circle cx="168.465" cy="603.778" r="395" transform="rotate(-90 168.465 603.778)" fill="#00C95A"/>
<path d="M524.098 529.245C524.098 431.115 485.116 337.004 415.727 267.616C346.339 198.227 252.228 159.245 154.098 159.245C55.9676 159.245 -38.1433 198.227 -107.532 267.616C-176.92 337.004 -215.902 431.115 -215.902 529.245" stroke="#ABFFD6" stroke-width="1.06349"/>
<path d="M524.098 486.706C524.098 388.576 485.116 294.465 415.727 225.077C346.339 155.688 252.228 116.706 154.098 116.706C55.9676 116.706 -38.1433 155.688 -107.532 225.077C-176.92 294.465 -215.902 388.576 -215.902 486.706" stroke="#ABFFD6" stroke-width="1.06349"/>
<path d="M524.098 444.165C524.098 346.035 485.116 251.924 415.727 182.535C346.339 113.147 252.228 74.1648 154.098 74.1648C55.9676 74.1648 -38.1433 113.147 -107.532 182.535C-176.92 251.924 -215.902 346.035 -215.902 444.165" stroke="#ABFFD6" stroke-width="1.06349"/>
<path d="M524.098 401.625C524.098 303.495 485.116 209.384 415.727 139.996C346.339 70.6071 252.228 31.625 154.098 31.625C55.9676 31.625 -38.1433 70.607 -107.532 139.995C-176.92 209.384 -215.902 303.495 -215.902 401.625" stroke="#ABFFD6" stroke-width="1.06349"/>
<g clip-path="url(#clip1_3004_3886)">
<path d="M193.658 146.043H184.884C184.223 146.043 183.688 146.579 183.688 147.24V156.013C183.688 156.674 184.223 157.21 184.884 157.21H193.658C194.318 157.21 194.854 156.674 194.854 156.013V147.24C194.854 146.579 194.318 146.043 193.658 146.043ZM189.764 154.752C189.764 155.839 189.126 156.335 188.197 156.335C187.357 156.335 186.87 155.901 186.621 155.375L187.476 154.859C187.641 155.151 187.79 155.398 188.152 155.398C188.496 155.398 188.715 155.263 188.715 154.737V151.17H189.764V154.752ZM192.247 156.335C191.272 156.335 190.642 155.871 190.335 155.263L191.19 154.77C191.414 155.136 191.709 155.408 192.225 155.408C192.658 155.408 192.937 155.191 192.937 154.889C192.937 154.53 192.653 154.403 192.172 154.191L191.91 154.079C191.153 153.758 190.652 153.351 190.652 152.496C190.652 151.709 191.252 151.111 192.187 151.111C192.855 151.111 193.334 151.342 193.678 151.951L192.86 152.474C192.681 152.152 192.486 152.025 192.185 152.025C191.878 152.025 191.684 152.22 191.684 152.474C191.684 152.788 191.878 152.915 192.329 153.112L192.591 153.224C193.483 153.606 193.984 153.997 193.984 154.874C193.984 155.817 193.241 156.335 192.247 156.335Z" fill="#E27C00"/>
</g>
<g clip-path="url(#clip2_3004_3886)">
<path d="M206.388 166.749L204.5 168.728C203.96 169.294 203.007 169.048 202.809 168.29L201.138 161.897C200.924 161.081 201.755 160.383 202.522 160.735L208.528 163.492C209.239 163.818 209.317 164.799 208.665 165.233L206.388 166.749ZM206.388 166.749L204.139 164.068" stroke="#E27C00" stroke-width="0.797619" stroke-linecap="round" stroke-linejoin="round"/>
</g>
<g filter="url(#filter0_d_3004_3886)">
<path d="M212.594 172.073C212.594 168.857 215.201 166.25 218.417 166.25H307.292C312.92 166.25 317.483 170.812 317.483 176.44V176.44C317.483 182.068 312.92 186.631 307.292 186.631H227.152C219.112 186.631 212.594 180.113 212.594 172.073V172.073Z" fill="white"/>
<path d="M223.891 173.167V177.802C223.891 178.318 223.732 178.732 223.414 179.044C223.096 179.35 222.676 179.503 222.154 179.503C221.626 179.503 221.203 179.347 220.885 179.035C220.567 178.717 220.408 178.285 220.408 177.739H221.227C221.233 178.045 221.311 178.294 221.461 178.486C221.617 178.678 221.848 178.774 222.154 178.774C222.46 178.774 222.688 178.684 222.838 178.504C222.988 178.318 223.063 178.084 223.063 177.802V173.167H223.891ZM225.199 176.956C225.199 176.452 225.301 176.011 225.505 175.633C225.709 175.249 225.988 174.952 226.342 174.742C226.702 174.532 227.101 174.427 227.539 174.427C227.971 174.427 228.346 174.52 228.664 174.706C228.982 174.892 229.219 175.126 229.375 175.408V174.508H230.203V179.44H229.375V178.522C229.213 178.81 228.97 179.05 228.646 179.242C228.328 179.428 227.956 179.521 227.53 179.521C227.092 179.521 226.696 179.413 226.342 179.197C225.988 178.981 225.709 178.678 225.505 178.288C225.301 177.898 225.199 177.454 225.199 176.956ZM229.375 176.965C229.375 176.593 229.3 176.269 229.15 175.993C229 175.717 228.796 175.507 228.538 175.363C228.286 175.213 228.007 175.138 227.701 175.138C227.395 175.138 227.116 175.21 226.864 175.354C226.612 175.498 226.411 175.708 226.261 175.984C226.111 176.26 226.036 176.584 226.036 176.956C226.036 177.334 226.111 177.664 226.261 177.946C226.411 178.222 226.612 178.435 226.864 178.585C227.116 178.729 227.395 178.801 227.701 178.801C228.007 178.801 228.286 178.729 228.538 178.585C228.796 178.435 229 178.222 229.15 177.946C229.3 177.664 229.375 177.337 229.375 176.965ZM233.423 178.684L234.953 174.508H235.826L233.891 179.44H232.937L231.002 174.508H231.884L233.423 178.684ZM236.325 176.956C236.325 176.452 236.427 176.011 236.631 175.633C236.835 175.249 237.114 174.952 237.468 174.742C237.828 174.532 238.227 174.427 238.665 174.427C239.097 174.427 239.472 174.52 239.79 174.706C240.108 174.892 240.345 175.126 240.501 175.408V174.508H241.329V179.44H240.501V178.522C240.339 178.81 240.096 179.05 239.772 179.242C239.454 179.428 239.082 179.521 238.656 179.521C238.218 179.521 237.822 179.413 237.468 179.197C237.114 178.981 236.835 178.678 236.631 178.288C236.427 177.898 236.325 177.454 236.325 176.956ZM240.501 176.965C240.501 176.593 240.426 176.269 240.276 175.993C240.126 175.717 239.922 175.507 239.664 175.363C239.412 175.213 239.133 175.138 238.827 175.138C238.521 175.138 238.242 175.21 237.99 175.354C237.738 175.498 237.537 175.708 237.387 175.984C237.237 176.26 237.162 176.584 237.162 176.956C237.162 177.334 237.237 177.664 237.387 177.946C237.537 178.222 237.738 178.435 237.99 178.585C238.242 178.729 238.521 178.801 238.827 178.801C239.133 178.801 239.412 178.729 239.664 178.585C239.922 178.435 240.126 178.222 240.276 177.946C240.426 177.664 240.501 177.337 240.501 176.965ZM244.46 179.521C244.082 179.521 243.743 179.458 243.443 179.332C243.143 179.2 242.906 179.02 242.732 178.792C242.558 178.558 242.462 178.291 242.444 177.991H243.29C243.314 178.237 243.428 178.438 243.632 178.594C243.842 178.75 244.115 178.828 244.451 178.828C244.763 178.828 245.009 178.759 245.189 178.621C245.369 178.483 245.459 178.309 245.459 178.099C245.459 177.883 245.363 177.724 245.171 177.622C244.979 177.514 244.682 177.409 244.28 177.307C243.914 177.211 243.614 177.115 243.38 177.019C243.152 176.917 242.954 176.77 242.786 176.578C242.624 176.38 242.543 176.122 242.543 175.804C242.543 175.552 242.618 175.321 242.768 175.111C242.918 174.901 243.131 174.736 243.407 174.616C243.683 174.49 243.998 174.427 244.352 174.427C244.898 174.427 245.339 174.565 245.675 174.841C246.011 175.117 246.191 175.495 246.215 175.975H245.396C245.378 175.717 245.273 175.51 245.081 175.354C244.895 175.198 244.643 175.12 244.325 175.12C244.031 175.12 243.797 175.183 243.623 175.309C243.449 175.435 243.362 175.6 243.362 175.804C243.362 175.966 243.413 176.101 243.515 176.209C243.623 176.311 243.755 176.395 243.911 176.461C244.073 176.521 244.295 176.59 244.577 176.668C244.931 176.764 245.219 176.86 245.441 176.956C245.663 177.046 245.852 177.184 246.008 177.37C246.17 177.556 246.254 177.799 246.26 178.099C246.26 178.369 246.185 178.612 246.035 178.828C245.885 179.044 245.672 179.215 245.396 179.341C245.126 179.461 244.814 179.521 244.46 179.521ZM247.11 176.965C247.11 176.455 247.212 176.011 247.416 175.633C247.62 175.249 247.902 174.952 248.262 174.742C248.628 174.532 249.045 174.427 249.513 174.427C250.119 174.427 250.617 174.574 251.007 174.868C251.403 175.162 251.664 175.57 251.79 176.092H250.908C250.824 175.792 250.659 175.555 250.413 175.381C250.173 175.207 249.873 175.12 249.513 175.12C249.045 175.12 248.667 175.282 248.379 175.606C248.091 175.924 247.947 176.377 247.947 176.965C247.947 177.559 248.091 178.018 248.379 178.342C248.667 178.666 249.045 178.828 249.513 178.828C249.873 178.828 250.173 178.744 250.413 178.576C250.653 178.408 250.818 178.168 250.908 177.856H251.79C251.658 178.36 251.394 178.765 250.998 179.071C250.602 179.371 250.107 179.521 249.513 179.521C249.045 179.521 248.628 179.416 248.262 179.206C247.902 178.996 247.62 178.699 247.416 178.315C247.212 177.931 247.11 177.481 247.11 176.965ZM253.701 175.309C253.845 175.027 254.049 174.808 254.313 174.652C254.583 174.496 254.91 174.418 255.294 174.418V175.264H255.078C254.16 175.264 253.701 175.762 253.701 176.758V179.44H252.882V174.508H253.701V175.309ZM256.663 173.707C256.507 173.707 256.375 173.653 256.267 173.545C256.159 173.437 256.105 173.305 256.105 173.149C256.105 172.993 256.159 172.861 256.267 172.753C256.375 172.645 256.507 172.591 256.663 172.591C256.813 172.591 256.939 172.645 257.041 172.753C257.149 172.861 257.203 172.993 257.203 173.149C257.203 173.305 257.149 173.437 257.041 173.545C256.939 173.653 256.813 173.707 256.663 173.707ZM257.059 174.508V179.44H256.24V174.508H257.059ZM259.274 175.417C259.436 175.135 259.676 174.901 259.994 174.715C260.318 174.523 260.693 174.427 261.119 174.427C261.557 174.427 261.953 174.532 262.307 174.742C262.667 174.952 262.949 175.249 263.153 175.633C263.357 176.011 263.459 176.452 263.459 176.956C263.459 177.454 263.357 177.898 263.153 178.288C262.949 178.678 262.667 178.981 262.307 179.197C261.953 179.413 261.557 179.521 261.119 179.521C260.699 179.521 260.327 179.428 260.003 179.242C259.685 179.05 259.442 178.813 259.274 178.531V181.78H258.455V174.508H259.274V175.417ZM262.622 176.956C262.622 176.584 262.547 176.26 262.397 175.984C262.247 175.708 262.043 175.498 261.785 175.354C261.533 175.21 261.254 175.138 260.948 175.138C260.648 175.138 260.369 175.213 260.111 175.363C259.859 175.507 259.655 175.72 259.499 176.002C259.349 176.278 259.274 176.599 259.274 176.965C259.274 177.337 259.349 177.664 259.499 177.946C259.655 178.222 259.859 178.435 260.111 178.585C260.369 178.729 260.648 178.801 260.948 178.801C261.254 178.801 261.533 178.729 261.785 178.585C262.043 178.435 262.247 178.222 262.397 177.946C262.547 177.664 262.622 177.334 262.622 176.956ZM265.536 175.183V178.09C265.536 178.33 265.587 178.501 265.689 178.603C265.791 178.699 265.968 178.747 266.22 178.747H266.823V179.44H266.085C265.629 179.44 265.287 179.335 265.059 179.125C264.831 178.915 264.717 178.57 264.717 178.09V175.183H264.078V174.508H264.717V173.266H265.536V174.508H266.823V175.183H265.536ZM272.167 173.167C272.851 173.167 273.442 173.296 273.94 173.554C274.444 173.806 274.828 174.169 275.092 174.643C275.362 175.117 275.497 175.675 275.497 176.317C275.497 176.959 275.362 177.517 275.092 177.991C274.828 178.459 274.444 178.819 273.94 179.071C273.442 179.317 272.851 179.44 272.167 179.44H270.214V173.167H272.167ZM272.167 178.765C272.977 178.765 273.595 178.552 274.021 178.126C274.447 177.694 274.66 177.091 274.66 176.317C274.66 175.537 274.444 174.928 274.012 174.49C273.586 174.052 272.971 173.833 272.167 173.833H271.033V178.765H272.167ZM281.078 176.785C281.078 176.941 281.069 177.106 281.051 177.28H277.109C277.139 177.766 277.304 178.147 277.604 178.423C277.91 178.693 278.279 178.828 278.711 178.828C279.065 178.828 279.359 178.747 279.593 178.585C279.833 178.417 280.001 178.195 280.097 177.919H280.979C280.847 178.393 280.583 178.78 280.187 179.08C279.791 179.374 279.299 179.521 278.711 179.521C278.243 179.521 277.823 179.416 277.451 179.206C277.085 178.996 276.797 178.699 276.587 178.315C276.377 177.925 276.272 177.475 276.272 176.965C276.272 176.455 276.374 176.008 276.578 175.624C276.782 175.24 277.067 174.946 277.433 174.742C277.805 174.532 278.231 174.427 278.711 174.427C279.179 174.427 279.593 174.529 279.953 174.733C280.313 174.937 280.589 175.219 280.781 175.579C280.979 175.933 281.078 176.335 281.078 176.785ZM280.232 176.614C280.232 176.302 280.163 176.035 280.025 175.813C279.887 175.585 279.698 175.414 279.458 175.3C279.224 175.18 278.963 175.12 278.675 175.12C278.261 175.12 277.907 175.252 277.613 175.516C277.325 175.78 277.16 176.146 277.118 176.614H280.232ZM283.995 178.684L285.525 174.508H286.398L284.463 179.44H283.509L281.574 174.508H282.456L283.995 178.684ZM291.704 176.785C291.704 176.941 291.695 177.106 291.677 177.28H287.735C287.765 177.766 287.93 178.147 288.23 178.423C288.536 178.693 288.905 178.828 289.337 178.828C289.691 178.828 289.985 178.747 290.219 178.585C290.459 178.417 290.627 178.195 290.723 177.919H291.605C291.473 178.393 291.209 178.78 290.813 179.08C290.417 179.374 289.925 179.521 289.337 179.521C288.869 179.521 288.449 179.416 288.077 179.206C287.711 178.996 287.423 178.699 287.213 178.315C287.003 177.925 286.898 177.475 286.898 176.965C286.898 176.455 287 176.008 287.204 175.624C287.408 175.24 287.693 174.946 288.059 174.742C288.431 174.532 288.857 174.427 289.337 174.427C289.805 174.427 290.219 174.529 290.579 174.733C290.939 174.937 291.215 175.219 291.407 175.579C291.605 175.933 291.704 176.335 291.704 176.785ZM290.858 176.614C290.858 176.302 290.789 176.035 290.651 175.813C290.513 175.585 290.324 175.414 290.084 175.3C289.85 175.18 289.589 175.12 289.301 175.12C288.887 175.12 288.533 175.252 288.239 175.516C287.951 175.78 287.786 176.146 287.744 176.614H290.858ZM293.604 172.78V179.44H292.785V172.78H293.604ZM295.819 175.417C295.981 175.135 296.221 174.901 296.539 174.715C296.863 174.523 297.238 174.427 297.664 174.427C298.102 174.427 298.498 174.532 298.852 174.742C299.212 174.952 299.494 175.249 299.698 175.633C299.902 176.011 300.004 176.452 300.004 176.956C300.004 177.454 299.902 177.898 299.698 178.288C299.494 178.678 299.212 178.981 298.852 179.197C298.498 179.413 298.102 179.521 297.664 179.521C297.244 179.521 296.872 179.428 296.548 179.242C296.23 179.05 295.987 178.813 295.819 178.531V181.78H295V174.508H295.819V175.417ZM299.167 176.956C299.167 176.584 299.092 176.26 298.942 175.984C298.792 175.708 298.588 175.498 298.33 175.354C298.078 175.21 297.799 175.138 297.493 175.138C297.193 175.138 296.914 175.213 296.656 175.363C296.404 175.507 296.2 175.72 296.044 176.002C295.894 176.278 295.819 176.599 295.819 176.965C295.819 177.337 295.894 177.664 296.044 177.946C296.2 178.222 296.404 178.435 296.656 178.585C296.914 178.729 297.193 178.801 297.493 178.801C297.799 178.801 298.078 178.729 298.33 178.585C298.588 178.435 298.792 178.222 298.942 177.946C299.092 177.664 299.167 177.334 299.167 176.956ZM305.582 176.785C305.582 176.941 305.573 177.106 305.555 177.28H301.613C301.643 177.766 301.808 178.147 302.108 178.423C302.414 178.693 302.783 178.828 303.215 178.828C303.569 178.828 303.863 178.747 304.097 178.585C304.337 178.417 304.505 178.195 304.601 177.919H305.483C305.351 178.393 305.087 178.78 304.691 179.08C304.295 179.374 303.803 179.521 303.215 179.521C302.747 179.521 302.327 179.416 301.955 179.206C301.589 178.996 301.301 178.699 301.091 178.315C300.881 177.925 300.776 177.475 300.776 176.965C300.776 176.455 300.878 176.008 301.082 175.624C301.286 175.24 301.571 174.946 301.937 174.742C302.309 174.532 302.735 174.427 303.215 174.427C303.683 174.427 304.097 174.529 304.457 174.733C304.817 174.937 305.093 175.219 305.285 175.579C305.483 175.933 305.582 176.335 305.582 176.785ZM304.736 176.614C304.736 176.302 304.667 176.035 304.529 175.813C304.391 175.585 304.202 175.414 303.962 175.3C303.728 175.18 303.467 175.12 303.179 175.12C302.765 175.12 302.411 175.252 302.117 175.516C301.829 175.78 301.664 176.146 301.622 176.614H304.736ZM307.482 175.309C307.626 175.027 307.83 174.808 308.094 174.652C308.364 174.496 308.691 174.418 309.075 174.418V175.264H308.859C307.941 175.264 307.482 175.762 307.482 176.758V179.44H306.663V174.508H307.482V175.309Z" fill="#E27C00"/>
</g>
<g filter="url(#filter1_d_3004_3886)">
<path d="M20 175.724C20 170.096 24.5624 165.534 30.1905 165.534H105.066C108.282 165.534 110.889 168.141 110.889 171.357V171.357C110.889 179.397 104.371 185.915 96.3311 185.915H30.1905C24.5624 185.915 20 181.352 20 175.724V175.724Z" fill="white"/>
<path d="M31.6843 172.451V173.117H28.9573V175.232H31.1713V175.898H28.9573V178.724H28.1383V172.451H31.6843ZM33.4925 172.064V178.724H32.6735V172.064H33.4925ZM39.2623 173.792V178.724H38.4433V177.995C38.2873 178.247 38.0683 178.445 37.7863 178.589C37.5103 178.727 37.2043 178.796 36.8683 178.796C36.4843 178.796 36.1393 178.718 35.8333 178.562C35.5273 178.4 35.2843 178.16 35.1043 177.842C34.9303 177.524 34.8433 177.137 34.8433 176.681V173.792H35.6533V176.573C35.6533 177.059 35.7763 177.434 36.0223 177.698C36.2683 177.956 36.6043 178.085 37.0303 178.085C37.4683 178.085 37.8133 177.95 38.0653 177.68C38.3173 177.41 38.4433 177.017 38.4433 176.501V173.792H39.2623ZM41.6441 174.467V177.374C41.6441 177.614 41.6951 177.785 41.7971 177.887C41.8991 177.983 42.0761 178.031 42.3281 178.031H42.9311V178.724H42.1931C41.7371 178.724 41.3951 178.619 41.1671 178.409C40.9391 178.199 40.8251 177.854 40.8251 177.374V174.467H40.1861V173.792H40.8251V172.55H41.6441V173.792H42.9311V174.467H41.6441ZM44.9225 174.467V177.374C44.9225 177.614 44.9735 177.785 45.0755 177.887C45.1775 177.983 45.3545 178.031 45.6065 178.031H46.2095V178.724H45.4715C45.0155 178.724 44.6735 178.619 44.4455 178.409C44.2175 178.199 44.1035 177.854 44.1035 177.374V174.467H43.4645V173.792H44.1035V172.55H44.9225V173.792H46.2095V174.467H44.9225ZM51.7018 176.069C51.7018 176.225 51.6928 176.39 51.6748 176.564H47.7328C47.7628 177.05 47.9278 177.431 48.2278 177.707C48.5338 177.977 48.9028 178.112 49.3348 178.112C49.6888 178.112 49.9828 178.031 50.2168 177.869C50.4568 177.701 50.6248 177.479 50.7208 177.203H51.6028C51.4708 177.677 51.2068 178.064 50.8108 178.364C50.4148 178.658 49.9228 178.805 49.3348 178.805C48.8668 178.805 48.4468 178.7 48.0748 178.49C47.7088 178.28 47.4208 177.983 47.2108 177.599C47.0008 177.209 46.8958 176.759 46.8958 176.249C46.8958 175.739 46.9978 175.292 47.2018 174.908C47.4058 174.524 47.6908 174.23 48.0568 174.026C48.4288 173.816 48.8548 173.711 49.3348 173.711C49.8028 173.711 50.2168 173.813 50.5768 174.017C50.9368 174.221 51.2128 174.503 51.4048 174.863C51.6028 175.217 51.7018 175.619 51.7018 176.069ZM50.8558 175.898C50.8558 175.586 50.7868 175.319 50.6488 175.097C50.5108 174.869 50.3218 174.698 50.0818 174.584C49.8478 174.464 49.5868 174.404 49.2988 174.404C48.8848 174.404 48.5308 174.536 48.2368 174.8C47.9488 175.064 47.7838 175.43 47.7418 175.898H50.8558ZM53.6018 174.593C53.7458 174.311 53.9498 174.092 54.2138 173.936C54.4838 173.78 54.8108 173.702 55.1948 173.702V174.548H54.9788C54.0608 174.548 53.6018 175.046 53.6018 176.042V178.724H52.7828V173.792H53.6018V174.593ZM60.4927 172.451C61.1767 172.451 61.7677 172.58 62.2657 172.838C62.7697 173.09 63.1537 173.453 63.4177 173.927C63.6877 174.401 63.8227 174.959 63.8227 175.601C63.8227 176.243 63.6877 176.801 63.4177 177.275C63.1537 177.743 62.7697 178.103 62.2657 178.355C61.7677 178.601 61.1767 178.724 60.4927 178.724H58.5397V172.451H60.4927ZM60.4927 178.049C61.3027 178.049 61.9207 177.836 62.3467 177.41C62.7727 176.978 62.9857 176.375 62.9857 175.601C62.9857 174.821 62.7697 174.212 62.3377 173.774C61.9117 173.336 61.2967 173.117 60.4927 173.117H59.3587V178.049H60.4927ZM69.403 176.069C69.403 176.225 69.394 176.39 69.376 176.564H65.434C65.464 177.05 65.629 177.431 65.929 177.707C66.235 177.977 66.604 178.112 67.036 178.112C67.39 178.112 67.684 178.031 67.918 177.869C68.158 177.701 68.326 177.479 68.422 177.203H69.304C69.172 177.677 68.908 178.064 68.512 178.364C68.116 178.658 67.624 178.805 67.036 178.805C66.568 178.805 66.148 178.7 65.776 178.49C65.41 178.28 65.122 177.983 64.912 177.599C64.702 177.209 64.597 176.759 64.597 176.249C64.597 175.739 64.699 175.292 64.903 174.908C65.107 174.524 65.392 174.23 65.758 174.026C66.13 173.816 66.556 173.711 67.036 173.711C67.504 173.711 67.918 173.813 68.278 174.017C68.638 174.221 68.914 174.503 69.106 174.863C69.304 175.217 69.403 175.619 69.403 176.069ZM68.557 175.898C68.557 175.586 68.488 175.319 68.35 175.097C68.212 174.869 68.023 174.698 67.783 174.584C67.549 174.464 67.288 174.404 67 174.404C66.586 174.404 66.232 174.536 65.938 174.8C65.65 175.064 65.485 175.43 65.443 175.898H68.557ZM72.32 177.968L73.85 173.792H74.723L72.788 178.724H71.834L69.899 173.792H70.781L72.32 177.968ZM80.0289 176.069C80.0289 176.225 80.0199 176.39 80.0019 176.564H76.0599C76.0899 177.05 76.2549 177.431 76.5549 177.707C76.8609 177.977 77.2299 178.112 77.6619 178.112C78.0159 178.112 78.3099 178.031 78.5439 177.869C78.7839 177.701 78.9519 177.479 79.0479 177.203H79.9299C79.7979 177.677 79.5339 178.064 79.1379 178.364C78.7419 178.658 78.2499 178.805 77.6619 178.805C77.1939 178.805 76.7739 178.7 76.4019 178.49C76.0359 178.28 75.7479 177.983 75.5379 177.599C75.3279 177.209 75.2229 176.759 75.2229 176.249C75.2229 175.739 75.3249 175.292 75.5289 174.908C75.7329 174.524 76.0179 174.23 76.3839 174.026C76.7559 173.816 77.1819 173.711 77.6619 173.711C78.1299 173.711 78.5439 173.813 78.9039 174.017C79.2639 174.221 79.5399 174.503 79.7319 174.863C79.9299 175.217 80.0289 175.619 80.0289 176.069ZM79.1829 175.898C79.1829 175.586 79.1139 175.319 78.9759 175.097C78.8379 174.869 78.6489 174.698 78.4089 174.584C78.1749 174.464 77.9139 174.404 77.6259 174.404C77.2119 174.404 76.8579 174.536 76.5639 174.8C76.2759 175.064 76.1109 175.43 76.0689 175.898H79.1829ZM81.929 172.064V178.724H81.11V172.064H81.929ZM85.4758 178.805C85.0138 178.805 84.5938 178.7 84.2158 178.49C83.8438 178.28 83.5498 177.983 83.3338 177.599C83.1238 177.209 83.0188 176.759 83.0188 176.249C83.0188 175.745 83.1268 175.301 83.3428 174.917C83.5648 174.527 83.8648 174.23 84.2428 174.026C84.6208 173.816 85.0438 173.711 85.5118 173.711C85.9798 173.711 86.4028 173.816 86.7808 174.026C87.1588 174.23 87.4558 174.524 87.6718 174.908C87.8938 175.292 88.0048 175.739 88.0048 176.249C88.0048 176.759 87.8908 177.209 87.6628 177.599C87.4408 177.983 87.1378 178.28 86.7538 178.49C86.3698 178.7 85.9438 178.805 85.4758 178.805ZM85.4758 178.085C85.7698 178.085 86.0458 178.016 86.3038 177.878C86.5618 177.74 86.7688 177.533 86.9248 177.257C87.0868 176.981 87.1678 176.645 87.1678 176.249C87.1678 175.853 87.0898 175.517 86.9338 175.241C86.7778 174.965 86.5738 174.761 86.3218 174.629C86.0698 174.491 85.7968 174.422 85.5028 174.422C85.2028 174.422 84.9268 174.491 84.6748 174.629C84.4288 174.761 84.2308 174.965 84.0808 175.241C83.9308 175.517 83.8558 175.853 83.8558 176.249C83.8558 176.651 83.9278 176.99 84.0718 177.266C84.2218 177.542 84.4198 177.749 84.6658 177.887C84.9118 178.019 85.1818 178.085 85.4758 178.085ZM89.9007 174.701C90.0627 174.419 90.3027 174.185 90.6207 173.999C90.9447 173.807 91.3197 173.711 91.7457 173.711C92.1837 173.711 92.5797 173.816 92.9337 174.026C93.2937 174.236 93.5757 174.533 93.7797 174.917C93.9837 175.295 94.0857 175.736 94.0857 176.24C94.0857 176.738 93.9837 177.182 93.7797 177.572C93.5757 177.962 93.2937 178.265 92.9337 178.481C92.5797 178.697 92.1837 178.805 91.7457 178.805C91.3257 178.805 90.9537 178.712 90.6297 178.526C90.3117 178.334 90.0687 178.097 89.9007 177.815V181.064H89.0817V173.792H89.9007V174.701ZM93.2487 176.24C93.2487 175.868 93.1737 175.544 93.0237 175.268C92.8737 174.992 92.6697 174.782 92.4117 174.638C92.1597 174.494 91.8807 174.422 91.5747 174.422C91.2747 174.422 90.9957 174.497 90.7377 174.647C90.4857 174.791 90.2817 175.004 90.1257 175.286C89.9757 175.562 89.9007 175.883 89.9007 176.249C89.9007 176.621 89.9757 176.948 90.1257 177.23C90.2817 177.506 90.4857 177.719 90.7377 177.869C90.9957 178.013 91.2747 178.085 91.5747 178.085C91.8807 178.085 92.1597 178.013 92.4117 177.869C92.6697 177.719 92.8737 177.506 93.0237 177.23C93.1737 176.948 93.2487 176.618 93.2487 176.24ZM99.6637 176.069C99.6637 176.225 99.6547 176.39 99.6367 176.564H95.6947C95.7247 177.05 95.8897 177.431 96.1897 177.707C96.4957 177.977 96.8647 178.112 97.2967 178.112C97.6507 178.112 97.9447 178.031 98.1787 177.869C98.4187 177.701 98.5867 177.479 98.6827 177.203H99.5647C99.4327 177.677 99.1687 178.064 98.7727 178.364C98.3767 178.658 97.8847 178.805 97.2967 178.805C96.8287 178.805 96.4087 178.7 96.0367 178.49C95.6707 178.28 95.3827 177.983 95.1727 177.599C94.9627 177.209 94.8577 176.759 94.8577 176.249C94.8577 175.739 94.9597 175.292 95.1637 174.908C95.3677 174.524 95.6527 174.23 96.0187 174.026C96.3907 173.816 96.8167 173.711 97.2967 173.711C97.7647 173.711 98.1787 173.813 98.5387 174.017C98.8987 174.221 99.1747 174.503 99.3667 174.863C99.5647 175.217 99.6637 175.619 99.6637 176.069ZM98.8177 175.898C98.8177 175.586 98.7487 175.319 98.6107 175.097C98.4727 174.869 98.2837 174.698 98.0437 174.584C97.8097 174.464 97.5487 174.404 97.2607 174.404C96.8467 174.404 96.4927 174.536 96.1987 174.8C95.9107 175.064 95.7457 175.43 95.7037 175.898H98.8177ZM101.564 174.593C101.708 174.311 101.912 174.092 102.176 173.936C102.446 173.78 102.773 173.702 103.157 173.702V174.548H102.941C102.023 174.548 101.564 175.046 101.564 176.042V178.724H100.745V173.792H101.564V174.593Z" fill="#018343"/>
</g>
<g clip-path="url(#clip3_3004_3886)">
<path d="M117.094 166.033L118.982 168.012C119.523 168.578 120.475 168.332 120.673 167.574L122.345 161.181C122.558 160.365 121.727 159.667 120.96 160.019L114.955 162.776C114.243 163.102 114.166 164.083 114.817 164.517L117.094 166.033ZM117.094 166.033L119.344 163.352" stroke="#018343" stroke-width="0.797619" stroke-linecap="round" stroke-linejoin="round"/>
</g>
<g clip-path="url(#clip4_3004_3886)">
<path d="M130.745 151.951L129.045 150.263L134.545 144.763H137.932L130.745 151.951ZM134.545 155.763L131.582 152.801L134.545 149.838H137.932L134.97 152.801L137.932 155.763H134.545Z" fill="#018343"/>
</g>
<g filter="url(#filter2_d_3004_3886)">
<path d="M20.2812 73.6111C20.2812 67.9831 24.8437 63.4207 30.4717 63.4207H108.347C111.563 63.4207 114.17 66.0278 114.17 69.2438V69.2438C114.17 77.2838 107.652 83.8016 99.6123 83.8016H30.4717C24.8437 83.8016 20.2812 79.2392 20.2812 73.6111V73.6111Z" fill="white"/>
<path d="M33.1716 72.1561C32.9976 71.7901 32.7456 71.5081 32.4156 71.3101C32.0856 71.1061 31.7016 71.0041 31.2636 71.0041C30.8256 71.0041 30.4296 71.1061 30.0756 71.3101C29.7276 71.5081 29.4516 71.7961 29.2476 72.1741C29.0496 72.5461 28.9506 72.9781 28.9506 73.4701C28.9506 73.9621 29.0496 74.3941 29.2476 74.7661C29.4516 75.1381 29.7276 75.4261 30.0756 75.6301C30.4296 75.8281 30.8256 75.9271 31.2636 75.9271C31.8756 75.9271 32.3796 75.7441 32.7756 75.3781C33.1716 75.0121 33.4026 74.5171 33.4686 73.8931H30.9666V73.2271H34.3416V73.8571C34.2936 74.3731 34.1316 74.8471 33.8556 75.2791C33.5796 75.7051 33.2166 76.0441 32.7666 76.2961C32.3166 76.5421 31.8156 76.6651 31.2636 76.6651C30.6816 76.6651 30.1506 76.5301 29.6706 76.2601C29.1906 75.9841 28.8096 75.6031 28.5276 75.1171C28.2516 74.6311 28.1136 74.0821 28.1136 73.4701C28.1136 72.8581 28.2516 72.3091 28.5276 71.8231C28.8096 71.3311 29.1906 70.9501 29.6706 70.6801C30.1506 70.4041 30.6816 70.2661 31.2636 70.2661C31.9296 70.2661 32.5176 70.4311 33.0276 70.7611C33.5436 71.0911 33.9186 71.5561 34.1526 72.1561H33.1716ZM36.2434 72.4801C36.3874 72.1981 36.5914 71.9791 36.8554 71.8231C37.1254 71.6671 37.4524 71.5891 37.8364 71.5891V72.4351H37.6204C36.7024 72.4351 36.2434 72.9331 36.2434 73.9291V76.6111H35.4244V71.6791H36.2434V72.4801ZM38.4759 74.1271C38.4759 73.6231 38.5779 73.1821 38.7819 72.8041C38.9859 72.4201 39.2649 72.1231 39.6189 71.9131C39.9789 71.7031 40.3779 71.5981 40.8159 71.5981C41.2479 71.5981 41.6229 71.6911 41.9409 71.8771C42.2589 72.0631 42.4959 72.2971 42.6519 72.5791V71.6791H43.4799V76.6111H42.6519V75.6931C42.4899 75.9811 42.2469 76.2211 41.9229 76.4131C41.6049 76.5991 41.2329 76.6921 40.8069 76.6921C40.3689 76.6921 39.9729 76.5841 39.6189 76.3681C39.2649 76.1521 38.9859 75.8491 38.7819 75.4591C38.5779 75.0691 38.4759 74.6251 38.4759 74.1271ZM42.6519 74.1361C42.6519 73.7641 42.5769 73.4401 42.4269 73.1641C42.2769 72.8881 42.0729 72.6781 41.8149 72.5341C41.5629 72.3841 41.2839 72.3091 40.9779 72.3091C40.6719 72.3091 40.3929 72.3811 40.1409 72.5251C39.8889 72.6691 39.6879 72.8791 39.5379 73.1551C39.3879 73.4311 39.3129 73.7551 39.3129 74.1271C39.3129 74.5051 39.3879 74.8351 39.5379 75.1171C39.6879 75.3931 39.8889 75.6061 40.1409 75.7561C40.3929 75.9001 40.6719 75.9721 40.9779 75.9721C41.2839 75.9721 41.5629 75.9001 41.8149 75.7561C42.0729 75.6061 42.2769 75.3931 42.4269 75.1171C42.5769 74.8351 42.6519 74.5081 42.6519 74.1361ZM45.6829 72.5881C45.8449 72.3061 46.0849 72.0721 46.4029 71.8861C46.7269 71.6941 47.1019 71.5981 47.5279 71.5981C47.9659 71.5981 48.3619 71.7031 48.7159 71.9131C49.0759 72.1231 49.3579 72.4201 49.5619 72.8041C49.7659 73.1821 49.8679 73.6231 49.8679 74.1271C49.8679 74.6251 49.7659 75.0691 49.5619 75.4591C49.3579 75.8491 49.0759 76.1521 48.7159 76.3681C48.3619 76.5841 47.9659 76.6921 47.5279 76.6921C47.1079 76.6921 46.7359 76.5991 46.4119 76.4131C46.0939 76.2211 45.8509 75.9841 45.6829 75.7021V78.9511H44.8639V71.6791H45.6829V72.5881ZM49.0309 74.1271C49.0309 73.7551 48.9559 73.4311 48.8059 73.1551C48.6559 72.8791 48.4519 72.6691 48.1939 72.5251C47.9419 72.3811 47.6629 72.3091 47.3569 72.3091C47.0569 72.3091 46.7779 72.3841 46.5199 72.5341C46.2679 72.6781 46.0639 72.8911 45.9079 73.1731C45.7579 73.4491 45.6829 73.7701 45.6829 74.1361C45.6829 74.5081 45.7579 74.8351 45.9079 75.1171C46.0639 75.3931 46.2679 75.6061 46.5199 75.7561C46.7779 75.9001 47.0569 75.9721 47.3569 75.9721C47.6629 75.9721 47.9419 75.9001 48.1939 75.7561C48.4519 75.6061 48.6559 75.3931 48.8059 75.1171C48.9559 74.8351 49.0309 74.5051 49.0309 74.1271ZM53.3939 71.5891C53.7659 71.5891 54.1019 71.6701 54.4019 71.8321C54.7019 71.9881 54.9359 72.2251 55.1039 72.5431C55.2779 72.8611 55.3649 73.2481 55.3649 73.7041V76.6111H54.5549V73.8211C54.5549 73.3291 54.4319 72.9541 54.1859 72.6961C53.9399 72.4321 53.6039 72.3001 53.1779 72.3001C52.7459 72.3001 52.4009 72.4351 52.1429 72.7051C51.8909 72.9751 51.7649 73.3681 51.7649 73.8841V76.6111H50.9459V69.9511H51.7649V72.3811C51.9269 72.1291 52.1489 71.9341 52.4309 71.7961C52.7189 71.6581 53.0399 71.5891 53.3939 71.5891ZM57.1258 70.8781C56.9698 70.8781 56.8378 70.8241 56.7298 70.7161C56.6218 70.6081 56.5678 70.4761 56.5678 70.3201C56.5678 70.1641 56.6218 70.0321 56.7298 69.9241C56.8378 69.8161 56.9698 69.7621 57.1258 69.7621C57.2758 69.7621 57.4018 69.8161 57.5038 69.9241C57.6118 70.0321 57.6658 70.1641 57.6658 70.3201C57.6658 70.4761 57.6118 70.6081 57.5038 70.7161C57.4018 70.8241 57.2758 70.8781 57.1258 70.8781ZM57.5218 71.6791V76.6111H56.7028V71.6791H57.5218ZM58.6116 74.1361C58.6116 73.6261 58.7136 73.1821 58.9176 72.8041C59.1216 72.4201 59.4036 72.1231 59.7636 71.9131C60.1296 71.7031 60.5466 71.5981 61.0146 71.5981C61.6206 71.5981 62.1186 71.7451 62.5086 72.0391C62.9046 72.3331 63.1656 72.7411 63.2916 73.2631H62.4096C62.3256 72.9631 62.1606 72.7261 61.9146 72.5521C61.6746 72.3781 61.3746 72.2911 61.0146 72.2911C60.5466 72.2911 60.1686 72.4531 59.8806 72.7771C59.5926 73.0951 59.4486 73.5481 59.4486 74.1361C59.4486 74.7301 59.5926 75.1891 59.8806 75.5131C60.1686 75.8371 60.5466 75.9991 61.0146 75.9991C61.3746 75.9991 61.6746 75.9151 61.9146 75.7471C62.1546 75.5791 62.3196 75.3391 62.4096 75.0271H63.2916C63.1596 75.5311 62.8956 75.9361 62.4996 76.2421C62.1036 76.5421 61.6086 76.6921 61.0146 76.6921C60.5466 76.6921 60.1296 76.5871 59.7636 76.3771C59.4036 76.1671 59.1216 75.8701 58.9176 75.4861C58.7136 75.1021 58.6116 74.6521 58.6116 74.1361ZM68.7368 70.3381C69.4208 70.3381 70.0118 70.4671 70.5098 70.7251C71.0138 70.9771 71.3978 71.3401 71.6618 71.8141C71.9318 72.2881 72.0668 72.8461 72.0668 73.4881C72.0668 74.1301 71.9318 74.6881 71.6618 75.1621C71.3978 75.6301 71.0138 75.9901 70.5098 76.2421C70.0118 76.4881 69.4208 76.6111 68.7368 76.6111H66.7838V70.3381H68.7368ZM68.7368 75.9361C69.5468 75.9361 70.1648 75.7231 70.5908 75.2971C71.0168 74.8651 71.2298 74.2621 71.2298 73.4881C71.2298 72.7081 71.0138 72.0991 70.5818 71.6611C70.1558 71.2231 69.5408 71.0041 68.7368 71.0041H67.6028V75.9361H68.7368ZM77.6471 73.9561C77.6471 74.1121 77.6381 74.2771 77.6201 74.4511H73.6781C73.7081 74.9371 73.8731 75.3181 74.1731 75.5941C74.4791 75.8641 74.8481 75.9991 75.2801 75.9991C75.6341 75.9991 75.9281 75.9181 76.1621 75.7561C76.4021 75.5881 76.5701 75.3661 76.6661 75.0901H77.5481C77.4161 75.5641 77.1521 75.9511 76.7561 76.2511C76.3601 76.5451 75.8681 76.6921 75.2801 76.6921C74.8121 76.6921 74.3921 76.5871 74.0201 76.3771C73.6541 76.1671 73.3661 75.8701 73.1561 75.4861C72.9461 75.0961 72.8411 74.6461 72.8411 74.1361C72.8411 73.6261 72.9431 73.1791 73.1471 72.7951C73.3511 72.4111 73.6361 72.1171 74.0021 71.9131C74.3741 71.7031 74.8001 71.5981 75.2801 71.5981C75.7481 71.5981 76.1621 71.7001 76.5221 71.9041C76.8821 72.1081 77.1581 72.3901 77.3501 72.7501C77.5481 73.1041 77.6471 73.5061 77.6471 73.9561ZM76.8011 73.7851C76.8011 73.4731 76.7321 73.2061 76.5941 72.9841C76.4561 72.7561 76.2671 72.5851 76.0271 72.4711C75.7931 72.3511 75.5321 72.2911 75.2441 72.2911C74.8301 72.2911 74.4761 72.4231 74.1821 72.6871C73.8941 72.9511 73.7291 73.3171 73.6871 73.7851H76.8011ZM80.4742 76.6921C80.0962 76.6921 79.7572 76.6291 79.4572 76.5031C79.1572 76.3711 78.9202 76.1911 78.7462 75.9631C78.5722 75.7291 78.4762 75.4621 78.4582 75.1621H79.3042C79.3282 75.4081 79.4422 75.6091 79.6462 75.7651C79.8562 75.9211 80.1292 75.9991 80.4652 75.9991C80.7772 75.9991 81.0232 75.9301 81.2032 75.7921C81.3832 75.6541 81.4732 75.4801 81.4732 75.2701C81.4732 75.0541 81.3772 74.8951 81.1852 74.7931C80.9932 74.6851 80.6962 74.5801 80.2942 74.4781C79.9282 74.3821 79.6282 74.2861 79.3942 74.1901C79.1662 74.0881 78.9682 73.9411 78.8002 73.7491C78.6382 73.5511 78.5572 73.2931 78.5572 72.9751C78.5572 72.7231 78.6322 72.4921 78.7822 72.2821C78.9322 72.0721 79.1452 71.9071 79.4212 71.7871C79.6972 71.6611 80.0122 71.5981 80.3662 71.5981C80.9122 71.5981 81.3532 71.7361 81.6892 72.0121C82.0252 72.2881 82.2052 72.6661 82.2292 73.1461H81.4102C81.3922 72.8881 81.2872 72.6811 81.0952 72.5251C80.9092 72.3691 80.6572 72.2911 80.3392 72.2911C80.0452 72.2911 79.8112 72.3541 79.6372 72.4801C79.4632 72.6061 79.3762 72.7711 79.3762 72.9751C79.3762 73.1371 79.4272 73.2721 79.5292 73.3801C79.6372 73.4821 79.7692 73.5661 79.9252 73.6321C80.0872 73.6921 80.3092 73.7611 80.5912 73.8391C80.9452 73.9351 81.2332 74.0311 81.4552 74.1271C81.6772 74.2171 81.8662 74.3551 82.0222 74.5411C82.1842 74.7271 82.2682 74.9701 82.2742 75.2701C82.2742 75.5401 82.1992 75.7831 82.0492 75.9991C81.8992 76.2151 81.6862 76.3861 81.4102 76.5121C81.1402 76.6321 80.8282 76.6921 80.4742 76.6921ZM83.8533 70.8781C83.6973 70.8781 83.5653 70.8241 83.4573 70.7161C83.3493 70.6081 83.2953 70.4761 83.2953 70.3201C83.2953 70.1641 83.3493 70.0321 83.4573 69.9241C83.5653 69.8161 83.6973 69.7621 83.8533 69.7621C84.0033 69.7621 84.1293 69.8161 84.2313 69.9241C84.3393 70.0321 84.3933 70.1641 84.3933 70.3201C84.3933 70.4761 84.3393 70.6081 84.2313 70.7161C84.1293 70.8241 84.0033 70.8781 83.8533 70.8781ZM84.2493 71.6791V76.6111H83.4303V71.6791H84.2493ZM87.6791 71.5981C88.1051 71.5981 88.4771 71.6911 88.7951 71.8771C89.1191 72.0631 89.3591 72.2971 89.5151 72.5791V71.6791H90.3431V76.7191C90.3431 77.1691 90.2471 77.5681 90.0551 77.9161C89.8631 78.2701 89.5871 78.5461 89.2271 78.7441C88.8731 78.9421 88.4591 79.0411 87.9851 79.0411C87.3371 79.0411 86.7971 78.8881 86.3651 78.5821C85.9331 78.2761 85.6781 77.8591 85.6001 77.3311H86.4101C86.5001 77.6311 86.6861 77.8711 86.9681 78.0511C87.2501 78.2371 87.5891 78.3301 87.9851 78.3301C88.4351 78.3301 88.8011 78.1891 89.0831 77.9071C89.3711 77.6251 89.5151 77.2291 89.5151 76.7191V75.6841C89.3531 75.9721 89.1131 76.2121 88.7951 76.4041C88.4771 76.5961 88.1051 76.6921 87.6791 76.6921C87.2411 76.6921 86.8421 76.5841 86.4821 76.3681C86.1281 76.1521 85.8491 75.8491 85.6451 75.4591C85.4411 75.0691 85.3391 74.6251 85.3391 74.1271C85.3391 73.6231 85.4411 73.1821 85.6451 72.8041C85.8491 72.4201 86.1281 72.1231 86.4821 71.9131C86.8421 71.7031 87.2411 71.5981 87.6791 71.5981ZM89.5151 74.1361C89.5151 73.7641 89.4401 73.4401 89.2901 73.1641C89.1401 72.8881 88.9361 72.6781 88.6781 72.5341C88.4261 72.3841 88.1471 72.3091 87.8411 72.3091C87.5351 72.3091 87.2561 72.3811 87.0041 72.5251C86.7521 72.6691 86.5511 72.8791 86.4011 73.1551C86.2511 73.4311 86.1761 73.7551 86.1761 74.1271C86.1761 74.5051 86.2511 74.8351 86.4011 75.1171C86.5511 75.3931 86.7521 75.6061 87.0041 75.7561C87.2561 75.9001 87.5351 75.9721 87.8411 75.9721C88.1471 75.9721 88.4261 75.9001 88.6781 75.7561C88.9361 75.6061 89.1401 75.3931 89.2901 75.1171C89.4401 74.8351 89.5151 74.5081 89.5151 74.1361ZM94.1302 71.5891C94.7302 71.5891 95.2162 71.7721 95.5882 72.1381C95.9602 72.4981 96.1462 73.0201 96.1462 73.7041V76.6111H95.3362V73.8211C95.3362 73.3291 95.2132 72.9541 94.9672 72.6961C94.7212 72.4321 94.3852 72.3001 93.9592 72.3001C93.5272 72.3001 93.1822 72.4351 92.9242 72.7051C92.6722 72.9751 92.5462 73.3681 92.5462 73.8841V76.6111H91.7272V71.6791H92.5462V72.3811C92.7082 72.1291 92.9272 71.9341 93.2032 71.7961C93.4852 71.6581 93.7942 71.5891 94.1302 71.5891ZM101.984 73.9561C101.984 74.1121 101.975 74.2771 101.957 74.4511H98.015C98.045 74.9371 98.21 75.3181 98.51 75.5941C98.816 75.8641 99.185 75.9991 99.617 75.9991C99.971 75.9991 100.265 75.9181 100.499 75.7561C100.739 75.5881 100.907 75.3661 101.003 75.0901H101.885C101.753 75.5641 101.489 75.9511 101.093 76.2511C100.697 76.5451 100.205 76.6921 99.617 76.6921C99.149 76.6921 98.729 76.5871 98.357 76.3771C97.991 76.1671 97.703 75.8701 97.493 75.4861C97.283 75.0961 97.178 74.6461 97.178 74.1361C97.178 73.6261 97.28 73.1791 97.484 72.7951C97.688 72.4111 97.973 72.1171 98.339 71.9131C98.711 71.7031 99.137 71.5981 99.617 71.5981C100.085 71.5981 100.499 71.7001 100.859 71.9041C101.219 72.1081 101.495 72.3901 101.687 72.7501C101.885 73.1041 101.984 73.5061 101.984 73.9561ZM101.138 73.7851C101.138 73.4731 101.069 73.2061 100.931 72.9841C100.793 72.7561 100.604 72.5851 100.364 72.4711C100.13 72.3511 99.869 72.2911 99.581 72.2911C99.167 72.2911 98.813 72.4231 98.519 72.6871C98.231 72.9511 98.066 73.3171 98.024 73.7851H101.138ZM103.884 72.4801C104.028 72.1981 104.232 71.9791 104.496 71.8231C104.766 71.6671 105.093 71.5891 105.477 71.5891V72.4351H105.261C104.343 72.4351 103.884 72.9331 103.884 73.9291V76.6111H103.065V71.6791H103.884V72.4801Z" fill="#018343"/>
</g>
<g clip-path="url(#clip5_3004_3886)">
<path d="M120.183 72.8415L121.892 70.7057C122.381 70.0944 123.352 70.2567 123.615 70.9942L125.837 77.2174C126.121 78.0119 125.354 78.7791 124.559 78.4952L118.336 76.2728C117.599 76.0094 117.436 75.0392 118.047 74.5502L120.183 72.8415ZM120.183 72.8415L122.658 75.3164" stroke="#018343" stroke-width="0.797619" stroke-linecap="round" stroke-linejoin="round"/>
</g>
<path fill-rule="evenodd" clip-rule="evenodd" d="M142.018 90.9368C142.018 91.5667 141.767 92.1707 141.322 92.6161C140.877 93.0615 140.272 93.3118 139.643 93.3118H134.643C134.013 93.3118 133.409 93.0615 132.963 92.6161C132.518 92.1707 132.268 91.5667 132.268 90.9368V85.9368C132.268 85.3069 132.518 84.7028 132.963 84.2574C133.409 83.812 134.013 83.5618 134.643 83.5618H139.643C140.272 83.5618 140.877 83.812 141.322 84.2574C141.767 84.7028 142.018 85.3069 142.018 85.9368V90.9368ZM134.643 90.8118C134.543 90.8118 134.448 90.7723 134.377 90.7019C134.307 90.6316 134.268 90.5362 134.268 90.4368V86.4368C134.268 86.3373 134.307 86.2419 134.377 86.1716C134.448 86.1013 134.543 86.0618 134.643 86.0618H135.643C136.007 86.0618 136.357 86.2066 136.615 86.4645C136.873 86.7224 137.018 87.0721 137.018 87.4368C137.018 87.8014 136.873 88.1512 136.615 88.409C136.357 88.6669 136.007 88.8118 135.643 88.8118H135.018V90.4368C135.018 90.5362 134.978 90.6316 134.908 90.7019C134.837 90.7723 134.742 90.8118 134.643 90.8118ZM135.018 88.0618H135.643C135.808 88.0618 135.967 87.9959 136.085 87.8787C136.202 87.7615 136.268 87.6025 136.268 87.4368C136.268 87.271 136.202 87.112 136.085 86.9948C135.967 86.8776 135.808 86.8118 135.643 86.8118H135.018V88.0618ZM139.307 88.1043C139.329 88.1487 139.359 88.1884 139.396 88.2211C139.434 88.2538 139.477 88.2787 139.524 88.2946C139.571 88.3105 139.62 88.3169 139.67 88.3135C139.719 88.3101 139.767 88.297 139.811 88.2749C139.856 88.2528 139.895 88.2221 139.928 88.1847C139.96 88.1473 139.985 88.1038 140 88.0568C140.016 88.0098 140.022 87.9602 140.018 87.9108C140.014 87.8615 140.001 87.8134 139.978 87.7693C139.872 87.5566 139.708 87.3778 139.506 87.2529C139.304 87.1279 139.071 87.0617 138.833 87.0618H138.643C138.344 87.0618 138.058 87.1803 137.847 87.3913C137.636 87.6023 137.518 87.8884 137.518 88.1868C137.518 88.4851 137.636 88.7713 137.847 88.9823C138.058 89.1932 138.344 89.3118 138.643 89.3118H138.893C138.992 89.3118 139.087 89.3513 139.158 89.4216C139.228 89.4919 139.268 89.5873 139.268 89.6868C139.268 89.7862 139.228 89.8816 139.158 89.9519C139.087 90.0223 138.992 90.0618 138.893 90.0618H138.702C138.603 90.0617 138.507 90.0343 138.423 89.9827C138.34 89.931 138.272 89.8571 138.228 89.7693C138.183 89.6811 138.105 89.6142 138.011 89.5832C137.917 89.5523 137.815 89.5597 137.726 89.6039C137.638 89.6481 137.57 89.7255 137.539 89.8192C137.507 89.9129 137.514 90.0154 137.557 90.1043C137.663 90.3169 137.827 90.4956 138.029 90.6206C138.231 90.7456 138.464 90.8118 138.702 90.8118H138.893C139.191 90.8118 139.477 90.6932 139.688 90.4823C139.899 90.2713 140.018 89.9851 140.018 89.6868C140.018 89.3884 139.899 89.1023 139.688 88.8913C139.477 88.6803 139.191 88.5618 138.893 88.5618H138.643C138.543 88.5618 138.448 88.5223 138.377 88.4519C138.307 88.3816 138.268 88.2862 138.268 88.1868C138.268 88.0873 138.307 87.9919 138.377 87.9216C138.448 87.8513 138.543 87.8118 138.643 87.8118H138.834C139.034 87.8118 139.218 87.9253 139.307 88.1043Z" fill="#018343"/>
<g clip-path="url(#clip6_3004_3886)">
<path d="M188.434 83.3377C188.52 83.2874 188.618 83.261 188.717 83.261C188.817 83.261 188.915 83.2874 189.001 83.3377L193.661 86.0564C193.746 86.1059 193.817 86.1768 193.866 86.2621C193.915 86.3473 193.941 86.444 193.941 86.5424V91.9799C193.941 92.0783 193.915 92.175 193.866 92.2602C193.817 92.3455 193.746 92.4164 193.661 92.4659L189.001 95.1847C188.915 95.2349 188.817 95.2613 188.717 95.2613C188.618 95.2613 188.52 95.2349 188.434 95.1847L187.269 94.5052C187.14 94.43 187.046 94.3067 187.008 94.1623C186.97 94.018 186.991 93.8645 187.066 93.7357C187.142 93.6068 187.265 93.513 187.409 93.475C187.554 93.4371 187.707 93.458 187.836 93.5332L188.717 94.0477L192.816 91.6567V86.8657L188.717 84.4747L184.619 86.8657V91.6567L185.457 92.1457C185.715 92.2282 186.034 92.2484 186.259 92.1494C186.376 92.098 186.472 92.008 186.532 91.8944C186.61 91.7534 186.682 91.5187 186.682 91.1362V87.1987C186.682 87.0495 186.741 86.9064 186.846 86.8009C186.952 86.6954 187.095 86.6362 187.244 86.6362C187.393 86.6362 187.536 86.6954 187.642 86.8009C187.747 86.9064 187.807 87.0495 187.807 87.1987V91.1362C187.807 91.6537 187.71 92.0902 187.514 92.4412C187.336 92.7686 187.054 93.0279 186.713 93.1784C186.109 93.4454 185.44 93.3359 185.032 93.1889C184.999 93.1773 184.968 93.1627 184.939 93.1454L183.773 92.4659C183.688 92.4163 183.618 92.3454 183.569 92.2601C183.52 92.1748 183.494 92.0782 183.494 91.9799V86.5424C183.494 86.4441 183.52 86.3475 183.569 86.2622C183.618 86.1769 183.688 86.106 183.773 86.0564L188.434 83.3377ZM188.929 87.2234C189.226 86.8694 189.691 86.6362 190.322 86.6362C190.907 86.6362 191.353 86.8372 191.656 87.1559C191.708 87.2092 191.75 87.2725 191.777 87.342C191.805 87.4115 191.819 87.4859 191.817 87.5608C191.816 87.6356 191.8 87.7094 191.77 87.7779C191.739 87.8464 191.696 87.9082 191.641 87.9596C191.587 88.011 191.523 88.0511 191.453 88.0774C191.383 88.1037 191.308 88.1158 191.233 88.1128C191.158 88.1099 191.085 88.0921 191.017 88.0605C190.949 88.0288 190.888 87.9839 190.838 87.9284C190.771 87.8602 190.634 87.7612 190.321 87.7612C189.99 87.7612 189.853 87.8722 189.79 87.9472C189.724 88.0272 189.686 88.1264 189.681 88.2299C189.681 88.2922 189.708 88.4152 189.79 88.5127C189.853 88.5877 189.99 88.6987 190.322 88.6987C190.376 88.6985 190.429 88.7061 190.481 88.7212C190.946 88.7887 191.3 88.9972 191.543 89.2859C191.822 89.6182 191.915 90.0112 191.915 90.2924C191.915 90.5737 191.822 90.9667 191.543 91.2989C191.245 91.6529 190.78 91.8862 190.15 91.8862C189.565 91.8862 189.118 91.6852 188.817 91.3664C188.718 91.2574 188.666 91.114 188.672 90.9669C188.677 90.8199 188.741 90.681 188.847 90.5799C188.954 90.4789 189.097 90.4237 189.244 90.4264C189.391 90.429 189.531 90.4891 189.634 90.5939C189.7 90.6629 189.838 90.7612 190.15 90.7612C190.481 90.7612 190.618 90.6502 190.682 90.5752C190.748 90.495 190.785 90.3958 190.79 90.2924C190.785 90.1889 190.747 90.0897 190.681 90.0097C190.618 89.9347 190.481 89.8237 190.15 89.8237C190.096 89.8239 190.042 89.8163 189.99 89.8012C189.525 89.7337 189.171 89.5252 188.929 89.2364C188.692 88.9537 188.561 88.5983 188.556 88.2299C188.556 87.9487 188.649 87.5557 188.929 87.2234Z" fill="#E27C00"/>
</g>
<g clip-path="url(#clip7_3004_3886)">
<path d="M205.878 73.9235L207.856 75.8119C208.423 76.3523 208.177 77.305 207.419 77.5027L201.026 79.1743C200.209 79.3879 199.512 78.5567 199.864 77.7901L202.62 71.7842C202.947 71.0728 203.928 70.9953 204.362 71.6469L205.878 73.9235ZM205.878 73.9235L203.196 76.1733" stroke="#E27C00" stroke-width="0.797619" stroke-linecap="round" stroke-linejoin="round"/>
</g>
<g filter="url(#filter3_d_3004_3886)">
<path d="M211.652 70.0685C211.652 66.8525 214.259 64.2454 217.475 64.2454H306.351C311.979 64.2454 316.541 68.8078 316.541 74.4358V74.4358C316.541 80.0639 311.979 84.6263 306.351 84.6263H226.21C218.17 84.6263 211.652 78.1086 211.652 70.0685V70.0685Z" fill="white"/>
<path d="M223.337 71.1628V71.8288H220.61V73.9438H222.824V74.6098H220.61V77.4358H219.791V71.1628H223.337ZM228.7 72.5038V77.4358H227.881V76.7068C227.725 76.9588 227.506 77.1568 227.224 77.3008C226.948 77.4388 226.642 77.5078 226.306 77.5078C225.922 77.5078 225.577 77.4298 225.271 77.2738C224.965 77.1118 224.722 76.8718 224.542 76.5538C224.368 76.2358 224.281 75.8488 224.281 75.3928V72.5038H225.091V75.2848C225.091 75.7708 225.214 76.1458 225.46 76.4098C225.706 76.6678 226.042 76.7968 226.468 76.7968C226.906 76.7968 227.251 76.6618 227.503 76.3918C227.755 76.1218 227.881 75.7288 227.881 75.2128V72.5038H228.7ZM230.902 70.7758V77.4358H230.083V70.7758H230.902ZM233.116 70.7758V77.4358H232.297V70.7758H233.116ZM238.901 77.4988C238.487 77.4988 238.115 77.4268 237.785 77.2828C237.461 77.1328 237.206 76.9288 237.02 76.6708C236.834 76.4068 236.738 76.1038 236.732 75.7618H237.605C237.635 76.0558 237.755 76.3048 237.965 76.5088C238.181 76.7068 238.493 76.8058 238.901 76.8058C239.291 76.8058 239.597 76.7098 239.819 76.5178C240.047 76.3198 240.161 76.0678 240.161 75.7618C240.161 75.5218 240.095 75.3268 239.963 75.1768C239.831 75.0268 239.666 74.9128 239.468 74.8348C239.27 74.7568 239.003 74.6728 238.667 74.5828C238.253 74.4748 237.92 74.3668 237.668 74.2588C237.422 74.1508 237.209 73.9828 237.029 73.7548C236.855 73.5208 236.768 73.2088 236.768 72.8188C236.768 72.4768 236.855 72.1738 237.029 71.9098C237.203 71.6458 237.446 71.4418 237.758 71.2978C238.076 71.1538 238.439 71.0818 238.847 71.0818C239.435 71.0818 239.915 71.2288 240.287 71.5228C240.665 71.8168 240.878 72.2068 240.926 72.6928H240.026C239.996 72.4528 239.87 72.2428 239.648 72.0628C239.426 71.8768 239.132 71.7838 238.766 71.7838C238.424 71.7838 238.145 71.8738 237.929 72.0538C237.713 72.2278 237.605 72.4738 237.605 72.7918C237.605 73.0198 237.668 73.2058 237.794 73.3498C237.926 73.4938 238.085 73.6048 238.271 73.6828C238.463 73.7548 238.73 73.8388 239.072 73.9348C239.486 74.0488 239.819 74.1628 240.071 74.2768C240.323 74.3848 240.539 74.5558 240.719 74.7898C240.899 75.0178 240.989 75.3298 240.989 75.7258C240.989 76.0318 240.908 76.3198 240.746 76.5898C240.584 76.8598 240.344 77.0788 240.026 77.2468C239.708 77.4148 239.333 77.4988 238.901 77.4988ZM243.193 73.1788V76.0858C243.193 76.3258 243.244 76.4968 243.346 76.5988C243.448 76.6948 243.625 76.7428 243.877 76.7428H244.48V77.4358H243.742C243.286 77.4358 242.944 77.3308 242.716 77.1208C242.488 76.9108 242.374 76.5658 242.374 76.0858V73.1788H241.735V72.5038H242.374V71.2618H243.193V72.5038H244.48V73.1788H243.193ZM245.166 74.9518C245.166 74.4478 245.268 74.0068 245.472 73.6288C245.676 73.2448 245.955 72.9478 246.309 72.7378C246.669 72.5278 247.068 72.4228 247.506 72.4228C247.938 72.4228 248.313 72.5158 248.631 72.7018C248.949 72.8878 249.186 73.1218 249.342 73.4038V72.5038H250.17V77.4358H249.342V76.5178C249.18 76.8058 248.937 77.0458 248.613 77.2378C248.295 77.4238 247.923 77.5168 247.497 77.5168C247.059 77.5168 246.663 77.4088 246.309 77.1928C245.955 76.9768 245.676 76.6738 245.472 76.2838C245.268 75.8938 245.166 75.4498 245.166 74.9518ZM249.342 74.9608C249.342 74.5888 249.267 74.2648 249.117 73.9888C248.967 73.7128 248.763 73.5028 248.505 73.3588C248.253 73.2088 247.974 73.1338 247.668 73.1338C247.362 73.1338 247.083 73.2058 246.831 73.3498C246.579 73.4938 246.378 73.7038 246.228 73.9798C246.078 74.2558 246.003 74.5798 246.003 74.9518C246.003 75.3298 246.078 75.6598 246.228 75.9418C246.378 76.2178 246.579 76.4308 246.831 76.5808C247.083 76.7248 247.362 76.7968 247.668 76.7968C247.974 76.7968 248.253 76.7248 248.505 76.5808C248.763 76.4308 248.967 76.2178 249.117 75.9418C249.267 75.6598 249.342 75.3328 249.342 74.9608ZM251.248 74.9608C251.248 74.4508 251.35 74.0068 251.554 73.6288C251.758 73.2448 252.04 72.9478 252.4 72.7378C252.766 72.5278 253.183 72.4228 253.651 72.4228C254.257 72.4228 254.755 72.5698 255.145 72.8638C255.541 73.1578 255.802 73.5658 255.928 74.0878H255.046C254.962 73.7878 254.797 73.5508 254.551 73.3768C254.311 73.2028 254.011 73.1158 253.651 73.1158C253.183 73.1158 252.805 73.2778 252.517 73.6018C252.229 73.9198 252.085 74.3728 252.085 74.9608C252.085 75.5548 252.229 76.0138 252.517 76.3378C252.805 76.6618 253.183 76.8238 253.651 76.8238C254.011 76.8238 254.311 76.7398 254.551 76.5718C254.791 76.4038 254.956 76.1638 255.046 75.8518H255.928C255.796 76.3558 255.532 76.7608 255.136 77.0668C254.74 77.3668 254.245 77.5168 253.651 77.5168C253.183 77.5168 252.766 77.4118 252.4 77.2018C252.04 76.9918 251.758 76.6948 251.554 76.3108C251.35 75.9268 251.248 75.4768 251.248 74.9608ZM259.775 77.4358L257.84 75.2578V77.4358H257.021V70.7758H257.84V74.6908L259.739 72.5038H260.882L258.56 74.9608L260.891 77.4358H259.775ZM266.005 71.1628C266.689 71.1628 267.28 71.2918 267.778 71.5498C268.282 71.8018 268.666 72.1648 268.93 72.6388C269.2 73.1128 269.335 73.6708 269.335 74.3128C269.335 74.9548 269.2 75.5128 268.93 75.9868C268.666 76.4548 268.282 76.8148 267.778 77.0668C267.28 77.3128 266.689 77.4358 266.005 77.4358H264.052V71.1628H266.005ZM266.005 76.7608C266.815 76.7608 267.433 76.5478 267.859 76.1218C268.285 75.6898 268.498 75.0868 268.498 74.3128C268.498 73.5328 268.282 72.9238 267.85 72.4858C267.424 72.0478 266.809 71.8288 266.005 71.8288H264.871V76.7608H266.005ZM274.916 74.7808C274.916 74.9368 274.907 75.1018 274.889 75.2758H270.947C270.977 75.7618 271.142 76.1428 271.442 76.4188C271.748 76.6888 272.117 76.8238 272.549 76.8238C272.903 76.8238 273.197 76.7428 273.431 76.5808C273.671 76.4128 273.839 76.1908 273.935 75.9148H274.817C274.685 76.3888 274.421 76.7758 274.025 77.0758C273.629 77.3698 273.137 77.5168 272.549 77.5168C272.081 77.5168 271.661 77.4118 271.289 77.2018C270.923 76.9918 270.635 76.6948 270.425 76.3108C270.215 75.9208 270.11 75.4708 270.11 74.9608C270.11 74.4508 270.212 74.0038 270.416 73.6198C270.62 73.2358 270.905 72.9418 271.271 72.7378C271.643 72.5278 272.069 72.4228 272.549 72.4228C273.017 72.4228 273.431 72.5248 273.791 72.7288C274.151 72.9328 274.427 73.2148 274.619 73.5748C274.817 73.9288 274.916 74.3308 274.916 74.7808ZM274.07 74.6098C274.07 74.2978 274.001 74.0308 273.863 73.8088C273.725 73.5808 273.536 73.4098 273.296 73.2958C273.062 73.1758 272.801 73.1158 272.513 73.1158C272.099 73.1158 271.745 73.2478 271.451 73.5118C271.163 73.7758 270.998 74.1418 270.956 74.6098H274.07ZM277.833 76.6798L279.363 72.5038H280.236L278.301 77.4358H277.347L275.412 72.5038H276.294L277.833 76.6798ZM285.542 74.7808C285.542 74.9368 285.533 75.1018 285.515 75.2758H281.573C281.603 75.7618 281.768 76.1428 282.068 76.4188C282.374 76.6888 282.743 76.8238 283.175 76.8238C283.529 76.8238 283.823 76.7428 284.057 76.5808C284.297 76.4128 284.465 76.1908 284.561 75.9148H285.443C285.311 76.3888 285.047 76.7758 284.651 77.0758C284.255 77.3698 283.763 77.5168 283.175 77.5168C282.707 77.5168 282.287 77.4118 281.915 77.2018C281.549 76.9918 281.261 76.6948 281.051 76.3108C280.841 75.9208 280.736 75.4708 280.736 74.9608C280.736 74.4508 280.838 74.0038 281.042 73.6198C281.246 73.2358 281.531 72.9418 281.897 72.7378C282.269 72.5278 282.695 72.4228 283.175 72.4228C283.643 72.4228 284.057 72.5248 284.417 72.7288C284.777 72.9328 285.053 73.2148 285.245 73.5748C285.443 73.9288 285.542 74.3308 285.542 74.7808ZM284.696 74.6098C284.696 74.2978 284.627 74.0308 284.489 73.8088C284.351 73.5808 284.162 73.4098 283.922 73.2958C283.688 73.1758 283.427 73.1158 283.139 73.1158C282.725 73.1158 282.371 73.2478 282.077 73.5118C281.789 73.7758 281.624 74.1418 281.582 74.6098H284.696ZM287.442 70.7758V77.4358H286.623V70.7758H287.442ZM290.989 77.5168C290.527 77.5168 290.107 77.4118 289.729 77.2018C289.357 76.9918 289.063 76.6948 288.847 76.3108C288.637 75.9208 288.532 75.4708 288.532 74.9608C288.532 74.4568 288.64 74.0128 288.856 73.6288C289.078 73.2388 289.378 72.9418 289.756 72.7378C290.134 72.5278 290.557 72.4228 291.025 72.4228C291.493 72.4228 291.916 72.5278 292.294 72.7378C292.672 72.9418 292.969 73.2358 293.185 73.6198C293.407 74.0038 293.518 74.4508 293.518 74.9608C293.518 75.4708 293.404 75.9208 293.176 76.3108C292.954 76.6948 292.651 76.9918 292.267 77.2018C291.883 77.4118 291.457 77.5168 290.989 77.5168ZM290.989 76.7968C291.283 76.7968 291.559 76.7278 291.817 76.5898C292.075 76.4518 292.282 76.2448 292.438 75.9688C292.6 75.6928 292.681 75.3568 292.681 74.9608C292.681 74.5648 292.603 74.2288 292.447 73.9528C292.291 73.6768 292.087 73.4728 291.835 73.3408C291.583 73.2028 291.31 73.1338 291.016 73.1338C290.716 73.1338 290.44 73.2028 290.188 73.3408C289.942 73.4728 289.744 73.6768 289.594 73.9528C289.444 74.2288 289.369 74.5648 289.369 74.9608C289.369 75.3628 289.441 75.7018 289.585 75.9778C289.735 76.2538 289.933 76.4608 290.179 76.5988C290.425 76.7308 290.695 76.7968 290.989 76.7968ZM295.413 73.4128C295.575 73.1308 295.815 72.8968 296.133 72.7108C296.457 72.5188 296.832 72.4228 297.258 72.4228C297.696 72.4228 298.092 72.5278 298.446 72.7378C298.806 72.9478 299.088 73.2448 299.292 73.6288C299.496 74.0068 299.598 74.4478 299.598 74.9518C299.598 75.4498 299.496 75.8938 299.292 76.2838C299.088 76.6738 298.806 76.9768 298.446 77.1928C298.092 77.4088 297.696 77.5168 297.258 77.5168C296.838 77.5168 296.466 77.4238 296.142 77.2378C295.824 77.0458 295.581 76.8088 295.413 76.5268V79.7758H294.594V72.5038H295.413V73.4128ZM298.761 74.9518C298.761 74.5798 298.686 74.2558 298.536 73.9798C298.386 73.7038 298.182 73.4938 297.924 73.3498C297.672 73.2058 297.393 73.1338 297.087 73.1338C296.787 73.1338 296.508 73.2088 296.25 73.3588C295.998 73.5028 295.794 73.7158 295.638 73.9978C295.488 74.2738 295.413 74.5948 295.413 74.9608C295.413 75.3328 295.488 75.6598 295.638 75.9418C295.794 76.2178 295.998 76.4308 296.25 76.5808C296.508 76.7248 296.787 76.7968 297.087 76.7968C297.393 76.7968 297.672 76.7248 297.924 76.5808C298.182 76.4308 298.386 76.2178 298.536 75.9418C298.686 75.6598 298.761 75.3298 298.761 74.9518ZM305.176 74.7808C305.176 74.9368 305.167 75.1018 305.149 75.2758H301.207C301.237 75.7618 301.402 76.1428 301.702 76.4188C302.008 76.6888 302.377 76.8238 302.809 76.8238C303.163 76.8238 303.457 76.7428 303.691 76.5808C303.931 76.4128 304.099 76.1908 304.195 75.9148H305.077C304.945 76.3888 304.681 76.7758 304.285 77.0758C303.889 77.3698 303.397 77.5168 302.809 77.5168C302.341 77.5168 301.921 77.4118 301.549 77.2018C301.183 76.9918 300.895 76.6948 300.685 76.3108C300.475 75.9208 300.37 75.4708 300.37 74.9608C300.37 74.4508 300.472 74.0038 300.676 73.6198C300.88 73.2358 301.165 72.9418 301.531 72.7378C301.903 72.5278 302.329 72.4228 302.809 72.4228C303.277 72.4228 303.691 72.5248 304.051 72.7288C304.411 72.9328 304.687 73.2148 304.879 73.5748C305.077 73.9288 305.176 74.3308 305.176 74.7808ZM304.33 74.6098C304.33 74.2978 304.261 74.0308 304.123 73.8088C303.985 73.5808 303.796 73.4098 303.556 73.2958C303.322 73.1758 303.061 73.1158 302.773 73.1158C302.359 73.1158 302.005 73.2478 301.711 73.5118C301.423 73.7758 301.258 74.1418 301.216 74.6098H304.33ZM307.076 73.3048C307.22 73.0228 307.424 72.8038 307.688 72.6478C307.958 72.4918 308.285 72.4138 308.669 72.4138V73.2598H308.453C307.535 73.2598 307.076 73.7578 307.076 74.7538V77.4358H306.257V72.5038H307.076V73.3048Z" fill="#E27C00"/>
</g>
<path d="M159.69 91.7887C159.075 92.0152 158.565 92.4875 158.274 93.1088C158.131 93.4129 158.106 93.5488 158.106 94.0794C158.112 94.61 158.131 94.7459 158.287 95.0759L158.461 95.4577L157.272 96.6548L156.082 97.8519L155.869 97.7484C155.636 97.6449 153.91 97.1531 152.934 96.9201C152.235 96.7584 151.834 96.7907 151.304 97.056C151.013 97.2048 150.651 97.5284 149.701 98.4926C148.511 99.7026 148.466 99.7544 148.324 100.181C148.13 100.77 148.143 101.029 148.414 102.006C148.544 102.472 148.705 103.068 148.77 103.333C148.97 104.103 149.1 104.523 149.171 104.614C149.223 104.679 148.951 104.989 148.039 105.902L146.843 107.099L146.624 106.982C145.182 106.238 143.43 107.06 143.1 108.645C142.874 109.733 143.404 110.807 144.419 111.305C144.813 111.499 144.897 111.519 145.466 111.519C146.003 111.519 146.126 111.493 146.462 111.337L146.85 111.163L148.13 112.437C148.835 113.143 149.41 113.745 149.41 113.777C149.41 113.809 149.203 114.049 148.958 114.307C148.705 114.566 148.44 114.909 148.369 115.078C148.188 115.492 148.149 116.022 148.272 116.501C148.602 117.815 149.029 119.322 149.126 119.53L149.242 119.775L148.046 120.966L146.856 122.157L146.533 121.995C146.1 121.788 145.563 121.704 145.104 121.775C143.494 122.04 142.602 123.69 143.268 125.179L143.449 125.58L142.26 126.764L141.077 127.948L140.863 127.832C140.747 127.773 140.314 127.638 139.906 127.528C139.499 127.424 138.769 127.23 138.29 127.107C136.932 126.751 136.402 126.861 135.607 127.663C135.361 127.916 135.129 128.116 135.09 128.116C135.051 128.116 134.45 127.541 133.745 126.835L132.465 125.554L132.646 125.172C132.808 124.829 132.827 124.706 132.827 124.169C132.827 123.6 132.808 123.516 132.614 123.121C132.135 122.15 131.114 121.613 130.066 121.781C129.523 121.872 129.207 122.021 128.806 122.383C127.752 123.334 127.765 125.004 128.832 125.981C129.181 126.298 129.653 126.505 130.247 126.596C130.545 126.641 131.314 126.486 131.547 126.337C131.625 126.285 131.728 126.24 131.773 126.24C131.819 126.24 132.439 126.822 133.15 127.534L134.443 128.828L133.978 129.294C133.402 129.883 133.234 130.207 133.196 130.802C133.17 131.203 133.209 131.417 133.525 132.614C134.03 134.51 134.062 134.613 134.301 134.917C134.663 135.39 134.993 135.564 136.124 135.875C136.693 136.03 137.417 136.231 137.734 136.315C138.445 136.516 139.131 136.503 139.596 136.283C139.784 136.186 140.307 135.713 141.141 134.879C142.945 133.067 142.971 133.002 142.428 130.931C142.24 130.219 142.059 129.527 142.033 129.391C142.001 129.255 141.911 129.016 141.839 128.861L141.704 128.576L142.874 127.411C143.52 126.764 144.07 126.24 144.102 126.24C144.135 126.24 144.29 126.298 144.451 126.369C145.175 126.693 145.861 126.667 146.611 126.305C147.037 126.091 147.412 125.709 147.652 125.224C147.955 124.635 147.949 123.671 147.632 123.089L147.477 122.791L148.667 121.6C149.32 120.947 149.869 120.416 149.882 120.416C149.895 120.416 149.992 120.461 150.095 120.513C150.251 120.584 152.371 121.193 152.481 121.193C152.5 121.193 152.513 122.474 152.513 124.04V126.887H152.274C151.893 126.887 151.388 127.049 151.085 127.262C150.697 127.534 148.686 129.579 148.492 129.896C148.311 130.194 148.182 130.653 148.182 131.009C148.182 131.145 148.253 131.514 148.343 131.837C148.427 132.154 148.557 132.653 148.634 132.937C148.912 133.96 149.093 134.555 149.151 134.613C149.19 134.652 149.216 134.71 149.216 134.749C149.216 134.788 148.686 135.351 148.039 135.998L146.856 137.182L146.598 137.053C145.382 136.451 143.902 136.93 143.301 138.127C142.686 139.369 143.21 140.838 144.484 141.434C144.8 141.582 144.936 141.608 145.466 141.608C145.996 141.608 146.132 141.582 146.449 141.434C146.927 141.207 147.399 140.761 147.626 140.321C147.955 139.673 147.962 138.761 147.645 138.146L147.483 137.842L148.673 136.652L149.856 135.467L150.263 135.61C150.49 135.687 150.949 135.823 151.285 135.914C151.621 136.004 152.119 136.14 152.384 136.212C153.231 136.445 153.315 136.464 153.722 136.464C154.362 136.464 154.77 136.276 155.371 135.7L155.882 135.209L157.181 136.516L158.481 137.816L158.345 138.095C158.164 138.489 158.073 138.845 158.073 139.182C158.073 139.538 158.228 140.165 158.377 140.418L158.487 140.605L157.33 141.777C156.431 142.676 156.134 142.935 156.037 142.909C155.966 142.89 155.733 142.818 155.52 142.754C155.306 142.682 154.899 142.566 154.614 142.488C154.33 142.417 153.78 142.268 153.386 142.158C152.571 141.938 152.048 141.912 151.537 142.074C151.22 142.171 151.059 142.307 149.85 143.504C147.865 145.465 147.884 145.387 148.796 148.519C148.886 148.83 148.958 149.121 148.958 149.166C148.958 149.328 149.3 149.962 149.494 150.169C149.824 150.519 150.199 150.668 151.906 151.127C154.324 151.774 154.324 151.781 156.166 149.923C157.485 148.597 157.653 148.364 157.744 147.71C157.789 147.354 157.769 147.206 157.588 146.494C157.162 144.844 156.961 144.125 156.851 143.873L156.735 143.614L157.925 142.417L159.114 141.227L159.386 141.362C159.806 141.576 160.065 141.641 160.465 141.641C160.86 141.641 161.435 141.498 161.687 141.337C161.836 141.239 161.862 141.259 163.123 142.521C163.834 143.226 164.409 143.834 164.409 143.867C164.409 143.899 164.222 144.119 163.995 144.352C163.459 144.915 163.304 145.226 163.265 145.84C163.232 146.274 163.265 146.455 163.504 147.367C164.028 149.36 164.092 149.568 164.215 149.742C164.286 149.839 164.344 149.943 164.344 149.975C164.344 150.066 164.868 150.48 165.127 150.603C165.25 150.655 166 150.881 166.801 151.101C168.023 151.438 168.34 151.502 168.773 151.502C169.562 151.502 169.736 151.392 171.088 150.059C172.368 148.804 172.555 148.565 172.71 148.047C172.885 147.458 172.885 147.471 172.238 145.051C171.941 143.951 171.805 143.627 171.521 143.33C171.178 142.974 170.777 142.786 169.866 142.547C169.445 142.437 168.767 142.262 168.366 142.152C167.034 141.809 166.491 141.919 165.644 142.715L165.133 143.2L163.827 141.893L162.521 140.586L162.631 140.392C162.993 139.777 163.006 138.858 162.657 138.12L162.528 137.842L163.698 136.658L164.862 135.467L165.269 135.61C165.489 135.681 166.284 135.907 167.027 136.114C168.295 136.451 168.424 136.477 168.915 136.445C169.549 136.406 169.73 136.315 170.402 135.662L170.874 135.215L172.167 136.503C172.988 137.318 173.454 137.829 173.434 137.888C173.421 137.939 173.35 138.133 173.279 138.321C173.014 139.026 173.04 139.673 173.376 140.334C173.609 140.793 173.977 141.142 174.495 141.401C174.876 141.589 174.967 141.608 175.529 141.608C176.053 141.608 176.195 141.582 176.512 141.434C177.003 141.207 177.436 140.793 177.682 140.314C177.876 139.945 177.889 139.887 177.889 139.214C177.889 138.599 177.869 138.457 177.74 138.192C177.139 136.936 175.613 136.432 174.365 137.079L174.152 137.189L172.872 135.907C172.161 135.196 171.585 134.594 171.585 134.555C171.585 134.516 171.773 134.303 172.006 134.076C172.581 133.507 172.781 133.093 172.775 132.452C172.775 132.051 172.704 131.688 172.342 130.381C171.876 128.692 171.779 128.479 171.314 128.097C171.004 127.845 170.719 127.715 170.098 127.566C169.866 127.508 169.407 127.385 169.083 127.295L168.482 127.126V124.292V121.451H168.676C168.993 121.451 169.536 121.315 169.775 121.173C169.898 121.102 170.195 120.85 170.441 120.617L170.874 120.19L172.18 121.497L173.48 122.797L173.292 123.237C173.137 123.613 173.105 123.768 173.111 124.202C173.118 124.635 173.15 124.79 173.312 125.14C173.57 125.696 173.887 126.046 174.346 126.285C175.064 126.667 175.794 126.693 176.563 126.363L176.893 126.22L178.173 127.476C178.878 128.168 179.46 128.757 179.46 128.789C179.466 128.822 179.272 129.055 179.033 129.307C178.244 130.135 178.102 130.718 178.406 131.837C178.497 132.193 178.691 132.911 178.826 133.436C178.969 133.96 179.143 134.51 179.221 134.665C179.499 135.209 179.958 135.532 180.792 135.765C181.367 135.927 182.848 136.322 183.19 136.412C183.598 136.516 184.373 136.445 184.71 136.276C185.033 136.108 187.115 134.089 187.431 133.636C187.877 132.996 187.923 132.413 187.619 131.32C187.515 130.925 187.36 130.375 187.289 130.09C187.212 129.805 187.076 129.346 186.985 129.061L186.83 128.556L187.981 127.392C188.711 126.66 189.177 126.246 189.235 126.266C189.287 126.279 189.481 126.35 189.662 126.421C190.179 126.615 190.522 126.648 191.045 126.538C191.601 126.421 191.963 126.22 192.319 125.832C193.884 124.13 192.429 121.406 190.16 121.775C189.371 121.904 188.75 122.377 188.388 123.108C188.181 123.522 188.168 123.593 188.168 124.202C188.168 124.784 188.188 124.881 188.356 125.198L188.537 125.547L187.347 126.738L186.158 127.929L185.899 127.819C185.763 127.761 185.007 127.534 184.225 127.321C182.065 126.732 181.613 126.77 180.701 127.638C180.423 127.903 180.177 128.116 180.152 128.116C180.074 128.116 177.598 125.638 177.598 125.567C177.598 125.535 177.675 125.315 177.766 125.088C177.915 124.719 177.928 124.596 177.908 124.079C177.882 123.354 177.695 122.894 177.229 122.454C176.841 122.079 176.544 121.917 175.988 121.807C175.458 121.691 174.857 121.768 174.436 122.008L174.152 122.163L172.872 120.882C172.161 120.177 171.585 119.575 171.585 119.542C171.585 119.51 171.773 119.29 172.006 119.051C172.497 118.546 172.749 118.048 172.794 117.517C172.82 117.148 172.788 116.986 172.303 115.239C172.232 114.974 172.122 114.566 172.064 114.333C172.006 114.1 171.915 113.829 171.863 113.725L171.766 113.537L172.956 112.347L174.146 111.156L174.527 111.331C175.077 111.583 175.704 111.616 176.318 111.415C176.719 111.292 176.848 111.208 177.184 110.878C177.772 110.283 177.889 109.998 177.889 109.124C177.889 108.438 177.882 108.4 177.675 108.018C177.048 106.853 175.794 106.413 174.553 106.918L174.139 107.086L172.865 105.805C172.161 105.106 171.585 104.504 171.585 104.465C171.585 104.426 171.779 104.213 172.012 103.98C172.51 103.495 172.749 103.042 172.794 102.505C172.827 102.129 172.801 102.006 172.167 99.6444C171.773 98.1755 171.488 97.8778 170.085 97.4831C168.101 96.9266 167.441 96.7842 167.073 96.8295C166.53 96.8942 166.181 97.0819 165.67 97.5737C165.418 97.8261 165.178 98.0267 165.146 98.0267C165.114 98.0267 164.506 97.4443 163.801 96.7389C162.515 95.4512 162.515 95.4448 162.618 95.2895C162.676 95.2053 162.767 94.953 162.819 94.7394C163.123 93.5876 162.651 92.5005 161.616 91.944C161.248 91.7434 161.151 91.724 160.595 91.7046C160.149 91.6916 159.903 91.711 159.69 91.7887ZM159.386 96.2472C159.463 96.2989 159.715 96.3895 159.942 96.4478C160.446 96.5772 160.905 96.5319 161.487 96.2989L161.901 96.1371L163.2 97.4378L164.5 98.7385L164.041 99.2108C163.452 99.8062 163.297 100.117 163.258 100.744C163.232 101.178 163.271 101.372 163.562 102.492C164.112 104.556 164.131 104.614 164.532 105.035C164.849 105.378 165.211 105.546 166.155 105.792C166.601 105.908 167.267 106.083 167.635 106.186C168.967 106.555 169.562 106.426 170.409 105.598L170.874 105.132L172.167 106.413C172.878 107.118 173.46 107.727 173.46 107.772C173.46 107.824 173.402 107.972 173.331 108.108C173.027 108.691 173.027 109.493 173.331 110.16C173.409 110.321 173.46 110.49 173.447 110.516C173.402 110.645 171.165 112.845 171.088 112.845C171.036 112.845 170.932 112.813 170.855 112.767C170.777 112.729 170.467 112.632 170.163 112.547C169.859 112.47 169.452 112.36 169.258 112.308C167.474 111.816 167.131 111.777 166.504 112.01C166.226 112.114 166.006 112.269 165.644 112.625C165.372 112.89 165.14 113.104 165.12 113.104C165.101 113.104 164.513 112.522 163.801 111.81L162.521 110.522L162.657 110.231C162.987 109.551 162.98 108.632 162.651 107.985C162.424 107.558 161.901 107.079 161.461 106.898C159.806 106.238 158.073 107.39 158.073 109.157C158.073 109.519 158.228 110.095 158.403 110.373C158.487 110.509 158.429 110.58 157.33 111.68C156.425 112.586 156.14 112.845 156.037 112.819C155.966 112.8 155.558 112.69 155.132 112.567C153.296 112.036 152.604 111.874 152.19 111.874C151.602 111.874 151.182 112.081 150.587 112.67L150.121 113.136L148.815 111.829L147.516 110.528L147.664 110.186C147.955 109.5 147.942 108.678 147.632 108.063L147.477 107.752L148.686 106.549C149.817 105.429 149.901 105.352 150.024 105.436C150.095 105.488 150.871 105.721 151.737 105.96C154.298 106.652 154.324 106.639 156.121 104.86C157.556 103.443 157.692 103.249 157.737 102.492C157.763 102.045 157.731 101.864 157.336 100.389C157.097 99.4956 156.864 98.7126 156.813 98.6414C156.735 98.5184 156.806 98.4279 157.899 97.3278C158.545 96.6807 159.114 96.1501 159.159 96.1501C159.205 96.1501 159.308 96.1954 159.386 96.2472ZM159.405 111.286C160.084 111.616 160.905 111.629 161.513 111.324L161.849 111.156L163.148 112.437C163.866 113.143 164.461 113.732 164.461 113.751C164.467 113.77 164.267 113.997 164.015 114.256C163.485 114.799 163.304 115.162 163.258 115.77L163.226 116.21L160.381 116.197L157.53 116.178L157.479 115.983C157.162 114.76 156.897 113.842 156.819 113.699C156.729 113.525 156.729 113.525 157.899 112.347C158.545 111.7 159.095 111.169 159.114 111.169C159.134 111.163 159.263 111.221 159.405 111.286ZM163.549 117.439C163.691 117.989 163.95 118.96 164.021 119.219C164.105 119.497 164.293 119.84 164.506 120.08C164.732 120.345 165.262 120.591 166.155 120.83C166.633 120.966 167.144 121.108 167.286 121.147L167.545 121.225L167.564 124.046L167.577 126.868L167.157 126.906C166.4 126.978 166.239 127.088 164.81 128.524C163.401 129.948 163.323 130.058 163.252 130.789L163.213 131.229H160.407C158.862 131.229 157.575 131.203 157.55 131.177C157.524 131.145 157.394 130.718 157.265 130.219C156.968 129.048 156.871 128.796 156.612 128.44C156.289 127.987 155.862 127.78 154.569 127.431L153.418 127.126V124.299V121.471L153.832 121.438C154.556 121.38 154.808 121.212 156.095 119.924C156.729 119.29 157.317 118.675 157.401 118.565C157.614 118.287 157.757 117.854 157.757 117.452L157.763 117.116L160.621 117.129L163.472 117.148L163.549 117.439ZM163.536 132.458C163.582 132.614 163.679 132.989 163.763 133.293C163.84 133.597 163.982 134.07 164.073 134.348L164.241 134.853L163.064 136.024L161.894 137.202L161.519 137.014C160.86 136.69 159.942 136.723 159.295 137.092C159.127 137.189 159.127 137.189 157.821 135.882L156.515 134.568L156.961 134.109C157.504 133.552 157.692 133.203 157.731 132.685C157.75 132.465 157.769 132.258 157.782 132.225C157.789 132.187 158.791 132.161 160.627 132.167L163.459 132.174L163.536 132.458Z" fill="#018343"/>
<path d="M160.09 121.781C159.321 121.911 158.674 122.396 158.319 123.121C158.131 123.502 158.112 123.599 158.105 124.162C158.105 124.738 158.125 124.816 158.319 125.217C159.23 127.081 161.836 127.042 162.715 125.152C162.864 124.835 162.89 124.7 162.89 124.169C162.89 123.599 162.87 123.515 162.676 123.121C162.198 122.15 161.151 121.606 160.09 121.781Z" fill="#018343"/>
<path d="M136.531 111.971C136.111 112.127 135.768 112.411 134.598 113.602C132.943 115.272 132.93 115.343 133.57 117.756C134.126 119.821 134.281 120.105 135.07 120.52C135.29 120.636 138.089 121.38 138.49 121.432C138.826 121.471 139.331 121.374 139.699 121.193C139.828 121.128 140.481 120.526 141.147 119.853C142.589 118.404 142.712 118.203 142.712 117.407C142.712 116.98 142.641 116.637 142.337 115.498C141.91 113.893 141.762 113.537 141.399 113.182C141.025 112.819 140.85 112.748 139.137 112.289C137.514 111.849 137.023 111.79 136.531 111.971Z" fill="#018343"/>
<path d="M181.542 111.984C181.31 112.068 180.999 112.34 179.952 113.375C178.51 114.806 178.329 115.058 178.271 115.705C178.232 116.145 178.226 116.132 178.633 117.666C179.124 119.549 179.183 119.678 179.596 120.099C179.907 120.403 180.042 120.493 180.417 120.61C181.523 120.959 183.482 121.451 183.753 121.451C184.057 121.451 184.613 121.289 184.852 121.141C184.962 121.069 185.589 120.474 186.242 119.821C187.684 118.384 187.775 118.242 187.781 117.407C187.781 116.889 187.736 116.656 187.374 115.336C186.967 113.841 186.811 113.466 186.475 113.162C186.087 112.806 185.919 112.741 184.387 112.334C184.122 112.262 183.624 112.133 183.275 112.042C182.57 111.848 181.982 111.835 181.542 111.984Z" fill="#018343"/>
<path d="M160.051 151.865C159.327 151.988 158.668 152.499 158.319 153.211C158.125 153.605 158.105 153.69 158.105 154.259C158.105 154.783 158.131 154.925 158.274 155.23C158.623 155.98 159.243 156.466 160.058 156.634C160.498 156.724 160.582 156.724 160.957 156.627C161.532 156.491 161.778 156.362 162.172 156C162.398 155.793 162.579 155.553 162.702 155.281C162.864 154.925 162.89 154.796 162.89 154.259C162.89 153.722 162.864 153.592 162.709 153.256C162.385 152.557 161.791 152.078 161.034 151.897C160.588 151.794 160.517 151.794 160.051 151.865Z" fill="#018343"/>
</g>
<defs>
<filter id="filter0_d_3004_3886" x="196.641" y="158.274" width="136.793" height="52.2856" filterUnits="userSpaceOnUse" color-interpolation-filters="sRGB">
<feFlood flood-opacity="0" result="BackgroundImageFix"/>
<feColorMatrix in="SourceAlpha" type="matrix" values="0 0 0 0 0 0 0 0 0 0 0 0 0 0 0 0 0 0 127 0" result="hardAlpha"/>
<feOffset dy="7.97619"/>
<feGaussianBlur stdDeviation="7.97619"/>
<feColorMatrix type="matrix" values="0 0 0 0 0.243137 0 0 0 0 0.0745098 0 0 0 0 0.301961 0 0 0 0.09 0"/>
<feBlend mode="normal" in2="BackgroundImageFix" result="effect1_dropShadow_3004_3886"/>
<feBlend mode="normal" in="SourceGraphic" in2="effect1_dropShadow_3004_3886" result="shape"/>
</filter>
<filter id="filter1_d_3004_3886" x="4.04762" y="157.558" width="122.793" height="52.2856" filterUnits="userSpaceOnUse" color-interpolation-filters="sRGB">
<feFlood flood-opacity="0" result="BackgroundImageFix"/>
<feColorMatrix in="SourceAlpha" type="matrix" values="0 0 0 0 0 0 0 0 0 0 0 0 0 0 0 0 0 0 127 0" result="hardAlpha"/>
<feOffset dy="7.97619"/>
<feGaussianBlur stdDeviation="7.97619"/>
<feColorMatrix type="matrix" values="0 0 0 0 0.243137 0 0 0 0 0.0745098 0 0 0 0 0.301961 0 0 0 0.09 0"/>
<feBlend mode="normal" in2="BackgroundImageFix" result="effect1_dropShadow_3004_3886"/>
<feBlend mode="normal" in="SourceGraphic" in2="effect1_dropShadow_3004_3886" result="shape"/>
</filter>
<filter id="filter2_d_3004_3886" x="4.32887" y="55.4445" width="125.793" height="52.2856" filterUnits="userSpaceOnUse" color-interpolation-filters="sRGB">
<feFlood flood-opacity="0" result="BackgroundImageFix"/>
<feColorMatrix in="SourceAlpha" type="matrix" values="0 0 0 0 0 0 0 0 0 0 0 0 0 0 0 0 0 0 127 0" result="hardAlpha"/>
<feOffset dy="7.97619"/>
<feGaussianBlur stdDeviation="7.97619"/>
<feColorMatrix type="matrix" values="0 0 0 0 0.243137 0 0 0 0 0.0745098 0 0 0 0 0.301961 0 0 0 0.09 0"/>
<feBlend mode="normal" in2="BackgroundImageFix" result="effect1_dropShadow_3004_3886"/>
<feBlend mode="normal" in="SourceGraphic" in2="effect1_dropShadow_3004_3886" result="shape"/>
</filter>
<filter id="filter3_d_3004_3886" x="195.7" y="56.2692" width="136.793" height="52.2856" filterUnits="userSpaceOnUse" color-interpolation-filters="sRGB">
<feFlood flood-opacity="0" result="BackgroundImageFix"/>
<feColorMatrix in="SourceAlpha" type="matrix" values="0 0 0 0 0 0 0 0 0 0 0 0 0 0 0 0 0 0 127 0" result="hardAlpha"/>
<feOffset dy="7.97619"/>
<feGaussianBlur stdDeviation="7.97619"/>
<feColorMatrix type="matrix" values="0 0 0 0 0.243137 0 0 0 0 0.0745098 0 0 0 0 0.301961 0 0 0 0.09 0"/>
<feBlend mode="normal" in2="BackgroundImageFix" result="effect1_dropShadow_3004_3886"/>
<feBlend mode="normal" in="SourceGraphic" in2="effect1_dropShadow_3004_3886" result="shape"/>
</filter>
<clipPath id="clip0_3004_3886">
<rect y="0.452393" width="337.482" height="429.62" rx="12.7619" fill="white"/>
</clipPath>
<clipPath id="clip1_3004_3886">
<rect width="11.1667" height="13.2937" fill="white" transform="translate(183.688 144.98)"/>
</clipPath>
<clipPath id="clip2_3004_3886">
<rect width="12" height="12" fill="white" transform="translate(203.4 172.521) rotate(-130)"/>
</clipPath>
<clipPath id="clip3_3004_3886">
<rect width="12" height="12" fill="white" transform="matrix(0.642788 -0.766044 -0.766044 -0.642788 120.082 171.805)"/>
</clipPath>
<clipPath id="clip4_3004_3886">
<rect width="12" height="12" fill="white" transform="translate(127.795 144.264)"/>
</clipPath>
<clipPath id="clip5_3004_3886">
<rect width="12" height="12" fill="white" transform="translate(122.656 66.8311) rotate(45)"/>
</clipPath>
<clipPath id="clip6_3004_3886">
<rect width="12" height="12" fill="white" transform="translate(182.746 83.2612)"/>
</clipPath>
<clipPath id="clip7_3004_3886">
<rect width="12" height="12" fill="white" transform="translate(211.652 76.9128) rotate(140)"/>
</clipPath>
</defs>
</svg>
