<svg width="684" height="556" viewBox="0 0 684 556" fill="none" xmlns="http://www.w3.org/2000/svg">
<path d="M559.402 267C559.402 382.949 462.279 477 342.402 477C222.526 477 125.402 382.949 125.402 267C125.402 151.051 222.526 57 342.402 57C462.279 57 559.402 151.051 559.402 267Z" stroke="#6AFFB7" stroke-width="2"/>
<path d="M478.402 267C478.402 339.874 417.541 399 342.402 399C267.263 399 206.402 339.874 206.402 267C206.402 194.126 267.263 135 342.402 135C417.541 135 478.402 194.126 478.402 267Z" stroke="#6AFFB7" stroke-width="2"/>
<path d="M395.402 266.5C395.402 294.916 371.7 318 342.402 318C313.105 318 289.402 294.916 289.402 266.5C289.402 238.084 313.105 215 342.402 215C371.7 215 395.402 238.084 395.402 266.5Z" stroke="#6AFFB7" stroke-width="2"/>
<g clip-path="url(#clip0_178_3764)">
<path d="M341.663 240.191C341.156 240.378 340.735 240.767 340.496 241.279C340.378 241.529 340.357 241.641 340.357 242.078C340.362 242.515 340.378 242.627 340.506 242.899L340.65 243.213L339.669 244.199L338.689 245.185L338.513 245.1C338.321 245.015 336.898 244.61 336.093 244.418C335.518 244.284 335.187 244.311 334.75 244.53C334.51 244.652 334.212 244.919 333.429 245.713C332.448 246.709 332.411 246.752 332.293 247.104C332.133 247.589 332.144 247.802 332.368 248.607C332.475 248.99 332.608 249.481 332.661 249.699C332.826 250.333 332.933 250.68 332.992 250.754C333.034 250.808 332.81 251.064 332.059 251.815L331.073 252.801L330.892 252.705C329.703 252.092 328.259 252.769 327.987 254.075C327.801 254.97 328.238 255.855 329.074 256.265C329.399 256.425 329.469 256.441 329.938 256.441C330.38 256.441 330.481 256.42 330.758 256.292L331.078 256.148L332.133 257.198C332.714 257.779 333.189 258.274 333.189 258.301C333.189 258.328 333.018 258.525 332.816 258.738C332.608 258.951 332.389 259.234 332.331 259.372C332.181 259.713 332.149 260.15 332.251 260.545C332.523 261.627 332.874 262.868 332.954 263.039L333.05 263.242L332.064 264.222L331.084 265.203L330.817 265.07C330.46 264.899 330.018 264.83 329.639 264.888C328.312 265.107 327.577 266.466 328.126 267.692L328.275 268.022L327.294 268.997L326.319 269.973L326.143 269.877C326.047 269.829 325.69 269.717 325.354 269.626C325.019 269.541 324.416 269.381 324.022 269.28C322.903 268.987 322.466 269.077 321.81 269.738C321.608 269.946 321.416 270.111 321.384 270.111C321.352 270.111 320.856 269.637 320.275 269.056L319.22 268.001L319.369 267.686C319.503 267.404 319.518 267.303 319.518 266.86C319.518 266.391 319.503 266.322 319.343 265.997C318.948 265.197 318.106 264.755 317.243 264.894C316.795 264.968 316.534 265.091 316.204 265.389C315.335 266.173 315.345 267.548 316.225 268.353C316.513 268.614 316.902 268.784 317.392 268.859C317.637 268.896 318.271 268.768 318.463 268.646C318.527 268.603 318.612 268.566 318.65 268.566C318.687 268.566 319.199 269.045 319.785 269.632L320.851 270.698L320.467 271.081C319.993 271.566 319.854 271.833 319.822 272.323C319.801 272.653 319.833 272.829 320.094 273.815C320.51 275.377 320.536 275.462 320.734 275.713C321.032 276.102 321.304 276.246 322.237 276.501C322.706 276.629 323.302 276.795 323.564 276.864C324.15 277.029 324.715 277.018 325.099 276.837C325.253 276.757 325.685 276.368 326.372 275.681C327.859 274.188 327.881 274.135 327.433 272.43C327.278 271.843 327.129 271.273 327.108 271.161C327.081 271.049 327.006 270.852 326.948 270.724L326.836 270.49L327.801 269.53C328.334 268.997 328.787 268.566 328.813 268.566C328.84 268.566 328.968 268.614 329.101 268.672C329.698 268.939 330.263 268.917 330.881 268.619C331.233 268.443 331.542 268.129 331.739 267.729C331.99 267.244 331.984 266.45 331.723 265.97L331.595 265.725L332.576 264.744C333.114 264.206 333.567 263.769 333.578 263.769C333.588 263.769 333.668 263.806 333.754 263.849C333.882 263.908 335.63 264.409 335.72 264.409C335.736 264.409 335.747 265.464 335.747 266.754V269.099H335.55C335.235 269.099 334.82 269.232 334.569 269.408C334.249 269.632 332.592 271.316 332.432 271.577C332.283 271.822 332.176 272.2 332.176 272.494C332.176 272.606 332.235 272.909 332.309 273.176C332.379 273.437 332.485 273.847 332.549 274.082C332.778 274.924 332.928 275.414 332.976 275.462C333.008 275.494 333.029 275.542 333.029 275.574C333.029 275.606 332.592 276.07 332.059 276.603L331.084 277.578L330.87 277.471C329.868 276.976 328.648 277.37 328.152 278.356C327.646 279.379 328.078 280.589 329.128 281.079C329.389 281.202 329.501 281.223 329.938 281.223C330.375 281.223 330.487 281.202 330.748 281.079C331.142 280.893 331.531 280.525 331.718 280.163C331.99 279.63 331.995 278.878 331.734 278.372L331.601 278.122L332.581 277.141L333.556 276.166L333.892 276.283C334.079 276.347 334.457 276.459 334.734 276.533C335.011 276.608 335.422 276.72 335.64 276.779C336.338 276.97 336.408 276.986 336.744 276.986C337.271 276.986 337.607 276.832 338.103 276.357L338.524 275.952L339.595 277.029L340.666 278.1L340.554 278.329C340.405 278.655 340.33 278.948 340.33 279.225C340.33 279.518 340.458 280.035 340.581 280.243L340.671 280.397L339.717 281.362C338.977 282.103 338.731 282.316 338.651 282.295C338.593 282.279 338.401 282.22 338.225 282.167C338.049 282.108 337.713 282.012 337.479 281.948C337.245 281.89 336.791 281.767 336.466 281.676C335.795 281.495 335.363 281.474 334.942 281.607C334.681 281.687 334.548 281.799 333.551 282.785C331.915 284.4 331.931 284.336 332.682 286.915C332.757 287.171 332.816 287.411 332.816 287.448C332.816 287.581 333.098 288.104 333.258 288.274C333.53 288.562 333.839 288.685 335.246 289.063C337.239 289.596 337.239 289.601 338.758 288.072C339.845 286.979 339.984 286.787 340.058 286.249C340.096 285.956 340.08 285.833 339.931 285.247C339.579 283.888 339.414 283.297 339.323 283.089L339.227 282.876L340.208 281.89L341.188 280.909L341.412 281.021C341.759 281.197 341.972 281.25 342.302 281.25C342.627 281.25 343.102 281.133 343.31 281C343.432 280.92 343.453 280.936 344.493 281.975C345.079 282.556 345.553 283.057 345.553 283.083C345.553 283.11 345.399 283.291 345.212 283.483C344.77 283.947 344.642 284.203 344.61 284.709C344.583 285.066 344.61 285.215 344.807 285.967C345.239 287.608 345.292 287.779 345.393 287.923C345.452 288.003 345.5 288.088 345.5 288.114C345.5 288.189 345.932 288.53 346.145 288.631C346.246 288.674 346.864 288.861 347.525 289.042C348.532 289.319 348.794 289.372 349.151 289.372C349.801 289.372 349.945 289.282 351.059 288.184C352.114 287.15 352.268 286.953 352.396 286.526C352.54 286.041 352.54 286.052 352.007 284.059C351.762 283.153 351.65 282.886 351.416 282.641C351.133 282.348 350.803 282.193 350.051 281.996C349.705 281.906 349.145 281.762 348.815 281.671C347.717 281.389 347.269 281.479 346.571 282.135L346.15 282.534L345.074 281.458L343.997 280.381L344.088 280.221C344.386 279.715 344.397 278.958 344.109 278.351L344.002 278.122L344.967 277.146L345.926 276.166L346.262 276.283C346.443 276.342 347.099 276.528 347.712 276.699C348.756 276.976 348.863 276.997 349.268 276.97C349.79 276.938 349.939 276.864 350.494 276.326L350.883 275.958L351.949 277.018C352.626 277.69 353.009 278.111 352.993 278.159C352.983 278.202 352.924 278.361 352.865 278.516C352.647 279.097 352.668 279.63 352.945 280.173C353.137 280.552 353.441 280.84 353.867 281.053C354.182 281.207 354.256 281.223 354.72 281.223C355.152 281.223 355.269 281.202 355.53 281.079C355.935 280.893 356.292 280.552 356.495 280.157C356.655 279.854 356.665 279.806 356.665 279.251C356.665 278.745 356.649 278.628 356.543 278.409C356.047 277.375 354.789 276.96 353.761 277.493L353.585 277.583L352.53 276.528C351.943 275.942 351.469 275.446 351.469 275.414C351.469 275.382 351.624 275.206 351.815 275.02C352.29 274.551 352.455 274.21 352.45 273.682C352.45 273.352 352.391 273.053 352.093 271.977C351.709 270.586 351.629 270.41 351.245 270.095C350.989 269.887 350.755 269.781 350.243 269.658C350.051 269.61 349.673 269.509 349.406 269.434L348.911 269.296V266.962V264.622H349.071C349.332 264.622 349.78 264.51 349.977 264.393C350.078 264.334 350.323 264.126 350.526 263.934L350.883 263.583L351.959 264.659L353.031 265.73L352.876 266.093C352.748 266.402 352.721 266.53 352.727 266.887C352.732 267.244 352.759 267.372 352.892 267.66C353.105 268.118 353.366 268.406 353.745 268.603C354.336 268.917 354.939 268.939 355.573 268.667L355.845 268.55L356.9 269.584C357.481 270.154 357.96 270.639 357.96 270.666C357.966 270.692 357.806 270.884 357.609 271.092C356.958 271.774 356.841 272.254 357.092 273.176C357.166 273.469 357.326 274.06 357.438 274.492C357.555 274.924 357.699 275.377 357.763 275.505C357.992 275.952 358.371 276.219 359.058 276.411C359.533 276.544 360.753 276.869 361.036 276.944C361.371 277.029 362.011 276.97 362.288 276.832C362.554 276.693 364.271 275.03 364.532 274.657C364.899 274.13 364.937 273.65 364.686 272.749C364.601 272.424 364.473 271.971 364.414 271.737C364.35 271.502 364.239 271.124 364.164 270.889L364.036 270.474L364.985 269.514C365.587 268.912 365.971 268.571 366.019 268.587C366.061 268.598 366.221 268.656 366.37 268.715C366.797 268.875 367.079 268.901 367.511 268.811C367.969 268.715 368.268 268.55 368.561 268.23C369.851 266.828 368.651 264.585 366.781 264.888C366.131 264.995 365.619 265.384 365.32 265.986C365.15 266.327 365.139 266.386 365.139 266.887C365.139 267.367 365.155 267.447 365.294 267.708L365.443 267.995L364.462 268.976L363.482 269.957L363.269 269.866C363.157 269.818 362.533 269.632 361.888 269.456C360.108 268.971 359.735 269.003 358.984 269.717C358.754 269.935 358.552 270.111 358.531 270.111C358.467 270.111 356.425 268.07 356.425 268.011C356.425 267.985 356.489 267.804 356.564 267.617C356.687 267.313 356.697 267.212 356.681 266.786C356.66 266.189 356.505 265.81 356.122 265.448C355.802 265.139 355.557 265.006 355.098 264.915C354.661 264.819 354.166 264.883 353.819 265.08L353.585 265.208L352.53 264.153C351.943 263.572 351.469 263.076 351.469 263.05C351.469 263.023 351.624 262.842 351.815 262.645C352.22 262.229 352.428 261.819 352.466 261.382C352.487 261.078 352.46 260.944 352.061 259.506C352.002 259.287 351.911 258.951 351.863 258.759C351.815 258.568 351.741 258.344 351.698 258.258L351.618 258.104L352.599 257.123L353.58 256.143L353.894 256.286C354.347 256.494 354.864 256.521 355.37 256.356C355.701 256.255 355.807 256.185 356.084 255.913C356.569 255.423 356.665 255.189 356.665 254.469C356.665 253.904 356.66 253.872 356.489 253.558C355.972 252.598 354.939 252.236 353.915 252.652L353.574 252.79L352.524 251.735C351.943 251.159 351.469 250.664 351.469 250.632C351.469 250.6 351.629 250.424 351.821 250.232C352.231 249.832 352.428 249.459 352.466 249.017C352.492 248.708 352.471 248.607 351.949 246.661C351.624 245.452 351.389 245.206 350.233 244.881C348.596 244.423 348.053 244.306 347.749 244.343C347.301 244.396 347.014 244.551 346.592 244.956C346.385 245.164 346.187 245.329 346.161 245.329C346.134 245.329 345.633 244.849 345.052 244.268C343.992 243.208 343.992 243.203 344.077 243.075C344.125 243.005 344.2 242.797 344.242 242.622C344.493 241.673 344.104 240.778 343.251 240.319C342.947 240.154 342.867 240.138 342.409 240.122C342.041 240.111 341.839 240.127 341.663 240.191ZM341.412 243.863C341.476 243.906 341.684 243.981 341.871 244.029C342.286 244.135 342.665 244.098 343.144 243.906L343.485 243.773L344.557 244.844L345.628 245.915L345.249 246.304C344.764 246.795 344.637 247.05 344.605 247.567C344.583 247.924 344.615 248.084 344.855 249.006C345.308 250.706 345.324 250.754 345.654 251.101C345.916 251.383 346.214 251.522 346.992 251.724C347.36 251.82 347.909 251.964 348.213 252.05C349.311 252.353 349.801 252.247 350.499 251.565L350.883 251.181L351.949 252.236C352.535 252.817 353.015 253.318 353.015 253.355C353.015 253.398 352.967 253.52 352.908 253.632C352.657 254.112 352.657 254.773 352.908 255.322C352.972 255.455 353.015 255.594 353.004 255.615C352.967 255.722 351.123 257.534 351.059 257.534C351.016 257.534 350.931 257.507 350.867 257.47C350.803 257.438 350.547 257.358 350.297 257.288C350.046 257.224 349.71 257.134 349.55 257.091C348.079 256.686 347.797 256.654 347.28 256.846C347.051 256.931 346.87 257.059 346.571 257.352C346.347 257.571 346.155 257.747 346.139 257.747C346.123 257.747 345.639 257.267 345.052 256.681L343.997 255.62L344.109 255.38C344.381 254.821 344.375 254.064 344.104 253.531C343.917 253.179 343.485 252.785 343.123 252.636C341.759 252.092 340.33 253.041 340.33 254.496C340.33 254.794 340.458 255.269 340.602 255.498C340.671 255.61 340.623 255.668 339.717 256.574C338.971 257.32 338.737 257.534 338.651 257.512C338.593 257.496 338.257 257.406 337.905 257.304C336.392 256.867 335.822 256.734 335.48 256.734C334.995 256.734 334.649 256.905 334.159 257.39L333.775 257.773L332.698 256.697L331.627 255.626L331.75 255.343C331.99 254.778 331.979 254.101 331.723 253.595L331.595 253.339L332.592 252.348C333.524 251.426 333.594 251.362 333.695 251.431C333.754 251.474 334.393 251.666 335.107 251.863C337.218 252.433 337.239 252.423 338.721 250.957C339.904 249.79 340.016 249.63 340.053 249.006C340.074 248.639 340.048 248.489 339.723 247.274C339.526 246.539 339.334 245.894 339.291 245.835C339.227 245.734 339.286 245.659 340.186 244.753C340.719 244.22 341.188 243.783 341.226 243.783C341.263 243.783 341.348 243.821 341.412 243.863ZM341.428 256.249C341.988 256.521 342.665 256.532 343.166 256.281L343.443 256.143L344.514 257.198C345.106 257.779 345.596 258.264 345.596 258.28C345.601 258.296 345.436 258.482 345.228 258.695C344.791 259.143 344.642 259.442 344.605 259.943L344.578 260.305L342.233 260.294L339.883 260.278L339.84 260.118C339.579 259.111 339.36 258.354 339.296 258.237C339.222 258.093 339.222 258.093 340.186 257.123C340.719 256.59 341.172 256.153 341.188 256.153C341.204 256.148 341.311 256.196 341.428 256.249ZM344.844 261.318C344.962 261.771 345.175 262.57 345.233 262.783C345.303 263.012 345.457 263.295 345.633 263.492C345.82 263.711 346.257 263.913 346.992 264.11C347.387 264.222 347.808 264.339 347.925 264.371L348.138 264.435L348.154 266.759L348.165 269.083L347.818 269.115C347.195 269.173 347.061 269.264 345.884 270.447C344.722 271.62 344.658 271.71 344.599 272.312L344.567 272.675H342.254C340.981 272.675 339.92 272.653 339.899 272.632C339.877 272.606 339.771 272.254 339.664 271.843C339.419 270.879 339.339 270.671 339.126 270.378C338.859 270.005 338.508 269.834 337.442 269.546L336.493 269.296V266.967V264.638L336.834 264.611C337.431 264.563 337.639 264.425 338.699 263.364C339.222 262.842 339.707 262.336 339.776 262.245C339.952 262.016 340.069 261.659 340.069 261.328L340.074 261.051L342.43 261.062L344.78 261.078L344.844 261.318ZM344.834 273.687C344.871 273.815 344.951 274.124 345.02 274.375C345.084 274.625 345.201 275.014 345.276 275.244L345.415 275.659L344.445 276.624L343.48 277.594L343.171 277.439C342.627 277.173 341.871 277.2 341.338 277.503C341.199 277.583 341.199 277.583 340.122 276.507L339.046 275.425L339.414 275.046C339.861 274.588 340.016 274.3 340.048 273.874C340.064 273.693 340.08 273.522 340.09 273.496C340.096 273.464 340.922 273.442 342.435 273.448L344.77 273.453L344.834 273.687Z" fill="#018343"/>
<path d="M341.994 264.894C341.359 265 340.826 265.4 340.533 265.997C340.379 266.311 340.363 266.391 340.357 266.855C340.357 267.329 340.373 267.393 340.533 267.724C341.285 269.259 343.433 269.227 344.157 267.67C344.28 267.409 344.301 267.297 344.301 266.86C344.301 266.391 344.285 266.322 344.125 265.997C343.731 265.198 342.868 264.75 341.994 264.894Z" fill="#018343"/>
<path d="M322.573 256.814C322.227 256.942 321.944 257.176 320.98 258.157C319.615 259.532 319.605 259.591 320.132 261.579C320.59 263.279 320.718 263.513 321.369 263.854C321.55 263.95 323.857 264.563 324.188 264.606C324.465 264.638 324.881 264.558 325.185 264.409C325.291 264.355 325.829 263.86 326.378 263.305C327.567 262.112 327.668 261.946 327.668 261.291C327.668 260.939 327.609 260.657 327.359 259.719C327.007 258.397 326.885 258.104 326.586 257.811C326.277 257.512 326.133 257.454 324.721 257.075C323.383 256.713 322.978 256.665 322.573 256.814Z" fill="#018343"/>
<path d="M359.678 256.825C359.486 256.894 359.23 257.118 358.367 257.971C357.178 259.148 357.029 259.356 356.981 259.889C356.949 260.252 356.944 260.241 357.279 261.504C357.684 263.055 357.732 263.162 358.073 263.508C358.329 263.758 358.441 263.833 358.75 263.929C359.662 264.217 361.276 264.622 361.5 264.622C361.751 264.622 362.209 264.489 362.406 264.366C362.497 264.307 363.014 263.817 363.552 263.279C364.741 262.096 364.815 261.978 364.821 261.291C364.821 260.865 364.783 260.673 364.485 259.585C364.149 258.354 364.021 258.045 363.744 257.795C363.424 257.502 363.286 257.448 362.023 257.113C361.804 257.054 361.394 256.947 361.106 256.873C360.525 256.713 360.04 256.702 359.678 256.825Z" fill="#018343"/>
<path d="M341.962 289.671C341.365 289.772 340.821 290.193 340.533 290.779C340.373 291.104 340.357 291.174 340.357 291.643C340.357 292.074 340.379 292.192 340.496 292.442C340.784 293.06 341.295 293.46 341.967 293.598C342.329 293.673 342.399 293.673 342.708 293.593C343.182 293.481 343.385 293.375 343.71 293.076C343.896 292.906 344.045 292.708 344.147 292.485C344.28 292.192 344.301 292.085 344.301 291.643C344.301 291.2 344.28 291.094 344.152 290.816C343.886 290.241 343.395 289.847 342.772 289.697C342.404 289.612 342.345 289.612 341.962 289.671Z" fill="#018343"/>
</g>
<path fill-rule="evenodd" clip-rule="evenodd" d="M308.746 66C308.746 67.2598 308.246 68.468 307.355 69.3588C306.464 70.2496 305.256 70.75 303.996 70.75H293.996C292.736 70.75 291.528 70.2496 290.637 69.3588C289.747 68.468 289.246 67.2598 289.246 66V56C289.246 54.7402 289.747 53.532 290.637 52.6412C291.528 51.7504 292.736 51.25 293.996 51.25H303.996C305.256 51.25 306.464 51.7504 307.355 52.6412C308.246 53.532 308.746 54.7402 308.746 56V66ZM293.996 65.75C293.797 65.75 293.606 65.671 293.466 65.5303C293.325 65.3897 293.246 65.1989 293.246 65V57C293.246 56.8011 293.325 56.6103 293.466 56.4697C293.606 56.329 293.797 56.25 293.996 56.25H295.996C296.725 56.25 297.425 56.5397 297.941 57.0555C298.456 57.5712 298.746 58.2707 298.746 59C298.746 59.7293 298.456 60.4288 297.941 60.9445C297.425 61.4603 296.725 61.75 295.996 61.75H294.746V65C294.746 65.1989 294.667 65.3897 294.526 65.5303C294.386 65.671 294.195 65.75 293.996 65.75ZM294.746 60.25H295.996C296.328 60.25 296.646 60.1183 296.88 59.8839C297.114 59.6495 297.246 59.3315 297.246 59C297.246 58.6685 297.114 58.3505 296.88 58.1161C296.646 57.8817 296.328 57.75 295.996 57.75H294.746V60.25ZM303.325 60.335C303.369 60.4239 303.429 60.5033 303.504 60.5686C303.578 60.634 303.665 60.6839 303.758 60.7157C303.852 60.7474 303.951 60.7602 304.05 60.7535C304.149 60.7467 304.245 60.7205 304.334 60.6762C304.422 60.632 304.501 60.5707 304.566 60.4959C304.631 60.421 304.68 60.3341 304.711 60.24C304.742 60.146 304.754 60.0468 304.747 59.9481C304.739 59.8494 304.712 59.7532 304.667 59.665C304.454 59.2398 304.128 58.8821 303.723 58.6322C303.319 58.3823 302.853 58.2499 302.377 58.25H301.996C301.399 58.25 300.827 58.4871 300.405 58.909C299.983 59.331 299.746 59.9033 299.746 60.5C299.746 61.0967 299.983 61.669 300.405 62.091C300.827 62.5129 301.399 62.75 301.996 62.75H302.496C302.695 62.75 302.886 62.829 303.026 62.9697C303.167 63.1103 303.246 63.3011 303.246 63.5C303.246 63.6989 303.167 63.8897 303.026 64.0303C302.886 64.171 302.695 64.25 302.496 64.25H302.114C301.918 64.2499 301.725 64.1951 301.558 64.0918C301.39 63.9885 301.255 63.8407 301.167 63.665C301.077 63.4886 300.921 63.3549 300.734 63.2929C300.546 63.231 300.341 63.2458 300.164 63.3342C299.987 63.4226 299.852 63.5774 299.788 63.7649C299.725 63.9523 299.738 64.1573 299.825 64.335C300.038 64.7602 300.364 65.1178 300.769 65.3677C301.173 65.6176 301.639 65.75 302.114 65.75H302.496C303.093 65.75 303.665 65.5129 304.087 65.091C304.509 64.669 304.746 64.0967 304.746 63.5C304.746 62.9033 304.509 62.331 304.087 61.909C303.665 61.4871 303.093 61.25 302.496 61.25H301.996C301.797 61.25 301.606 61.171 301.466 61.0303C301.325 60.8897 301.246 60.6989 301.246 60.5C301.246 60.3011 301.325 60.1103 301.466 59.9697C301.606 59.829 301.797 59.75 301.996 59.75H302.378C302.778 59.75 303.146 59.977 303.325 60.335Z" fill="#018343"/>
<g clip-path="url(#clip1_178_3764)">
<path d="M333.264 31.5944L337.222 35.3711C338.354 36.4519 337.862 38.3572 336.347 38.7528L323.56 42.096C321.928 42.5231 320.533 40.8608 321.237 39.3275L326.75 27.3157C327.403 25.8929 329.364 25.738 330.232 27.0412L333.264 31.5944ZM333.264 31.5944L327.902 36.0939" stroke="#018343" stroke-width="1.5" stroke-linecap="round" stroke-linejoin="round"/>
</g>
<g filter="url(#filter0_d_178_3764)">
<path d="M344.808 29.4286C344.808 24.2213 349.029 20 354.236 20H478.308C487.42 20 494.808 27.3873 494.808 36.5C494.808 45.6127 487.42 53 478.308 53H368.379C355.361 53 344.808 42.4467 344.808 29.4286Z" fill="white"/>
<path d="M367.278 34.07C367.007 33.5007 366.615 33.062 366.102 32.754C365.588 32.4367 364.991 32.278 364.31 32.278C363.628 32.278 363.012 32.4367 362.462 32.754C361.92 33.062 361.491 33.51 361.174 34.098C360.866 34.6767 360.712 35.3487 360.712 36.114C360.712 36.8793 360.866 37.5513 361.174 38.13C361.491 38.7087 361.92 39.1567 362.462 39.474C363.012 39.782 363.628 39.936 364.31 39.936C365.262 39.936 366.046 39.6513 366.662 39.082C367.278 38.5127 367.637 37.7427 367.74 36.772H363.848V35.736H369.098V36.716C369.023 37.5187 368.771 38.256 368.342 38.928C367.912 39.5907 367.348 40.118 366.648 40.51C365.948 40.8927 365.168 41.084 364.31 41.084C363.404 41.084 362.578 40.874 361.832 40.454C361.085 40.0247 360.492 39.432 360.054 38.676C359.624 37.92 359.41 37.066 359.41 36.114C359.41 35.162 359.624 34.308 360.054 33.552C360.492 32.7867 361.085 32.194 361.832 31.774C362.578 31.3447 363.404 31.13 364.31 31.13C365.346 31.13 366.26 31.3867 367.054 31.9C367.856 32.4133 368.44 33.1367 368.804 34.07H367.278ZM372.056 34.574C372.28 34.1353 372.597 33.7947 373.008 33.552C373.428 33.3093 373.937 33.188 374.534 33.188V34.504H374.198C372.77 34.504 372.056 35.2787 372.056 36.828V41H370.782V33.328H372.056V34.574ZM375.529 37.136C375.529 36.352 375.687 35.666 376.005 35.078C376.322 34.4807 376.756 34.0187 377.307 33.692C377.867 33.3653 378.487 33.202 379.169 33.202C379.841 33.202 380.424 33.3467 380.919 33.636C381.413 33.9253 381.782 34.2893 382.025 34.728V33.328H383.313V41H382.025V39.572C381.773 40.02 381.395 40.3933 380.891 40.692C380.396 40.9813 379.817 41.126 379.155 41.126C378.473 41.126 377.857 40.958 377.307 40.622C376.756 40.286 376.322 39.8147 376.005 39.208C375.687 38.6013 375.529 37.9107 375.529 37.136ZM382.025 37.15C382.025 36.5713 381.908 36.0673 381.675 35.638C381.441 35.2087 381.124 34.882 380.723 34.658C380.331 34.4247 379.897 34.308 379.421 34.308C378.945 34.308 378.511 34.42 378.119 34.644C377.727 34.868 377.414 35.1947 377.181 35.624C376.947 36.0533 376.831 36.5573 376.831 37.136C376.831 37.724 376.947 38.2373 377.181 38.676C377.414 39.1053 377.727 39.4367 378.119 39.67C378.511 39.894 378.945 40.006 379.421 40.006C379.897 40.006 380.331 39.894 380.723 39.67C381.124 39.4367 381.441 39.1053 381.675 38.676C381.908 38.2373 382.025 37.7287 382.025 37.15ZM386.74 34.742C386.992 34.3033 387.365 33.9393 387.86 33.65C388.364 33.3513 388.947 33.202 389.61 33.202C390.291 33.202 390.907 33.3653 391.458 33.692C392.018 34.0187 392.456 34.4807 392.774 35.078C393.091 35.666 393.25 36.352 393.25 37.136C393.25 37.9107 393.091 38.6013 392.774 39.208C392.456 39.8147 392.018 40.286 391.458 40.622C390.907 40.958 390.291 41.126 389.61 41.126C388.956 41.126 388.378 40.9813 387.874 40.692C387.379 40.3933 387.001 40.0247 386.74 39.586V44.64H385.466V33.328H386.74V34.742ZM391.948 37.136C391.948 36.5573 391.831 36.0533 391.598 35.624C391.364 35.1947 391.047 34.868 390.646 34.644C390.254 34.42 389.82 34.308 389.344 34.308C388.877 34.308 388.443 34.4247 388.042 34.658C387.65 34.882 387.332 35.2133 387.09 35.652C386.856 36.0813 386.74 36.5807 386.74 37.15C386.74 37.7287 386.856 38.2373 387.09 38.676C387.332 39.1053 387.65 39.4367 388.042 39.67C388.443 39.894 388.877 40.006 389.344 40.006C389.82 40.006 390.254 39.894 390.646 39.67C391.047 39.4367 391.364 39.1053 391.598 38.676C391.831 38.2373 391.948 37.724 391.948 37.136ZM398.735 33.188C399.313 33.188 399.836 33.314 400.303 33.566C400.769 33.8087 401.133 34.1773 401.395 34.672C401.665 35.1667 401.801 35.7687 401.801 36.478V41H400.541V36.66C400.541 35.8947 400.349 35.3113 399.967 34.91C399.584 34.4993 399.061 34.294 398.399 34.294C397.727 34.294 397.19 34.504 396.789 34.924C396.397 35.344 396.201 35.9553 396.201 36.758V41H394.927V30.64H396.201V34.42C396.453 34.028 396.798 33.7247 397.237 33.51C397.685 33.2953 398.184 33.188 398.735 33.188ZM404.54 32.082C404.297 32.082 404.092 31.998 403.924 31.83C403.756 31.662 403.672 31.4567 403.672 31.214C403.672 30.9713 403.756 30.766 403.924 30.598C404.092 30.43 404.297 30.346 404.54 30.346C404.773 30.346 404.969 30.43 405.128 30.598C405.296 30.766 405.38 30.9713 405.38 31.214C405.38 31.4567 405.296 31.662 405.128 31.83C404.969 31.998 404.773 32.082 404.54 32.082ZM405.156 33.328V41H403.882V33.328H405.156ZM406.851 37.15C406.851 36.3567 407.01 35.666 407.327 35.078C407.644 34.4807 408.083 34.0187 408.643 33.692C409.212 33.3653 409.861 33.202 410.589 33.202C411.532 33.202 412.306 33.4307 412.913 33.888C413.529 34.3453 413.935 34.98 414.131 35.792H412.759C412.628 35.3253 412.372 34.9567 411.989 34.686C411.616 34.4153 411.149 34.28 410.589 34.28C409.861 34.28 409.273 34.532 408.825 35.036C408.377 35.5307 408.153 36.2353 408.153 37.15C408.153 38.074 408.377 38.788 408.825 39.292C409.273 39.796 409.861 40.048 410.589 40.048C411.149 40.048 411.616 39.9173 411.989 39.656C412.362 39.3947 412.619 39.0213 412.759 38.536H414.131C413.926 39.32 413.515 39.95 412.899 40.426C412.283 40.8927 411.513 41.126 410.589 41.126C409.861 41.126 409.212 40.9627 408.643 40.636C408.083 40.3093 407.644 39.8473 407.327 39.25C407.01 38.6527 406.851 37.9527 406.851 37.15ZM422.601 31.242C423.665 31.242 424.585 31.4427 425.359 31.844C426.143 32.236 426.741 32.8007 427.151 33.538C427.571 34.2753 427.781 35.1433 427.781 36.142C427.781 37.1407 427.571 38.0087 427.151 38.746C426.741 39.474 426.143 40.034 425.359 40.426C424.585 40.8087 423.665 41 422.601 41H419.563V31.242H422.601ZM422.601 39.95C423.861 39.95 424.823 39.6187 425.485 38.956C426.148 38.284 426.479 37.346 426.479 36.142C426.479 34.9287 426.143 33.9813 425.471 33.3C424.809 32.6187 423.852 32.278 422.601 32.278H420.837V39.95H422.601ZM436.462 36.87C436.462 37.1127 436.448 37.3693 436.42 37.64H430.288C430.334 38.396 430.591 38.9887 431.058 39.418C431.534 39.838 432.108 40.048 432.78 40.048C433.33 40.048 433.788 39.922 434.152 39.67C434.525 39.4087 434.786 39.0633 434.936 38.634H436.308C436.102 39.3713 435.692 39.9733 435.076 40.44C434.46 40.8973 433.694 41.126 432.78 41.126C432.052 41.126 431.398 40.9627 430.82 40.636C430.25 40.3093 429.802 39.8473 429.476 39.25C429.149 38.6433 428.986 37.9433 428.986 37.15C428.986 36.3567 429.144 35.6613 429.462 35.064C429.779 34.4667 430.222 34.0093 430.792 33.692C431.37 33.3653 432.033 33.202 432.78 33.202C433.508 33.202 434.152 33.3607 434.712 33.678C435.272 33.9953 435.701 34.434 436 34.994C436.308 35.5447 436.462 36.17 436.462 36.87ZM435.146 36.604C435.146 36.1187 435.038 35.7033 434.824 35.358C434.609 35.0033 434.315 34.7373 433.942 34.56C433.578 34.3733 433.172 34.28 432.724 34.28C432.08 34.28 431.529 34.4853 431.072 34.896C430.624 35.3067 430.367 35.876 430.302 36.604H435.146ZM440.859 41.126C440.271 41.126 439.744 41.028 439.277 40.832C438.811 40.6267 438.442 40.3467 438.171 39.992C437.901 39.628 437.751 39.2127 437.723 38.746H439.039C439.077 39.1287 439.254 39.4413 439.571 39.684C439.898 39.9267 440.323 40.048 440.845 40.048C441.331 40.048 441.713 39.9407 441.993 39.726C442.273 39.5113 442.413 39.2407 442.413 38.914C442.413 38.578 442.264 38.3307 441.965 38.172C441.667 38.004 441.205 37.8407 440.579 37.682C440.01 37.5327 439.543 37.3833 439.179 37.234C438.825 37.0753 438.517 36.8467 438.255 36.548C438.003 36.24 437.877 35.8387 437.877 35.344C437.877 34.952 437.994 34.5927 438.227 34.266C438.461 33.9393 438.792 33.6827 439.221 33.496C439.651 33.3 440.141 33.202 440.691 33.202C441.541 33.202 442.227 33.4167 442.749 33.846C443.272 34.2753 443.552 34.8633 443.589 35.61H442.315C442.287 35.2087 442.124 34.8867 441.825 34.644C441.536 34.4013 441.144 34.28 440.649 34.28C440.192 34.28 439.828 34.378 439.557 34.574C439.287 34.77 439.151 35.0267 439.151 35.344C439.151 35.596 439.231 35.806 439.389 35.974C439.557 36.1327 439.763 36.2633 440.005 36.366C440.257 36.4593 440.603 36.5667 441.041 36.688C441.592 36.8373 442.04 36.9867 442.385 37.136C442.731 37.276 443.025 37.4907 443.267 37.78C443.519 38.0693 443.65 38.4473 443.659 38.914C443.659 39.334 443.543 39.712 443.309 40.048C443.076 40.384 442.745 40.65 442.315 40.846C441.895 41.0327 441.41 41.126 440.859 41.126ZM446.116 32.082C445.873 32.082 445.668 31.998 445.5 31.83C445.332 31.662 445.248 31.4567 445.248 31.214C445.248 30.9713 445.332 30.766 445.5 30.598C445.668 30.43 445.873 30.346 446.116 30.346C446.349 30.346 446.545 30.43 446.704 30.598C446.872 30.766 446.956 30.9713 446.956 31.214C446.956 31.4567 446.872 31.662 446.704 31.83C446.545 31.998 446.349 32.082 446.116 32.082ZM446.732 33.328V41H445.458V33.328H446.732ZM452.067 33.202C452.73 33.202 453.309 33.3467 453.803 33.636C454.307 33.9253 454.681 34.2893 454.923 34.728V33.328H456.211V41.168C456.211 41.868 456.062 42.4887 455.763 43.03C455.465 43.5807 455.035 44.01 454.475 44.318C453.925 44.626 453.281 44.78 452.543 44.78C451.535 44.78 450.695 44.542 450.023 44.066C449.351 43.59 448.955 42.9413 448.833 42.12H450.093C450.233 42.5867 450.523 42.96 450.961 43.24C451.4 43.5293 451.927 43.674 452.543 43.674C453.243 43.674 453.813 43.4547 454.251 43.016C454.699 42.5773 454.923 41.9613 454.923 41.168V39.558C454.671 40.006 454.298 40.3793 453.803 40.678C453.309 40.9767 452.73 41.126 452.067 41.126C451.386 41.126 450.765 40.958 450.205 40.622C449.655 40.286 449.221 39.8147 448.903 39.208C448.586 38.6013 448.427 37.9107 448.427 37.136C448.427 36.352 448.586 35.666 448.903 35.078C449.221 34.4807 449.655 34.0187 450.205 33.692C450.765 33.3653 451.386 33.202 452.067 33.202ZM454.923 37.15C454.923 36.5713 454.807 36.0673 454.573 35.638C454.34 35.2087 454.023 34.882 453.621 34.658C453.229 34.4247 452.795 34.308 452.319 34.308C451.843 34.308 451.409 34.42 451.017 34.644C450.625 34.868 450.313 35.1947 450.079 35.624C449.846 36.0533 449.729 36.5573 449.729 37.136C449.729 37.724 449.846 38.2373 450.079 38.676C450.313 39.1053 450.625 39.4367 451.017 39.67C451.409 39.894 451.843 40.006 452.319 40.006C452.795 40.006 453.229 39.894 453.621 39.67C454.023 39.4367 454.34 39.1053 454.573 38.676C454.807 38.2373 454.923 37.7287 454.923 37.15ZM462.102 33.188C463.035 33.188 463.791 33.4727 464.37 34.042C464.949 34.602 465.238 35.414 465.238 36.478V41H463.978V36.66C463.978 35.8947 463.787 35.3113 463.404 34.91C463.021 34.4993 462.499 34.294 461.836 34.294C461.164 34.294 460.627 34.504 460.226 34.924C459.834 35.344 459.638 35.9553 459.638 36.758V41H458.364V33.328H459.638V34.42C459.89 34.028 460.231 33.7247 460.66 33.51C461.099 33.2953 461.579 33.188 462.102 33.188ZM474.319 36.87C474.319 37.1127 474.305 37.3693 474.277 37.64H468.145C468.192 38.396 468.449 38.9887 468.915 39.418C469.391 39.838 469.965 40.048 470.637 40.048C471.188 40.048 471.645 39.922 472.009 39.67C472.383 39.4087 472.644 39.0633 472.793 38.634H474.165C473.96 39.3713 473.549 39.9733 472.933 40.44C472.317 40.8973 471.552 41.126 470.637 41.126C469.909 41.126 469.256 40.9627 468.677 40.636C468.108 40.3093 467.66 39.8473 467.333 39.25C467.007 38.6433 466.843 37.9433 466.843 37.15C466.843 36.3567 467.002 35.6613 467.319 35.064C467.637 34.4667 468.08 34.0093 468.649 33.692C469.228 33.3653 469.891 33.202 470.637 33.202C471.365 33.202 472.009 33.3607 472.569 33.678C473.129 33.9953 473.559 34.434 473.857 34.994C474.165 35.5447 474.319 36.17 474.319 36.87ZM473.003 36.604C473.003 36.1187 472.896 35.7033 472.681 35.358C472.467 35.0033 472.173 34.7373 471.799 34.56C471.435 34.3733 471.029 34.28 470.581 34.28C469.937 34.28 469.387 34.4853 468.929 34.896C468.481 35.3067 468.225 35.876 468.159 36.604H473.003ZM477.275 34.574C477.499 34.1353 477.816 33.7947 478.227 33.552C478.647 33.3093 479.156 33.188 479.753 33.188V34.504H479.417C477.989 34.504 477.275 35.2787 477.275 36.828V41H476.001V33.328H477.275V34.574Z" fill="#018343"/>
</g>
<g clip-path="url(#clip2_178_3764)">
<rect x="450.996" y="197" width="24" height="24" rx="4" fill="white"/>
<path d="M469.371 197H456.621C453.514 197 450.996 199.518 450.996 202.625V215.375C450.996 218.482 453.514 221 456.621 221H469.371C472.478 221 474.996 218.482 474.996 215.375V202.625C474.996 199.518 472.478 197 469.371 197Z" fill="white"/>
<path d="M461.561 201.781H464.243V214.198C462.867 214.46 461.857 214.564 460.759 214.564C457.484 214.564 455.777 213.084 455.777 210.244C455.777 207.509 457.589 205.733 460.394 205.733C460.829 205.733 461.16 205.767 461.561 205.872V201.781ZM461.561 208.032C461.247 207.927 460.986 207.892 460.655 207.892C459.296 207.892 458.512 208.729 458.512 210.192C458.512 211.62 459.261 212.404 460.638 212.404C460.933 212.404 461.178 212.387 461.561 212.335V208.032Z" fill="#018343"/>
<path d="M468.511 205.924V212.143C468.511 214.285 468.355 215.313 467.884 216.202C467.449 217.055 466.874 217.595 465.689 218.187L463.198 217.003C464.383 216.445 464.958 215.958 465.323 215.209C465.707 214.442 465.829 213.554 465.829 211.219V205.924L468.511 205.924ZM465.829 201.795H468.511V204.548H465.829V201.795Z" fill="#018343"/>
</g>
<g clip-path="url(#clip3_178_3764)">
<path d="M497.264 179.594L501.222 183.371C502.354 184.452 501.862 186.357 500.347 186.753L487.56 190.096C485.928 190.523 484.533 188.861 485.237 187.327L490.75 175.316C491.403 173.893 493.364 173.738 494.232 175.041L497.264 179.594ZM497.264 179.594L491.902 184.094" stroke="#018343" stroke-width="1.5" stroke-linecap="round" stroke-linejoin="round"/>
</g>
<g filter="url(#filter1_d_178_3764)">
<path d="M508.808 177.429C508.808 172.221 513.029 168 518.236 168H571.308C580.42 168 587.808 175.387 587.808 184.5C587.808 193.613 580.42 201 571.308 201H532.379C519.361 201 508.808 190.447 508.808 177.429Z" fill="white"/>
<path d="M526.924 179.242C527.988 179.242 528.907 179.443 529.682 179.844C530.466 180.236 531.063 180.801 531.474 181.538C531.894 182.275 532.104 183.143 532.104 184.142C532.104 185.141 531.894 186.009 531.474 186.746C531.063 187.474 530.466 188.034 529.682 188.426C528.907 188.809 527.988 189 526.924 189H523.886V179.242H526.924ZM526.924 187.95C528.184 187.95 529.145 187.619 529.808 186.956C530.47 186.284 530.802 185.346 530.802 184.142C530.802 182.929 530.466 181.981 529.794 181.3C529.131 180.619 528.174 180.278 526.924 180.278H525.16V187.95H526.924ZM534.47 180.082C534.227 180.082 534.022 179.998 533.854 179.83C533.695 179.662 533.616 179.457 533.616 179.214C533.616 178.971 533.695 178.766 533.854 178.598C534.022 178.43 534.227 178.346 534.47 178.346C534.713 178.346 534.913 178.43 535.072 178.598C535.24 178.766 535.324 178.971 535.324 179.214C535.324 179.457 535.24 179.662 535.072 179.83C534.913 179.998 534.713 180.082 534.47 180.082ZM535.1 190.666C535.1 191.347 534.927 191.847 534.582 192.164C534.237 192.481 533.733 192.64 533.07 192.64H532.328V191.562H532.86C533.215 191.562 533.462 191.492 533.602 191.352C533.751 191.212 533.826 190.974 533.826 190.638V181.328H535.1V190.666ZM536.781 185.136C536.781 184.352 536.939 183.666 537.257 183.078C537.574 182.481 538.008 182.019 538.559 181.692C539.119 181.365 539.739 181.202 540.421 181.202C541.093 181.202 541.676 181.347 542.171 181.636C542.665 181.925 543.034 182.289 543.277 182.728V181.328H544.565V189H543.277V187.572C543.025 188.02 542.647 188.393 542.143 188.692C541.648 188.981 541.069 189.126 540.407 189.126C539.725 189.126 539.109 188.958 538.559 188.622C538.008 188.286 537.574 187.815 537.257 187.208C536.939 186.601 536.781 185.911 536.781 185.136ZM543.277 185.15C543.277 184.571 543.16 184.067 542.927 183.638C542.693 183.209 542.376 182.882 541.975 182.658C541.583 182.425 541.149 182.308 540.673 182.308C540.197 182.308 539.763 182.42 539.371 182.644C538.979 182.868 538.666 183.195 538.433 183.624C538.199 184.053 538.083 184.557 538.083 185.136C538.083 185.724 538.199 186.237 538.433 186.676C538.666 187.105 538.979 187.437 539.371 187.67C539.763 187.894 540.197 188.006 540.673 188.006C541.149 188.006 541.583 187.894 541.975 187.67C542.376 187.437 542.693 187.105 542.927 186.676C543.16 186.237 543.277 185.729 543.277 185.15ZM550.456 181.188C551.389 181.188 552.145 181.473 552.724 182.042C553.302 182.602 553.592 183.414 553.592 184.478V189H552.332V184.66C552.332 183.895 552.14 183.311 551.758 182.91C551.375 182.499 550.852 182.294 550.19 182.294C549.518 182.294 548.981 182.504 548.58 182.924C548.188 183.344 547.992 183.955 547.992 184.758V189H546.718V181.328H547.992V182.42C548.244 182.028 548.584 181.725 549.014 181.51C549.452 181.295 549.933 181.188 550.456 181.188ZM558.837 181.202C559.499 181.202 560.078 181.347 560.573 181.636C561.077 181.925 561.45 182.289 561.693 182.728V181.328H562.981V189.168C562.981 189.868 562.831 190.489 562.533 191.03C562.234 191.581 561.805 192.01 561.245 192.318C560.694 192.626 560.05 192.78 559.313 192.78C558.305 192.78 557.465 192.542 556.793 192.066C556.121 191.59 555.724 190.941 555.603 190.12H556.863C557.003 190.587 557.292 190.96 557.731 191.24C558.169 191.529 558.697 191.674 559.313 191.674C560.013 191.674 560.582 191.455 561.021 191.016C561.469 190.577 561.693 189.961 561.693 189.168V187.558C561.441 188.006 561.067 188.379 560.573 188.678C560.078 188.977 559.499 189.126 558.837 189.126C558.155 189.126 557.535 188.958 556.975 188.622C556.424 188.286 555.99 187.815 555.673 187.208C555.355 186.601 555.197 185.911 555.197 185.136C555.197 184.352 555.355 183.666 555.673 183.078C555.99 182.481 556.424 182.019 556.975 181.692C557.535 181.365 558.155 181.202 558.837 181.202ZM561.693 185.15C561.693 184.571 561.576 184.067 561.343 183.638C561.109 183.209 560.792 182.882 560.391 182.658C559.999 182.425 559.565 182.308 559.089 182.308C558.613 182.308 558.179 182.42 557.787 182.644C557.395 182.868 557.082 183.195 556.849 183.624C556.615 184.053 556.499 184.557 556.499 185.136C556.499 185.724 556.615 186.237 556.849 186.676C557.082 187.105 557.395 187.437 557.787 187.67C558.179 187.894 558.613 188.006 559.089 188.006C559.565 188.006 559.999 187.894 560.391 187.67C560.792 187.437 561.109 187.105 561.343 186.676C561.576 186.237 561.693 185.729 561.693 185.15ZM568.48 189.126C567.761 189.126 567.108 188.963 566.52 188.636C565.941 188.309 565.484 187.847 565.148 187.25C564.821 186.643 564.658 185.943 564.658 185.15C564.658 184.366 564.826 183.675 565.162 183.078C565.507 182.471 565.974 182.009 566.562 181.692C567.15 181.365 567.808 181.202 568.536 181.202C569.264 181.202 569.922 181.365 570.51 181.692C571.098 182.009 571.56 182.467 571.896 183.064C572.241 183.661 572.414 184.357 572.414 185.15C572.414 185.943 572.236 186.643 571.882 187.25C571.536 187.847 571.065 188.309 570.468 188.636C569.87 188.963 569.208 189.126 568.48 189.126ZM568.48 188.006C568.937 188.006 569.366 187.899 569.768 187.684C570.169 187.469 570.491 187.147 570.734 186.718C570.986 186.289 571.112 185.766 571.112 185.15C571.112 184.534 570.99 184.011 570.748 183.582C570.505 183.153 570.188 182.835 569.796 182.63C569.404 182.415 568.979 182.308 568.522 182.308C568.055 182.308 567.626 182.415 567.234 182.63C566.851 182.835 566.543 183.153 566.31 183.582C566.076 184.011 565.96 184.534 565.96 185.15C565.96 185.775 566.072 186.303 566.296 186.732C566.529 187.161 566.837 187.483 567.22 187.698C567.602 187.903 568.022 188.006 568.48 188.006Z" fill="#018343"/>
</g>
<g filter="url(#filter2_d_178_3764)">
<path d="M30.3594 237.5C30.3594 228.387 37.7467 221 46.8594 221H167.931C173.138 221 177.359 225.221 177.359 230.429C177.359 243.447 166.806 254 153.788 254H46.8594C37.7467 254 30.3594 246.613 30.3594 237.5Z" fill="white"/>
<path d="M50.9534 232.242V233.278H46.7114V236.568H50.1554V237.604H46.7114V242H45.4374V232.242H50.9534ZM53.7661 231.64V242H52.4921V231.64H53.7661ZM62.7414 234.328V242H61.4674V240.866C61.2247 241.258 60.884 241.566 60.4454 241.79C60.016 242.005 59.54 242.112 59.0174 242.112C58.42 242.112 57.8834 241.991 57.4074 241.748C56.9314 241.496 56.5534 241.123 56.2734 240.628C56.0027 240.133 55.8674 239.531 55.8674 238.822V234.328H57.1274V238.654C57.1274 239.41 57.3187 239.993 57.7014 240.404C58.084 240.805 58.6067 241.006 59.2694 241.006C59.9507 241.006 60.4874 240.796 60.8794 240.376C61.2714 239.956 61.4674 239.345 61.4674 238.542V234.328H62.7414ZM66.4465 235.378V239.9C66.4465 240.273 66.5258 240.539 66.6845 240.698C66.8431 240.847 67.1185 240.922 67.5105 240.922H68.4485V242H67.3005C66.5911 242 66.0591 241.837 65.7045 241.51C65.3498 241.183 65.1725 240.647 65.1725 239.9V235.378H64.1785V234.328H65.1725V232.396H66.4465V234.328H68.4485V235.378H66.4465ZM71.5461 235.378V239.9C71.5461 240.273 71.6254 240.539 71.7841 240.698C71.9427 240.847 72.2181 240.922 72.6101 240.922H73.5481V242H72.4001C71.6907 242 71.1587 241.837 70.8041 241.51C70.4494 241.183 70.2721 240.647 70.2721 239.9V235.378H69.2781V234.328H70.2721V232.396H71.5461V234.328H73.5481V235.378H71.5461ZM82.0917 237.87C82.0917 238.113 82.0777 238.369 82.0497 238.64H75.9177C75.9643 239.396 76.221 239.989 76.6877 240.418C77.1637 240.838 77.7377 241.048 78.4097 241.048C78.9603 241.048 79.4177 240.922 79.7817 240.67C80.155 240.409 80.4163 240.063 80.5657 239.634H81.9377C81.7323 240.371 81.3217 240.973 80.7057 241.44C80.0897 241.897 79.3243 242.126 78.4097 242.126C77.6817 242.126 77.0283 241.963 76.4497 241.636C75.8803 241.309 75.4323 240.847 75.1057 240.25C74.779 239.643 74.6157 238.943 74.6157 238.15C74.6157 237.357 74.7743 236.661 75.0917 236.064C75.409 235.467 75.8523 235.009 76.4217 234.692C77.0003 234.365 77.663 234.202 78.4097 234.202C79.1377 234.202 79.7817 234.361 80.3417 234.678C80.9017 234.995 81.331 235.434 81.6297 235.994C81.9377 236.545 82.0917 237.17 82.0917 237.87ZM80.7757 237.604C80.7757 237.119 80.6683 236.703 80.4537 236.358C80.239 236.003 79.945 235.737 79.5717 235.56C79.2077 235.373 78.8017 235.28 78.3537 235.28C77.7097 235.28 77.159 235.485 76.7017 235.896C76.2537 236.307 75.997 236.876 75.9317 237.604H80.7757ZM85.0473 235.574C85.2713 235.135 85.5886 234.795 85.9993 234.552C86.4193 234.309 86.928 234.188 87.5253 234.188V235.504H87.1893C85.7613 235.504 85.0473 236.279 85.0473 237.828V242H83.7733V234.328H85.0473V235.574ZM95.7664 232.242C96.8304 232.242 97.7497 232.443 98.5244 232.844C99.3084 233.236 99.9057 233.801 100.316 234.538C100.736 235.275 100.946 236.143 100.946 237.142C100.946 238.141 100.736 239.009 100.316 239.746C99.9057 240.474 99.3084 241.034 98.5244 241.426C97.7497 241.809 96.8304 242 95.7664 242H92.7284V232.242H95.7664ZM95.7664 240.95C97.0264 240.95 97.9877 240.619 98.6504 239.956C99.3131 239.284 99.6444 238.346 99.6444 237.142C99.6444 235.929 99.3084 234.981 98.6364 234.3C97.9737 233.619 97.0171 233.278 95.7664 233.278H94.0024V240.95H95.7664ZM109.627 237.87C109.627 238.113 109.613 238.369 109.585 238.64H103.453C103.499 239.396 103.756 239.989 104.223 240.418C104.699 240.838 105.273 241.048 105.945 241.048C106.495 241.048 106.953 240.922 107.317 240.67C107.69 240.409 107.951 240.063 108.101 239.634H109.473C109.267 240.371 108.857 240.973 108.241 241.44C107.625 241.897 106.859 242.126 105.945 242.126C105.217 242.126 104.563 241.963 103.985 241.636C103.415 241.309 102.967 240.847 102.641 240.25C102.314 239.643 102.151 238.943 102.151 238.15C102.151 237.357 102.309 236.661 102.627 236.064C102.944 235.467 103.387 235.009 103.957 234.692C104.535 234.365 105.198 234.202 105.945 234.202C106.673 234.202 107.317 234.361 107.877 234.678C108.437 234.995 108.866 235.434 109.165 235.994C109.473 236.545 109.627 237.17 109.627 237.87ZM108.311 237.604C108.311 237.119 108.203 236.703 107.989 236.358C107.774 236.003 107.48 235.737 107.107 235.56C106.743 235.373 106.337 235.28 105.889 235.28C105.245 235.28 104.694 235.485 104.237 235.896C103.789 236.307 103.532 236.876 103.467 237.604H108.311ZM114.164 240.824L116.544 234.328H117.902L114.892 242H113.408L110.398 234.328H111.77L114.164 240.824ZM126.156 237.87C126.156 238.113 126.142 238.369 126.114 238.64H119.982C120.029 239.396 120.285 239.989 120.752 240.418C121.228 240.838 121.802 241.048 122.474 241.048C123.025 241.048 123.482 240.922 123.846 240.67C124.219 240.409 124.481 240.063 124.63 239.634H126.002C125.797 240.371 125.386 240.973 124.77 241.44C124.154 241.897 123.389 242.126 122.474 242.126C121.746 242.126 121.093 241.963 120.514 241.636C119.945 241.309 119.497 240.847 119.17 240.25C118.843 239.643 118.68 238.943 118.68 238.15C118.68 237.357 118.839 236.661 119.156 236.064C119.473 235.467 119.917 235.009 120.486 234.692C121.065 234.365 121.727 234.202 122.474 234.202C123.202 234.202 123.846 234.361 124.406 234.678C124.966 234.995 125.395 235.434 125.694 235.994C126.002 236.545 126.156 237.17 126.156 237.87ZM124.84 237.604C124.84 237.119 124.733 236.703 124.518 236.358C124.303 236.003 124.009 235.737 123.636 235.56C123.272 235.373 122.866 235.28 122.418 235.28C121.774 235.28 121.223 235.485 120.766 235.896C120.318 236.307 120.061 236.876 119.996 237.604H124.84ZM129.112 231.64V242H127.838V231.64H129.112ZM134.629 242.126C133.91 242.126 133.257 241.963 132.669 241.636C132.09 241.309 131.633 240.847 131.297 240.25C130.97 239.643 130.807 238.943 130.807 238.15C130.807 237.366 130.975 236.675 131.311 236.078C131.656 235.471 132.123 235.009 132.711 234.692C133.299 234.365 133.957 234.202 134.685 234.202C135.413 234.202 136.071 234.365 136.659 234.692C137.247 235.009 137.709 235.467 138.045 236.064C138.39 236.661 138.563 237.357 138.563 238.15C138.563 238.943 138.386 239.643 138.031 240.25C137.686 240.847 137.214 241.309 136.617 241.636C136.02 241.963 135.357 242.126 134.629 242.126ZM134.629 241.006C135.086 241.006 135.516 240.899 135.917 240.684C136.318 240.469 136.64 240.147 136.883 239.718C137.135 239.289 137.261 238.766 137.261 238.15C137.261 237.534 137.14 237.011 136.897 236.582C136.654 236.153 136.337 235.835 135.945 235.63C135.553 235.415 135.128 235.308 134.671 235.308C134.204 235.308 133.775 235.415 133.383 235.63C133 235.835 132.692 236.153 132.459 236.582C132.226 237.011 132.109 237.534 132.109 238.15C132.109 238.775 132.221 239.303 132.445 239.732C132.678 240.161 132.986 240.483 133.369 240.698C133.752 240.903 134.172 241.006 134.629 241.006ZM141.512 235.742C141.764 235.303 142.137 234.939 142.632 234.65C143.136 234.351 143.719 234.202 144.382 234.202C145.063 234.202 145.679 234.365 146.23 234.692C146.79 235.019 147.229 235.481 147.546 236.078C147.863 236.666 148.022 237.352 148.022 238.136C148.022 238.911 147.863 239.601 147.546 240.208C147.229 240.815 146.79 241.286 146.23 241.622C145.679 241.958 145.063 242.126 144.382 242.126C143.729 242.126 143.15 241.981 142.646 241.692C142.151 241.393 141.773 241.025 141.512 240.586V245.64H140.238V234.328H141.512V235.742ZM146.72 238.136C146.72 237.557 146.603 237.053 146.37 236.624C146.137 236.195 145.819 235.868 145.418 235.644C145.026 235.42 144.592 235.308 144.116 235.308C143.649 235.308 143.215 235.425 142.814 235.658C142.422 235.882 142.105 236.213 141.862 236.652C141.629 237.081 141.512 237.581 141.512 238.15C141.512 238.729 141.629 239.237 141.862 239.676C142.105 240.105 142.422 240.437 142.814 240.67C143.215 240.894 143.649 241.006 144.116 241.006C144.592 241.006 145.026 240.894 145.418 240.67C145.819 240.437 146.137 240.105 146.37 239.676C146.603 239.237 146.72 238.724 146.72 238.136ZM156.699 237.87C156.699 238.113 156.685 238.369 156.657 238.64H150.525C150.572 239.396 150.828 239.989 151.295 240.418C151.771 240.838 152.345 241.048 153.017 241.048C153.568 241.048 154.025 240.922 154.389 240.67C154.762 240.409 155.024 240.063 155.173 239.634H156.545C156.34 240.371 155.929 240.973 155.313 241.44C154.697 241.897 153.932 242.126 153.017 242.126C152.289 242.126 151.636 241.963 151.057 241.636C150.488 241.309 150.04 240.847 149.713 240.25C149.386 239.643 149.223 238.943 149.223 238.15C149.223 237.357 149.382 236.661 149.699 236.064C150.016 235.467 150.46 235.009 151.029 234.692C151.608 234.365 152.27 234.202 153.017 234.202C153.745 234.202 154.389 234.361 154.949 234.678C155.509 234.995 155.938 235.434 156.237 235.994C156.545 236.545 156.699 237.17 156.699 237.87ZM155.383 237.604C155.383 237.119 155.276 236.703 155.061 236.358C154.846 236.003 154.552 235.737 154.179 235.56C153.815 235.373 153.409 235.28 152.961 235.28C152.317 235.28 151.766 235.485 151.309 235.896C150.861 236.307 150.604 236.876 150.539 237.604H155.383ZM159.655 235.574C159.879 235.135 160.196 234.795 160.607 234.552C161.027 234.309 161.535 234.188 162.133 234.188V235.504H161.797C160.369 235.504 159.655 236.279 159.655 237.828V242H158.381V234.328H159.655V235.574Z" fill="#018343"/>
</g>
<g clip-path="url(#clip4_178_3764)">
<path d="M189.766 223.268L193.543 227.226C194.624 228.359 196.529 227.866 196.924 226.351L200.268 213.564C200.695 211.932 199.032 210.537 197.499 211.241L185.487 216.754C184.065 217.407 183.91 219.369 185.213 220.236L189.766 223.268ZM189.766 223.268L194.266 217.906" stroke="#018343" stroke-width="1.5" stroke-linecap="round" stroke-linejoin="round"/>
</g>
<rect x="211.171" y="181" width="28" height="28" rx="4" fill="white"/>
<path d="M219.071 198.375L215.671 195L226.671 184H233.446L219.071 198.375ZM226.671 206L220.746 200.075L226.671 194.15H233.446L227.521 200.075L233.446 206H226.671Z" fill="#018343"/>
<g filter="url(#filter3_d_178_3764)">
<path d="M126.818 372.5C126.818 363.387 134.206 356 143.318 356H285.39C290.597 356 294.818 360.221 294.818 365.429C294.818 378.447 284.265 389 271.247 389H143.318C134.206 389 126.818 381.613 126.818 372.5Z" fill="white"/>
<path d="M147.412 367.242V368.278H143.17V371.568H146.614V372.604H143.17V377H141.896V367.242H147.412ZM155.755 369.328V377H154.481V375.866C154.238 376.258 153.898 376.566 153.459 376.79C153.03 377.005 152.554 377.112 152.031 377.112C151.434 377.112 150.897 376.991 150.421 376.748C149.945 376.496 149.567 376.123 149.287 375.628C149.016 375.133 148.881 374.531 148.881 373.822V369.328H150.141V373.654C150.141 374.41 150.332 374.993 150.715 375.404C151.098 375.805 151.62 376.006 152.283 376.006C152.964 376.006 153.501 375.796 153.893 375.376C154.285 374.956 154.481 374.345 154.481 373.542V369.328H155.755ZM159.18 366.64V377H157.906V366.64H159.18ZM162.625 366.64V377H161.351V366.64H162.625ZM171.623 377.098C170.979 377.098 170.401 376.986 169.887 376.762C169.383 376.529 168.987 376.211 168.697 375.81C168.408 375.399 168.259 374.928 168.249 374.396H169.607C169.654 374.853 169.841 375.241 170.167 375.558C170.503 375.866 170.989 376.02 171.623 376.02C172.23 376.02 172.706 375.871 173.051 375.572C173.406 375.264 173.583 374.872 173.583 374.396C173.583 374.023 173.481 373.719 173.275 373.486C173.07 373.253 172.813 373.075 172.505 372.954C172.197 372.833 171.782 372.702 171.259 372.562C170.615 372.394 170.097 372.226 169.705 372.058C169.323 371.89 168.991 371.629 168.711 371.274C168.441 370.91 168.305 370.425 168.305 369.818C168.305 369.286 168.441 368.815 168.711 368.404C168.982 367.993 169.36 367.676 169.845 367.452C170.34 367.228 170.905 367.116 171.539 367.116C172.454 367.116 173.201 367.345 173.779 367.802C174.367 368.259 174.699 368.866 174.773 369.622H173.373C173.327 369.249 173.131 368.922 172.785 368.642C172.44 368.353 171.983 368.208 171.413 368.208C170.881 368.208 170.447 368.348 170.111 368.628C169.775 368.899 169.607 369.281 169.607 369.776C169.607 370.131 169.705 370.42 169.901 370.644C170.107 370.868 170.354 371.041 170.643 371.162C170.942 371.274 171.357 371.405 171.889 371.554C172.533 371.731 173.051 371.909 173.443 372.086C173.835 372.254 174.171 372.52 174.451 372.884C174.731 373.239 174.871 373.724 174.871 374.34C174.871 374.816 174.745 375.264 174.493 375.684C174.241 376.104 173.868 376.445 173.373 376.706C172.879 376.967 172.295 377.098 171.623 377.098ZM178.3 370.378V374.9C178.3 375.273 178.379 375.539 178.538 375.698C178.697 375.847 178.972 375.922 179.364 375.922H180.302V377H179.154C178.445 377 177.913 376.837 177.558 376.51C177.203 376.183 177.026 375.647 177.026 374.9V370.378H176.032V369.328H177.026V367.396H178.3V369.328H180.302V370.378H178.3ZM181.37 373.136C181.37 372.352 181.528 371.666 181.846 371.078C182.163 370.481 182.597 370.019 183.148 369.692C183.708 369.365 184.328 369.202 185.01 369.202C185.682 369.202 186.265 369.347 186.76 369.636C187.254 369.925 187.623 370.289 187.866 370.728V369.328H189.154V377H187.866V375.572C187.614 376.02 187.236 376.393 186.732 376.692C186.237 376.981 185.658 377.126 184.996 377.126C184.314 377.126 183.698 376.958 183.148 376.622C182.597 376.286 182.163 375.815 181.846 375.208C181.528 374.601 181.37 373.911 181.37 373.136ZM187.866 373.15C187.866 372.571 187.749 372.067 187.516 371.638C187.282 371.209 186.965 370.882 186.564 370.658C186.172 370.425 185.738 370.308 185.262 370.308C184.786 370.308 184.352 370.42 183.96 370.644C183.568 370.868 183.255 371.195 183.022 371.624C182.788 372.053 182.672 372.557 182.672 373.136C182.672 373.724 182.788 374.237 183.022 374.676C183.255 375.105 183.568 375.437 183.96 375.67C184.352 375.894 184.786 376.006 185.262 376.006C185.738 376.006 186.172 375.894 186.564 375.67C186.965 375.437 187.282 375.105 187.516 374.676C187.749 374.237 187.866 373.729 187.866 373.15ZM190.831 373.15C190.831 372.357 190.989 371.666 191.307 371.078C191.624 370.481 192.063 370.019 192.623 369.692C193.192 369.365 193.841 369.202 194.569 369.202C195.511 369.202 196.286 369.431 196.893 369.888C197.509 370.345 197.915 370.98 198.111 371.792H196.739C196.608 371.325 196.351 370.957 195.969 370.686C195.595 370.415 195.129 370.28 194.569 370.28C193.841 370.28 193.253 370.532 192.805 371.036C192.357 371.531 192.133 372.235 192.133 373.15C192.133 374.074 192.357 374.788 192.805 375.292C193.253 375.796 193.841 376.048 194.569 376.048C195.129 376.048 195.595 375.917 195.969 375.656C196.342 375.395 196.599 375.021 196.739 374.536H198.111C197.905 375.32 197.495 375.95 196.879 376.426C196.263 376.893 195.493 377.126 194.569 377.126C193.841 377.126 193.192 376.963 192.623 376.636C192.063 376.309 191.624 375.847 191.307 375.25C190.989 374.653 190.831 373.953 190.831 373.15ZM204.094 377L201.084 373.612V377H199.81V366.64H201.084V372.73L204.038 369.328H205.816L202.204 373.15L205.83 377H204.094ZM213.786 367.242C214.85 367.242 215.769 367.443 216.544 367.844C217.328 368.236 217.925 368.801 218.336 369.538C218.756 370.275 218.966 371.143 218.966 372.142C218.966 373.141 218.756 374.009 218.336 374.746C217.925 375.474 217.328 376.034 216.544 376.426C215.769 376.809 214.85 377 213.786 377H210.748V367.242H213.786ZM213.786 375.95C215.046 375.95 216.007 375.619 216.67 374.956C217.333 374.284 217.664 373.346 217.664 372.142C217.664 370.929 217.328 369.981 216.656 369.3C215.993 368.619 215.037 368.278 213.786 368.278H212.022V375.95H213.786ZM227.646 372.87C227.646 373.113 227.632 373.369 227.604 373.64H221.472C221.519 374.396 221.776 374.989 222.242 375.418C222.718 375.838 223.292 376.048 223.964 376.048C224.515 376.048 224.972 375.922 225.336 375.67C225.71 375.409 225.971 375.063 226.12 374.634H227.492C227.287 375.371 226.876 375.973 226.26 376.44C225.644 376.897 224.879 377.126 223.964 377.126C223.236 377.126 222.583 376.963 222.004 376.636C221.435 376.309 220.987 375.847 220.66 375.25C220.334 374.643 220.17 373.943 220.17 373.15C220.17 372.357 220.329 371.661 220.646 371.064C220.964 370.467 221.407 370.009 221.976 369.692C222.555 369.365 223.218 369.202 223.964 369.202C224.692 369.202 225.336 369.361 225.896 369.678C226.456 369.995 226.886 370.434 227.184 370.994C227.492 371.545 227.646 372.17 227.646 372.87ZM226.33 372.604C226.33 372.119 226.223 371.703 226.008 371.358C225.794 371.003 225.5 370.737 225.126 370.56C224.762 370.373 224.356 370.28 223.908 370.28C223.264 370.28 222.714 370.485 222.256 370.896C221.808 371.307 221.552 371.876 221.486 372.604H226.33ZM232.184 375.824L234.564 369.328H235.922L232.912 377H231.428L228.418 369.328H229.79L232.184 375.824ZM244.176 372.87C244.176 373.113 244.162 373.369 244.134 373.64H238.002C238.048 374.396 238.305 374.989 238.772 375.418C239.248 375.838 239.822 376.048 240.494 376.048C241.044 376.048 241.502 375.922 241.866 375.67C242.239 375.409 242.5 375.063 242.65 374.634H244.022C243.816 375.371 243.406 375.973 242.79 376.44C242.174 376.897 241.408 377.126 240.494 377.126C239.766 377.126 239.112 376.963 238.534 376.636C237.964 376.309 237.516 375.847 237.19 375.25C236.863 374.643 236.7 373.943 236.7 373.15C236.7 372.357 236.858 371.661 237.176 371.064C237.493 370.467 237.936 370.009 238.506 369.692C239.084 369.365 239.747 369.202 240.494 369.202C241.222 369.202 241.866 369.361 242.426 369.678C242.986 369.995 243.415 370.434 243.714 370.994C244.022 371.545 244.176 372.17 244.176 372.87ZM242.86 372.604C242.86 372.119 242.752 371.703 242.538 371.358C242.323 371.003 242.029 370.737 241.656 370.56C241.292 370.373 240.886 370.28 240.438 370.28C239.794 370.28 239.243 370.485 238.786 370.896C238.338 371.307 238.081 371.876 238.016 372.604H242.86ZM247.131 366.64V377H245.857V366.64H247.131ZM252.649 377.126C251.93 377.126 251.277 376.963 250.689 376.636C250.11 376.309 249.653 375.847 249.317 375.25C248.99 374.643 248.827 373.943 248.827 373.15C248.827 372.366 248.995 371.675 249.331 371.078C249.676 370.471 250.143 370.009 250.731 369.692C251.319 369.365 251.977 369.202 252.705 369.202C253.433 369.202 254.091 369.365 254.679 369.692C255.267 370.009 255.729 370.467 256.065 371.064C256.41 371.661 256.583 372.357 256.583 373.15C256.583 373.943 256.405 374.643 256.051 375.25C255.705 375.847 255.234 376.309 254.637 376.636C254.039 376.963 253.377 377.126 252.649 377.126ZM252.649 376.006C253.106 376.006 253.535 375.899 253.937 375.684C254.338 375.469 254.66 375.147 254.903 374.718C255.155 374.289 255.281 373.766 255.281 373.15C255.281 372.534 255.159 372.011 254.917 371.582C254.674 371.153 254.357 370.835 253.965 370.63C253.573 370.415 253.148 370.308 252.691 370.308C252.224 370.308 251.795 370.415 251.403 370.63C251.02 370.835 250.712 371.153 250.479 371.582C250.245 372.011 250.129 372.534 250.129 373.15C250.129 373.775 250.241 374.303 250.465 374.732C250.698 375.161 251.006 375.483 251.389 375.698C251.771 375.903 252.191 376.006 252.649 376.006ZM259.532 370.742C259.784 370.303 260.157 369.939 260.652 369.65C261.156 369.351 261.739 369.202 262.402 369.202C263.083 369.202 263.699 369.365 264.25 369.692C264.81 370.019 265.248 370.481 265.566 371.078C265.883 371.666 266.042 372.352 266.042 373.136C266.042 373.911 265.883 374.601 265.566 375.208C265.248 375.815 264.81 376.286 264.25 376.622C263.699 376.958 263.083 377.126 262.402 377.126C261.748 377.126 261.17 376.981 260.666 376.692C260.171 376.393 259.793 376.025 259.532 375.586V380.64H258.258V369.328H259.532V370.742ZM264.74 373.136C264.74 372.557 264.623 372.053 264.39 371.624C264.156 371.195 263.839 370.868 263.438 370.644C263.046 370.42 262.612 370.308 262.136 370.308C261.669 370.308 261.235 370.425 260.834 370.658C260.442 370.882 260.124 371.213 259.882 371.652C259.648 372.081 259.532 372.581 259.532 373.15C259.532 373.729 259.648 374.237 259.882 374.676C260.124 375.105 260.442 375.437 260.834 375.67C261.235 375.894 261.669 376.006 262.136 376.006C262.612 376.006 263.046 375.894 263.438 375.67C263.839 375.437 264.156 375.105 264.39 374.676C264.623 374.237 264.74 373.724 264.74 373.136ZM274.719 372.87C274.719 373.113 274.705 373.369 274.677 373.64H268.545C268.591 374.396 268.848 374.989 269.315 375.418C269.791 375.838 270.365 376.048 271.037 376.048C271.587 376.048 272.045 375.922 272.409 375.67C272.782 375.409 273.043 375.063 273.193 374.634H274.565C274.359 375.371 273.949 375.973 273.333 376.44C272.717 376.897 271.951 377.126 271.037 377.126C270.309 377.126 269.655 376.963 269.077 376.636C268.507 376.309 268.059 375.847 267.733 375.25C267.406 374.643 267.243 373.943 267.243 373.15C267.243 372.357 267.401 371.661 267.719 371.064C268.036 370.467 268.479 370.009 269.049 369.692C269.627 369.365 270.29 369.202 271.037 369.202C271.765 369.202 272.409 369.361 272.969 369.678C273.529 369.995 273.958 370.434 274.257 370.994C274.565 371.545 274.719 372.17 274.719 372.87ZM273.403 372.604C273.403 372.119 273.295 371.703 273.081 371.358C272.866 371.003 272.572 370.737 272.199 370.56C271.835 370.373 271.429 370.28 270.981 370.28C270.337 370.28 269.786 370.485 269.329 370.896C268.881 371.307 268.624 371.876 268.559 372.604H273.403ZM277.674 370.574C277.898 370.135 278.216 369.795 278.626 369.552C279.046 369.309 279.555 369.188 280.152 369.188V370.504H279.816C278.388 370.504 277.674 371.279 277.674 372.828V377H276.4V369.328H277.674V370.574Z" fill="#E27C00"/>
</g>
<g clip-path="url(#clip5_178_3764)">
<path d="M306.362 367.594L302.404 371.371C301.272 372.452 301.764 374.357 303.279 374.753L316.066 378.096C317.698 378.523 319.093 376.861 318.389 375.327L312.876 363.315C312.223 361.893 310.262 361.738 309.394 363.041L306.362 367.594ZM306.362 367.594L311.724 372.094" stroke="#E27C00" stroke-width="1.5" stroke-linecap="round" stroke-linejoin="round"/>
</g>
<rect x="328.63" y="381" width="28" height="28" rx="4" fill="white"/>
<g clip-path="url(#clip6_178_3764)">
<path d="M342.009 383.153C342.181 383.053 342.377 383 342.576 383C342.775 383 342.971 383.053 343.143 383.153L352.464 388.591C352.634 388.69 352.775 388.831 352.873 389.002C352.972 389.172 353.023 389.366 353.023 389.563V400.438C353.023 400.634 352.972 400.828 352.873 400.998C352.775 401.169 352.634 401.311 352.464 401.41L343.143 406.847C342.971 406.948 342.775 407 342.576 407C342.377 407 342.181 406.948 342.009 406.847L339.679 405.488C339.422 405.338 339.234 405.091 339.158 404.802C339.082 404.514 339.124 404.207 339.274 403.949C339.425 403.691 339.671 403.504 339.96 403.428C340.249 403.352 340.556 403.394 340.813 403.544L342.576 404.573L350.773 399.791V390.209L342.576 385.427L334.38 390.209V399.791L336.055 400.769C336.571 400.934 337.21 400.975 337.659 400.777C337.894 400.674 338.086 400.494 338.205 400.267C338.361 399.985 338.505 399.515 338.505 398.75V390.875C338.505 390.577 338.623 390.291 338.834 390.08C339.045 389.869 339.332 389.75 339.63 389.75C339.928 389.75 340.214 389.869 340.425 390.08C340.636 390.291 340.755 390.577 340.755 390.875V398.75C340.755 399.785 340.561 400.658 340.17 401.36C339.813 402.015 339.25 402.534 338.568 402.835C337.359 403.369 336.022 403.15 335.205 402.856C335.14 402.832 335.078 402.803 335.019 402.769L332.688 401.41C332.518 401.31 332.377 401.169 332.279 400.998C332.181 400.827 332.13 400.634 332.13 400.438V389.563C332.13 389.366 332.181 389.173 332.279 389.002C332.377 388.832 332.518 388.69 332.688 388.591L342.009 383.153ZM342.999 390.925C343.594 390.217 344.524 389.75 345.786 389.75C346.956 389.75 347.848 390.152 348.453 390.79C348.558 390.896 348.641 391.023 348.696 391.162C348.752 391.301 348.779 391.45 348.776 391.599C348.774 391.749 348.741 391.897 348.681 392.034C348.62 392.171 348.533 392.294 348.424 392.397C348.316 392.5 348.187 392.58 348.047 392.633C347.907 392.685 347.758 392.709 347.608 392.703C347.458 392.698 347.311 392.662 347.176 392.599C347.04 392.535 346.918 392.446 346.818 392.335C346.684 392.198 346.41 392 345.784 392C345.121 392 344.848 392.222 344.721 392.372C344.589 392.532 344.513 392.731 344.503 392.938C344.503 393.062 344.557 393.308 344.721 393.503C344.848 393.653 345.121 393.875 345.786 393.875C345.893 393.875 346.001 393.89 346.104 393.92C347.034 394.055 347.742 394.472 348.228 395.05C348.786 395.714 348.972 396.5 348.972 397.063C348.972 397.625 348.786 398.411 348.228 399.076C347.632 399.784 346.702 400.25 345.441 400.25C344.271 400.25 343.378 399.848 342.775 399.211C342.578 398.992 342.474 398.706 342.485 398.412C342.496 398.118 342.623 397.84 342.837 397.638C343.05 397.436 343.335 397.325 343.629 397.331C343.923 397.336 344.204 397.456 344.41 397.666C344.541 397.804 344.817 398 345.441 398C346.104 398 346.378 397.778 346.506 397.628C346.637 397.468 346.713 397.269 346.722 397.063C346.712 396.856 346.636 396.657 346.504 396.497C346.378 396.347 346.104 396.125 345.441 396.125C345.333 396.126 345.225 396.11 345.121 396.08C344.191 395.945 343.483 395.528 342.999 394.951C342.526 394.385 342.263 393.674 342.253 392.938C342.253 392.375 342.439 391.589 342.999 390.925Z" fill="#E27C00"/>
</g>
<g clip-path="url(#clip7_178_3764)">
<path d="M450.577 440H434.077C432.835 440 431.827 441.008 431.827 442.25V458.75C431.827 459.992 432.835 461 434.077 461H450.577C451.819 461 452.827 459.992 452.827 458.75V442.25C452.827 441.008 451.819 440 450.577 440ZM443.255 456.378C443.255 458.422 442.055 459.355 440.307 459.355C438.727 459.355 437.813 458.539 437.344 457.55L438.952 456.58C439.262 457.128 439.543 457.592 440.222 457.592C440.869 457.592 441.282 457.339 441.282 456.35V449.642H443.255V456.378ZM447.924 459.355C446.091 459.355 444.905 458.483 444.329 457.339L445.937 456.411C446.358 457.1 446.912 457.611 447.882 457.611C448.697 457.611 449.222 457.203 449.222 456.636C449.222 455.961 448.688 455.722 447.783 455.323L447.291 455.112C445.866 454.508 444.924 453.744 444.924 452.136C444.924 450.655 446.054 449.53 447.812 449.53C449.068 449.53 449.968 449.966 450.615 451.109L449.077 452.094C448.74 451.489 448.374 451.25 447.807 451.25C447.23 451.25 446.865 451.616 446.865 452.094C446.865 452.684 447.23 452.923 448.079 453.294L448.571 453.505C450.249 454.222 451.191 454.958 451.191 456.608C451.191 458.38 449.794 459.355 447.924 459.355Z" fill="#E27C00"/>
</g>
<g clip-path="url(#clip8_178_3764)">
<path d="M474.232 480.268L470.455 484.226C469.375 485.359 467.469 484.866 467.074 483.351L463.73 470.564C463.303 468.932 464.966 467.537 466.499 468.241L478.511 473.754C479.933 474.407 480.088 476.369 478.785 477.236L474.232 480.268ZM474.232 480.268L469.732 474.906" stroke="#E27C00" stroke-width="1.5" stroke-linecap="round" stroke-linejoin="round"/>
</g>
<g filter="url(#filter4_d_178_3764)">
<path d="M486.639 487.429C486.639 482.221 490.86 478 496.067 478H637.139C646.251 478 653.639 485.387 653.639 494.5C653.639 503.613 646.251 511 637.139 511H510.21C497.192 511 486.639 500.447 486.639 487.429Z" fill="white"/>
<path d="M506.631 489.242V496.452C506.631 497.255 506.383 497.899 505.889 498.384C505.394 498.86 504.741 499.098 503.929 499.098C503.107 499.098 502.449 498.855 501.955 498.37C501.46 497.875 501.213 497.203 501.213 496.354H502.487C502.496 496.83 502.617 497.217 502.851 497.516C503.093 497.815 503.453 497.964 503.929 497.964C504.405 497.964 504.759 497.824 504.993 497.544C505.226 497.255 505.343 496.891 505.343 496.452V489.242H506.631ZM508.665 495.136C508.665 494.352 508.823 493.666 509.141 493.078C509.458 492.481 509.892 492.019 510.443 491.692C511.003 491.365 511.623 491.202 512.305 491.202C512.977 491.202 513.56 491.347 514.055 491.636C514.549 491.925 514.918 492.289 515.161 492.728V491.328H516.449V499H515.161V497.572C514.909 498.02 514.531 498.393 514.027 498.692C513.532 498.981 512.953 499.126 512.291 499.126C511.609 499.126 510.993 498.958 510.443 498.622C509.892 498.286 509.458 497.815 509.141 497.208C508.823 496.601 508.665 495.911 508.665 495.136ZM515.161 495.15C515.161 494.571 515.044 494.067 514.811 493.638C514.577 493.209 514.26 492.882 513.859 492.658C513.467 492.425 513.033 492.308 512.557 492.308C512.081 492.308 511.647 492.42 511.255 492.644C510.863 492.868 510.55 493.195 510.317 493.624C510.083 494.053 509.967 494.557 509.967 495.136C509.967 495.724 510.083 496.237 510.317 496.676C510.55 497.105 510.863 497.437 511.255 497.67C511.647 497.894 512.081 498.006 512.557 498.006C513.033 498.006 513.467 497.894 513.859 497.67C514.26 497.437 514.577 497.105 514.811 496.676C515.044 496.237 515.161 495.729 515.161 495.15ZM521.457 497.824L523.837 491.328H525.195L522.185 499H520.701L517.691 491.328H519.063L521.457 497.824ZM525.973 495.136C525.973 494.352 526.132 493.666 526.449 493.078C526.766 492.481 527.2 492.019 527.751 491.692C528.311 491.365 528.932 491.202 529.613 491.202C530.285 491.202 530.868 491.347 531.363 491.636C531.858 491.925 532.226 492.289 532.469 492.728V491.328H533.757V499H532.469V497.572C532.217 498.02 531.839 498.393 531.335 498.692C530.84 498.981 530.262 499.126 529.599 499.126C528.918 499.126 528.302 498.958 527.751 498.622C527.2 498.286 526.766 497.815 526.449 497.208C526.132 496.601 525.973 495.911 525.973 495.136ZM532.469 495.15C532.469 494.571 532.352 494.067 532.119 493.638C531.886 493.209 531.568 492.882 531.167 492.658C530.775 492.425 530.341 492.308 529.865 492.308C529.389 492.308 528.955 492.42 528.563 492.644C528.171 492.868 527.858 493.195 527.625 493.624C527.392 494.053 527.275 494.557 527.275 495.136C527.275 495.724 527.392 496.237 527.625 496.676C527.858 497.105 528.171 497.437 528.563 497.67C528.955 497.894 529.389 498.006 529.865 498.006C530.341 498.006 530.775 497.894 531.167 497.67C531.568 497.437 531.886 497.105 532.119 496.676C532.352 496.237 532.469 495.729 532.469 495.15ZM538.626 499.126C538.038 499.126 537.511 499.028 537.044 498.832C536.577 498.627 536.209 498.347 535.938 497.992C535.667 497.628 535.518 497.213 535.49 496.746H536.806C536.843 497.129 537.021 497.441 537.338 497.684C537.665 497.927 538.089 498.048 538.612 498.048C539.097 498.048 539.48 497.941 539.76 497.726C540.04 497.511 540.18 497.241 540.18 496.914C540.18 496.578 540.031 496.331 539.732 496.172C539.433 496.004 538.971 495.841 538.346 495.682C537.777 495.533 537.31 495.383 536.946 495.234C536.591 495.075 536.283 494.847 536.022 494.548C535.77 494.24 535.644 493.839 535.644 493.344C535.644 492.952 535.761 492.593 535.994 492.266C536.227 491.939 536.559 491.683 536.988 491.496C537.417 491.3 537.907 491.202 538.458 491.202C539.307 491.202 539.993 491.417 540.516 491.846C541.039 492.275 541.319 492.863 541.356 493.61H540.082C540.054 493.209 539.891 492.887 539.592 492.644C539.303 492.401 538.911 492.28 538.416 492.28C537.959 492.28 537.595 492.378 537.324 492.574C537.053 492.77 536.918 493.027 536.918 493.344C536.918 493.596 536.997 493.806 537.156 493.974C537.324 494.133 537.529 494.263 537.772 494.366C538.024 494.459 538.369 494.567 538.808 494.688C539.359 494.837 539.807 494.987 540.152 495.136C540.497 495.276 540.791 495.491 541.034 495.78C541.286 496.069 541.417 496.447 541.426 496.914C541.426 497.334 541.309 497.712 541.076 498.048C540.843 498.384 540.511 498.65 540.082 498.846C539.662 499.033 539.177 499.126 538.626 499.126ZM542.748 495.15C542.748 494.357 542.907 493.666 543.224 493.078C543.542 492.481 543.98 492.019 544.54 491.692C545.11 491.365 545.758 491.202 546.486 491.202C547.429 491.202 548.204 491.431 548.81 491.888C549.426 492.345 549.832 492.98 550.028 493.792H548.656C548.526 493.325 548.269 492.957 547.886 492.686C547.513 492.415 547.046 492.28 546.486 492.28C545.758 492.28 545.17 492.532 544.722 493.036C544.274 493.531 544.05 494.235 544.05 495.15C544.05 496.074 544.274 496.788 544.722 497.292C545.17 497.796 545.758 498.048 546.486 498.048C547.046 498.048 547.513 497.917 547.886 497.656C548.26 497.395 548.516 497.021 548.656 496.536H550.028C549.823 497.32 549.412 497.95 548.796 498.426C548.18 498.893 547.41 499.126 546.486 499.126C545.758 499.126 545.11 498.963 544.54 498.636C543.98 498.309 543.542 497.847 543.224 497.25C542.907 496.653 542.748 495.953 542.748 495.15ZM553.002 492.574C553.226 492.135 553.544 491.795 553.954 491.552C554.374 491.309 554.883 491.188 555.48 491.188V492.504H555.144C553.716 492.504 553.002 493.279 553.002 494.828V499H551.728V491.328H553.002V492.574ZM557.609 490.082C557.366 490.082 557.161 489.998 556.993 489.83C556.825 489.662 556.741 489.457 556.741 489.214C556.741 488.971 556.825 488.766 556.993 488.598C557.161 488.43 557.366 488.346 557.609 488.346C557.842 488.346 558.038 488.43 558.197 488.598C558.365 488.766 558.449 488.971 558.449 489.214C558.449 489.457 558.365 489.662 558.197 489.83C558.038 489.998 557.842 490.082 557.609 490.082ZM558.225 491.328V499H556.951V491.328H558.225ZM561.67 492.742C561.922 492.303 562.296 491.939 562.79 491.65C563.294 491.351 563.878 491.202 564.54 491.202C565.222 491.202 565.838 491.365 566.388 491.692C566.948 492.019 567.387 492.481 567.704 493.078C568.022 493.666 568.18 494.352 568.18 495.136C568.18 495.911 568.022 496.601 567.704 497.208C567.387 497.815 566.948 498.286 566.388 498.622C565.838 498.958 565.222 499.126 564.54 499.126C563.887 499.126 563.308 498.981 562.804 498.692C562.31 498.393 561.932 498.025 561.67 497.586V502.64H560.396V491.328H561.67V492.742ZM566.878 495.136C566.878 494.557 566.762 494.053 566.528 493.624C566.295 493.195 565.978 492.868 565.576 492.644C565.184 492.42 564.75 492.308 564.274 492.308C563.808 492.308 563.374 492.425 562.972 492.658C562.58 492.882 562.263 493.213 562.02 493.652C561.787 494.081 561.67 494.581 561.67 495.15C561.67 495.729 561.787 496.237 562.02 496.676C562.263 497.105 562.58 497.437 562.972 497.67C563.374 497.894 563.808 498.006 564.274 498.006C564.75 498.006 565.184 497.894 565.576 497.67C565.978 497.437 566.295 497.105 566.528 496.676C566.762 496.237 566.878 495.724 566.878 495.136ZM571.411 492.378V496.9C571.411 497.273 571.491 497.539 571.649 497.698C571.808 497.847 572.083 497.922 572.475 497.922H573.413V499H572.265C571.556 499 571.024 498.837 570.669 498.51C570.315 498.183 570.137 497.647 570.137 496.9V492.378H569.143V491.328H570.137V489.396H571.411V491.328H573.413V492.378H571.411ZM581.727 489.242C582.791 489.242 583.711 489.443 584.485 489.844C585.269 490.236 585.867 490.801 586.277 491.538C586.697 492.275 586.907 493.143 586.907 494.142C586.907 495.141 586.697 496.009 586.277 496.746C585.867 497.474 585.269 498.034 584.485 498.426C583.711 498.809 582.791 499 581.727 499H578.689V489.242H581.727ZM581.727 497.95C582.987 497.95 583.949 497.619 584.611 496.956C585.274 496.284 585.605 495.346 585.605 494.142C585.605 492.929 585.269 491.981 584.597 491.3C583.935 490.619 582.978 490.278 581.727 490.278H579.963V497.95H581.727ZM595.588 494.87C595.588 495.113 595.574 495.369 595.546 495.64H589.414C589.46 496.396 589.717 496.989 590.184 497.418C590.66 497.838 591.234 498.048 591.906 498.048C592.456 498.048 592.914 497.922 593.278 497.67C593.651 497.409 593.912 497.063 594.062 496.634H595.434C595.228 497.371 594.818 497.973 594.202 498.44C593.586 498.897 592.82 499.126 591.906 499.126C591.178 499.126 590.524 498.963 589.946 498.636C589.376 498.309 588.928 497.847 588.602 497.25C588.275 496.643 588.112 495.943 588.112 495.15C588.112 494.357 588.27 493.661 588.588 493.064C588.905 492.467 589.348 492.009 589.918 491.692C590.496 491.365 591.159 491.202 591.906 491.202C592.634 491.202 593.278 491.361 593.838 491.678C594.398 491.995 594.827 492.434 595.126 492.994C595.434 493.545 595.588 494.17 595.588 494.87ZM594.272 494.604C594.272 494.119 594.164 493.703 593.95 493.358C593.735 493.003 593.441 492.737 593.068 492.56C592.704 492.373 592.298 492.28 591.85 492.28C591.206 492.28 590.655 492.485 590.198 492.896C589.75 493.307 589.493 493.876 589.428 494.604H594.272ZM600.125 497.824L602.505 491.328H603.863L600.853 499H599.369L596.359 491.328H597.731L600.125 497.824ZM612.117 494.87C612.117 495.113 612.103 495.369 612.075 495.64H605.943C605.99 496.396 606.246 496.989 606.713 497.418C607.189 497.838 607.763 498.048 608.435 498.048C608.986 498.048 609.443 497.922 609.807 497.67C610.18 497.409 610.442 497.063 610.591 496.634H611.963C611.758 497.371 611.347 497.973 610.731 498.44C610.115 498.897 609.35 499.126 608.435 499.126C607.707 499.126 607.054 498.963 606.475 498.636C605.906 498.309 605.458 497.847 605.131 497.25C604.804 496.643 604.641 495.943 604.641 495.15C604.641 494.357 604.8 493.661 605.117 493.064C605.434 492.467 605.878 492.009 606.447 491.692C607.026 491.365 607.688 491.202 608.435 491.202C609.163 491.202 609.807 491.361 610.367 491.678C610.927 491.995 611.356 492.434 611.655 492.994C611.963 493.545 612.117 494.17 612.117 494.87ZM610.801 494.604C610.801 494.119 610.694 493.703 610.479 493.358C610.264 493.003 609.97 492.737 609.597 492.56C609.233 492.373 608.827 492.28 608.379 492.28C607.735 492.28 607.184 492.485 606.727 492.896C606.279 493.307 606.022 493.876 605.957 494.604H610.801ZM615.073 488.64V499H613.799V488.64H615.073ZM618.518 492.742C618.77 492.303 619.143 491.939 619.638 491.65C620.142 491.351 620.725 491.202 621.388 491.202C622.069 491.202 622.685 491.365 623.236 491.692C623.796 492.019 624.235 492.481 624.552 493.078C624.869 493.666 625.028 494.352 625.028 495.136C625.028 495.911 624.869 496.601 624.552 497.208C624.235 497.815 623.796 498.286 623.236 498.622C622.685 498.958 622.069 499.126 621.388 499.126C620.735 499.126 620.156 498.981 619.652 498.692C619.157 498.393 618.779 498.025 618.518 497.586V502.64H617.244V491.328H618.518V492.742ZM623.726 495.136C623.726 494.557 623.609 494.053 623.376 493.624C623.143 493.195 622.825 492.868 622.424 492.644C622.032 492.42 621.598 492.308 621.122 492.308C620.655 492.308 620.221 492.425 619.82 492.658C619.428 492.882 619.111 493.213 618.868 493.652C618.635 494.081 618.518 494.581 618.518 495.15C618.518 495.729 618.635 496.237 618.868 496.676C619.111 497.105 619.428 497.437 619.82 497.67C620.221 497.894 620.655 498.006 621.122 498.006C621.598 498.006 622.032 497.894 622.424 497.67C622.825 497.437 623.143 497.105 623.376 496.676C623.609 496.237 623.726 495.724 623.726 495.136ZM633.705 494.87C633.705 495.113 633.691 495.369 633.663 495.64H627.531C627.578 496.396 627.834 496.989 628.301 497.418C628.777 497.838 629.351 498.048 630.023 498.048C630.574 498.048 631.031 497.922 631.395 497.67C631.768 497.409 632.03 497.063 632.179 496.634H633.551C633.346 497.371 632.935 497.973 632.319 498.44C631.703 498.897 630.938 499.126 630.023 499.126C629.295 499.126 628.642 498.963 628.063 498.636C627.494 498.309 627.046 497.847 626.719 497.25C626.392 496.643 626.229 495.943 626.229 495.15C626.229 494.357 626.388 493.661 626.705 493.064C627.022 492.467 627.466 492.009 628.035 491.692C628.614 491.365 629.276 491.202 630.023 491.202C630.751 491.202 631.395 491.361 631.955 491.678C632.515 491.995 632.944 492.434 633.243 492.994C633.551 493.545 633.705 494.17 633.705 494.87ZM632.389 494.604C632.389 494.119 632.282 493.703 632.067 493.358C631.852 493.003 631.558 492.737 631.185 492.56C630.821 492.373 630.415 492.28 629.967 492.28C629.323 492.28 628.772 492.485 628.315 492.896C627.867 493.307 627.61 493.876 627.545 494.604H632.389ZM636.661 492.574C636.885 492.135 637.202 491.795 637.613 491.552C638.033 491.309 638.541 491.188 639.139 491.188V492.504H638.803C637.375 492.504 636.661 493.279 636.661 494.828V499H635.387V491.328H636.661V492.574Z" fill="#E27C00"/>
</g>
<defs>
<filter id="filter0_d_178_3764" x="314.808" y="5" width="210" height="93" filterUnits="userSpaceOnUse" color-interpolation-filters="sRGB">
<feFlood flood-opacity="0" result="BackgroundImageFix"/>
<feColorMatrix in="SourceAlpha" type="matrix" values="0 0 0 0 0 0 0 0 0 0 0 0 0 0 0 0 0 0 127 0" result="hardAlpha"/>
<feOffset dy="15"/>
<feGaussianBlur stdDeviation="15"/>
<feColorMatrix type="matrix" values="0 0 0 0 0.243137 0 0 0 0 0.0745098 0 0 0 0 0.301961 0 0 0 0.09 0"/>
<feBlend mode="normal" in2="BackgroundImageFix" result="effect1_dropShadow_178_3764"/>
<feBlend mode="normal" in="SourceGraphic" in2="effect1_dropShadow_178_3764" result="shape"/>
</filter>
<filter id="filter1_d_178_3764" x="478.808" y="153" width="139" height="93" filterUnits="userSpaceOnUse" color-interpolation-filters="sRGB">
<feFlood flood-opacity="0" result="BackgroundImageFix"/>
<feColorMatrix in="SourceAlpha" type="matrix" values="0 0 0 0 0 0 0 0 0 0 0 0 0 0 0 0 0 0 127 0" result="hardAlpha"/>
<feOffset dy="15"/>
<feGaussianBlur stdDeviation="15"/>
<feColorMatrix type="matrix" values="0 0 0 0 0.243137 0 0 0 0 0.0745098 0 0 0 0 0.301961 0 0 0 0.09 0"/>
<feBlend mode="normal" in2="BackgroundImageFix" result="effect1_dropShadow_178_3764"/>
<feBlend mode="normal" in="SourceGraphic" in2="effect1_dropShadow_178_3764" result="shape"/>
</filter>
<filter id="filter2_d_178_3764" x="0.359375" y="206" width="207" height="93" filterUnits="userSpaceOnUse" color-interpolation-filters="sRGB">
<feFlood flood-opacity="0" result="BackgroundImageFix"/>
<feColorMatrix in="SourceAlpha" type="matrix" values="0 0 0 0 0 0 0 0 0 0 0 0 0 0 0 0 0 0 127 0" result="hardAlpha"/>
<feOffset dy="15"/>
<feGaussianBlur stdDeviation="15"/>
<feColorMatrix type="matrix" values="0 0 0 0 0.243137 0 0 0 0 0.0745098 0 0 0 0 0.301961 0 0 0 0.09 0"/>
<feBlend mode="normal" in2="BackgroundImageFix" result="effect1_dropShadow_178_3764"/>
<feBlend mode="normal" in="SourceGraphic" in2="effect1_dropShadow_178_3764" result="shape"/>
</filter>
<filter id="filter3_d_178_3764" x="96.8184" y="341" width="228" height="93" filterUnits="userSpaceOnUse" color-interpolation-filters="sRGB">
<feFlood flood-opacity="0" result="BackgroundImageFix"/>
<feColorMatrix in="SourceAlpha" type="matrix" values="0 0 0 0 0 0 0 0 0 0 0 0 0 0 0 0 0 0 127 0" result="hardAlpha"/>
<feOffset dy="15"/>
<feGaussianBlur stdDeviation="15"/>
<feColorMatrix type="matrix" values="0 0 0 0 0.243137 0 0 0 0 0.0745098 0 0 0 0 0.301961 0 0 0 0.09 0"/>
<feBlend mode="normal" in2="BackgroundImageFix" result="effect1_dropShadow_178_3764"/>
<feBlend mode="normal" in="SourceGraphic" in2="effect1_dropShadow_178_3764" result="shape"/>
</filter>
<filter id="filter4_d_178_3764" x="456.639" y="463" width="227" height="93" filterUnits="userSpaceOnUse" color-interpolation-filters="sRGB">
<feFlood flood-opacity="0" result="BackgroundImageFix"/>
<feColorMatrix in="SourceAlpha" type="matrix" values="0 0 0 0 0 0 0 0 0 0 0 0 0 0 0 0 0 0 127 0" result="hardAlpha"/>
<feOffset dy="15"/>
<feGaussianBlur stdDeviation="15"/>
<feColorMatrix type="matrix" values="0 0 0 0 0.243137 0 0 0 0 0.0745098 0 0 0 0 0.301961 0 0 0 0.09 0"/>
<feBlend mode="normal" in2="BackgroundImageFix" result="effect1_dropShadow_178_3764"/>
<feBlend mode="normal" in="SourceGraphic" in2="effect1_dropShadow_178_3764" result="shape"/>
</filter>
<clipPath id="clip0_178_3764">
<rect width="55.4804" height="56" fill="white" transform="translate(314.402 239)"/>
</clipPath>
<clipPath id="clip1_178_3764">
<rect width="24" height="24" fill="white" transform="translate(344.808 37.5731) rotate(140)"/>
</clipPath>
<clipPath id="clip2_178_3764">
<rect x="450.996" y="197" width="24" height="24" rx="4" fill="white"/>
</clipPath>
<clipPath id="clip3_178_3764">
<rect width="24" height="24" fill="white" transform="translate(508.808 185.573) rotate(140)"/>
</clipPath>
<clipPath id="clip4_178_3764">
<rect width="24" height="24" fill="white" transform="matrix(0.642788 -0.766044 -0.766044 -0.642788 195.744 234.812)"/>
</clipPath>
<clipPath id="clip5_178_3764">
<rect width="24" height="24" fill="white" transform="matrix(0.766044 0.642788 0.642788 -0.766044 294.818 373.573)"/>
</clipPath>
<clipPath id="clip6_178_3764">
<rect width="24" height="24" fill="white" transform="translate(330.63 383)"/>
</clipPath>
<clipPath id="clip7_178_3764">
<rect width="21" height="25" fill="white" transform="translate(431.827 438)"/>
</clipPath>
<clipPath id="clip8_178_3764">
<rect width="24" height="24" fill="white" transform="translate(468.254 491.812) rotate(-130)"/>
</clipPath>
</defs>
</svg>
