<svg width="21" height="20" viewBox="0 0 21 20" fill="none" xmlns="http://www.w3.org/2000/svg">
<path d="M10.4993 9.58341C9.94682 9.58341 9.41691 9.36392 9.02621 8.97322C8.63551 8.58252 8.41602 8.05262 8.41602 7.50008C8.41602 6.94755 8.63551 6.41764 9.02621 6.02694C9.41691 5.63624 9.94682 5.41675 10.4993 5.41675C11.0519 5.41675 11.5818 5.63624 11.9725 6.02694C12.3632 6.41764 12.5827 6.94755 12.5827 7.50008C12.5827 7.77367 12.5288 8.04458 12.4241 8.29734C12.3194 8.5501 12.1659 8.77977 11.9725 8.97322C11.779 9.16668 11.5494 9.32013 11.2966 9.42483C11.0438 9.52953 10.7729 9.58341 10.4993 9.58341ZM10.4993 1.66675C8.95225 1.66675 7.46852 2.28133 6.37456 3.37529C5.2806 4.46925 4.66602 5.95299 4.66602 7.50008C4.66602 11.8751 10.4993 18.3334 10.4993 18.3334C10.4993 18.3334 16.3327 11.8751 16.3327 7.50008C16.3327 5.95299 15.7181 4.46925 14.6241 3.37529C13.5302 2.28133 12.0464 1.66675 10.4993 1.66675Z" fill="#00C95A"/>
</svg>
