<svg width="21" height="20" viewBox="0 0 21 20" fill="none" xmlns="http://www.w3.org/2000/svg">
<path d="M19 10C19 12.1217 18.1571 14.1566 16.6569 15.6569C15.1566 17.1571 13.1217 18 11 18C8.87827 18 6.84344 17.1571 5.34315 15.6569C3.84285 14.1566 3 12.1217 3 10M19 10C19 7.87827 18.1571 5.84344 16.6569 4.34315C15.1566 2.84285 13.1217 2 11 2C8.87827 2 6.84344 2.84285 5.34315 4.34315C3.84285 5.84344 3 7.87827 3 10M19 10H3" stroke="#00C95A" stroke-linecap="round" stroke-linejoin="round"/>
<path d="M14.0777 10C13.9265 12.9255 12.849 15.7272 11.0008 18C9.15253 15.7272 8.07496 12.9255 7.92383 10C8.07496 7.07447 9.15253 4.2728 11.0008 2C12.849 4.2728 13.9265 7.07447 14.0777 10Z" stroke="#00C95A" stroke-linecap="round" stroke-linejoin="round"/>
</svg>
