<svg width="15" height="18" viewBox="0 0 15 18" fill="none" xmlns="http://www.w3.org/2000/svg">
<path d="M1.875 1.5H9.21875C9.65 1.5 10 1.85 10 2.28125V7.75C10 7.91576 10.0658 8.07473 10.1831 8.19194C10.3003 8.30915 10.4592 8.375 10.625 8.375H12.9688C13.4 8.375 13.75 8.725 13.75 9.15625V16.5H11.875V14.3125C11.875 14.0639 11.7762 13.8254 11.6004 13.6496C11.4246 13.4738 11.1861 13.375 10.9375 13.375H4.0625C3.81386 13.375 3.5754 13.4738 3.39959 13.6496C3.22377 13.8254 3.125 14.0639 3.125 14.3125V16.5H1.25V2.125C1.25 1.95924 1.31585 1.80027 1.43306 1.68306C1.55027 1.56585 1.70924 1.5 1.875 1.5ZM10.625 16.5H8.125V14.625H10.625V16.5ZM6.875 16.5H4.375V14.625H6.875V16.5ZM14.375 17.75C14.5408 17.75 14.6997 17.6842 14.8169 17.5669C14.9342 17.4497 15 17.2908 15 17.125V9.15625C15 8.8895 14.9475 8.62537 14.8454 8.37892C14.7433 8.13248 14.5937 7.90856 14.4051 7.71994C14.2164 7.53132 13.9925 7.3817 13.7461 7.27962C13.4996 7.17754 13.2355 7.125 12.9688 7.125H11.25V2.28125C11.25 2.0145 11.1975 1.75037 11.0954 1.50392C10.9933 1.25748 10.8437 1.03356 10.6551 0.844939C10.4664 0.65632 10.2425 0.5067 9.99608 0.40462C9.74963 0.30254 9.4855 0.25 9.21875 0.25H1.875C1.37772 0.25 0.900806 0.447544 0.549175 0.799175C0.197544 1.15081 0 1.62772 0 2.125V17.125C0 17.2908 0.0658481 17.4497 0.183058 17.5669C0.300269 17.6842 0.45924 17.75 0.625 17.75H14.375ZM4.0625 5.25C4.31114 5.25 4.5496 5.15123 4.72541 4.97541C4.90123 4.7996 5 4.56114 5 4.3125C5 4.06386 4.90123 3.8254 4.72541 3.64959C4.5496 3.47377 4.31114 3.375 4.0625 3.375C3.81386 3.375 3.5754 3.47377 3.39959 3.64959C3.22377 3.8254 3.125 4.06386 3.125 4.3125C3.125 4.56114 3.22377 4.7996 3.39959 4.97541C3.5754 5.15123 3.81386 5.25 4.0625 5.25ZM4.0625 8.375C4.31114 8.375 4.5496 8.27623 4.72541 8.10041C4.90123 7.9246 5 7.68614 5 7.4375C5 7.18886 4.90123 6.9504 4.72541 6.77459C4.5496 6.59877 4.31114 6.5 4.0625 6.5C3.81386 6.5 3.5754 6.59877 3.39959 6.77459C3.22377 6.9504 3.125 7.18886 3.125 7.4375C3.125 7.68614 3.22377 7.9246 3.39959 8.10041C3.5754 8.27623 3.81386 8.375 4.0625 8.375ZM5 10.5625C5 10.8111 4.90123 11.0496 4.72541 11.2254C4.5496 11.4012 4.31114 11.5 4.0625 11.5C3.81386 11.5 3.5754 11.4012 3.39959 11.2254C3.22377 11.0496 3.125 10.8111 3.125 10.5625C3.125 10.3139 3.22377 10.0754 3.39959 9.89959C3.5754 9.72377 3.81386 9.625 4.0625 9.625C4.31114 9.625 4.5496 9.72377 4.72541 9.89959C4.90123 10.0754 5 10.3139 5 10.5625ZM7.1875 5.25C7.43614 5.25 7.6746 5.15123 7.85041 4.97541C8.02623 4.7996 8.125 4.56114 8.125 4.3125C8.125 4.06386 8.02623 3.8254 7.85041 3.64959C7.6746 3.47377 7.43614 3.375 7.1875 3.375C6.93886 3.375 6.7004 3.47377 6.52459 3.64959C6.34877 3.8254 6.25 4.06386 6.25 4.3125C6.25 4.56114 6.34877 4.7996 6.52459 4.97541C6.7004 5.15123 6.93886 5.25 7.1875 5.25ZM8.125 7.4375C8.125 7.68614 8.02623 7.9246 7.85041 8.10041C7.6746 8.27623 7.43614 8.375 7.1875 8.375C6.93886 8.375 6.7004 8.27623 6.52459 8.10041C6.34877 7.9246 6.25 7.68614 6.25 7.4375C6.25 7.18886 6.34877 6.9504 6.52459 6.77459C6.7004 6.59877 6.93886 6.5 7.1875 6.5C7.43614 6.5 7.6746 6.59877 7.85041 6.77459C8.02623 6.9504 8.125 7.18886 8.125 7.4375ZM7.1875 11.5C7.43614 11.5 7.6746 11.4012 7.85041 11.2254C8.02623 11.0496 8.125 10.8111 8.125 10.5625C8.125 10.3139 8.02623 10.0754 7.85041 9.89959C7.6746 9.72377 7.43614 9.625 7.1875 9.625C6.93886 9.625 6.7004 9.72377 6.52459 9.89959C6.34877 10.0754 6.25 10.3139 6.25 10.5625C6.25 10.8111 6.34877 11.0496 6.52459 11.2254C6.7004 11.4012 6.93886 11.5 7.1875 11.5ZM11.25 10.5625C11.25 10.8111 11.1512 11.0496 10.9754 11.2254C10.7996 11.4012 10.5611 11.5 10.3125 11.5C10.0639 11.5 9.8254 11.4012 9.64959 11.2254C9.47377 11.0496 9.375 10.8111 9.375 10.5625C9.375 10.3139 9.47377 10.0754 9.64959 9.89959C9.8254 9.72377 10.0639 9.625 10.3125 9.625C10.5611 9.625 10.7996 9.72377 10.9754 9.89959C11.1512 10.0754 11.25 10.3139 11.25 10.5625Z" fill="#00C95A"/>
</svg>
