<svg width="137" height="168" viewBox="0 0 137 168" fill="none" xmlns="http://www.w3.org/2000/svg">
<path d="M0 167.25C3.27419 137.663 10.3137 77.3225 12.2782 72.6621L23.3286 95.9642C46.0433 113.032 91.7489 147.811 92.854 150.387C93.959 152.962 31.4118 162.702 0 167.25Z" fill="#018343"/>
<path d="M67.0703 82.9806C68.7074 68.1869 72.2272 38.0167 73.2094 35.6865L78.7346 47.3376C90.092 55.8715 112.945 73.2612 113.497 74.549C114.05 75.8367 82.7762 80.7066 67.0703 82.9806Z" fill="#018343"/>
<path d="M113.506 23.6478C114.324 16.3854 116.084 1.57459 116.575 0.430664L119.338 6.15028C125.017 10.3396 136.443 18.8764 136.719 19.5086C136.996 20.1408 121.359 22.5314 113.506 23.6478Z" fill="#018343"/>
</svg>
