<svg width="145" height="224" viewBox="0 0 145 224" fill="none" xmlns="http://www.w3.org/2000/svg">
<path d="M144.316 223.431C139.228 177.4 128.289 83.5249 125.236 76.2744L108.064 112.527C72.7656 139.08 1.73952 193.188 0.0222931 197.195C-1.69493 201.202 95.5029 216.355 144.316 223.431Z" fill="#018343"/>
<path d="M98.0469 92.9696C96.2306 76.5566 92.3256 43.0843 91.2358 40.499L85.1059 53.4253C72.5054 62.8933 47.1513 82.1864 46.5383 83.615C45.9253 85.0437 80.6219 90.4467 98.0469 92.9696Z" fill="#018343"/>
<path d="M60.8398 46.2236C59.9317 38.0171 57.9792 21.2809 57.4343 19.9883L54.3693 26.4514C48.0691 31.1854 35.3921 40.8319 35.0856 41.5463C34.7791 42.2606 52.1274 44.9621 60.8398 46.2236Z" fill="#018343"/>
<path d="M35.082 13.3098C34.628 9.28116 33.6517 1.06523 33.3793 0.430664L31.8468 3.60348C28.6967 5.92744 22.3581 10.663 22.2049 11.0137C22.0516 11.3644 30.7258 12.6906 35.082 13.3098Z" fill="#018343"/>
</svg>
