<svg width="1561" height="812" viewBox="0 0 1561 812" fill="none" xmlns="http://www.w3.org/2000/svg">
<path d="M1151 469.499L1146.67 472.004L1151 469.499ZM1036 532.499L1032.52 536.094L1032.7 536.267L1032.9 536.422L1036 532.499ZM1527.54 1.96373C1525.58 0.0111122 1522.42 0.0111122 1520.46 1.96373L1488.64 33.7835C1486.69 35.7362 1486.69 38.902 1488.64 40.8546C1490.6 42.8072 1493.76 42.8072 1495.72 40.8546L1524 12.5703L1552.28 40.8546C1554.24 42.8072 1557.4 42.8072 1559.36 40.8546C1561.31 38.902 1561.31 35.7362 1559.36 33.7835L1527.54 1.96373ZM-4.28109 404.582C220.898 777.787 540.719 847.036 789.308 796.524C913.423 771.305 1019.89 716.221 1087.94 654.179C1121.95 623.168 1146.6 590.21 1158.9 558.131C1171.23 525.959 1171.2 494.415 1155.33 466.995L1146.67 472.004C1160.68 496.208 1161.09 524.477 1149.56 554.552C1138 584.718 1114.49 616.439 1081.2 646.789C1014.65 707.466 909.889 761.819 787.317 786.724C542.531 836.463 227.102 768.712 4.28109 399.416L-4.28109 404.582ZM1155.33 466.995C1140.34 441.1 1121.04 427.861 1101.13 424.221C1081.35 420.606 1061.75 426.612 1046.31 437.686C1030.89 448.74 1019.2 465.134 1015.45 482.957C1011.67 500.996 1016.12 520.229 1032.52 536.094L1039.48 528.905C1025.63 515.519 1022.13 499.815 1025.24 485.011C1028.39 469.989 1038.44 455.633 1052.13 445.813C1065.8 436.011 1082.7 431.018 1099.33 434.058C1115.84 437.076 1132.87 448.149 1146.67 472.004L1155.33 466.995ZM1032.9 536.422C1107.55 595.425 1232.04 603.879 1337.51 526.722C1443.08 449.503 1529 287.164 1529 5.49927H1519C1519 285.334 1433.67 443.995 1331.61 518.651C1229.46 593.37 1109.95 584.573 1039.1 528.577L1032.9 536.422Z" fill="#00954C"/>
</svg>
