<svg width="25" height="24" viewBox="0 0 25 24" fill="none" xmlns="http://www.w3.org/2000/svg">
<path d="M22.8574 5.5V19C22.8574 20.657 18.3804 22 12.8574 22C7.33442 22 2.85742 20.657 2.85742 19V5.5" stroke="white" stroke-width="2" stroke-linecap="round" stroke-linejoin="round"/>
<path d="M22.8574 14.5C22.8574 16.157 18.3804 17.5 12.8574 17.5C7.33442 17.5 2.85742 16.157 2.85742 14.5M22.8574 10C22.8574 11.657 18.3804 13 12.8574 13C7.33442 13 2.85742 11.657 2.85742 10" stroke="white" stroke-width="2" stroke-linecap="round" stroke-linejoin="round"/>
<path d="M12.8574 8C18.3803 8 22.8574 6.65685 22.8574 5C22.8574 3.34315 18.3803 2 12.8574 2C7.33457 2 2.85742 3.34315 2.85742 5C2.85742 6.65685 7.33457 8 12.8574 8Z" fill="white" stroke="white" stroke-width="2" stroke-linecap="round" stroke-linejoin="round"/>
</svg>
