<svg width="25" height="24" viewBox="0 0 25 24" fill="none" xmlns="http://www.w3.org/2000/svg">
<path fill-rule="evenodd" clip-rule="evenodd" d="M22.3213 17C22.3213 18.2598 21.8208 19.468 20.93 20.3588C20.0392 21.2496 18.8311 21.75 17.5713 21.75H7.57129C6.31151 21.75 5.10333 21.2496 4.21253 20.3588C3.32173 19.468 2.82129 18.2598 2.82129 17V7C2.82129 5.74022 3.32173 4.53204 4.21253 3.64124C5.10333 2.75044 6.31151 2.25 7.57129 2.25H17.5713C18.8311 2.25 20.0392 2.75044 20.93 3.64124C21.8208 4.53204 22.3213 5.74022 22.3213 7V17ZM7.57129 16.75C7.37238 16.75 7.18161 16.671 7.04096 16.5303C6.90031 16.3897 6.82129 16.1989 6.82129 16V8C6.82129 7.80109 6.90031 7.61032 7.04096 7.46967C7.18161 7.32902 7.37238 7.25 7.57129 7.25H9.57129C10.3006 7.25 11.0001 7.53973 11.5158 8.05546C12.0316 8.57118 12.3213 9.27065 12.3213 10C12.3213 10.7293 12.0316 11.4288 11.5158 11.9445C11.0001 12.4603 10.3006 12.75 9.57129 12.75H8.32129V16C8.32129 16.1989 8.24227 16.3897 8.10162 16.5303C7.96097 16.671 7.7702 16.75 7.57129 16.75ZM8.32129 11.25H9.57129C9.90281 11.25 10.2208 11.1183 10.4552 10.8839C10.6896 10.6495 10.8213 10.3315 10.8213 10C10.8213 9.66848 10.6896 9.35054 10.4552 9.11612C10.2208 8.8817 9.90281 8.75 9.57129 8.75H8.32129V11.25ZM16.9003 11.335C16.9438 11.4239 17.0045 11.5033 17.0789 11.5686C17.1532 11.634 17.2398 11.6839 17.3335 11.7157C17.4273 11.7474 17.5264 11.7602 17.6252 11.7535C17.7239 11.7467 17.8203 11.7205 17.9089 11.6762C17.9975 11.632 18.0764 11.5707 18.1411 11.4959C18.2059 11.421 18.2552 11.3341 18.2862 11.24C18.3172 11.146 18.3293 11.0468 18.3217 10.9481C18.3142 10.8494 18.2872 10.7532 18.2423 10.665C18.0296 10.2398 17.7028 9.88213 17.2983 9.63221C16.8938 9.38228 16.4277 9.24994 15.9523 9.25H15.5713C14.9746 9.25 14.4023 9.48705 13.9803 9.90901C13.5583 10.331 13.3213 10.9033 13.3213 11.5C13.3213 12.0967 13.5583 12.669 13.9803 13.091C14.4023 13.5129 14.9746 13.75 15.5713 13.75H16.0713C16.2702 13.75 16.461 13.829 16.6016 13.9697C16.7423 14.1103 16.8213 14.3011 16.8213 14.5C16.8213 14.6989 16.7423 14.8897 16.6016 15.0303C16.461 15.171 16.2702 15.25 16.0713 15.25H15.6893C15.4927 15.2499 15.3001 15.1951 15.1328 15.0918C14.9656 14.9885 14.8304 14.8407 14.7423 14.665C14.6525 14.4886 14.4967 14.3549 14.3087 14.2929C14.1208 14.231 13.9159 14.2458 13.7389 14.3342C13.5618 14.4226 13.4269 14.5774 13.3635 14.7649C13.3 14.9523 13.3133 15.1573 13.4003 15.335C13.6128 15.7602 13.9395 16.1178 14.3438 16.3677C14.7481 16.6176 15.214 16.75 15.6893 16.75H16.0713C16.668 16.75 17.2403 16.5129 17.6623 16.091C18.0842 15.669 18.3213 15.0967 18.3213 14.5C18.3213 13.9033 18.0842 13.331 17.6623 12.909C17.2403 12.4871 16.668 12.25 16.0713 12.25H15.5713C15.3724 12.25 15.1816 12.171 15.041 12.0303C14.9003 11.8897 14.8213 11.6989 14.8213 11.5C14.8213 11.3011 14.9003 11.1103 15.041 10.9697C15.1816 10.829 15.3724 10.75 15.5713 10.75H15.9533C16.3533 10.75 16.7213 10.977 16.9003 11.335Z" fill="white"/>
</svg>
