<svg width="25" height="24" viewBox="0 0 25 24" fill="none" xmlns="http://www.w3.org/2000/svg">
<g clip-path="url(#clip0_91_616)">
<path d="M12.0929 0.152967C12.265 0.0525485 12.4606 -0.000366211 12.6599 -0.000366211C12.8591 -0.000366211 13.0548 0.0525485 13.2269 0.152967L22.5479 5.59047C22.718 5.68939 22.8592 5.83121 22.9574 6.00178C23.0556 6.17234 23.1073 6.36567 23.1074 6.56247V17.4375C23.1073 17.6343 23.0556 17.8276 22.9574 17.9982C22.8592 18.1687 22.718 18.3105 22.5479 18.4095L13.2269 23.847C13.0548 23.9474 12.8591 24.0003 12.6599 24.0003C12.4606 24.0003 12.265 23.9474 12.0929 23.847L9.76337 22.488C9.50558 22.3376 9.31808 22.091 9.24213 21.8023C9.16618 21.5137 9.20799 21.2068 9.35837 20.949C9.50874 20.6912 9.75537 20.5037 10.044 20.4277C10.3326 20.3518 10.6396 20.3936 10.8974 20.544L12.6599 21.573L20.8574 16.791V7.20897L12.6599 2.42697L4.46387 7.20897V16.791L6.13937 17.769C6.65537 17.934 7.29437 17.9745 7.74287 17.7765C7.97765 17.6736 8.17028 17.4937 8.28887 17.2665C8.44487 16.9845 8.58887 16.515 8.58887 15.75V7.87497C8.58887 7.5766 8.70739 7.29045 8.91837 7.07947C9.12935 6.86849 9.4155 6.74997 9.71387 6.74997C10.0122 6.74997 10.2984 6.86849 10.5094 7.07947C10.7203 7.29045 10.8389 7.5766 10.8389 7.87497V15.75C10.8389 16.785 10.6454 17.658 10.2539 18.36C9.89742 19.0149 9.3341 19.5334 8.65187 19.8345C7.44287 20.3685 6.10637 20.1495 5.28887 19.8555C5.22434 19.8322 5.16209 19.8031 5.10287 19.7685L2.77187 18.4095C2.60202 18.3104 2.46111 18.1684 2.36321 17.9979C2.2653 17.8274 2.21381 17.6341 2.21387 17.4375V6.56247C2.21381 6.36581 2.2653 6.17258 2.36321 6.00203C2.46111 5.83148 2.60202 5.68958 2.77187 5.59047L12.0929 0.152967ZM13.0829 7.92447C13.6784 7.21647 14.6084 6.74997 15.8699 6.74997C17.0399 6.74997 17.9324 7.15197 18.5369 7.78947C18.642 7.8961 18.7247 8.02265 18.7803 8.16169C18.8359 8.30073 18.8631 8.44947 18.8605 8.59918C18.8578 8.74889 18.8253 8.89656 18.7648 9.03354C18.7044 9.17052 18.6172 9.29405 18.5083 9.39689C18.3995 9.49973 18.2712 9.57981 18.1311 9.63243C17.9909 9.68506 17.8416 9.70917 17.692 9.70336C17.5424 9.69754 17.3954 9.66192 17.2597 9.59858C17.1241 9.53523 17.0024 9.44544 16.9019 9.33447C16.7684 9.19797 16.4939 8.99997 15.8684 8.99997C15.2054 8.99997 14.9324 9.22197 14.8049 9.37197C14.6734 9.53216 14.5971 9.73048 14.5874 9.93747C14.5874 10.062 14.6414 10.308 14.8049 10.503C14.9324 10.653 15.2054 10.875 15.8699 10.875C15.9775 10.8747 16.0846 10.8898 16.1879 10.92C17.1179 11.055 17.8259 11.472 18.3119 12.0495C18.8699 12.714 19.0559 13.5 19.0559 14.0625C19.0559 14.625 18.8699 15.411 18.3119 16.0755C17.7164 16.7835 16.7864 17.25 15.5249 17.25C14.3549 17.25 13.4624 16.848 12.8594 16.2105C12.6618 15.9924 12.5576 15.7056 12.569 15.4115C12.5804 15.1175 12.7066 14.8396 12.9205 14.6375C13.1344 14.4354 13.4189 14.3252 13.7131 14.3304C14.0073 14.3356 14.2878 14.4559 14.4944 14.6655C14.6249 14.8035 14.9009 15 15.5249 15C16.1879 15 16.4624 14.778 16.5899 14.628C16.7208 14.4676 16.7965 14.2693 16.8059 14.0625C16.7961 13.8555 16.7198 13.6572 16.5884 13.497C16.4624 13.347 16.1879 13.125 15.5249 13.125C15.4168 13.1254 15.3092 13.1102 15.2054 13.08C14.2754 12.945 13.5674 12.528 13.0829 11.9505C12.6104 11.3851 12.3471 10.6742 12.3374 9.93747C12.3374 9.37497 12.5234 8.58897 13.0829 7.92447Z" fill="white"/>
</g>
<defs>
<clipPath id="clip0_91_616">
<rect width="24" height="24" fill="white" transform="translate(0.713867)"/>
</clipPath>
</defs>
</svg>
