<svg width="25" height="24" viewBox="0 0 25 24" fill="none" xmlns="http://www.w3.org/2000/svg">
<g clip-path="url(#clip0_91_601)">
<path d="M18.5176 0H5.76758C2.66098 0 0.142578 2.5184 0.142578 5.625V18.375C0.142578 21.4816 2.66098 24 5.76758 24H18.5176C21.6242 24 24.1426 21.4816 24.1426 18.375V5.625C24.1426 2.5184 21.6242 0 18.5176 0Z" fill="white"/>
<path d="M10.7072 4.78125H13.3898V17.1984C12.0137 17.4597 11.0033 17.5643 9.90598 17.5643C6.63092 17.5642 4.92383 16.0837 4.92383 13.2442C4.92383 10.5092 6.73555 8.73253 9.54008 8.73253C9.97555 8.73253 10.3065 8.76722 10.7072 8.87175V4.78125ZM10.7072 11.0317C10.3937 10.9273 10.1324 10.8924 9.80145 10.8924C8.44273 10.8924 7.6587 11.7286 7.6587 13.1918C7.6587 14.6203 8.40786 15.4042 9.78402 15.4042C10.08 15.4042 10.324 15.3867 10.7072 15.3346V11.0317Z" fill="#018343"/>
<path d="M17.6578 8.92397V15.1426C17.6578 17.2853 17.5011 18.313 17.0307 19.2015C16.5952 20.0552 16.0203 20.5951 14.8358 21.1874L12.3447 20.0028C13.5293 19.4454 14.1041 18.9578 14.4699 18.2085C14.8532 17.4421 14.9753 16.5536 14.9753 14.2194V8.92388L17.6578 8.92397ZM14.9753 4.79541H17.6578V7.54772H14.9753V4.79541Z" fill="#018343"/>
</g>
<defs>
<clipPath id="clip0_91_601">
<rect width="24" height="24" fill="white" transform="translate(0.142578)"/>
</clipPath>
</defs>
</svg>
