<svg width="25" height="24" viewBox="0 0 25 24" fill="none" xmlns="http://www.w3.org/2000/svg">
<path opacity="0.6" d="M11.9527 2H8.61866C7.73456 2 6.88667 2.35121 6.26152 2.97636C5.63636 3.60151 5.28516 4.4494 5.28516 5.3335C5.28516 6.2176 5.63636 7.06549 6.26152 7.69064C6.88667 8.31579 7.73456 8.667 8.61866 8.667H11.9527V2Z" fill="white"/>
<path opacity="0.4" d="M11.9527 8.66602H8.61866C7.73456 8.66602 6.88667 9.01722 6.26152 9.64237C5.63636 10.2675 5.28516 11.1154 5.28516 11.9995C5.28516 12.8836 5.63636 13.7315 6.26152 14.3567C6.88667 14.9818 7.73456 15.333 8.61866 15.333H11.9527V8.66602Z" fill="white"/>
<path d="M18.6191 12C18.6191 12.8841 18.2679 13.732 17.6428 14.3571C17.0176 14.9823 16.1697 15.3335 15.2856 15.3335C14.4015 15.3335 13.5537 14.9823 12.9285 14.3571C12.3034 13.732 11.9521 12.8841 11.9521 12C11.9521 11.1159 12.3034 10.268 12.9285 9.64286C13.5537 9.01771 14.4015 8.6665 15.2856 8.6665C16.1697 8.6665 17.0176 9.01771 17.6428 9.64286C18.2679 10.268 18.6191 11.1159 18.6191 12Z" fill="white"/>
<path opacity="0.2" d="M8.61911 15.334H11.9531V18.667C11.9529 19.3261 11.7573 19.9704 11.391 20.5183C11.0247 21.0663 10.5041 21.4933 9.89513 21.7455C9.28615 21.9976 8.61608 22.0636 7.96963 21.9349C7.32318 21.8063 6.72939 21.4889 6.26332 21.0228C5.79726 20.5567 5.47984 19.9629 5.3512 19.3165C5.22257 18.67 5.28849 18 5.54063 17.391C5.79277 16.782 6.21982 16.2614 6.76777 15.8951C7.31573 15.5288 7.95999 15.3342 8.61911 15.334Z" fill="white"/>
<path opacity="0.8" d="M11.9521 2H15.2851C16.1692 2 17.0171 2.35121 17.6423 2.97636C18.2674 3.60151 18.6186 4.4494 18.6186 5.3335C18.6186 6.2176 18.2674 7.06549 17.6423 7.69064C17.0171 8.31579 16.1692 8.667 15.2851 8.667H11.9521V2Z" fill="white"/>
</svg>
